<svg version="1.1" xmlns="http://www.w3.org/2000/svg" viewBox="0 0 298 547.6591186523438" width="298" height="547.6591186523438">
  <!-- svg-source:excalidraw -->
  
  <defs>
    <style>
      @font-face {
        font-family: "Virgil";
        src: url("Virgil.woff2");
      }
      @font-face {
        font-family: "Cascadia";
        src: url("https://excalidraw.com/Cascadia.woff2");
      }
    </style>
  </defs>
  <rect x="0" y="0" width="298" height="547.6591186523438" fill="#ffffff" ></rect><g stroke-linecap="round" transform="translate(53.50091552734375 94.03314208984375) rotate(0 92.51336669921875 48.45025634765625)"><path d="M0.14 -2.38 C39.08 1.39, 78.57 -3.54, 183.44 -3.18 M1.01 1.82 C42.98 -3.32, 88.18 -3.58, 183.4 1.18 M182.73 1.37 C186.16 26.15, 185.96 48.29, 181.81 94.65 M185.48 -0.16 C186.2 38.13, 183.99 74.85, 184.42 96.32 M184.64 99.59 C115.91 97.54, 41.92 96.55, -1.38 97.14 M184.99 96.65 C126.13 96.49, 69.68 95.79, 1.84 96.55 M-1.73 99.96 C-0.63 66.93, 0.41 33.41, -3.71 -3.35 M-0.19 94.99 C-0.38 76.91, -0.32 55.33, -1.18 -0.84" stroke="#c92a2a" stroke-width="1" fill="none"></path></g><g stroke-linecap="round" transform="translate(53.71881103515625 257.8658447265625) rotate(0 89.7381591796875 52.3616943359375)"><path d="M2.69 1.49 C61.44 -1.56, 119.93 -1.04, 179.71 0.39 M-0.25 -1.57 C45.19 -0.62, 89.36 1.92, 179.12 0.52 M182.53 -1.39 C183.07 26.95, 181.12 50.9, 176.13 101.08 M177.56 0.08 C179.1 34.05, 177.76 66.63, 178.64 104.51 M181.02 108.19 C131.78 106.52, 80.45 104.3, 2.2 104.08 M180.8 104.12 C139.54 106.53, 95.43 108.5, -1.44 104.78 M2.04 102.93 C-0.26 68.2, -4.38 28.67, -1.85 -2.67 M0.22 106.06 C-3.29 65.61, -3.24 26, 0.07 -1.79" stroke="#c92a2a" stroke-width="1" fill="none"></path></g><g stroke-linecap="round" transform="translate(47.36846923828125 416.78887939453125) rotate(0 90.1241455078125 60.43511962890625)"><path d="M-2.31 -3.51 C41.01 1.55, 75.37 2.87, 176.8 3.08 M-0.7 0.15 C65.57 3.21, 134.42 4.08, 180.6 1.98 M180.83 -3.83 C181.29 30.41, 180.26 62.07, 182.04 121.02 M181.08 -0.45 C183.36 43.58, 181.94 89.72, 180.67 121.81 M180 119.8 C134.82 119.16, 94.78 116.25, 3.63 121.21 M182.23 121.11 C122.71 119.52, 64.76 116.72, -0.26 119.27 M0.68 117.3 C1.15 80.64, 5.43 33.15, 0.02 1.69 M0.35 122.7 C-0.87 82.43, -3.37 41.8, 0.5 -1.03" stroke="#c92a2a" stroke-width="1" fill="none"></path></g><g stroke-linecap="round"><g transform="translate(135.34332275390625 418.30126953125) rotate(0 -2.356166794002064 -28.104303552210354)"><path d="M-0.51 -0.7 C-0.51 -9.39, -0.4 -42.11, -0.62 -50.81 M-4.23 -3.56 C-4.31 -13.26, -1.68 -47.66, -1.47 -55.5" stroke="#c92a2a" stroke-width="1" fill="none"></path></g><g transform="translate(135.34332275390625 418.30126953125) rotate(0 -2.356166794002064 -28.104303552210354)"><path d="M4.99 -27.21 C4.53 -35.85, -0.56 -47.57, -4.65 -55.75 M7.5 -31.74 C5.92 -37.38, 2.38 -42.88, -3.03 -53.53" stroke="#c92a2a" stroke-width="1" fill="none"></path></g><g transform="translate(135.34332275390625 418.30126953125) rotate(0 -2.356166794002064 -28.104303552210354)"><path d="M-12.6 -28.17 C-8.17 -36.48, -8.38 -47.93, -4.65 -55.75 M-10.09 -32.71 C-6.87 -38.19, -5.61 -43.42, -3.03 -53.53" stroke="#c92a2a" stroke-width="1" fill="none"></path></g></g><g stroke-linecap="round"><g transform="translate(135.19873046875 254.881103515625) rotate(0 -1.1679831378161936 -30.331705524027342)"><path d="M2.54 -1.82 C1.91 -12.61, -4.29 -54.22, -4.87 -64.03 M0.47 3.37 C0.89 -7.22, 1.09 -50.19, 0.78 -61.69" stroke="#c92a2a" stroke-width="1" fill="none"></path></g><g transform="translate(135.19873046875 254.881103515625) rotate(0 -1.1679831378161936 -30.331705524027342)"><path d="M8.69 -35.55 C5.03 -37.03, 7.12 -45.49, -2.63 -59.02 M11.35 -33.07 C6.86 -40.51, 4.88 -47.84, 1.55 -60.54" stroke="#c92a2a" stroke-width="1" fill="none"></path></g><g transform="translate(135.19873046875 254.881103515625) rotate(0 -1.1679831378161936 -30.331705524027342)"><path d="M-11.83 -35.38 C-10.17 -37.27, -2.75 -45.78, -2.63 -59.02 M-9.17 -32.9 C-8.29 -40.48, -4.91 -47.85, 1.55 -60.54" stroke="#c92a2a" stroke-width="1" fill="none"></path></g></g><g transform="translate(59.77374267578125 100.79043579101562) rotate(0 45.2862548828125 17.75931564031862)"><text x="90.572509765625" y="24.518631280637244" font-family="Virgil, Segoe UI Emoji" font-size="28.4149050245098px" fill="#000000" text-anchor="end" style="white-space: pre;" direction="ltr">Object</text></g><g transform="translate(63.98297119140625 134.84933471679688) rotate(0 35 10)"><text x="70" y="14" font-family="Virgil, Segoe UI Emoji" font-size="16px" fill="#999" text-anchor="end" style="white-space: pre;" direction="ltr">.entries()</text></g><g transform="translate(156.8221435546875 133.91806030273438) rotate(0 33 10)"><text x="66" y="14" font-family="Virgil, Segoe UI Emoji" font-size="16px" fill="#999" text-anchor="end" style="white-space: pre;" direction="ltr">.values()</text></g><g transform="translate(68.0887451171875 155.25094604492188) rotate(0 24.5 10)"><text x="49" y="14" font-family="Virgil, Segoe UI Emoji" font-size="16px" fill="#999" text-anchor="end" style="white-space: pre;" direction="ltr">.keys()</text></g><g transform="translate(153.13818359375 109.45742797851562) rotate(0 39.5 10)"><text x="79" y="14" font-family="Virgil, Segoe UI Emoji" font-size="16px" fill="#999" text-anchor="end" style="white-space: pre;" direction="ltr">.toString()</text></g><g transform="translate(163.86676025390625 159.5059814453125) rotate(0 26 10)"><text x="52" y="14" font-family="Virgil, Segoe UI Emoji" font-size="16px" fill="#999" text-anchor="end" style="white-space: pre;" direction="ltr">...etc...</text></g><g transform="translate(62.8204345703125 263.15566238702513) rotate(0 45.5 18)"><text x="91" y="25" font-family="Virgil, Segoe UI Emoji" font-size="28.4149050245098px" fill="#000000" text-anchor="end" style="white-space: pre;" direction="ltr">Person</text></g><g transform="translate(60.88006591796875 426.81740555108763) rotate(0 59.5 18)"><text x="119" y="25" font-family="Virgil, Segoe UI Emoji" font-size="28.4149050245098px" fill="#000000" text-anchor="end" style="white-space: pre;" direction="ltr">Employee</text></g><g transform="translate(71.2845458984375 296.71380615234375) rotate(0 20.5 10)"><text x="41" y="14" font-family="Virgil, Segoe UI Emoji" font-size="16px" fill="#999" text-anchor="end" style="white-space: pre;" direction="ltr">.name</text></g><g transform="translate(145.84942626953125 296.44775390625) rotate(0 33 10)"><text x="66" y="14" font-family="Virgil, Segoe UI Emoji" font-size="16px" fill="#999" text-anchor="end" style="white-space: pre;" direction="ltr">.address</text></g><g transform="translate(69.91021728515625 324.19171142578125) rotate(0 21 10)"><text x="42" y="14" font-family="Virgil, Segoe UI Emoji" font-size="16px" fill="#999" text-anchor="end" style="white-space: pre;" direction="ltr">.email</text></g><g transform="translate(74.92315673828125 464.40240478515625) rotate(0 13.5 10)"><text x="27" y="14" font-family="Virgil, Segoe UI Emoji" font-size="16px" fill="#999" text-anchor="end" style="white-space: pre;" direction="ltr">.job</text></g><g transform="translate(70.00616455078125 494.92083740234375) rotate(0 33 10)"><text x="66" y="14" font-family="Virgil, Segoe UI Emoji" font-size="16px" fill="#999" text-anchor="end" style="white-space: pre;" direction="ltr">.address</text></g><g transform="translate(10 10) rotate(0 139 35)"><text x="278" y="25" font-family="Virgil, Segoe UI Emoji" font-size="28px" fill="#555" text-anchor="end" style="white-space: pre;" direction="ltr">Inheritance Along </text><text x="278" y="60" font-family="Virgil, Segoe UI Emoji" font-size="28px" fill="#555" text-anchor="end" style="white-space: pre;" direction="ltr">the Prototype Chain</text></g></svg>
