<svg version="1.1" xmlns="http://www.w3.org/2000/svg" viewBox="0 0 5416.391320584961 4570.65882843254" width="5416.391320584961" height="4570.65882843254">
  <!-- svg-source:excalidraw -->
  
  <defs>
    <style class="style-fonts">
      @font-face {
        font-family: "Virgil";
        src: url("https://excalidraw.com/Virgil.woff2");
      }
      @font-face {
        font-family: "Cascadia";
        src: url("https://excalidraw.com/Cascadia.woff2");
      }
    </style>
  </defs>
  <rect x="0" y="0" width="5416.391320584961" height="4570.65882843254" fill="#ffffff"></rect><g stroke-linecap="round" transform="translate(10 10) rotate(0 2694.6640902597705 2274.8387271007095)"><path d="M0 0 L5389.33 0 L5389.33 4549.68 L0 4549.68" stroke="none" stroke-width="0" fill="#fff"></path><path d="M0 0 C1100.82 0, 2201.64 0, 5389.33 0 M0 0 C2076.52 0, 4153.05 0, 5389.33 0 M5389.33 0 C5389.33 1696.51, 5389.33 3393.02, 5389.33 4549.68 M5389.33 0 C5389.33 1626.31, 5389.33 3252.62, 5389.33 4549.68 M5389.33 4549.68 C4083.86 4549.68, 2778.39 4549.68, 0 4549.68 M5389.33 4549.68 C3750.1 4549.68, 2110.87 4549.68, 0 4549.68 M0 4549.68 C0 3254.71, 0 1959.74, 0 0 M0 4549.68 C0 2847.48, 0 1145.28, 0 0" stroke="#fa5252" stroke-width="4" fill="none"></path></g><g stroke-linecap="round" transform="translate(17.063140065420157 4051.1843399885192) rotate(0 2694.6640902597705 254.7372442220103)"><path d="M0 0 L5389.33 0 L5389.33 509.47 L0 509.47" stroke="none" stroke-width="0" fill="#eee"></path><path d="M0 0 C2085.56 0, 4171.13 0, 5389.33 0 M0 0 C1570.33 0, 3140.67 0, 5389.33 0 M5389.33 0 C5389.33 128.66, 5389.33 257.32, 5389.33 509.47 M5389.33 0 C5389.33 167.82, 5389.33 335.64, 5389.33 509.47 M5389.33 509.47 C4231.23 509.47, 3073.13 509.47, 0 509.47 M5389.33 509.47 C3357.57 509.47, 1325.82 509.47, 0 509.47 M0 509.47 C0 368.32, 0 227.16, 0 0 M0 509.47 C0 362.22, 0 214.97, 0 0" stroke="#fa5252" stroke-width="2" fill="none"></path></g><g stroke-linecap="round" transform="translate(31.574055863256945 28.425799577609723) rotate(0 2676.70117165644 199.464857686894)"><path d="M-0.2 -0.45 C1708.6 11.01, 3417.21 11.34, 5352.8 -0.07 M-0.07 -0.27 C1701.81 14.42, 3403.5 14.45, 5353.65 -0.19 M5352.86 0.87 C5353.44 120.26, 5353.07 241.47, 5354.06 399.26 M5352.92 -0.11 C5351.36 154.84, 5351.02 311.09, 5352.86 398.45 M5353.21 399.44 C4184.16 409.26, 3016.37 408.43, 0.74 399.55 M5353.55 398.55 C3369.72 391.1, 1385.6 391.02, 0.27 398.84 M0.58 399.96 C1.42 293.98, 2.93 187.71, 0.87 -0.12 M-0.29 398.64 C0.83 283.78, 1.38 168.19, -0.55 0.23" stroke="#000000" stroke-width="1" fill="none"></path></g><g stroke-linecap="round" transform="translate(150.69302326635443 134.5878029592459) rotate(0 157.5854670708104 86.38028039807978)"><path d="M-0.8 0.6 C69.04 1.77, 138.39 -0.5, 315.05 0.25 M-0.48 0.36 C113.13 0.88, 225.97 0.8, 314.83 0.01 M316.7 1.81 C313.71 45.44, 315.22 89.74, 315.76 174.55 M314.98 0.01 C312.98 35.61, 314.62 71.43, 314.32 171.94 M316.08 171.51 C210.81 172.27, 104.68 173.53, 1.09 173.76 M314.5 173.09 C213.74 173.49, 112.02 174.07, -0.16 172.51 M1.81 171.6 C0.22 138.3, -0.58 102.4, -0.22 -0.21 M-0.5 171.82 C-0.31 131.37, -0.61 88.94, 0.41 0.13" stroke="#000000" stroke-width="1" fill="none"></path></g><g stroke-linecap="round"><g transform="translate(217.80759868938185 274.9624405806426) rotate(0 98.79272554315321 -45.124392684923805)"><path d="M-0.68 0.51 C8.77 -8.25, 38.56 -52.47, 56.06 -52.82 C73.57 -53.18, 99.37 -3.64, 104.34 -1.63 C109.3 0.38, 80.68 -25.85, 85.85 -40.77 C91.02 -55.69, 116.86 -97.86, 135.38 -91.16 C153.9 -84.45, 186.56 -15.86, 196.95 -0.53 M1.17 -0.27 C10.53 -9.31, 38.1 -54.32, 55.23 -54.41 C72.36 -54.49, 98.8 -3.26, 103.94 -0.78 C109.08 1.69, 80.99 -24.48, 86.04 -39.55 C91.1 -54.62, 115.57 -98.06, 134.27 -91.19 C152.98 -84.32, 187.52 -13.49, 198.26 1.67" stroke="#000000" stroke-width="1" fill="none"></path></g></g><mask></mask><g stroke-linecap="round" transform="translate(3133.693619074973 181.16172472498147) rotate(0 286.9057682441721 39.36341999154138)"><path d="M0 0 C0 0, 0 0, 0 0 M0 0 C0 0, 0 0, 0 0 M-0.18 6.77 C1.41 3.94, 3.52 1.83, 5.23 0.44 M-0.05 6.3 C1.15 4.24, 3.09 2.38, 5.11 0.12 M1.72 12.7 C2.33 6.66, 6.76 2.33, 11.94 -0.12 M0.81 11.67 C3.71 8.03, 7.74 3.94, 10.02 0.65 M0.3 19.73 C5.19 12.14, 10.35 5.04, 17.07 -0.62 M0.58 17.82 C4.63 12.75, 10.25 4.89, 15.88 1.09 M-0.62 24.41 C8.45 14.01, 15.04 8.37, 22.89 -1.03 M-0.3 25.02 C8.32 15.05, 15.93 7.75, 20.33 0.47 M-1.48 31.6 C5.39 23.89, 12.34 16.43, 26.14 0.34 M-0.62 31.07 C8.15 19.67, 17.23 11.61, 26.41 0.31 M-1.47 35.09 C9.97 26.82, 21.31 13.08, 30.83 1.23 M-0.31 37.77 C9.51 24.45, 20.66 14.73, 31.85 -0.26 M0.7 44.19 C10.27 31, 21.59 16.36, 38.16 -0.35 M0.88 43.45 C9.08 30.58, 20.15 19.55, 37.82 1.12 M-0.35 48.25 C18.02 27.53, 34.69 9.27, 40.57 0 M-0.49 48.7 C9.94 38.98, 18.95 27.45, 43.19 0.4 M0.72 55.47 C11.03 43.02, 18.63 31.06, 47.28 1.29 M0.13 55.43 C10.03 42.28, 21.58 31.11, 47.43 0.6 M1.58 61.23 C19.62 37.45, 40.73 17.39, 54.4 -0.66 M0.11 60.35 C14.16 45.65, 26.32 30.2, 52.94 0.11 M1.58 66.9 C19.19 44.01, 41.38 20.24, 58.43 -1.07 M-0.62 68.1 C17.4 47.68, 34.84 28.85, 57.89 0.22 M-1.37 72.34 C15.04 55.09, 33.32 35.45, 62.39 0.03 M0.47 72.89 C24.83 45.97, 48.86 16.46, 64.56 -0.58 M0.69 77.61 C18.63 56.93, 39 34.22, 69.31 1.97 M0.38 78.43 C27.17 46.76, 53.12 15.64, 68.21 0.87 M7.13 77.56 C32.69 48.77, 57.11 21.68, 76.37 1.59 M5.17 79.82 C32.09 46.34, 60.53 14.7, 75.39 -1.24 M11.79 77.92 C34.08 55.04, 56.03 28.63, 80.41 1.51 M11.3 77.75 C31.94 53.04, 53.96 30.41, 78.78 -0.21 M16.93 80.63 C39.73 52.41, 64.76 24.3, 83.99 0.23 M16.89 79.1 C30.6 62.71, 46.07 43.46, 85.59 -0.53 M21.4 80.77 C43.53 53.7, 67.79 26.82, 88.99 0.4 M22.14 80.13 C36.55 61.43, 53.25 42.24, 90.34 -0.36 M25.44 79.04 C43.4 60.81, 55.4 43.15, 94.65 -1.09 M27.45 78.1 C41.27 61.14, 57.32 43.42, 95.22 -1.24 M33.6 80.2 C50.49 58.42, 68.33 33.43, 99.11 -0.82 M32.56 79.98 C48.15 60.13, 64.8 41.65, 100.97 -0.55 M38.08 77.98 C57.75 57.63, 75.17 34.91, 105.53 1.27 M37.23 78.56 C56.05 55.29, 77.87 31.18, 107.17 -1.25 M42.31 77.27 C70.03 48.97, 98.01 16.99, 111.6 -1.87 M43.11 78.86 C67.66 49.53, 94.44 19.03, 111.14 -0.34 M49.04 78.33 C75.39 47.21, 100.13 18.94, 114.96 -1.54 M49.03 79.58 C75.44 48.22, 102.82 17.44, 115.56 0.19 M51.87 78.97 C77.67 49.53, 105.59 20.39, 122.06 -0.77 M52.88 79.45 C68.88 63.6, 84.01 46.58, 122.66 -0.92 M59.33 78.72 C85.01 51.36, 109.21 21.31, 126.99 0.07 M58.95 78.67 C72.88 63.91, 87.64 46.96, 127.3 0.46 M62.42 81.04 C80.94 58.37, 97.97 38.96, 130.89 0.2 M63.78 79.33 C84.47 56.75, 102.83 34.08, 131.7 -0.06 M70.7 77.48 C89.34 55.25, 113.3 30.69, 137.51 0.67 M69.5 78.75 C86.57 59.54, 103.66 40.09, 137.23 1.1 M75.85 77.9 C92.06 59.43, 110.01 36.03, 141.27 0.47 M73.63 79.97 C90.38 61.43, 105.26 43.03, 143.8 0.84 M79.71 78.65 C104.18 54.05, 126.59 27.64, 146.83 -1.21 M80.51 79.09 C105.86 49.24, 132.97 17.24, 147.68 -0.21 M85.87 80.73 C102.59 59.24, 118.93 39.28, 153.14 -0.83 M85.06 79.72 C101.79 60.25, 117.99 41.89, 152.86 -0.25 M91.69 78.01 C106.1 64.76, 117.64 48.19, 157.04 -0.31 M90.19 78.37 C112.34 54.09, 133.42 29.94, 158.86 0.08 M95.93 79.41 C111.2 60.76, 128.3 43.14, 165.26 1.17 M94.59 78.86 C112.58 59.43, 129.45 40.89, 164.11 -0.92 M102.75 77.06 C122.43 52.84, 144.69 31.87, 170.03 1.35 M102.11 79.68 C121.31 55.41, 139.83 33.14, 169.81 0.44 M105.3 80.53 C132.37 51.36, 157.91 20.67, 173.13 -0.94 M105.58 78.5 C129.49 51.77, 154.48 23.38, 175.19 0.6 M113.78 76.99 C132.38 59.71, 148.18 35.16, 181.45 0.45 M112.19 79.47 C136.75 50.22, 161.27 21.61, 179.45 -0.8 M115 77.41 C135.84 54.27, 158.91 30.46, 187.06 -0.86 M117.27 79.69 C139.52 54.6, 161.26 29.33, 185.05 0.47 M124.45 76.74 C146.61 49.78, 170.96 24.6, 190.74 -1.58 M121.71 78.59 C146.89 49.93, 173.7 20.5, 191.57 -0.39 M125.85 80.09 C149.28 52.17, 174.08 25.29, 198.12 -0.57 M127.75 78.36 C149.56 52.35, 173.16 26.5, 197.04 0.24 M131.23 78.95 C150.2 57.08, 170.24 37.66, 203.13 -0.63 M132.33 79.29 C157.96 48.8, 183.91 20.55, 201.79 0.78 M136.46 77.33 C155.56 55.61, 177.58 35.44, 208.17 -0.34 M138.96 78.3 C157.11 58.69, 175.24 36.05, 207.83 -0.14 M144.69 80.74 C163.2 52.64, 185.39 27.6, 211.61 0.16 M142.38 78.96 C166.07 51, 191.15 22.41, 212.62 0.74 M149.19 78.59 C161.63 59.67, 177.73 42.17, 215.87 -0.69 M147.71 78.23 C173.21 48.54, 199.4 21.04, 218.48 -1.32 M154.16 80.68 C175.02 52.72, 196.41 30.97, 222.98 0.36 M154.54 80.11 C178.95 51.86, 202.77 23.15, 222.4 -0.6 M160.2 80.08 C182.89 51.75, 204.83 25.15, 226.63 -0.46 M158.66 78.75 C184.92 49.18, 210.84 18.87, 227.4 0.42 M165.79 77.34 C180.23 59.03, 196.76 39.51, 231.78 0.25 M164.88 79.91 C188.94 52.16, 213.75 22.75, 232.35 -0.46 M169.43 78.69 C189.9 55.28, 211.16 30.12, 238.01 2 M169.35 79.33 C184.47 61.75, 199.36 43.5, 238.7 0.94 M175.16 80.23 C200.64 50, 225.64 24.23, 242.38 -1.16 M174.47 80.17 C199.6 50.79, 225.22 22, 243.55 -0.14 M178.61 78.07 C197.13 57.7, 214.56 40.55, 248.3 -0.19 M181.16 79.36 C202.21 52.09, 225.39 27.92, 249.82 0.26 M184.62 80.59 C205.64 53.8, 230.55 27.53, 254.9 -0.14 M185.75 79.08 C208.32 52.15, 230.47 27.54, 253.92 -0.06 M189.24 78.56 C204.43 62.11, 220.15 42.43, 258.61 0.05 M190.33 79.1 C211.89 53.98, 233.22 29.05, 258.59 0.02 M197.33 77.39 C216.36 58.5, 231.18 38.21, 263.24 1.73 M195.54 78.23 C214.89 59.74, 230.37 39.49, 265.25 -0.74 M200.6 79.24 C223.59 52.96, 246.67 25.04, 269.5 -1.23 M200.96 78.71 C219.75 59.03, 237.71 38.47, 270.85 -0.48 M207.2 79.29 C227.61 53.28, 250.96 28.27, 277.1 -0.36 M205.97 79.61 C225.1 59.46, 241.88 38.86, 276.2 0.16 M211.76 79.88 C226.78 59.63, 244.55 44.01, 282.29 -0.26 M212.03 79.23 C228.79 58.5, 248.25 39.78, 280.82 -0.57 M216.95 78.7 C237.29 54.45, 261.74 30.77, 287.95 -0.55 M217.58 78.57 C239.41 53.4, 260.02 31.13, 287.29 -1.1 M223.56 78.99 C243.72 51.69, 269.87 26.56, 293.1 0.45 M222.36 79.61 C242.42 55.39, 263.61 32.51, 292.06 0.84 M228.05 77.72 C243.5 63.6, 259.42 46.27, 295.04 -0.23 M228.24 78.87 C250.05 52.68, 271.9 27.07, 297.87 0.63 M232.62 79.79 C253.99 55.07, 272.52 33.05, 302.82 2.11 M233.62 77.68 C257.29 53.83, 279.47 27.71, 302.49 0.19 M238.78 78.2 C261.56 54.04, 283.79 25.44, 307.4 -2.08 M238.19 79.67 C256.11 59.49, 272.68 41.02, 307.17 0.37 M245.37 80.24 C265.06 54.17, 284.75 29.45, 311.13 -0.35 M245.35 79.15 C258.86 61.69, 273.33 44.33, 313.4 0.35 M250.18 79.69 C270.36 54.23, 294.91 27.72, 317.85 -0.07 M249.02 78.51 C275.62 51.09, 300.3 22.94, 317.29 0.04 M255.33 79.74 C280.45 51.16, 304.06 20.9, 322.47 -0.28 M255.32 79.39 C268.16 62.43, 281.39 47.77, 322.43 -0.45 M260.09 77.45 C284.49 52.65, 305.03 23.08, 328.99 -1.45 M260.69 78.32 C273.17 63.36, 287.37 47.24, 328.18 -0.52 M263.78 78.17 C286.12 54.83, 305.41 33.97, 332.09 -1.33 M265.07 79.39 C278.99 61.87, 293.54 44.1, 334.58 0.43 M269.12 80.47 C292.1 51.85, 316.19 25.51, 339.19 -0.74 M270.52 78.41 C286.37 59.8, 302.69 43.06, 338.64 -0.64 M273.83 78.38 C290.68 58.62, 309.17 41.52, 344 0.6 M275.09 79.3 C301.66 49.5, 328.05 19.21, 345.21 -0.98 M282.66 77.47 C304.52 51.58, 326.34 28.65, 347.95 -0.99 M282.18 79.51 C305.77 50.86, 327.64 24.63, 348.68 1.06 M287 81.18 C311.78 50.6, 334.01 21.44, 357.01 -0.7 M286.35 78.41 C307.07 54.46, 328.94 30.75, 355.06 -0.27 M292.89 78.88 C315.38 54.56, 338.37 26.51, 360.53 1.21 M292.7 78.71 C319.15 47.68, 345.77 16.55, 359.14 0.53 M296.62 80.12 C322.32 46.66, 352.91 17.24, 366.69 0.3 M296.68 78.87 C311.36 63.4, 326.55 46.74, 365.18 0.36 M300.76 78.83 C320.19 55.56, 339.66 35.8, 370 2.22 M303.47 78.5 C319.45 59.25, 336.48 38.17, 370.75 -0.08 M305.76 79.45 C329.56 57.77, 348.44 33.76, 375.41 -1.17 M307.79 78.77 C330.92 52.41, 356.1 23.05, 376.04 -0.88 M314 77.19 C341.21 49.45, 365.86 15.82, 381.85 -1.58 M313.26 77.78 C338.85 50.59, 361.89 21.92, 381.75 -0.51 M317.33 80.15 C342.35 51.45, 366.93 22.81, 386.31 1.86 M318.23 79.04 C335.28 60.5, 350.6 42.27, 386.42 -0.42 M325.14 77.54 C343.18 57.46, 361.39 33.3, 391.37 0.85 M323.16 78.81 C347.89 50.81, 372.99 21.52, 392.26 -0.6 M327.97 77.9 C351.14 53.82, 368.42 32.47, 397.31 -1.95 M328.43 78.55 C342.14 61.52, 356.97 46.83, 398.49 -0.26 M333.48 77.2 C355.77 53.74, 376.2 31.14, 401.62 1.31 M333.66 78.27 C352.56 57.77, 369.9 38.36, 403.22 0.69 M338.12 77.12 C365.02 50.19, 391.51 16.57, 407.12 -0.18 M339.64 79.01 C356.33 61.28, 373.43 41.21, 408.76 -1.05 M343.09 77.17 C367.93 53.83, 387.48 31.01, 413.45 -1.69 M345.59 78.2 C364.14 57.43, 384.84 34.63, 413.47 0.3 M350 80.94 C373.04 55.22, 390.94 31.98, 417.22 1.26 M349.02 78.07 C375.32 50.92, 401.51 21.68, 419.12 -1.02 M356.84 80.21 C377.61 57.24, 397.1 32.98, 423.49 -0.93 M355.13 79.06 C371.19 61.21, 388.34 43.7, 424.69 0.08 M361.62 77.21 C382.85 52.02, 403.93 26.54, 429.89 0.22 M360.56 78.23 C376.12 61.08, 392.46 42.04, 429.79 -1.03 M366.37 76.76 C378.76 61.49, 394.13 45.06, 434.15 1.53 M366.83 78.67 C388.09 55.79, 407.22 31.19, 434.42 -0.28 M372.76 80.49 C387.92 55.97, 407.47 34.19, 438.17 0.25 M372.11 79.91 C396.25 50.95, 419.77 21.7, 440.38 0.46 M377.46 79.76 C397.94 54.27, 421.81 27.88, 443.61 0.35 M375.95 80.03 C393.59 59.84, 411.89 38.25, 445.06 -0.15 M382.99 78.08 C409.68 48.08, 436.62 16.93, 451.9 0.62 M382.38 78.39 C399.1 58.74, 415.66 38.71, 450.84 0.4 M386.6 79.59 C406.09 60.15, 421.34 36.81, 455.85 0.92 M386.06 79.24 C406.85 55.47, 427.13 33.01, 454.87 0.96 M393.65 79.97 C412.79 54.62, 433.86 31.68, 459.68 -1.69 M391.95 78.88 C413.73 54.61, 435.8 30.1, 460.48 0.09 M399.15 78.63 C423.78 49.89, 449.05 19.73, 466.62 1.32 M398.14 79.07 C420.92 53.03, 444.8 25.32, 466.97 0.45 M401.86 76.9 C429.26 48.37, 454.4 16.87, 470.26 -1.2 M402.24 79.44 C427.57 52.81, 450.38 25.18, 472.33 1 M409.86 78.21 C429.17 55.38, 448.5 31.39, 477.45 -1.61 M408.18 78.91 C434.97 49.45, 459.86 20.22, 476.35 -0.4 M414.55 78.3 C430.15 59.44, 447.76 36.8, 481.11 -1 M414.56 78.06 C427.47 62.9, 442.42 46.13, 482.73 0.73 M420.28 77.38 C442.62 53.8, 464.85 26.41, 489.66 1.66 M419.52 78.56 C439.57 55.15, 460.94 30.57, 486.83 0.59 M426.39 78.34 C444.23 57.24, 461.84 34.96, 492.55 1.8 M425.06 79.58 C452.79 47.67, 479.47 16.39, 492.42 0.53 M428.75 78.91 C452.38 51.15, 480.49 22.08, 498.34 -0.62 M429.87 79.2 C449.45 57.31, 467.88 34.58, 498.12 -0.53 M433.86 77.89 C449.69 59.74, 466.65 40.41, 504.29 -0.92 M435.73 78.77 C452.28 60.72, 469.41 40.67, 504.15 -0.72 M440.38 79.3 C464.32 51.6, 485.49 28.04, 510.38 0.52 M440.29 78.39 C467.2 48.49, 494.59 16.11, 508.77 -0.8 M445.21 78.56 C462.96 59.06, 476.38 43.04, 512.87 -1.58 M445.46 79.26 C468.75 54.41, 489.77 28.59, 513.03 -0.75 M449.05 78.74 C467 61.71, 481.5 42.45, 518.42 0.79 M450.21 79.11 C477.49 48.79, 502.76 18.72, 519.2 0.62 M454.48 80.67 C472.81 59.27, 489.38 42.51, 525.59 1.12 M456.97 78.58 C473.89 60.44, 489.32 42.14, 525.54 1.11 M459.46 79.17 C475.56 58.39, 492.56 40.09, 530.92 0.58 M460.41 78.7 C482.69 55.5, 503.6 31.74, 530.69 -0.52 M467.47 77.24 C489.5 51.65, 513.73 24.06, 534.52 0.2 M467.85 79.17 C483.34 60.36, 499.48 40.4, 534.5 0.92 M473.04 78.24 C488.24 59.32, 503.21 42.44, 542.09 -0.96 M472.04 79.9 C491.25 56.99, 509.62 36.04, 540.37 -0.6 M475.79 80.04 C494.85 57.84, 515.24 32.85, 546.52 -1.6 M477.54 79.32 C494.41 61.33, 508.61 41.99, 546.11 -0.88 M482.04 79.3 C501.15 55.2, 523.62 34.24, 549.93 0.01 M481.59 79.86 C503.04 53.28, 525.03 28.41, 552.25 -1.11 M486.16 78.3 C510.82 54.36, 531.65 27.63, 557.24 -1.81 M487.71 79.01 C508.78 54.18, 531.07 27.6, 556.91 -0.45 M491.47 77.44 C515.16 52.3, 539.91 21.82, 562.23 -1.95 M493.93 79.09 C518.13 51.21, 541.65 24.76, 562.16 0.36 M497.05 77.69 C522.87 52, 545.76 23.67, 565.11 -0.28 M497.83 79.82 C518.69 56.57, 538.39 33.4, 566.82 0.44 M505.14 77.47 C528.09 52.45, 553.14 25.22, 574.55 0.46 M503.28 78.51 C529.41 50.76, 554.23 20.6, 572.83 -0.88 M508.74 78.89 C524.55 62.46, 539.09 47.14, 575.35 1.18 M508.27 78.48 C531.62 52.56, 554.48 26.88, 576.12 1.67 M515.63 79.9 C531.99 59.53, 549.5 39.04, 577.03 9.55 M514.23 78.43 C530.23 60.27, 545.53 42.14, 575.61 8.64 M519.95 80.52 C531.44 65.24, 543.28 51.61, 575.4 15.71 M519.91 78.87 C537.13 58.27, 554.87 37.42, 575.9 14.79 M526.29 78.98 C542.87 56.61, 564.4 33.68, 574.72 19.5 M524.7 79.54 C534.63 67.58, 544.6 55.5, 575.87 20.49 M529.19 77.94 C542.81 62.96, 558.96 47.1, 576.55 26.85 M530.5 79.77 C543.71 62.55, 558.61 47.89, 576.67 25.4 M537.27 80.66 C550.14 64.33, 563.6 48.68, 577.16 32.74 M535.01 77.93 C545.43 67.22, 556.61 54.34, 575.52 33.6 M540.74 77.21 C552.9 65.05, 567.52 50.01, 576.36 37.64 M541.64 79.82 C548.3 69.71, 556.76 60.36, 575.77 39.28 M547.49 80.62 C557.85 67.57, 568.66 54.1, 576.35 45.93 M546.81 78.08 C552.45 72.03, 557.98 64, 576.04 45.35 M550.66 77.12 C559.75 67.2, 571.04 56.65, 577.15 50.85 M551.8 78.58 C557.25 71.61, 563.17 64.04, 576.91 49.62 M556.66 78.26 C563.59 71.11, 571.52 66.44, 576.11 56.7 M556.12 77.85 C561.93 72.19, 567.24 66.83, 576.77 57.22 M560.8 79.17 C566.41 73.28, 572.66 67.33, 575.37 63.73 M561.3 79.49 C567.55 73.67, 571.22 68, 576.5 62.74 M567.39 78.69 C569.31 76.02, 572.6 72.3, 576.49 70.02 M568.06 79.22 C570.29 75.31, 573.96 71.35, 576.43 68.87 M572.64 78.68 C573.75 77.93, 574.02 77.24, 575.47 75.2 M572.78 79 C573.31 78.05, 574.03 77.34, 575.72 75.48" stroke="#c8c8c8" stroke-width="0.5" fill="none"></path><path d="M0.14 0.68 C158.16 -1.57, 315.33 -0.83, 574.27 -0.53 M0.19 0.29 C162.92 -0.93, 325.24 -1.17, 573.64 -0.3 M573.66 1.15 C575.76 21.04, 575 41.55, 572 77.19 M572.95 -0.58 C574.44 15.97, 572.81 33.04, 574.13 79.2 M573.97 78.76 C415.05 77.44, 258.24 77.26, 0.18 78.43 M573.9 78.67 C380.12 80.07, 186.33 79.66, -0.37 79.03 M1.51 80.21 C0 52.63, -0.93 23.27, -1.2 0.93 M0.49 78.76 C0.59 58.16, 0.81 39.67, 0.75 0.6" stroke="#495057" stroke-width="1" fill="none"></path></g><g stroke-linecap="round" transform="translate(3872.2887095427523 182.54704310942543) rotate(0 286.9057682441721 39.36341999154138)"><path d="M0 0 C0 0, 0 0, 0 0 M0 0 C0 0, 0 0, 0 0 M0.11 6.12 C1.2 4.34, 3.03 2.78, 5.06 0.41 M-0.36 6.21 C1.05 4.66, 2.64 2.8, 4.74 0.56 M0.8 10.63 C2.53 7.17, 6 5.01, 10.54 0.71 M-0.23 12.05 C4.14 7.94, 8.09 2.5, 11.31 0.39 M1.16 18.05 C3.41 13.66, 6.15 11.94, 14.67 1.28 M-0.74 17.83 C6.11 11.38, 10.19 5.62, 16.38 0.95 M0.6 24.49 C3.83 17.94, 11.83 14.58, 20.3 0.92 M1.2 24.66 C4.73 19.21, 10.95 11.59, 21.8 -0.48 M1.13 29.33 C11.28 18.11, 21.68 7.44, 26.29 0.76 M0.59 30.28 C8.05 20.55, 18.86 9.85, 26.27 0.61 M-2.05 36.17 C9.5 28.42, 15.53 18.81, 33.23 0.16 M0.63 36.51 C8.03 27.12, 19.01 15.89, 31.73 -0.14 M1.81 41.55 C10.12 31.5, 17.03 22.9, 36.27 -0.28 M1.07 41.64 C12.66 27.55, 26.08 13.49, 37.74 1.18 M-0.8 49.98 C7.58 38.6, 18.45 24.31, 42.66 -1.93 M-0.34 49.76 C10.89 37.71, 20.33 25.25, 43.06 -1.09 M1.18 55.52 C13.09 38.09, 25.52 23.74, 48.58 -1.28 M1.14 53.62 C13.76 39.09, 28.31 23.49, 47.88 0.87 M0.28 60.61 C10 49.1, 23.38 36.21, 52.66 -1.16 M-0.6 61.71 C15.15 43.06, 30.16 25.82, 53.44 0.46 M-0.71 65.58 C18.29 45.98, 36.33 27.03, 56.88 0.1 M0.49 67.07 C11.69 54, 24.42 40.39, 58.17 -0.24 M-0.52 71.77 C22.45 49.66, 42.94 23.09, 64.02 1.46 M0.03 72.72 C15.27 55.98, 27.88 41.23, 63.41 -0.38 M-0.5 77.82 C24.91 51.31, 48.33 24.11, 70.58 1.99 M0.33 79.16 C25.37 48.51, 51.07 18.29, 69.48 0.78 M4.08 80.94 C22.31 58.8, 42.23 38.31, 76.24 1.7 M6.34 78.01 C23.08 57.7, 41.71 36.9, 73.42 -0.11 M10.48 79.58 C27.62 62.13, 41.28 43.79, 80.79 0.31 M10.31 77.88 C26.97 58.95, 45.78 38.45, 79.07 0.71 M17.81 77.4 C35.3 57.67, 52.83 38.15, 85.55 -1.9 M16.29 78.68 C41.04 51.21, 62.92 24.31, 84.79 0.11 M22.58 78.85 C46.94 51.46, 71.44 21.71, 90.34 -1.27 M21.94 78.46 C40.19 57.25, 57.88 36.52, 89.58 -0.78 M26.89 80.24 C40.72 60.47, 55.22 43.26, 94.89 -1.99 M25.95 78.74 C48.4 53.71, 70.18 26.53, 94.74 -0.52 M32.68 78.83 C54.14 52.44, 72.46 28.4, 99.79 -1.26 M32.46 78.91 C46.58 61.05, 62.18 43.44, 100.06 -0.2 M36.49 80.33 C59.13 54.18, 79.41 29.15, 107.92 -0.48 M37.07 78.01 C63.69 49.06, 89.5 18.55, 105.4 0.58 M40.41 79.77 C63.05 58.03, 81.92 34.14, 109.4 1.58 M42 78.87 C66.93 51.16, 90.7 22.75, 110.93 0.84 M47.51 80.27 C68.33 53.32, 92.03 26.72, 114.36 2.3 M48.76 79.17 C68.5 55.92, 88.75 31.62, 116.09 1.07 M52.78 77.92 C69.2 61.67, 85.96 41.57, 121.17 -1.71 M53.26 79.56 C69.51 62.77, 84.51 45.71, 121.02 0.56 M58.56 80.49 C77.44 59.1, 93.68 36.8, 126.64 -1.5 M58.52 78.75 C79.7 56.67, 98.6 34.08, 127.03 -0.26 M65.51 80.34 C86.3 53.1, 110.39 21.68, 132.81 -0.32 M63.8 79.59 C79.07 60.72, 94.26 43.48, 132.55 0.05 M67.98 77.17 C86.18 61, 102.04 41.3, 137.9 -0.67 M69.26 78.17 C83.64 62.14, 97.68 46.62, 138.33 -0.01 M73.04 78.87 C100.18 49.78, 122.39 20.68, 143.73 -1.64 M75.1 79.92 C94.64 56.33, 114.38 32.97, 144.1 0.25 M79.82 80.28 C102.62 55.71, 123.53 28.94, 146.68 2.03 M80.26 78.69 C105.29 50.87, 128.13 21.74, 147.68 -0.19 M86.53 80.1 C112.78 46.96, 140.46 14.78, 153.1 -1.32 M85.53 78.85 C100.79 60.43, 117.1 42.12, 153.69 -1.02 M89.85 79.58 C110.82 56.11, 128.4 36.04, 158.25 0.61 M90.21 78.41 C108.59 57.8, 127.02 38.67, 158.64 -0.43 M95.87 79.44 C123.06 48.99, 151.19 17.01, 165.77 -1.17 M95.32 79.07 C117.39 54.48, 140.3 29.51, 163.68 -0.1 M99.56 78.6 C115.84 60.46, 135.39 40.76, 170.57 -0.11 M102.18 79.33 C120.02 55.02, 139.9 32.82, 169.66 0.98 M107.66 79.06 C128.12 56.34, 146.96 32.38, 174.32 0.72 M105.63 78.6 C127.45 55.77, 147.69 30.75, 175.86 -0.46 M110.16 80.66 C135.51 52.87, 153.5 30.83, 180.34 1.43 M112.64 78.28 C127.81 59.38, 143.7 41.04, 179.09 0.14 M115.21 77.92 C139.42 53.82, 162.91 26.39, 185.06 0.1 M117.49 79.85 C137.39 56.67, 157.01 32.42, 186.39 0.28 M120.57 78.84 C141.43 55.23, 164.07 31.3, 188.97 1.61 M122.43 77.96 C146.99 52.3, 170.77 25.09, 190.16 0.48 M128.55 77.74 C147.64 56.51, 167.73 34.25, 196.02 0.45 M126.81 78.55 C153.07 49.37, 179.42 20.56, 196.83 -0.63 M133.44 78.03 C154.87 54.6, 178.84 28.7, 200.59 1.55 M133.79 77.92 C152.1 56.53, 172.59 34.76, 202 -0.2 M136.45 77.06 C149.84 65.19, 164.84 49.02, 206.92 -0.93 M137.42 78.83 C153.77 61, 167.05 45.45, 207.12 -0.09 M144.49 77.65 C164.7 50.83, 187.97 25.67, 212.04 1.2 M142.71 78.34 C168.8 49.6, 194.32 21.01, 212.62 -0.75 M148.38 77.16 C170.97 50.15, 195.03 21.32, 217.23 1.01 M148.02 78.16 C168.09 55.89, 190.4 32.78, 216.6 -0.14 M155.1 78.61 C173.23 54.03, 197.48 31.91, 222.91 1.25 M154.53 79.99 C178.24 51.57, 201.42 24.9, 221.94 0.37 M160.53 80.14 C185.47 48.01, 212.08 15.45, 228.12 1.13 M159.2 78.36 C177.33 58.25, 194.69 37.13, 229 -0.94 M162.42 77.9 C179.16 59, 194.69 40.84, 233.46 1.18 M164.99 79.75 C192.01 49.24, 217.31 17.64, 232.75 0.02 M169.81 78.85 C196.47 49.34, 221.39 18.19, 239.84 -1.2 M170.45 78.63 C194.51 50.96, 217.89 24.12, 238.78 0.93 M175.97 79.53 C188.14 63.61, 204.8 45.21, 242.72 1.28 M175.91 78.62 C195.8 56.04, 216.28 32.57, 243.74 -0.56 M179.85 78.93 C203.44 51.83, 230.32 22.35, 248.31 0.92 M181.14 78.52 C205.61 49.1, 233.16 20.05, 248.76 0.51 M187 77.27 C205.95 57.05, 225.37 32.91, 254.4 0.58 M185.49 79.45 C209.52 50.3, 235.84 21.94, 254.48 -0.77 M191.01 76.81 C217.54 48.86, 240.81 21.31, 259.21 0.45 M191.55 78.93 C215.49 51.15, 239.69 21.17, 259.19 -0.05 M194.46 80.68 C214.98 55.65, 234.15 34.63, 266.94 -1.08 M195.31 79.96 C212.63 60.27, 228.22 43.08, 264.46 0.34 M202.35 77.69 C229.95 46.85, 255.88 16.94, 268.6 -0.65 M201.82 79.14 C221.5 57.93, 240.39 35.37, 269.35 0.51 M207.03 77.12 C225.2 56.89, 244.29 38.38, 275.51 -1.09 M207.34 79.72 C225.74 58.5, 243.58 37.74, 276.03 -0.91 M213.65 77.56 C229.83 58.69, 250.57 37.23, 280.23 -0.63 M213.01 77.76 C235.93 53.1, 260.77 25.41, 279.93 0.33 M217.1 77.72 C240.25 54.77, 263.95 28.47, 285.99 -0.06 M216.97 79.17 C229.82 62.7, 245.62 48.03, 285.43 0.16 M223.43 77.2 C248.59 50.17, 275.95 19.74, 291.61 0.05 M224.05 77.8 C241.78 57.7, 260.87 36.33, 292 -0.64 M226.79 79.37 C249.99 57.22, 270 30.87, 296.97 0.18 M227.94 78.59 C244.42 58.25, 261.6 39.69, 297.82 -0.43 M234.9 80.14 C254.7 53.97, 277.21 27.69, 303.94 0.7 M232.78 79.59 C252.97 58.46, 270.85 37.14, 302.01 0.46 M237.93 78.78 C258.28 57.15, 274.2 36.62, 305.78 -1.4 M239.4 79.13 C254.38 61.06, 271.03 42.32, 308.23 -0.27 M246.01 78.72 C261.31 56.96, 278.04 35.12, 312.14 -1.58 M244.92 77.84 C259.75 59.17, 274.75 43.13, 312.83 0.31 M250.08 78.41 C274.63 52.17, 298.22 21.3, 318.45 0.93 M248.91 79.81 C265.82 61.83, 281.94 42.14, 318.57 0.38 M254.76 80.81 C280.78 49.32, 305.21 19.09, 322.87 -1.92 M254.41 79.38 C274.02 54.23, 296.01 29.99, 322.7 0.48 M258.51 80.51 C285.98 48.41, 308.72 20.7, 327.74 -2.31 M259.38 78.5 C282.46 52.84, 304.45 26.58, 328.67 -0.37 M263.86 80.79 C290.35 49.84, 319.22 17.23, 332.49 -1.65 M265.08 79.1 C290.63 48.78, 315.98 19.95, 334.25 0.39 M272.2 77.13 C289.09 56.84, 308.25 35.42, 339.12 -1.83 M270.14 78.92 C288.76 57.44, 309.3 33.52, 339.22 -1.04 M274.73 78.09 C291.27 60.52, 310.52 37.93, 345.08 1.66 M275.66 79.57 C302.2 50.1, 328.18 20.6, 343.5 0.31 M279.86 80.06 C304.1 50.94, 331.37 20.96, 348.12 1.22 M281.9 79.66 C297.38 57.6, 315.35 37.55, 350.17 0.96 M288.2 80.15 C307.62 52.49, 328.56 31.03, 354.45 0.24 M285.42 78.91 C310.73 51.12, 336.19 23.04, 354.87 0.37 M291.93 78.92 C312.94 57.04, 330.12 36.21, 360.98 2.18 M291.76 79.18 C310.38 56.66, 329 33.63, 360.31 1.3 M297.8 77.24 C315.49 57.95, 337.17 34.88, 366.11 -1.92 M296.55 78.63 C311.36 63.74, 324.97 46.86, 366.17 -0.42 M302.54 79.07 C325.47 51.71, 352 19.77, 372.66 -0.55 M302.22 78.77 C328.9 48.04, 353.72 19.03, 370.36 0.29 M307.8 80.34 C327.77 58.64, 345.34 37.51, 375.31 0.98 M307.11 78.6 C332.84 51.64, 355.49 23.45, 375.59 0.78 M311.57 79.68 C328.24 61.46, 339.06 46.59, 379.52 1.46 M312.16 79.62 C330.88 57.78, 348.03 38.53, 380.59 0.83 M319.16 79.28 C343.47 51.06, 367.85 21.6, 389 -1.51 M318.05 80.02 C335.61 58.88, 353.49 37.5, 386.73 -0.31 M322.59 79.69 C351.48 47.24, 376.33 15.65, 392.62 1.41 M323.86 77.73 C338.77 61.68, 352.48 45.21, 391.16 0.2 M327.58 80.63 C344.04 58.16, 363.21 39.84, 395.86 -2.03 M328.22 78.5 C350.43 52.96, 375.02 27.44, 397.55 -0.12 M332.91 79.81 C357.94 51.57, 383.74 21.47, 403.75 -0.72 M333.98 79 C349.5 60.97, 366.15 42.73, 403.12 1.02 M337.46 77.74 C356.04 60.73, 368.03 43.09, 408.29 -1.46 M339.35 78.96 C354.69 63.19, 367.63 46.57, 407.42 -0.22 M343.55 80.55 C357.92 64, 372.76 46.57, 411.41 -0.14 M344.58 78.17 C365.33 57.12, 383.96 34.58, 413.4 0.28 M351.94 80.77 C373.44 51.4, 397.34 25.72, 420.4 1.1 M349.07 78.7 C368.43 60.25, 385.69 39.75, 418.11 -0.31 M357.25 80.19 C373.73 60.44, 388.83 39.96, 422.83 -1.32 M356.1 77.85 C369.89 64.05, 383.97 48.19, 423.84 0.33 M358.88 78.64 C375.24 58.64, 391.37 41.57, 430.02 -1.65 M359.9 78.39 C380.42 56.68, 398.97 34.9, 428.77 -1.25 M364.46 76.8 C381.36 59.54, 397.15 40.51, 435.96 0.08 M366.38 79.51 C383.29 59.07, 398.51 40.53, 434.15 -0.13 M372.82 77.05 C395.89 47.52, 421.7 17.51, 440.72 0.77 M372.24 79.03 C387.14 59.32, 401.81 41.96, 440.93 -0.01 M376.72 78.99 C403.65 49.57, 429.58 16.89, 445.44 -0.84 M376.99 79.2 C398.95 54.9, 419.52 28.94, 444.94 0.97 M381.07 80.5 C408.93 49.26, 435.59 17.84, 451.75 -1.41 M381.39 79.02 C400.97 55.6, 420.18 33.24, 451.52 -0.74 M387.22 80.85 C411.12 52.21, 431.04 27.15, 456.67 -0.17 M386.87 79.62 C410.08 52.81, 434.67 23.59, 456.72 0.04 M393.63 78.24 C411.87 55.4, 432.6 31.32, 460.11 -0.13 M392.54 79.09 C417.97 51.42, 443.08 21.01, 461.88 0.29 M396.92 80.57 C420.52 53.23, 442.7 25.24, 467.74 0.75 M397.36 79.56 C420.69 53.76, 442.35 27.44, 466.87 0.89 M401.22 78.32 C423.5 53.97, 442.87 31.48, 469.85 1.15 M403.77 79.32 C418.07 63.15, 431.41 47.58, 472.05 0.44 M407.16 79.33 C432.94 49.11, 457.5 23.64, 475.48 1.39 M407.87 79.92 C424.15 60.47, 440.64 41.05, 476.69 -0.36 M413.29 77.59 C442.58 45.52, 468.05 15.45, 480.71 -1.46 M413.05 78.19 C436.09 53.38, 457.48 29.35, 482.44 0.64 M417 80.1 C439.95 55.64, 459.11 34.01, 489.41 -0.03 M418.18 79.45 C442.28 52.3, 465.31 23.44, 488.33 -0.19 M423.99 79.65 C452.69 45.76, 480.12 15.73, 494.18 2.17 M425.24 79.5 C438.4 62.63, 452.18 45.65, 492.91 0.94 M429.2 77.63 C457.44 49.62, 484.45 17.08, 497.79 -0.48 M429.48 79.78 C450.74 54.52, 471.17 30.69, 497.88 -0.75 M434.21 76.88 C451.68 58.43, 468.02 40.71, 502.12 -0.81 M435.09 79.43 C459.74 52.55, 482.28 25.71, 502.32 0.52 M440.24 80.47 C456.08 58.68, 476.1 39.86, 509.6 1.84 M439.34 78.39 C458.7 57.95, 475.48 38.43, 508.28 -0.82 M445.55 80.48 C468.34 50.59, 494.57 22.65, 512.13 0.54 M446.24 79.51 C460.76 62.43, 474.26 44.6, 512.96 -0.59 M450.35 80.91 C476.98 50.66, 501.35 18.1, 520.53 1.5 M450.72 79.62 C473.31 52.99, 496.07 27.48, 520.37 -0.81 M458.32 78.39 C471.03 61.5, 488.46 44.57, 525.49 -1.06 M456.23 79.64 C474.23 58.35, 492.02 39.17, 525.48 -0.52 M461.45 77.06 C476.48 58.55, 494.07 39.83, 530.99 -0.13 M460.97 79.67 C484.47 54.36, 507.32 28.38, 529.89 0.22 M465.56 77.35 C483.93 58.31, 500.38 38.52, 535.24 -1.09 M467.48 79.06 C490.14 52.03, 511.73 24.73, 535.96 -0.51 M471.18 78.8 C488.56 56.83, 508.02 39.07, 540.11 -0.91 M472.84 79.58 C488.67 59.16, 506.55 37.81, 540.47 -0.44 M479.02 76.88 C501.21 53, 520.63 28.57, 544.1 -1.29 M478.3 79.4 C495.91 57.81, 512.1 38.68, 544.82 0.04 M482.9 77.79 C506.16 52.44, 532.59 21.93, 551.74 0.08 M483.46 78.28 C509.65 47.38, 537.51 17.18, 550.63 -0.12 M486.53 80.03 C501.82 63.17, 514.41 47.9, 554.55 0.42 M487.24 78.37 C505.22 58.27, 521.53 38.82, 555.91 0.58 M491.71 77.46 C521.36 47.53, 545.72 17.47, 560.45 0.56 M493.36 79.55 C508.1 61.14, 524.33 43.04, 562.76 0.19 M496.59 80.37 C524.58 49.75, 549.91 18.3, 566.75 -0.12 M498.71 79.81 C520.21 54.69, 541.87 29.35, 567.47 0.46 M502.41 79.03 C519.95 62.31, 535.25 44.7, 573.53 1.01 M503.44 79.02 C524.64 56.17, 543.36 33.98, 572.18 -1.12 M508.45 80.52 C533.2 52.59, 559.02 23.71, 574.64 2.98 M508.04 79.14 C523.87 61.52, 540 43.22, 575.13 2.1 M515.5 79.51 C538.58 52.22, 561.63 25.41, 577.76 6.99 M514.03 79.19 C534.1 55.66, 554.25 31.83, 576.85 6.97 M520.75 79.12 C531.3 64.83, 543.53 49.78, 577.27 14.68 M519.1 79.43 C540.41 54.47, 561.51 30.07, 576.34 15.1 M525.25 77.69 C544.8 57, 563.77 31.94, 575.8 18.03 M525.8 78.4 C545.2 55.87, 564.48 34.07, 576.79 20.04 M528.83 77.61 C542.58 65.55, 555.39 51.43, 576.49 26.36 M530.66 79.08 C543.61 63.5, 559.15 46.7, 575.04 26.56 M537.59 80.12 C545.67 69.34, 554.44 57.66, 575.73 31.94 M534.86 77.88 C546 67.5, 555.04 55.94, 576.59 33.52 M538.77 78.17 C554.16 65.38, 566.7 51.26, 575.38 36.99 M541.38 78.85 C553.56 64.04, 566.44 48.87, 577.02 39.22 M548.22 79.16 C558.75 66.36, 568.84 54.77, 577.01 42.83 M545.67 78.69 C553.53 70, 559.42 62.51, 576.42 45.72 M549.34 77.8 C558.88 69.94, 567.82 61.2, 576.68 49.33 M550.8 78.89 C557.93 70.42, 564.49 63.29, 575.45 50.71 M556.52 78.92 C560.75 75.83, 567.44 69.22, 575.87 55.83 M556.11 78.78 C560.4 74.32, 565 69.31, 576.39 57.58 M562.06 78.27 C565.45 75.57, 568.8 71.06, 576.25 64.65 M562.37 79.67 C567.52 72.46, 572.82 68.22, 575.25 63.27 M567.61 77.8 C570.55 75.5, 572.43 73.03, 577.29 69.69 M568.15 78.19 C569.57 76.64, 570.96 74.8, 576.13 68.71 M572.23 79.32 C573.66 77.36, 575.16 75.99, 575.8 74.89 M572.55 79.04 C573.57 77.71, 574.82 76.29, 576.08 75.38" stroke="#c8c8c8" stroke-width="0.5" fill="none"></path><path d="M0.68 0.47 C139.15 -0.48, 279.65 0.05, 573.28 -0.13 M0.29 0.21 C133.86 -1.25, 267.24 -1.24, 573.51 -0.19 M574.96 1.35 C575.68 30.22, 576.31 57.45, 572.28 77.03 M573.23 0.77 C572.87 21.29, 573 44.61, 574.29 78.48 M573.84 78.05 C365.45 79.8, 156.17 79.36, -0.3 79.03 M573.75 78.73 C456.19 79.12, 337.88 78.85, 0.3 78.93 M1.48 79.44 C1.98 47.76, 0.24 16.03, 0.93 -1.02 M0.03 78.92 C-0.24 59.47, 0.87 40.14, 0.6 0.41" stroke="#495057" stroke-width="1" fill="none"></path></g><g stroke-linecap="round" transform="translate(4643.344328518644 181.3821162861459) rotate(0 286.9057682441721 39.36341999154138)"><path d="M0 0 C0 0, 0 0, 0 0 M0 0 C0 0, 0 0, 0 0 M-0.54 6.24 C1.71 3.96, 4.17 1.63, 5.04 0.41 M-0.45 6.05 C1.02 4.71, 2.17 3.48, 5.18 0.52 M-1.28 10.92 C3.06 6.52, 8.71 3.41, 11.38 1.02 M0.15 12.24 C3.83 8.48, 6.22 4.95, 11.05 -0.68 M-0.51 18.51 C3.55 12.53, 10.29 7.04, 16.57 1.49 M-0.74 19.06 C4.13 12.02, 9.69 8.16, 16.25 -0.35 M0.67 22.87 C7.04 17.57, 16.59 6.31, 22.25 -1.23 M0.84 23.58 C8.49 16.2, 13.93 7.79, 20.85 0.76 M-1.15 31.74 C7.45 22.48, 16.58 11.45, 26.72 1.23 M-0.2 29.59 C9.94 20.37, 19.08 8.8, 26.57 -0.38 M-0.96 38.79 C6.4 30.18, 11.87 23.58, 32.16 -0.43 M-0.62 35.91 C8.86 27.84, 16.5 17.14, 31.85 -0.64 M-0.83 43.79 C13.38 25.38, 29.08 9.66, 36.34 1.28 M-0.75 42.15 C11.22 29.39, 23.25 17.17, 37.8 -0.43 M0.94 47.08 C16.58 30.21, 29.29 13.17, 40.73 -1.14 M0.72 49.37 C14.42 32.75, 27.67 18.56, 41.57 -0.33 M1.23 54.46 C16.11 33.78, 34.09 16.11, 46 -0.06 M-0.67 54.17 C11.18 42.34, 21.94 29.6, 48.16 -0.69 M-0.34 59.41 C13.17 47.46, 25.37 32.1, 52.16 -0.47 M0.76 61.19 C17.64 40.55, 35.94 19.92, 53.78 -0.19 M-2.03 68.02 C11.93 53.14, 26.61 34.97, 58.05 -1.8 M-0.54 67.19 C13.92 51.64, 27.8 34.68, 57.71 0.53 M-1.08 73.41 C15.26 56.85, 27.07 41.51, 65.45 -1.79 M-0.14 73.75 C15.52 53.66, 33.21 35.28, 63.61 0.3 M-0.28 79.45 C24.28 52.2, 48.16 26.59, 70.61 1.79 M1.06 78.16 C27.07 47.25, 53.49 18.09, 69.39 -0.19 M7.46 77.39 C26.06 56.76, 46.4 35.84, 76.35 -0.78 M4.53 78.28 C31.41 48.2, 57.77 18.79, 74.54 -0.97 M12.14 79.9 C35.65 51.64, 58.3 26.9, 79.59 -0.85 M10.44 77.84 C36.73 50.75, 61.45 20.2, 79.99 -0.39 M14.58 80.42 C30.66 61.69, 46.99 41.87, 83.42 0.63 M15.87 79.94 C35.16 55.54, 55.1 33.79, 85.43 0.29 M20.66 80.11 C38.17 60.39, 53.33 40.81, 88.68 -0.56 M20.27 79.29 C35.22 60.67, 50.75 43.71, 89.16 -0.7 M28.1 78.32 C52.78 46.65, 79.96 16.38, 93.99 0.19 M26.59 78.82 C53.52 48.55, 78.38 18.11, 95.46 -0.24 M31.31 80.99 C54.24 49, 79.6 20.47, 99.35 -1.45 M31.39 79.37 C58.46 47.72, 85.87 15.63, 100.41 0.13 M38.84 79.6 C59.23 53.49, 80.76 29.78, 106.17 1.4 M36.52 78.84 C61.88 51.07, 85.65 23.91, 107.22 -0.48 M42.91 79.39 C57.9 63.08, 70.73 45.86, 112.86 1.07 M42.01 79.6 C63.65 54.64, 84.66 29.74, 112.11 0.23 M49.45 77.48 C70.54 53.14, 92.02 24.58, 118.2 0.22 M48.34 78.85 C63.77 60.45, 78.25 41.74, 116.97 -0.22 M51.73 79.14 C78.33 52.12, 101.04 24.02, 120.23 -1.68 M53.37 80.12 C68.74 62.81, 83.82 43.75, 122.5 -0.35 M60.34 79.91 C84.89 49.19, 108.57 21.01, 125.06 0.07 M58.6 79.56 C72.94 62.96, 86.8 46.91, 126.31 0.89 M64.81 77.81 C90.33 48.56, 111.61 22.32, 132.29 -1.67 M64.07 79.47 C83.08 55.85, 103.73 31.91, 132.65 -0.7 M67.68 79.54 C89.97 56.72, 108.8 33.51, 136.55 -1.65 M68.68 78.59 C82.44 62.83, 96.73 47.55, 137.22 0.84 M74 80.66 C93.23 55.51, 112.52 33.25, 141.62 -0.12 M75.06 79.58 C101.29 48.18, 127.69 19.42, 143.52 0 M81.46 79.76 C96.62 61.84, 109.57 41.78, 149.92 1.43 M79.86 79.42 C98.06 56.93, 115 36.65, 147.7 1.27 M85.9 78.69 C98.44 62.12, 111.98 45.53, 152.61 -1.59 M84.65 78.79 C99.81 61.08, 115.1 42.65, 152.91 -0.54 M91.42 80.67 C102.63 64.22, 117.31 45.13, 159.17 -0.62 M90.25 78.46 C103.86 63.49, 118.91 46.62, 158.13 1.2 M95.91 78.59 C111.17 62.81, 124.94 47.27, 163.42 0.14 M95.54 78.79 C112.84 60.79, 129.65 39.76, 164.5 -0.74 M101.11 77.08 C124.67 54.46, 146.76 27.97, 169.11 0.02 M101.83 77.99 C123.4 50.73, 147.17 24.98, 170.21 0.04 M106.19 80.8 C121.38 61.91, 135.28 42.49, 175.98 -0.03 M105.73 79.69 C133.22 49.35, 158.45 20.78, 174.8 -0.1 M113.82 80.54 C124.61 61.43, 141.24 46.39, 181.32 -1.15 M111.45 79.18 C135.92 49.75, 160.98 19.57, 180.03 0.61 M115.71 77.46 C135.99 58.24, 152.84 39.87, 186.02 -0.47 M117.64 78.98 C131.09 62.37, 143.5 47.38, 186.2 -0.25 M122.67 77.28 C142.65 56.87, 162.41 30.76, 192.16 1.13 M121.79 79.1 C142.53 57.33, 161.63 34.74, 191.03 0.1 M126.2 78.45 C146.84 56.7, 166.37 36.29, 197.04 1.17 M127.01 78.55 C144.03 60.43, 161.46 41.32, 195.96 0.07 M132.53 78.3 C161.71 49.09, 188.33 17.12, 202.77 -0.19 M132.42 77.7 C150.34 58.87, 167.8 40.1, 201.01 -0.9 M136.18 77.33 C164.33 51.4, 188.1 24.04, 206.32 -2.03 M137.95 79.68 C155.02 57.9, 174.45 37.9, 207.16 0.03 M141.4 78.04 C161.68 53.95, 183.7 31.03, 213.08 1.57 M142.09 79.57 C166.87 52.19, 191.73 25.63, 211.14 0.58 M146.95 77.42 C172.42 49.03, 196.1 21.95, 218.93 -0.31 M147.95 78.02 C174.32 51.68, 199.74 21.62, 217.78 -0.33 M153.03 77.4 C166.6 63.94, 182.65 46.06, 223.79 0.8 M154.4 79.95 C168.31 61.29, 184.06 42.15, 222.91 0.91 M160.59 77.74 C175.23 58.74, 189.47 41.49, 229.71 -1.14 M158.81 78.64 C177.94 56.84, 195.99 37.25, 227.64 -1.06 M162.98 78.26 C183.21 54.47, 204.26 31.9, 234.39 1.61 M164.83 80.21 C180.86 59.92, 195.87 40.54, 233.23 0.86 M169.96 79.02 C191.52 53.8, 211.4 32.91, 236.63 1.45 M169.75 78.98 C188.39 56.63, 207.81 36.7, 238.77 -0.6 M175.27 78.48 C197.91 54.98, 218.08 26.35, 245.15 -0.15 M174.36 79.88 C196.82 54.5, 218.35 28.63, 243.31 0.57 M180.71 77.72 C208.3 50.02, 233.41 18.08, 249.43 1.89 M180.3 77.87 C199.65 57.22, 219.43 34.33, 249.01 0.29 M183.67 78.62 C203.45 58.2, 219.25 40.81, 255.12 1.06 M185.86 78.36 C204.11 58.14, 223.18 35.21, 253.77 0.58 M189.25 80.02 C209.09 56.57, 229.23 34.81, 259.62 1.59 M191.38 78.55 C216.6 49.72, 239.52 22.54, 259.11 -0.05 M197.76 79.97 C218.17 53.33, 242.66 25.5, 264.12 -1.48 M197.04 79.94 C219.29 53.13, 243.99 24.96, 265.54 0.82 M200.8 79.82 C219.39 57.46, 238.85 34.42, 269.18 -0.05 M202.25 79.64 C230.01 48.61, 256.33 17.05, 270.35 -0.1 M204.86 78.53 C220.24 62.45, 237.37 45.11, 274.77 -0.79 M207.46 78.82 C221.85 61.42, 236.61 46.14, 274.96 -0.38 M211.34 76.73 C230.3 59.69, 246.63 40.69, 279.87 1.06 M211.54 78.13 C228.4 62.46, 242.19 43.93, 280.82 0.52 M216.12 79.03 C239.59 56.85, 259.69 32.33, 286.47 -2.15 M217.57 78.08 C242.27 51.34, 268.77 20.44, 286.69 0.68 M221.64 78.09 C247.52 52.96, 270.03 26.69, 291.21 -0.26 M222.24 78.44 C244.84 53.98, 266.09 30.75, 290.52 0.1 M228.44 80.91 C250.78 56.69, 268.93 30.28, 297.38 -1.15 M227.65 78.69 C254.74 47.04, 283.62 16.99, 296.77 0.11 M235.25 76.95 C255.92 52.57, 276.43 32.59, 302.52 -0.49 M234.69 79.35 C253.29 58.12, 271.69 36.4, 302.28 -0.19 M238.51 80.34 C259.57 53.35, 281.73 27.71, 306.47 -1.63 M238.86 78.5 C257.75 57.38, 275.92 36.35, 307.59 -0.59 M244.49 78.07 C269.5 46.23, 294.48 17.79, 310.91 -1.35 M243.61 79.05 C267.86 49.19, 294.85 20.43, 312.8 0.71 M248.81 80.18 C277.87 47.86, 302.36 17.12, 319.46 -1.72 M250.21 79.27 C266.98 60.84, 282.01 41.25, 318.9 0.45 M255.84 80.7 C280.14 49.05, 305.75 18.36, 321.23 0.12 M254.4 78.86 C279.52 49.58, 305.65 17.92, 323.64 0.76 M261.58 80.05 C283.48 49.37, 309.78 21.1, 326.88 0.14 M259.56 79.64 C284.22 51.26, 308.37 22.05, 328.82 0.52 M266.48 77.55 C280.25 63.96, 292.29 45.39, 332.17 1.62 M264.79 79.23 C288.21 51.1, 313.14 24.93, 334.21 -0.2 M268.85 78.27 C290.1 55.33, 310.14 32.82, 338.03 -0.72 M270.64 78.14 C296.33 51.04, 319.56 21.73, 338.82 -0.73 M274.44 77.29 C301.67 51.24, 323.78 24.98, 346.14 1.55 M275.92 79.26 C291.61 61.72, 307.21 43.17, 344.79 0.57 M282.45 77.85 C305.47 53.38, 327.7 22.14, 350.33 -0.55 M282.05 78.2 C305.02 49.43, 330.1 21.15, 350.07 0.51 M287.17 79.57 C310.36 48.29, 339.79 18.09, 355.39 1.05 M285.93 78.72 C301.27 62.97, 316.35 44.72, 355.52 -0.3 M291.97 80.57 C305.27 63.2, 319.67 47.75, 361.95 -0.1 M292.23 79.13 C318.69 47.52, 344.73 16.45, 361.07 0.2 M294.92 77.75 C315.91 59.17, 333.09 38.74, 363.9 -2.03 M296.31 79.72 C317.13 56.97, 335.93 34.4, 365.39 0.69 M302.79 76.9 C331.84 46.9, 356.22 18.86, 369.89 1.83 M302.49 79.13 C318.55 58.5, 336.43 38.73, 370.72 -0.09 M308.69 80.92 C323.49 62.3, 338.77 41.67, 377.46 0.87 M306.94 79.79 C321.81 62.3, 335.47 45.78, 377.25 -1.03 M314.07 80.02 C334.43 51.48, 358.19 25.78, 382.56 -0.57 M314 78.3 C327.86 60.74, 344.3 43.13, 381.93 0.87 M318.29 79.89 C341.42 52.92, 363.27 28.37, 385.63 -0.96 M319.03 78.85 C339.44 54.73, 359.61 30.39, 386.83 0.82 M324.73 79.86 C346.86 50.96, 369.91 25.32, 393.17 -1.41 M322.78 79.62 C350.98 47.25, 378.69 15.49, 391.97 -0.3 M330.3 77.16 C346.61 57.69, 367.02 33.66, 395.78 0.49 M328.17 78.2 C352.88 52.81, 377.56 24.48, 397.68 0.44 M335.52 77.04 C350.62 61.48, 363.82 45.73, 401.72 -1.08 M334.71 77.98 C358.28 52.35, 381.55 26.57, 403.45 -0.58 M338.08 80.98 C364.63 48.56, 390.47 20.21, 407.01 -2.06 M339.3 79.55 C355.76 60, 371.41 41.71, 408.25 -1.1 M346.93 76.9 C364.67 57.55, 381.42 36.54, 412.96 -0.24 M344.55 79.13 C359.41 62.86, 372.84 46.85, 413.38 0.42 M351.78 79.32 C362.91 63.21, 377.74 46.03, 420.24 -1.16 M349.7 79.97 C372.1 56.65, 392.35 31.33, 418.82 -0.82 M357.23 79.53 C370.71 61.12, 383.51 43.99, 422.44 -1.84 M354.9 78.73 C374.08 59.07, 391.15 38.85, 424.09 -0.51 M360.31 77.84 C384.29 49.18, 411.27 21.82, 428.15 -0.66 M360.05 78.94 C376.79 60.04, 393.45 41.37, 428.55 -0.87 M364.51 77.7 C390.23 49.96, 414.19 25.08, 434.5 -1.12 M367.21 79.34 C386.76 53.72, 408.27 29.26, 434.29 0.81 M369.39 77.94 C389.92 53.82, 410.05 31.39, 441.23 -1.68 M371.37 79.34 C394.48 49.13, 420.04 22.45, 440.45 0.52 M375.95 79.67 C391.02 62.71, 402.88 46.5, 444.25 0.43 M376.16 80.15 C398.72 53.45, 419.59 28.94, 446.06 0.96 M383.49 78.74 C400.95 58.3, 418.26 39.11, 449.72 -0.61 M382.02 78.42 C403.49 52.68, 426.08 28.81, 450.39 -0.03 M388.48 80.17 C401.52 59.39, 418.13 44.33, 455.59 1.01 M387.25 78.97 C413.85 50.02, 437.94 21.22, 455.8 -0.11 M391.9 79.07 C417.76 49.73, 442.42 17.29, 461.66 0.87 M392.75 78.84 C409.73 60.72, 423.9 42.71, 462.09 0.02 M398.86 78.88 C418.64 54.5, 437.86 33.88, 467.17 0.54 M397.85 79.78 C418.15 55.73, 438.01 33.32, 467.31 -0.04 M402.65 79.49 C427.41 49.67, 453.95 18.82, 472.2 -1.47 M403.65 79.62 C425.69 53.3, 448.24 29.13, 471.49 0.85 M408.28 79.47 C422.52 60.9, 441.61 39.19, 478.47 -1.32 M408.87 78.69 C426.75 57.69, 444.67 36.22, 476.73 0.92 M412.58 80.26 C429.39 58.37, 448.23 36.66, 480.25 0.64 M413.18 79.21 C430.87 59.11, 449.42 38.88, 482.35 0.26 M419.72 80.32 C441.45 53.44, 466.07 28.73, 487.72 0.78 M419.07 79.71 C445.61 48.94, 470.52 19.09, 487.56 0.89 M425.3 79.37 C437.66 62.38, 453.98 45.44, 494.54 -1.58 M425.16 78.42 C443.03 56.17, 460.85 35.73, 493.32 1.22 M427.92 80.53 C455.77 52.15, 479.05 21.95, 497.94 -0.06 M430.07 79.72 C450.25 54.51, 471.91 29.15, 497.66 -0.6 M433.21 78.53 C457.71 51.35, 482.89 24.53, 502.23 1.06 M435.75 79.47 C449.72 62.43, 463.8 45.06, 503.56 -0.19 M441.41 77.91 C464.2 52.28, 489.96 23.79, 510.92 -1.06 M439.34 79.51 C453.56 62.55, 468.72 45.53, 508.26 0.37 M447.47 77.18 C463.95 57.9, 482.35 33.8, 514.24 -1.53 M446.5 78.96 C463.94 57.08, 480.63 36.36, 513.11 1.02 M452.52 79.01 C472.26 54.57, 489.61 34.78, 521.24 0.32 M451.24 78.75 C466.34 60.76, 482.52 43.21, 518.94 -0.9 M456.04 78.45 C482.93 49.96, 509.69 19.57, 523.31 -0.72 M457.29 78.89 C473.93 58.66, 492.74 38.32, 523.85 -0.26 M459.34 77.08 C486.24 48.19, 512.83 22.19, 530.28 0.32 M461.94 79 C477.26 62.73, 491.81 45.26, 530.63 -0.71 M465.66 79.21 C492.49 48.86, 518.59 18.77, 533.94 0.85 M467.38 79.63 C492.9 47.69, 518.24 18.46, 534.53 -0.28 M471.74 78.08 C492.51 54.3, 517.55 27.02, 540.16 -1.12 M472.52 78.72 C498.85 47.9, 524.25 17.23, 540.64 0.02 M475.86 80.04 C499.31 51.84, 522.13 26.78, 544.41 -0.76 M478.38 78.96 C493.24 58.39, 510.55 39.56, 545.74 0.62 M481.39 78.73 C507.9 53.25, 529.23 23.94, 551.82 1.7 M481.89 78.25 C500.71 57.3, 520.12 36.12, 551.62 -1.22 M488.26 80.01 C513.98 48.65, 541.2 17.63, 556.78 -0.77 M486.61 79.8 C512.59 49.04, 539.23 19.96, 556.95 1 M491.73 80.42 C516.79 50.87, 541.64 23.04, 562.96 -1.84 M493.82 78.83 C517.31 51.64, 541.18 23.71, 562.59 0.43 M499.27 79.61 C516.89 58.4, 533.63 37, 566.91 0.34 M498.7 80.21 C524.37 50.13, 549.78 19.99, 567.48 -0.71 M503.97 79.28 C523.27 58.54, 541.76 38.07, 574.07 -0.62 M503.96 79.59 C521.17 58.93, 538.99 38.8, 571.94 0.23 M510.08 79.36 C527.25 61.19, 543.46 38.02, 576.44 1.05 M508.7 78.87 C534.42 50.9, 559.41 21.9, 575.56 3.08 M515.11 80.18 C539.03 51.51, 563.49 24.33, 575.2 8.49 M514.79 78.54 C535.8 54.3, 556.48 31.1, 575.18 7.14 M519.35 78.7 C537.75 56.98, 555.4 38.16, 576.24 15.85 M519.65 79.13 C537.85 57.6, 556.65 36.79, 576.66 15.14 M523.95 78.66 C538.5 63.33, 548.72 48.96, 574.33 21.52 M524.67 79.58 C539.92 61.32, 555.88 43.37, 576.34 19.65 M528.5 78.81 C540.27 68.54, 549.94 58.02, 576.01 26.59 M529.97 78.71 C547.38 60.63, 563.6 39.91, 576.2 25.77 M537.05 79.03 C548.94 64.4, 559.99 51.71, 574.93 31.73 M534.81 79.53 C551.56 60.96, 567.09 44.02, 576.51 33.2 M539.73 80.59 C553.34 67.04, 565.63 50.31, 574.73 39.65 M540.41 78.74 C547.45 70.33, 554.2 63.42, 576.96 38.97 M546.75 80.28 C552.21 72.49, 558.89 65.52, 573.9 43.59 M546.29 79.06 C556.33 65.86, 567.59 55.08, 576.8 45.08 M550.02 78.65 C560.85 69.01, 570.78 58.54, 575.16 50.14 M551.11 78.71 C559.23 68.6, 568.7 59.04, 576.54 49.64 M557.18 78.15 C563.3 75.65, 565.89 68.53, 575 55.56 M557.03 77.76 C564.44 70.36, 571.26 63.94, 576.75 56.27 M561.16 79.33 C567.59 73.27, 572.2 67.49, 577.16 64.62 M562.55 79.54 C565.27 75.03, 570.93 69.2, 575.78 63.3 M566.73 78.93 C569.35 76, 571.79 75.45, 576.95 67.7 M567.11 78.95 C570.96 74.63, 574.52 70.91, 575.97 69.2 M572.87 78.95 C573.14 78.29, 574 76.91, 575.5 75.48 M572.59 78.91 C573.63 77.8, 574.59 76.75, 575.99 75.49" stroke="#c8c8c8" stroke-width="0.5" fill="none"></path><path d="M0.47 -0.6 C196.39 -1.82, 393.37 -2.49, 573.68 -0.54 M0.21 0.24 C201.37 -1.67, 402.95 -1.97, 573.62 0.31 M575.16 1.15 C574.34 32.52, 571.94 59.93, 572.11 78.35 M574.58 -0.95 C572.28 22.88, 573.45 47.87, 573.57 79.37 M573.14 79.47 C453 79.39, 331.14 78.53, 0.3 77.97 M573.81 79 C374.67 78.24, 175.34 78.67, 0.2 79.09 M0.71 80.25 C-0.81 59.48, -1.8 41.58, -1.02 -1 M0.2 77.75 C0.03 62.62, 0.36 46.84, 0.41 -0.44" stroke="#495057" stroke-width="1" fill="none"></path></g><g transform="translate(559.0591595472688 88.7898528620517) rotate(0 486.375 123.85607293935027)"><text x="0" y="0" font-family="Cascadia, Segoe UI Emoji" font-size="207.5263984073621px" fill="#087f5b" text-anchor="start" style="white-space: pre;" direction="ltr" dominant-baseline="text-before-edge">App Name</text></g><g stroke-linecap="round" transform="translate(1654.613590485551 2894.342207690356) rotate(0 259.15101156009405 82.76515722796694)"><path d="M10.36 10.33 C10.36 10.33, 10.36 10.33, 10.36 10.33 M10.36 10.33 C10.36 10.33, 10.36 10.33, 10.36 10.33 M3.54 24.27 C11.82 17.37, 17.97 10.05, 21.25 3.9 M3.54 24.27 C7.22 20.17, 10.25 15.31, 21.25 3.9 M1.96 32.18 C9.5 22.78, 20.99 11.4, 25.58 5.01 M1.96 32.18 C10.85 21.39, 20.34 13.1, 25.58 5.01 M1.7 38.58 C13.56 23.94, 24.93 13.39, 31.88 3.86 M1.7 38.58 C10.06 28.15, 17.96 19.36, 31.88 3.86 M1.44 44.98 C15.46 31.85, 27.55 17.06, 38.18 2.71 M1.44 44.98 C12.57 32.47, 22.22 19.83, 38.18 2.71 M1.84 50.62 C14.53 34.5, 31.4 18.31, 43.82 2.32 M1.84 50.62 C15.75 33.16, 32.14 16.24, 43.82 2.32 M1.57 57.02 C18.63 34.39, 38.75 15.08, 49.47 1.92 M1.57 57.02 C13.34 42.7, 24.16 29.05, 49.47 1.92 M1.97 62.66 C21.21 42.63, 39.81 19.95, 54.45 2.28 M1.97 62.66 C16.03 47, 30.08 30.71, 54.45 2.28 M1.71 69.06 C19.64 47.21, 36.29 28.29, 60.1 1.89 M1.71 69.06 C14.27 55.69, 26.58 42.15, 60.1 1.89 M1.45 75.46 C23 49.37, 47.18 25.81, 65.08 2.25 M1.45 75.46 C23.88 49.46, 45.12 24.77, 65.08 2.25 M1.84 81.1 C27.38 54.93, 48.17 25.83, 70.73 1.86 M1.84 81.1 C23.49 55.39, 45.27 31.05, 70.73 1.86 M1.58 87.5 C20.07 66.91, 37.43 42.72, 75.71 2.22 M1.58 87.5 C29.05 58.12, 56.22 25.84, 75.71 2.22 M1.32 93.9 C29.7 60.84, 56.24 32.24, 80.7 2.58 M1.32 93.9 C31.47 59.09, 61.79 24.73, 80.7 2.58 M1.71 99.54 C33.74 62.12, 63.83 28.33, 86.34 2.18 M1.71 99.54 C34.55 62.3, 67.04 25.09, 86.34 2.18 M1.45 105.94 C36.2 67.49, 71.09 25.93, 91.33 2.54 M1.45 105.94 C34.3 70.44, 66.34 32.53, 91.33 2.54 M1.84 111.58 C32.99 74.36, 65.11 41.69, 96.97 2.15 M1.84 111.58 C30.56 79.66, 58.02 46.58, 96.97 2.15 M1.58 117.98 C28.21 85.72, 61.53 50.2, 101.96 2.51 M1.58 117.98 C30.95 85.97, 59.55 52.37, 101.96 2.51 M1.32 124.38 C41.57 79.77, 78.4 36.94, 107.6 2.11 M1.32 124.38 C32.06 85.6, 65.62 48.7, 107.6 2.11 M1.72 130.02 C42.98 80.03, 87.86 27.7, 112.59 2.47 M1.72 130.02 C41.62 83.45, 81.27 38.49, 112.59 2.47 M2.11 135.66 C30.46 104.43, 60.78 71.16, 118.23 2.08 M2.11 135.66 C26.22 104.99, 53.73 75.56, 118.23 2.08 M3.82 139.8 C43.31 91.46, 85.48 45.97, 123.22 2.44 M3.82 139.8 C30.71 110.62, 56.77 78.48, 123.22 2.44 M5.52 143.93 C42.28 102.85, 76.64 57.69, 128.86 2.04 M5.52 143.93 C51.26 91.09, 99.1 37.31, 128.86 2.04 M5.92 149.57 C42.7 109.43, 75.91 70.18, 133.85 2.4 M5.92 149.57 C47.61 102.24, 89.75 54.43, 133.85 2.4 M8.28 152.95 C35.98 118.69, 67.4 84.11, 139.49 2.01 M8.28 152.95 C49.53 104.96, 91.39 58.66, 139.49 2.01 M11.3 155.58 C49.24 113.63, 83.95 71.7, 144.48 2.37 M11.3 155.58 C56.69 104.66, 101.74 54.25, 144.48 2.37 M14.32 158.2 C54.87 112.82, 90.7 70.99, 150.12 1.97 M14.32 158.2 C53.34 111.58, 93.8 66.79, 150.12 1.97 M17.99 160.07 C56.23 113.96, 94.18 70.95, 155.11 2.33 M17.99 160.07 C61.33 111.37, 104.01 62.17, 155.11 2.33 M21.67 161.94 C60.68 115.28, 99.66 69.27, 160.75 1.94 M21.67 161.94 C72.35 103.63, 123.5 44.33, 160.75 1.94 M24.69 164.56 C56.36 130.56, 87.28 92.9, 165.74 2.3 M24.69 164.56 C76.53 102.87, 129.7 42.64, 165.74 2.3 M29.68 164.92 C86.14 100.66, 144.28 34.57, 171.38 1.91 M29.68 164.92 C77.91 107.59, 128.15 50.41, 171.38 1.91 M34.01 166.04 C67.23 123.44, 103.17 83.84, 176.37 2.27 M34.01 166.04 C90.81 102.27, 145.12 39.32, 176.37 2.27 M38.99 166.4 C93.77 104.06, 148.74 39.93, 182.01 1.87 M38.99 166.4 C70.31 130.69, 100.74 95.39, 182.01 1.87 M43.32 167.51 C88.82 116.17, 134.86 63.16, 187 2.23 M43.32 167.51 C87.57 116.32, 132.49 63.97, 187 2.23 M48.97 167.12 C93.86 117.09, 142.01 61.7, 192.64 1.84 M48.97 167.12 C92.05 118.77, 133.58 69.53, 192.64 1.84 M53.95 167.48 C112.02 102.49, 165.66 37.45, 197.63 2.2 M53.95 167.48 C90.48 128.12, 126.58 85.57, 197.63 2.2 M59.6 167.08 C98.69 118.87, 138.5 73.08, 202.62 2.56 M59.6 167.08 C103.05 115.17, 147.35 63.98, 202.62 2.56 M64.58 167.44 C99.31 126.71, 136.84 89.41, 208.26 2.16 M64.58 167.44 C118.25 106.51, 171.46 44.82, 208.26 2.16 M70.23 167.05 C110.07 120.67, 150.12 76.78, 213.25 2.52 M70.23 167.05 C113.15 119.08, 155.27 71.11, 213.25 2.52 M75.21 167.41 C116.11 123.17, 155.12 76.87, 218.89 2.13 M75.21 167.41 C103.16 132.89, 133.26 98.51, 218.89 2.13 M80.86 167.01 C123.88 115.45, 168.79 67.61, 223.88 2.49 M80.86 167.01 C124.11 116.49, 169.35 64.72, 223.88 2.49 M85.84 167.37 C127.67 119.85, 169.1 71.69, 229.52 2.09 M85.84 167.37 C140.22 105.55, 192.44 45.74, 229.52 2.09 M91.49 166.98 C135.48 118.21, 176 70.76, 234.51 2.45 M91.49 166.98 C140.35 112.37, 187.36 58.05, 234.51 2.45 M96.47 167.34 C139.69 119.96, 180.12 71.73, 240.15 2.06 M96.47 167.34 C128.5 132.94, 159.91 97.89, 240.15 2.06 M101.46 167.7 C150.57 107.93, 203.58 48.23, 245.14 2.42 M101.46 167.7 C149.81 112.3, 196.76 56.72, 245.14 2.42 M107.1 167.31 C147.94 120.6, 190.49 72.63, 250.78 2.02 M107.1 167.31 C160.35 105.6, 213.11 44.29, 250.78 2.02 M112.09 167.67 C165.2 106.4, 216.83 47.17, 255.77 2.38 M112.09 167.67 C142.4 131.93, 174.39 96.19, 255.77 2.38 M117.73 167.27 C166.84 110.77, 215.16 56.15, 261.41 1.99 M117.73 167.27 C151.11 126.75, 185.86 89.02, 261.41 1.99 M122.72 167.63 C168.77 111.78, 214.84 59.87, 266.4 2.35 M122.72 167.63 C165.43 119.16, 208.13 71.06, 266.4 2.35 M128.36 167.24 C167.5 121.86, 204.43 79.92, 272.04 1.96 M128.36 167.24 C166.28 124.94, 203.24 83.49, 272.04 1.96 M133.35 167.6 C166.51 128.62, 198.7 90.47, 277.03 2.32 M133.35 167.6 C188.6 102.53, 245.57 38.44, 277.03 2.32 M139 167.2 C187.3 107.55, 240.29 51.98, 282.67 1.92 M139 167.2 C176.01 123.78, 214.47 78.82, 282.67 1.92 M143.98 167.56 C182.57 124.87, 217.83 86.33, 287.66 2.28 M143.98 167.56 C194.31 109.69, 244.28 51.78, 287.66 2.28 M149.63 167.17 C184.32 129.04, 215.28 90.93, 293.3 1.89 M149.63 167.17 C198.23 111.72, 246.27 57.33, 293.3 1.89 M154.61 167.53 C190.27 124.27, 228.42 78.47, 298.29 2.25 M154.61 167.53 C200.71 115.71, 246.57 63.09, 298.29 2.25 M160.26 167.13 C187.91 132.75, 218.66 99.18, 303.93 1.85 M160.26 167.13 C205.62 114.82, 251.8 61.86, 303.93 1.85 M165.24 167.49 C217.64 105.08, 270.84 46.18, 308.92 2.21 M165.24 167.49 C204.18 121.09, 243.29 76.64, 308.92 2.21 M170.89 167.1 C217.46 111.77, 266.43 59.46, 313.91 2.57 M170.89 167.1 C217.22 113.3, 265.32 59.49, 313.91 2.57 M175.87 167.46 C228 108.31, 281.8 48.89, 319.55 2.18 M175.87 167.46 C218.45 121.05, 259.4 73.86, 319.55 2.18 M181.52 167.06 C233.89 109.93, 284.6 51, 324.54 2.54 M181.52 167.06 C217.82 125.67, 252.32 86.38, 324.54 2.54 M186.5 167.42 C227.3 121.95, 266.58 79.89, 330.18 2.14 M186.5 167.42 C224.56 124.49, 260.91 81.9, 330.18 2.14 M192.15 167.03 C239.99 111.05, 287.92 55.8, 335.17 2.5 M192.15 167.03 C220.83 132.2, 249.71 99.02, 335.17 2.5 M197.13 167.39 C229.18 131.22, 260.22 94.82, 340.81 2.11 M197.13 167.39 C226.07 133.29, 254.93 99.87, 340.81 2.11 M202.78 167 C235.43 127.58, 270.9 87.21, 345.8 2.47 M202.78 167 C248.62 115.48, 291.9 64.96, 345.8 2.47 M207.76 167.36 C258.32 109.29, 309.48 53.73, 351.44 2.07 M207.76 167.36 C255.36 112.11, 303.33 55.57, 351.44 2.07 M212.75 167.72 C265.16 108.51, 317.33 50.28, 356.43 2.43 M212.75 167.72 C260.2 112.41, 307.77 57.12, 356.43 2.43 M218.39 167.32 C262.71 115.29, 306.32 66.94, 362.07 2.04 M218.39 167.32 C247.78 134.1, 278.07 99.97, 362.07 2.04 M223.38 167.68 C259.27 123, 299.28 79.59, 367.06 2.4 M223.38 167.68 C254.28 133.33, 283.86 97.06, 367.06 2.4 M229.02 167.29 C278.78 109.1, 332 52.36, 372.7 2 M229.02 167.29 C280.13 107.74, 333.48 47.87, 372.7 2 M234.01 167.65 C273.22 122.09, 316.06 73.3, 377.69 2.36 M234.01 167.65 C282.41 110.9, 329.06 55.95, 377.69 2.36 M239.65 167.25 C277.35 126.54, 313.61 82.1, 383.33 1.97 M239.65 167.25 C278.75 123.04, 317.84 79.84, 383.33 1.97 M244.64 167.61 C275.78 130.42, 305.3 93.21, 388.32 2.33 M244.64 167.61 C283.47 125.78, 321.44 82.21, 388.32 2.33 M250.28 167.22 C278.5 135.3, 310.03 103.47, 393.96 1.94 M250.28 167.22 C278.11 134.18, 308.4 100.45, 393.96 1.94 M255.27 167.58 C286.16 132.73, 316.49 99.03, 398.95 2.3 M255.27 167.58 C287.23 129.66, 318.89 92.1, 398.95 2.3 M260.91 167.18 C303.97 118.87, 343.8 74.36, 404.59 1.9 M260.91 167.18 C313.32 106.38, 365.98 47.73, 404.59 1.9 M265.9 167.54 C303.65 124.31, 340.98 81.36, 409.58 2.26 M265.9 167.54 C297.09 130.86, 328.14 97.01, 409.58 2.26 M271.54 167.15 C300.65 132.76, 330.16 100.24, 415.22 1.87 M271.54 167.15 C322.49 109.11, 374.08 49.98, 415.22 1.87 M276.53 167.51 C326.86 109.75, 380.31 50.92, 420.21 2.23 M276.53 167.51 C316.01 122.58, 354.68 77.02, 420.21 2.23 M282.17 167.11 C337.72 102.16, 394.03 39.65, 425.85 1.83 M282.17 167.11 C328.27 116.75, 373.29 63.68, 425.85 1.83 M287.16 167.47 C333.87 112.62, 380.79 61.24, 430.84 2.19 M287.16 167.47 C320.57 129.21, 352.85 92.36, 430.84 2.19 M292.8 167.08 C327.85 127.09, 360.68 86.99, 435.82 2.55 M292.8 167.08 C342.84 109.03, 394.26 49.93, 435.82 2.55 M297.79 167.44 C350.36 109.68, 401.16 49.86, 441.47 2.16 M297.79 167.44 C349.52 110.65, 401.06 51.24, 441.47 2.16 M303.43 167.04 C348.2 116.64, 392.94 62.51, 446.45 2.52 M303.43 167.04 C355.02 108.98, 406.04 50.42, 446.45 2.52 M308.42 167.4 C352.73 113.78, 401.34 61.2, 452.1 2.12 M308.42 167.4 C352.6 115.85, 396.05 65.98, 452.1 2.12 M314.06 167.01 C366.54 107.44, 419.22 49.18, 457.08 2.48 M314.06 167.01 C366.27 107.98, 417.32 48.92, 457.08 2.48 M319.05 167.37 C349.51 133.46, 381.72 95.73, 462.73 2.09 M319.05 167.37 C373.37 105.43, 427.67 43.46, 462.73 2.09 M324.69 166.98 C355.62 131.17, 391.7 89.93, 467.71 2.45 M324.69 166.98 C374.32 111.68, 423.15 53.43, 467.71 2.45 M329.68 167.34 C375.79 113.18, 423.24 58.03, 473.36 2.05 M329.68 167.34 C365.74 124.08, 403.47 82.76, 473.36 2.05 M334.67 167.7 C390.06 101.45, 447.86 33.74, 479 1.66 M334.67 167.7 C380.2 115.64, 426.48 63.89, 479 1.66 M340.31 167.3 C380.74 118.62, 424.58 73.64, 483.33 2.77 M340.31 167.3 C379.61 123.9, 417.44 78.67, 483.33 2.77 M345.3 167.66 C378.66 126.3, 414.7 89.04, 488.32 3.13 M345.3 167.66 C400.22 105.08, 453.67 43.92, 488.32 3.13 M350.94 167.27 C382.63 132.63, 408.91 98.97, 493.31 3.49 M350.94 167.27 C397.91 112.89, 445.1 60.1, 493.31 3.49 M355.93 167.63 C403.8 109.86, 453.77 55.52, 497.64 4.61 M355.93 167.63 C390.87 128.97, 427.37 86.62, 497.64 4.61 M361.57 167.23 C407.36 113.5, 452.28 59.09, 501.31 6.48 M361.57 167.23 C416.65 102.49, 471.63 38.99, 501.31 6.48 M366.56 167.59 C395.89 133.46, 427.2 98.47, 504.99 8.35 M366.56 167.59 C418.38 109.49, 468.29 51.48, 504.99 8.35 M372.2 167.2 C423.07 104.56, 478.65 42.21, 508.01 10.97 M372.2 167.2 C425.58 105, 479.4 42.67, 508.01 10.97 M377.19 167.56 C428.28 108.45, 478.35 50.01, 510.37 14.35 M377.19 167.56 C427.48 109.84, 479.16 52.23, 510.37 14.35 M382.83 167.16 C416.33 128.95, 454.7 88.34, 513.39 16.98 M382.83 167.16 C425.38 117.27, 468.24 68.14, 513.39 16.98 M387.82 167.52 C420.34 127.51, 454 88.64, 515.09 21.11 M387.82 167.52 C419.15 133.08, 450.69 96.4, 515.09 21.11 M393.46 167.13 C431.03 125.41, 465.81 84.87, 516.14 26 M393.46 167.13 C434.96 117.44, 477.19 67.57, 516.14 26 M398.45 167.49 C434.08 132.28, 466.85 90.75, 517.85 30.13 M398.45 167.49 C441.73 120.41, 482.28 73.44, 517.85 30.13 M404.09 167.09 C448.27 115.81, 496.08 62.54, 520.21 33.51 M404.09 167.09 C435.77 128.38, 468.69 91.08, 520.21 33.51 M409.08 167.45 C452.8 115.74, 494.62 69.91, 519.95 39.91 M409.08 167.45 C449.62 120.06, 491.47 71.68, 519.95 39.91 M414.72 167.06 C445.43 130.2, 481.34 95.01, 520.35 45.55 M414.72 167.06 C446.55 131.02, 478.62 92.52, 520.35 45.55 M419.71 167.42 C453.2 126.01, 488.86 89.31, 520.09 51.95 M419.71 167.42 C443.41 139.42, 467.64 114.07, 520.09 51.95 M425.35 167.03 C462.67 126.86, 497.4 85, 520.48 57.59 M425.35 167.03 C451.03 135.1, 477.93 105.92, 520.48 57.59 M430.34 167.39 C447.45 143.66, 466.66 124.59, 520.22 63.99 M430.34 167.39 C461.06 131.56, 491.8 95.18, 520.22 63.99 M435.98 166.99 C466.32 130.51, 496.51 96.5, 519.96 70.39 M435.98 166.99 C453.83 146.7, 471.63 125.68, 519.96 70.39 M440.97 167.35 C461.77 141.79, 483.55 117.6, 520.35 76.03 M440.97 167.35 C468.18 136.01, 496.46 104.32, 520.35 76.03 M445.96 167.71 C466.81 145.87, 483.93 125.36, 520.09 82.43 M445.96 167.71 C473.14 135.73, 502.32 103.07, 520.09 82.43 M451.6 167.32 C472.71 140.82, 498.94 114.74, 520.48 88.07 M451.6 167.32 C477.18 137.78, 504.2 107.39, 520.48 88.07 M456.59 167.68 C472.43 152.83, 487.11 135.59, 520.22 94.47 M456.59 167.68 C471.17 151.25, 487.44 133.59, 520.22 94.47 M462.23 167.28 C484.93 141.72, 504.46 115.67, 520.62 100.11 M462.23 167.28 C486.01 139.92, 508.61 113.43, 520.62 100.11 M467.22 167.64 C483 151.08, 495.59 135.57, 520.36 106.51 M467.22 167.64 C482.29 150.79, 497.59 134.07, 520.36 106.51 M472.86 167.25 C489.82 149.08, 505.19 133.62, 520.75 112.15 M472.86 167.25 C486.68 151.18, 499.28 135.56, 520.75 112.15 M478.5 166.85 C494.95 148.84, 509.89 127.33, 520.49 118.55 M478.5 166.85 C493.97 147.99, 508.22 131.04, 520.49 118.55 M484.8 165.7 C495.77 155.38, 505.05 142.25, 519.57 125.7 M484.8 165.7 C497.77 150.89, 508.73 138.24, 519.57 125.7 M490.44 165.31 C495.21 160.7, 500.89 153.65, 518.65 132.86 M490.44 165.31 C497.28 157.48, 503.93 148.36, 518.65 132.86 M496.74 164.16 C501.76 156.16, 506.54 151.3, 515.77 142.27 M496.74 164.16 C504.09 155.85, 509.7 149, 515.77 142.27" stroke="#40c057" stroke-width="0.5" fill="none"></path><path d="M41.38 0 M41.38 0 C192.57 -1.21, 345.18 -0.38, 476.92 0 M41.38 0 C142.34 1.27, 242.57 1.96, 476.92 0 M476.92 0 C502.94 0.92, 519.57 12.96, 518.3 41.38 M476.92 0 C502.23 0.55, 516.17 15.16, 518.3 41.38 M518.3 41.38 C515.74 64.47, 516.77 82.87, 518.3 124.15 M518.3 41.38 C519.18 59.18, 518.92 75.37, 518.3 124.15 M518.3 124.15 C519.33 151.9, 505.28 165.74, 476.92 165.53 M518.3 124.15 C518.7 150.92, 506.79 163.94, 476.92 165.53 M476.92 165.53 C364.3 166.68, 251.55 166.08, 41.38 165.53 M476.92 165.53 C354.54 165.37, 232.59 165.24, 41.38 165.53 M41.38 165.53 C12.62 166.49, 1.14 151.71, 0 124.15 M41.38 165.53 C12.7 164.8, 0.71 153.08, 0 124.15 M0 124.15 C-0.62 104.14, 0.99 87.38, 0 41.38 M0 124.15 C-0.25 100.81, -0.43 78.14, 0 41.38 M0 41.38 C-1.18 15.34, 11.87 -1.6, 41.38 0 M0 41.38 C0.26 13.41, 11.74 -2.15, 41.38 0" stroke="#495057" stroke-width="1" fill="none"></path></g><g transform="translate(1789.1973747408447 2931.2051793107175) rotate(0 119.60424041748047 40.80000000000018)"><text x="0" y="0" font-family="Virgil, Segoe UI Emoji" font-size="68.17821143883444px" fill="#000000" text-anchor="start" style="white-space: pre;" direction="ltr" dominant-baseline="text-before-edge">Primary</text></g><g stroke-linecap="round" transform="translate(1631.8354040548438 1932.0028695417386) rotate(0 1116.8977299006488 106.7655138283908)"><path d="M0.58 0.41 C520.64 -4.51, 1040.32 -4.48, 2233.19 -0.38 M0.23 0.27 C840.98 0.81, 1681.86 0.33, 2233.49 -0.34 M2232.78 1.35 C2232.14 58.57, 2232.38 120.69, 2234.63 213.1 M2233.83 -0.74 C2232.95 78.49, 2232.76 155.82, 2233.47 213.86 M2233.67 213.53 C1775.38 215.25, 1315.61 214.7, 0.6 213.94 M2234.09 213.67 C1361.77 220.25, 489.08 220.05, 0.19 213.33 M0.05 213.88 C0.05 160.92, 1.99 108.16, 1.05 0.72 M0.24 213.71 C2.69 158.98, 2.23 103.57, -0.32 -0.23" stroke="#495057" stroke-width="1" fill="none"></path></g><g transform="translate(1707.2242866566776 2010.0282712269618) rotate(0 284.02972412109375 40.80000000000018)"><text x="0" y="0" font-family="Virgil, Segoe UI Emoji" font-size="68.54542504413911px" fill="#495057" text-anchor="start" style="white-space: pre;" direction="ltr" dominant-baseline="text-before-edge">Input Field Text</text></g><g transform="translate(1653.634506485192 1814.739889294775) rotate(0 154.08621215820312 40.19999999999982)"><text x="0" y="0" font-family="Virgil, Segoe UI Emoji" font-size="67.76846938685843px" fill="#000000" text-anchor="start" style="white-space: pre;" direction="ltr" dominant-baseline="text-before-edge">Username</text></g><g transform="translate(1648.4610799369402 2194.0511208958924) rotate(0 107.04627990722656 31.199999999999818)"><text x="0" y="0" font-family="Virgil, Segoe UI Emoji" font-size="52.044229592745225px" fill="#000000" text-anchor="start" style="white-space: pre;" direction="ltr" dominant-baseline="text-before-edge">Message</text></g><g stroke-linecap="round" transform="translate(1635.4616567500962 2430.02647505594) rotate(0 1138.6500492365858 99.04975455104704)"><path d="M0.01 -0.35 C800.14 3.94, 1602.09 5.05, 2277.24 0.46 M0.36 -0.36 C836.51 -3.02, 1673.57 -2.67, 2276.95 -0.23 M2275.67 0.64 C2276.36 74.24, 2276.7 147.68, 2277.7 198.18 M2278.01 0.22 C2278.77 43.16, 2278.19 86.03, 2277.51 197.95 M2277.02 197.36 C1593.74 196.42, 909.71 195.54, 0.61 198.69 M2277.26 197.86 C1513.18 196.9, 748.5 196.73, 0.2 198.11 M0.26 199.59 C3.13 135.57, 1.04 69.41, -0.52 0.55 M0.41 197.21 C-2.22 134.41, -1.03 70.71, 0.28 0.71" stroke="#2b8a3e" stroke-width="1" fill="none"></path></g><g transform="translate(1712.9029975941776 2511.6213838124386) rotate(0 284.02972412109375 40.80000000000018)"><text x="0" y="0" font-family="Virgil, Segoe UI Emoji" font-size="68.54542504413911px" fill="#000000" text-anchor="start" style="white-space: pre;" direction="ltr" dominant-baseline="text-before-edge">Input Field Text</text></g><g transform="translate(1659.313217422692 2314.5403859942344) rotate(0 157.84689331054688 40.19999999999982)"><text x="0" y="0" font-family="Virgil, Segoe UI Emoji" font-size="67.76846938685843px" fill="#000000" text-anchor="start" style="white-space: pre;" direction="ltr" dominant-baseline="text-before-edge">Full Name</text></g><g transform="translate(1653.2434829314334 2692.0590017093355) rotate(0 215.8098602294922 31.199999999999818)"><text x="0" y="0" font-family="Virgil, Segoe UI Emoji" font-size="52.044229592745225px" fill="#2b8a3e" text-anchor="start" style="white-space: pre;" direction="ltr" dominant-baseline="text-before-edge">Success message</text></g><g transform="translate(1698.07939604911 1110.8434197755632) rotate(0 364.3704833984375 114.60000000000036)"><text x="0" y="0" font-family="Virgil, Segoe UI Emoji" font-size="191.07943903984878px" fill="#000" text-anchor="start" style="white-space: pre;" direction="ltr" dominant-baseline="text-before-edge">Account</text></g><g transform="translate(1712.5865752651262 1452.1538352541684) rotate(0 438.347900390625 102)"><text x="0" y="0" font-family="Virgil, Segoe UI Emoji" font-size="85.29337343085162px" fill="#000000" text-anchor="start" style="white-space: pre;" direction="ltr" dominant-baseline="text-before-edge">email: test@test.com</text><text x="0" y="102" font-family="Virgil, Segoe UI Emoji" font-size="85.29337343085162px" fill="#000000" text-anchor="start" style="white-space: pre;" direction="ltr" dominant-baseline="text-before-edge"></text></g></svg>