<svg version="1.1" xmlns="http://www.w3.org/2000/svg" viewBox="0 0 5416.390099881835 4570.690261538009" width="5416.390099881835" height="4570.690261538009">
  <!-- svg-source:excalidraw -->
  
  <defs>
    <style class="style-fonts">
      @font-face {
        font-family: "Virgil";
        src: url("https://excalidraw.com/Virgil.woff2");
      }
      @font-face {
        font-family: "Cascadia";
        src: url("https://excalidraw.com/Cascadia.woff2");
      }
    </style>
  </defs>
  <rect x="0" y="0" width="5416.390099881835" height="4570.690261538009" fill="#ffffff"></rect><g stroke-linecap="round" transform="translate(10 10) rotate(0 2694.66409025977 2274.8387271007095)"><path d="M0 0 L5389.33 0 L5389.33 4549.68 L0 4549.68" stroke="none" stroke-width="0" fill="#fff"></path><path d="M0 0 C1708.62 0, 3417.25 0, 5389.33 0 M0 0 C1155.82 0, 2311.65 0, 5389.33 0 M5389.33 0 C5389.33 1275.61, 5389.33 2551.22, 5389.33 4549.68 M5389.33 0 C5389.33 1238.66, 5389.33 2477.33, 5389.33 4549.68 M5389.33 4549.68 C4140.51 4549.68, 2891.7 4549.68, 0 4549.68 M5389.33 4549.68 C3925.77 4549.68, 2462.21 4549.68, 0 4549.68 M0 4549.68 C0 3577.24, 0 2604.8, 0 0 M0 4549.68 C0 2817.48, 0 1085.27, 0 0" stroke="#fa5252" stroke-width="4" fill="none"></path></g><g stroke-linecap="round" transform="translate(17.061919362295157 4051.215773093988) rotate(0 2694.66409025977 254.7372442220103)"><path d="M0 0 L5389.33 0 L5389.33 509.47 L0 509.47" stroke="none" stroke-width="0" fill="#eee"></path><path d="M0 0 C1164.02 0, 2328.05 0, 5389.33 0 M0 0 C1851.79 0, 3703.59 0, 5389.33 0 M5389.33 0 C5389.33 156.05, 5389.33 312.09, 5389.33 509.47 M5389.33 0 C5389.33 174.48, 5389.33 348.95, 5389.33 509.47 M5389.33 509.47 C3896.53 509.47, 2403.73 509.47, 0 509.47 M5389.33 509.47 C3456.2 509.47, 1523.06 509.47, 0 509.47 M0 509.47 C0 344.72, 0 179.97, 0 0 M0 509.47 C0 333.89, 0 158.31, 0 0" stroke="#fa5252" stroke-width="2" fill="none"></path></g><g stroke-linecap="round" transform="translate(30.34099311911632 27.225390642062848) rotate(0 2676.7011716564393 199.464857686894)"><path d="M-0.08 -0.43 C1575.15 -18.4, 3148.46 -18.92, 5353.68 0.35 M0.21 -0.08 C1550.4 -10.9, 3101.15 -11.19, 5353.39 0.03 M5352.28 -0.37 C5354.61 146.87, 5354.95 294.85, 5353.59 399.41 M5352.86 0.08 C5355.09 133.05, 5354.18 266.39, 5353.7 398.8 M5354.09 398.87 C3950.69 385.2, 2548.14 386.15, -0.75 399.4 M5353.24 399.14 C4082.1 401.94, 2810.59 402.1, -0.35 399.02 M1.08 398.19 C-1.25 285.74, 0.26 173.16, -0.78 0.51 M-0.47 399.43 C1.38 299.22, 1.05 199.23, 0.48 0.53" stroke="#000000" stroke-width="1" fill="none"></path></g><g stroke-linecap="round" transform="translate(149.4599605222138 133.38739402369902) rotate(0 157.5854670708104 86.38028039807978)"><path d="M-0.75 1.02 C101.6 -0.99, 201.9 0.71, 315.79 -0.15 M-0.14 -0.37 C93.13 -1.29, 185.14 -1.18, 315.22 0.49 M314.53 -1.14 C315.85 65.43, 317.2 132.3, 316.02 173.43 M315.31 0.91 C316.69 60.02, 317.25 121.92, 314.94 172.38 M315.07 172.42 C213.44 174.29, 113.9 173.37, 0.83 171.88 M315.55 172.63 C204.1 171.24, 93.24 171.23, 0.17 172.64 M-1.29 171.71 C-0.09 117.57, -0.01 57.78, 0.89 -1 M0.87 172.46 C0.69 131.88, 0.39 93.62, 0.93 -0.62" stroke="#000000" stroke-width="1" fill="none"></path></g><g stroke-linecap="round"><g transform="translate(216.57453594524122 273.7620316450957) rotate(0 98.5661539097091 -44.819545381174066)"><path d="M-0.64 0.86 C8.55 -8.26, 38.87 -54.68, 56.18 -54.87 C73.49 -55.07, 98.15 -2.61, 103.2 -0.32 C108.25 1.98, 81.24 -26.2, 86.48 -41.11 C91.71 -56.01, 116.06 -96.59, 134.61 -89.73 C153.16 -82.87, 187.45 -15.14, 197.77 0.03 M1.23 0.27 C10.2 -8.73, 38.58 -53.42, 55.41 -53.88 C72.24 -54.33, 96.94 -4.75, 102.2 -2.44 C107.47 -0.14, 81.85 -25.64, 87 -40.07 C92.15 -54.5, 114.96 -95.5, 133.1 -89.01 C151.24 -82.52, 185.23 -16.05, 195.85 -1.13" stroke="#000000" stroke-width="1" fill="none"></path></g></g><mask></mask><g stroke-linecap="round" transform="translate(3132.4605563308323 179.9613157894346) rotate(0 286.9057682441726 39.36341999154138)"><path d="M0 0 C0 0, 0 0, 0 0 M0 0 C0 0, 0 0, 0 0 M-0.3 5.94 C1.37 5.41, 2.32 4.31, 4.24 0.31 M0.04 6.28 C1.82 4.35, 3.2 2.16, 5.08 0.42 M1.63 13.54 C2.88 9.5, 7.07 6.2, 11.41 -1.25 M0.55 12.83 C2.77 10.19, 4.13 7.83, 10.63 0.68 M-0.5 17.11 C8.18 11.23, 10.86 4.8, 17.14 0.23 M0.63 17.47 C4.8 13.42, 9.99 7.32, 15.86 0.84 M-1.51 24.81 C5.24 16.87, 10.97 12.46, 22.41 1.49 M-0.65 24.3 C6.22 17.22, 11.86 9.51, 21.67 -0.31 M-0.64 30.88 C6.74 24.89, 12.38 19.37, 27.74 1.36 M0.69 30.44 C4.72 24.69, 9.47 18.8, 26.36 0.47 M1.21 38.58 C6.53 29.69, 13.34 20.87, 30.54 0.89 M0.38 37.6 C9.26 25.59, 20.66 13.9, 32.49 -0.82 M-1.84 43.66 C11.83 29.91, 21.94 16.76, 36.31 -0.01 M-0.48 41.69 C14.68 26.75, 28.44 9.14, 35.95 0.85 M1.51 47.44 C15.75 28.59, 31.5 13.7, 42 0.14 M-1.03 49.16 C9.44 37.56, 19.35 27.09, 42.66 0.59 M-1.46 56.33 C16.93 35.8, 34.27 13.14, 47 1.27 M-0.63 54.8 C17.47 33.47, 34.92 13.72, 47.73 -0.24 M-0.52 62.67 C14.14 46.48, 23.86 33.12, 52.54 0.53 M0.28 61.87 C13.02 46.62, 24.14 33.57, 54.11 -0.99 M0.23 68.29 C20.08 41.91, 41.35 17.94, 56.66 1.12 M0.21 67.93 C14.58 49.57, 29.72 32.2, 57.74 0.38 M0.61 73.56 C17.82 52.81, 35.91 31.13, 65.61 -0.88 M1.02 73.18 C14.29 55.57, 30.08 38.28, 64.2 0.41 M1.25 79.72 C16.3 60.04, 34.72 38.15, 68.84 0.25 M0.04 79.09 C25.26 48.65, 50.52 19.31, 67.88 0.22 M6.33 80.15 C31.21 50.57, 56.38 18.89, 74.39 -1.25 M5.02 78.9 C23.56 56.93, 43.7 35.82, 74.64 0.61 M11.96 77.04 C27.02 56.57, 47.22 38.43, 79.85 -1.85 M11.79 78.6 C32.87 54.01, 55.51 29.94, 78.95 0.15 M17.56 79.32 C42.21 49.65, 69.06 19.05, 83.78 -1.93 M15.78 78.2 C31.67 63.52, 45.35 47.35, 84.56 0.29 M19.37 80.31 C38.32 61.02, 54.43 42.68, 88.67 -0.92 M20.79 79.54 C42.67 55.79, 62.7 31.47, 89.64 -0.58 M28.68 78.73 C44.5 57.91, 64.55 33.45, 96.38 1.47 M27.42 78.69 C42.54 60.64, 56.46 44.79, 95.46 0 M32.03 77.82 C48.95 56.07, 70.56 32.69, 99.05 -1.91 M32.53 79.26 C58.14 50.61, 84.99 20.71, 101.52 0.62 M36.03 78.82 C60.17 51.19, 85.75 21.68, 106.54 1.14 M38.21 79.26 C60.82 51.82, 86.18 23.2, 106.24 -0.87 M44.25 79.88 C67.34 49.55, 93.36 22.59, 109.41 -0.99 M41.95 80.21 C57.85 61.7, 73.95 43.75, 112.07 0.71 M46.69 80.79 C61.42 62.51, 77.03 44.12, 117.65 -0.19 M48.31 79.19 C73.8 49.38, 99.35 20.17, 115.54 -0.29 M52.7 77.85 C65.58 63.84, 82.51 49, 122.93 0.46 M53.03 79.98 C80.64 47.92, 107.72 16.81, 121.65 0 M60.44 80.63 C77.3 58.32, 94.77 38.61, 126.8 1.73 M58.76 79.1 C77.54 54.69, 98.13 31.19, 127.34 0.34 M61.78 78.84 C82.01 58.65, 96.46 38.24, 133.48 1.82 M63.14 78.99 C79.07 61.91, 94.05 44.61, 132.5 -0.84 M67.79 79.09 C90.04 58.49, 107.71 36.17, 138.81 -0.82 M68.5 77.99 C86.38 60.4, 102.97 39.8, 138.08 -0.25 M73.61 79.76 C100.1 52.52, 121.66 22.89, 143.66 1.28 M74.02 79.54 C96.68 54.11, 117.73 30.25, 143.78 0.24 M79.96 79.75 C97.84 56.25, 118.04 33.12, 146.9 -0.52 M79.37 78.19 C94.32 62.2, 108.47 45.65, 148.2 0.79 M86.01 77.32 C113.16 47.6, 137.56 15.07, 154.8 1.78 M84.84 78.77 C105.33 56.14, 125.55 32.91, 154.51 -0.38 M90.89 78.91 C105.76 62.23, 119.73 47.02, 157.99 -0.28 M91.08 78.42 C109.95 54.9, 130.66 31.39, 158.56 0.15 M94.55 77.97 C119.27 54.71, 140.62 31.44, 164.91 1.07 M95.14 79.71 C112.34 58.84, 128.7 40.94, 164.61 -0.95 M99.25 79.7 C118.6 59.42, 135.74 35.98, 170.73 0.78 M100.24 78.73 C118.79 59.07, 137.09 38.47, 169.41 -0.61 M106.48 79.97 C126.58 56.15, 146.26 32.23, 174.77 1.66 M105.84 78.21 C123.01 59.12, 140.9 38.38, 175.9 0.66 M110.41 78.02 C136.8 51.85, 159.89 22.64, 181.48 1.32 M111.35 79.56 C136.85 49.53, 161.92 19.02, 179.37 -0.07 M118.81 79.35 C139.04 53.66, 160.21 32.84, 185.85 0.85 M116.27 80.01 C136.38 57.09, 155.26 34.05, 185.09 -0.1 M122.48 80.52 C139.67 58.01, 158.9 35.76, 190.34 -0.23 M121.81 78.68 C146.81 50, 172.98 20.87, 190.48 0.04 M128.23 79.94 C141.43 61.51, 158.38 40.97, 194.33 0.73 M127.13 79.7 C147.12 55.75, 167.01 35.21, 196.77 0.62 M132.28 78.67 C151.9 54.65, 174.63 31.01, 203.09 0.37 M132.9 78.25 C154.21 54.81, 175.38 32.57, 201.14 -0.14 M137.18 79.31 C162.96 52.34, 184.86 26.89, 205.14 -1.85 M137.54 79.72 C157.38 56.82, 176.32 33.58, 206.42 -0.01 M144.67 79.47 C166.99 47.79, 194.37 20.38, 213.26 -0.88 M142.14 78.51 C160.3 58.56, 178.03 38.42, 211.17 0.38 M147.81 78.86 C177.26 48.43, 202.04 17.97, 217.89 -1.25 M147.98 79.38 C170.08 53.48, 192.67 27.94, 217.42 -0.42 M153.24 80.41 C170.35 61.82, 183.7 46.71, 224.09 1.78 M152.9 79.82 C171.19 57.6, 189.39 36.61, 222.76 0.46 M159.97 77.74 C179.84 54.4, 200.16 31.93, 228.95 -1.03 M159.34 79.85 C180.73 54.79, 201.73 32.46, 228.04 0.28 M166.3 80.06 C186.51 51.45, 206.66 27, 234.54 1.94 M163.47 80.16 C177.6 63.47, 191.23 47.35, 233.5 -0.19 M169.25 78.89 C192.73 54.58, 212.71 30.57, 236.71 0.76 M169.89 79.16 C190.01 55.74, 212.47 31.3, 237.78 0.13 M175.53 80.99 C199.34 53.01, 224.15 23.28, 245.28 -1.06 M174.71 79.11 C192.92 58.13, 210.45 39.41, 243.36 0 M180.96 79.04 C196.76 59.69, 213.31 40.85, 250.29 -1.41 M180.3 79.19 C203.65 53.16, 225.16 27.27, 249 0.23 M185.37 80.56 C203 62.85, 216.85 41.69, 252.72 -0.1 M186.36 79.61 C203.17 58.41, 221 35.76, 253.71 -0.53 M192.1 78.67 C205.14 62.23, 220.18 44.47, 259.52 2 M190.63 78.68 C213.71 52.73, 236.34 26.3, 259.97 0.34 M194.92 80.93 C222.26 50.03, 246.15 21.35, 266.97 1.74 M196.03 78.95 C209.57 62.71, 224.87 46.65, 264.32 0.51 M201.44 80.09 C223.42 55.1, 240.32 31.11, 271.64 -1.47 M201.31 78.24 C226.62 49.32, 252.48 19.05, 270.55 0.8 M208.05 79 C223.1 61.51, 241.47 38.4, 273.85 1.14 M206.24 79.79 C225.29 57.86, 243.8 36.62, 276.33 0.27 M211.41 77.35 C230.72 54.3, 254.06 32.98, 280.59 0.51 M212.2 79.33 C231.61 56.36, 251.78 34.02, 280.43 0.32 M219.32 80.5 C236.8 56.97, 259.24 30.33, 284.93 0.58 M217.4 79.17 C234.2 60.56, 249.73 43.28, 287.28 -0.24 M222.2 78.3 C251.14 47.65, 274.3 18.6, 293.02 -0.94 M223.51 79.28 C236.63 62.25, 250.12 46.78, 292.23 0.95 M228.02 77.9 C256.27 47.79, 283.84 17.77, 295.47 -1.7 M228.81 79.44 C243.9 60.84, 261.87 39.6, 296.11 -1.15 M233.71 78.56 C248.01 60.33, 263.27 44.92, 302.32 2.06 M232.86 78.27 C248.77 61.73, 265.09 44.8, 302.46 1.13 M240.15 80.47 C258.82 56.1, 280.87 31.9, 306.47 -1.66 M239.66 79.35 C253.65 60.63, 270.39 41.81, 308.13 -0.74 M243.55 79.55 C264.05 59.42, 281.46 35.87, 314.59 0.19 M244.27 78.33 C267.82 51.81, 290.71 23.3, 312.5 0.63 M250.44 80.27 C266.67 57.59, 284.09 37.69, 318.62 0.52 M250.03 79 C274.65 51.17, 299.17 23.3, 318.06 -0.4 M252.4 79.21 C272.66 57.61, 288.66 39.59, 322.65 0.91 M254.48 79.14 C278.23 49.99, 302.76 23.01, 323.64 -0.39 M260.33 78.12 C277.47 57.29, 293.7 37.14, 330.37 -1.57 M259.88 78.84 C281.23 55.31, 300.74 32.33, 329 0.3 M264.62 79 C285.72 52.39, 306.27 30.03, 332.03 -1.54 M264.58 79.92 C286.41 53.37, 309.28 29.14, 334.04 -0.44 M271.98 77.64 C292.59 53.63, 313.35 29.53, 339.85 1.45 M270.08 78.69 C296.39 48.9, 321.59 20.24, 339.44 -1.33 M274.33 78.43 C295.09 58.19, 311.77 37.04, 342.98 -0.16 M275.11 79.08 C294.41 57.25, 315.22 33.85, 343.79 0.35 M282.27 79.21 C303.22 53.27, 329.02 26.48, 350.27 1.5 M281.38 78.72 C298.29 59.55, 315.02 41.48, 349.61 0.64 M286.01 78.04 C308.74 51.09, 334.41 24.55, 356.49 -1.14 M285.64 80.07 C300.77 63.65, 315.48 45.85, 355.82 -0.8 M292.8 78.01 C316.12 51.55, 342.68 19.4, 358.54 0 M291.42 78.46 C306.32 61.05, 321.3 46.19, 361.11 0.71 M295.88 78.13 C311.13 60.95, 325.68 41.71, 364.24 -1.89 M297.12 79.24 C310.65 63.63, 323.86 46.58, 364.98 -0.32 M303.89 78.01 C324.34 51.18, 346.75 27.63, 369.28 -1.58 M301.73 77.81 C323.69 55.26, 345.28 30.68, 369.93 -0.46 M305.86 80.8 C334.62 46.9, 360.39 15.44, 374.65 -1.06 M306.92 78.79 C327.73 55.41, 346.31 34.27, 377.02 0.75 M312.58 77.93 C336.81 49.76, 363.08 21.35, 379.54 1.28 M312.74 78.02 C340.39 48.52, 367.11 16.88, 382.13 -0.13 M317.6 79.94 C333.15 60.02, 351.35 43.64, 386.84 -0.51 M317.77 79.77 C336.31 57.96, 354.19 37.28, 387.55 -0.31 M322.62 77.29 C335.67 64.22, 352.25 49.29, 392.04 -1.14 M324.76 78.71 C344.27 57.81, 363.93 34.85, 392.16 0.3 M330.46 79.19 C350.57 55.6, 372.22 29.17, 396.67 0.7 M328.8 79.1 C357.36 47.26, 384.48 17.03, 397.09 -0.83 M334.48 78.39 C360.51 50.14, 386.56 19.95, 401.25 1.21 M334.99 78.84 C349.1 62.51, 362.06 45.36, 401.86 0.29 M339.53 78.01 C359.61 55.75, 375.78 36.95, 406.7 0.26 M338.55 78.56 C364.53 49.58, 390.04 20.36, 408.05 0.2 M343.36 80.32 C358.41 62.6, 372.76 47.31, 411.33 0.19 M344.53 77.74 C369.6 52, 391.89 24.69, 413.45 1.16 M349.6 77.6 C375.19 47.62, 402.57 21.19, 420.23 -1.34 M349.93 79.79 C373.3 50.97, 396.54 25.9, 419.73 -0.83 M357.17 76.93 C379.58 48.31, 407.91 19.04, 422.2 -0.57 M355.37 78.11 C376.63 55.93, 396.96 30.17, 424.56 1.11 M361.21 78.98 C383.1 52.08, 409.82 21.37, 431.24 1.18 M361.25 79.27 C377.78 60.82, 393.04 41.08, 429.31 -1.19 M366.54 78.87 C392.82 48.06, 418.64 18.81, 435.46 0.33 M365.38 79 C381.4 60.75, 397.24 42.36, 435.19 0.17 M372.59 80.93 C391.93 55.15, 413.35 30.26, 438.48 -0.15 M371.19 79.36 C394.56 53.89, 416.27 28.52, 440.88 -0.79 M378.17 80.31 C396.76 53.54, 418.2 29.87, 444.44 0.08 M376.67 79.56 C396.85 54.6, 418.56 28.97, 444.74 -0.76 M381.69 78.01 C400.71 56.64, 420.77 34.2, 451.38 -0.48 M381.85 79.28 C405.94 49.76, 431.63 21.01, 450.41 -1.16 M387.42 77.96 C415.99 48.46, 439.77 16.15, 456.21 1.66 M387.21 79.06 C406.24 57.47, 424.28 37.22, 455 -0.92 M392.2 78.57 C409.29 58.54, 424.79 41.63, 460.11 -0.22 M391.7 78.1 C411.65 55.12, 431.4 34.11, 460.75 -0.49 M396.44 77.55 C421.8 49.49, 446.3 25.14, 465.52 -0.19 M397.9 78.39 C414.58 57.91, 431.46 38.35, 467.16 -0.69 M403.52 78.73 C423.15 57.17, 442.65 35.38, 472.88 1.8 M402.62 79.75 C428.73 49.58, 453 20.5, 472.01 0.14 M406.73 80.86 C433.32 48.02, 458.51 19.63, 476.87 -0.93 M408.16 80.02 C431.64 51.26, 456.85 22.16, 476.78 -0.58 M412.74 80.41 C433.75 55.35, 452.62 31.98, 480.61 -0.77 M412.87 78.02 C439.98 48.73, 466.42 19.26, 481.13 0.76 M420.51 80.42 C443.39 52.56, 462.93 27.1, 486.47 -0.24 M418.34 79.8 C439.41 55.61, 459.81 30.58, 486.83 -0.26 M424.72 77.29 C441.89 57.44, 460.94 37.92, 490.97 0.79 M424.08 79.57 C445.67 56.63, 464.78 32.43, 492.99 0.03 M430.73 77.58 C446.3 61.09, 462.14 44.53, 500.24 -0.03 M428.65 79.94 C453.87 50.92, 476.14 23.39, 498.66 0.46 M434 76.85 C454.24 55.11, 473.79 31.04, 504.98 1.22 M434.31 78.9 C458.22 53.48, 480.56 26.04, 504.01 1.18 M439.05 80.44 C460.24 54.54, 480.07 31.88, 507.84 1.57 M440.2 80.01 C454.19 61.74, 469.47 46.18, 509.01 0.66 M446.85 78.33 C466.23 53.8, 485.87 34.33, 514.41 0.02 M444.98 79.39 C469.92 51.73, 493.36 25.36, 514.52 -0.16 M449.84 77.9 C470.67 52.15, 493.18 30.93, 520.62 0.24 M450 79.92 C470.97 54.62, 493.05 28.73, 519.01 -0.77 M455.27 78.78 C474.32 61.22, 490.83 41.19, 523.72 -0.5 M455.92 78.26 C472.14 59.88, 487.21 43.46, 523.71 0.98 M460.21 77.64 C481.33 57.58, 501.7 31.96, 529.67 -0.6 M461.93 78.97 C483.41 54.7, 505.59 28.44, 529.2 -0.04 M466.96 79 C485.41 55.21, 507.83 31.22, 536.11 -1.26 M466.34 79.6 C487.52 57.34, 507.26 34.54, 534.67 -0.08 M469.97 80.09 C499.79 47.75, 528.21 14.48, 539.79 0.28 M471.78 78.79 C489.73 59.94, 507.5 39.42, 540.49 0.49 M479.34 77.6 C504.04 51.49, 528.27 21.39, 547.5 -0.4 M477.83 79.36 C498.84 52.5, 521.22 28.62, 545.4 -0.64 M483.67 80.52 C500.03 62.02, 512.12 43.9, 551.51 -0.12 M482.22 78.4 C505.73 50.99, 530.46 24.27, 551.18 -0.69 M488.91 77.7 C503.15 62.83, 517.53 45.31, 556.51 0.73 M486.75 79.1 C507.65 56.95, 527.93 34.62, 555.77 0.35 M492.56 78.92 C514.92 53.87, 533.38 32.33, 563.05 0.99 M493.81 79.14 C519.47 49.62, 545.99 17.98, 561.96 -1.23 M499.85 77.95 C516.6 55.17, 538.72 30.95, 566.49 -0.45 M497.77 79.99 C516.34 59.34, 533.87 38.94, 566.54 -0.71 M504.6 78.11 C532.33 49.59, 555.55 19.97, 572.39 -1.84 M504.01 79.75 C528.97 50.78, 553.3 22.56, 572.94 0.08 M510.08 79.06 C527.24 59.29, 540.21 42.16, 577.54 0.53 M509.03 78.29 C527.07 59.36, 543.93 38.46, 576.42 3.21 M514.5 77.65 C527.82 63.81, 541.11 49, 575.98 8.06 M514.17 79.3 C528.38 60.76, 545.05 44.9, 575.36 8.63 M519.91 78.73 C539.8 56.11, 559.23 32.27, 573.89 16.2 M519.69 79.4 C533.37 64.4, 546.85 46.74, 576.37 13.81 M525.66 79.92 C540.91 57.15, 559.67 39.67, 577.15 18.27 M524.51 78.23 C536.28 66.27, 547.24 52.57, 577.04 19.82 M529.35 78.48 C546.5 60.82, 560.52 41.19, 577.57 26.52 M530.3 79.56 C544.62 62.83, 559.3 45.92, 576.38 25.73 M536.22 80.06 C545.33 69.25, 554.66 57.48, 575.64 31.68 M535.17 79.35 C544.01 68.25, 552.94 59.88, 574.85 32.41 M540.15 77.58 C547.91 69.32, 556.51 64.05, 574.8 40.04 M539.81 78.88 C551.2 68.39, 560.3 57.01, 576.76 38.85 M545.03 79.99 C552.55 70.51, 558.17 64.88, 577.6 44.49 M547.17 78.81 C556.64 66.52, 568.02 53.56, 575.75 45.56 M549.76 79.11 C562.25 67.09, 568.73 59.96, 574.53 50.09 M550.56 78.31 C559.51 69.25, 568.26 61.26, 575.75 51.35 M557.64 78.42 C564.29 70.04, 570 60.44, 576.93 56.9 M557.4 79.13 C564.33 69.46, 571.02 61.66, 575.14 56.52 M561.36 79.9 C563.14 76.06, 570.04 73.5, 573.77 61.53 M561.28 78.69 C566.49 73.15, 571.01 68.66, 575.79 63.57 M568.1 77.48 C568.85 76.69, 570.39 74.17, 575.98 68.43 M567.65 78.36 C568.87 76.51, 570.65 74.53, 576.34 68.73 M572.91 79.43 C573.55 78.01, 575.08 76.33, 575.46 74.89 M572.46 79.21 C573.94 77.86, 574.66 76.4, 575.71 75.43" stroke="#c8c8c8" stroke-width="0.5" fill="none"></path><path d="M0.22 -0.68 C166.09 -1.38, 333.12 -1.74, 573.76 0.42 M0.34 -0.08 C201.84 1.19, 403.61 1.48, 574.14 0.29 M573.22 -0.55 C574.32 16.19, 574.41 32.4, 574.84 80.46 M573.84 -0.68 C574.5 16.59, 573.69 31.77, 574.02 78.1 M573.52 78.5 C352.78 77.43, 130.88 77.67, 0.42 78.84 M573.85 78.38 C425.36 77.97, 276.6 78.24, 0.12 78.52 M-1 80.34 C-0.41 46.26, 1.4 15.53, -1.37 -0.57 M0.19 77.85 C-0.79 62.54, 0.24 44.03, -0.31 -0.99" stroke="#495057" stroke-width="1" fill="none"></path></g><g stroke-linecap="round" transform="translate(3871.0556467986135 181.34663417388037) rotate(0 286.9057682441726 39.36341999154047)"><path d="M0 0 C0 0, 0 0, 0 0 M0 0 C0 0, 0 0, 0 0 M-0.72 6.89 C1.12 5.46, 2.38 3.09, 4.94 0.59 M-0.38 6.74 C1.17 4.63, 2.47 2.99, 5.05 0.18 M1.63 12.08 C3.69 10.01, 6.5 5.77, 9.42 -1.61 M0.93 12.48 C3.15 8.86, 5.67 6.37, 11.34 0.76 M-1.46 20.43 C4.31 11.77, 9.53 9.8, 15.52 0.96 M-1.1 18.19 C5.93 12.21, 10.89 6.93, 16.13 0.06 M1 23.26 C5.48 16.74, 13.5 12.02, 22.82 -0.22 M0.49 24.11 C8.55 14.47, 16.01 6.02, 21.02 -0.9 M0.41 31.41 C7.85 23.53, 15.76 16.23, 27.31 -1.69 M-0.04 30.21 C10.6 17.63, 21.09 6.66, 26.43 -0.64 M1.45 36.77 C7.64 28.08, 13.96 18.07, 32.88 0.41 M0.46 36.21 C12.73 22.92, 25.28 9.23, 31.18 -0.1 M1.28 42.8 C7.87 33.42, 15.08 24.65, 36.61 2.22 M-0.69 42.4 C11.93 29.43, 21.86 17.16, 37.47 1.01 M-1.6 48.96 C12.47 31.69, 30.48 14.75, 42.8 -1.75 M0.12 49.28 C13.46 33.93, 27.91 16.86, 43.25 0.61 M2.04 53.6 C16.62 36.63, 29.11 20.42, 48.56 1.66 M0.51 54.71 C18.01 33.61, 37.07 12.38, 47.05 -0.38 M1.72 62.18 C14.41 42.92, 29.93 27.68, 53.85 -1.64 M0.92 61.33 C10.39 47.69, 22.12 36.65, 52.33 0.39 M0.68 66.23 C10.02 53.03, 21.74 38.66, 59.07 -0.7 M0.32 67.73 C20.65 42.95, 41.93 17.23, 58.33 0.14 M0.7 71.73 C19.09 50.62, 36.64 34.12, 63.1 -1.46 M0.32 72.04 C19.19 50.3, 38.28 29.1, 64.4 -0.71 M1.62 76.86 C17.69 59.41, 31.56 41.32, 68.87 1.54 M0.98 77.94 C17.89 57.15, 35.96 35.69, 68.83 0.95 M6.68 78.59 C28.43 52.87, 48.1 29.79, 73.41 -0.72 M5.42 78.43 C29.55 52.14, 54.45 24.02, 75.26 -0.75 M9.59 76.79 C23.44 62.64, 39.71 44.67, 77.43 0.49 M11.16 78.15 C28.4 59.37, 46.08 39.2, 79.43 0.81 M16.51 79.51 C36.24 57.25, 55.07 30.88, 83.38 -2.19 M15.39 79.93 C33.23 60.95, 49.62 41.04, 85.61 -0.9 M22.12 79.96 C40.83 58.25, 60.5 34.49, 89.02 -0.01 M21.36 79.96 C36.68 61.78, 51.5 42.93, 89.37 -0.12 M26.59 76.97 C44.71 57.85, 59.13 40.42, 97.45 -1.93 M26.54 79.43 C44.93 55.84, 65.54 34.29, 95.98 -0.44 M30.3 77.42 C58.07 48.28, 84.28 15.8, 98.7 1.58 M31.73 79.26 C49.77 60.35, 66.49 41.06, 101.23 0.68 M37.34 77.16 C63.34 49.49, 87.57 22.14, 107.79 0.72 M37.78 78.16 C60.83 52.86, 82.61 26.77, 105.78 0.23 M43.02 79.22 C58.84 59.43, 78.08 35.73, 110.28 -1.45 M43.35 79.1 C63.62 55.95, 84.45 32.47, 111.98 -0.85 M49.97 77.97 C71.43 53.01, 92.81 27.77, 115.71 1.91 M48.37 78.72 C67 56.79, 86.13 34.76, 115.61 -0.62 M51.65 77.35 C69.23 62.53, 85.99 44.29, 122.4 1.88 M53.78 79.69 C74.23 55.27, 95.53 30.37, 121.94 -0.39 M60.47 79.02 C75.13 59.09, 92.46 40.46, 128.3 0.22 M58.95 78.13 C82.15 50.27, 106.37 22.49, 126.9 -0.11 M63.31 80.55 C89.2 48.41, 114.8 21.44, 134.43 -1.73 M63.46 80.08 C87.38 52.98, 111.16 24.43, 131.77 -0.22 M69.6 79.63 C87.03 60.44, 102.64 44.52, 136.41 -0.79 M68.5 78.8 C87.71 59.06, 103.87 39.6, 136.98 0.79 M74.9 80.25 C89.96 61.1, 102.69 46.01, 144.55 0.16 M74.67 79.26 C88.2 62.74, 103.22 47.49, 143.51 -0.24 M80.92 76.87 C96.97 57.93, 113.32 38.02, 147.37 -1.56 M79.36 79.5 C105.07 50.58, 130.31 20.67, 148.68 1.26 M83.12 80.63 C112.18 45.81, 138.53 17.01, 155.72 -0.31 M84.57 79.08 C101.98 59.74, 118.82 40.7, 153.55 -0.97 M90.75 79.5 C113.97 52.31, 138.58 25.11, 158.27 0.15 M90.25 78.43 C114.53 50.32, 138.82 21.54, 158.71 0.36 M94.43 80.55 C110.26 64.33, 125.99 47.14, 165.67 -1.27 M96.17 79.3 C117.6 52.75, 141.98 26.82, 163.65 -0.51 M102.21 78.02 C123.21 54.26, 140.98 33.68, 170 -0.69 M101.23 78.15 C116 63.17, 129.8 46.33, 168.61 0.05 M107.1 79.62 C124.32 58.3, 141.46 36.05, 176.92 -1.14 M105.34 78.56 C127.49 54.87, 148 31.27, 175.92 0.41 M111.18 78.62 C130.02 58.41, 145.78 42.14, 181.2 1.63 M112.73 78.62 C135.89 51.05, 158.58 23.27, 179.81 0.16 M117.15 80.15 C131.71 60.99, 151.15 40.43, 186.78 -0.63 M117.81 79.38 C138.47 54.77, 158.98 29.65, 185.83 -0.55 M124.35 77.25 C140.63 57.73, 157.19 37.34, 190.33 1.51 M122.51 78.2 C146.62 52.2, 170.29 23.96, 190.59 -0.56 M128.39 77.18 C149.97 53.02, 169.4 26.86, 197.32 -0.7 M128.16 79.2 C144.31 59.28, 163.94 37.94, 197.2 -0.32 M133.17 77.54 C154.14 55.27, 175.47 30.17, 201.59 0.08 M132.74 78.63 C147.53 62.64, 163.43 44.81, 201.07 0.52 M138.44 80.47 C160.83 53.62, 184.66 26.37, 205.4 -0.61 M138.84 79.33 C164.72 48.82, 190.28 18.3, 207.24 0.53 M143.22 77.61 C168.6 47.4, 198.16 18.62, 211 -0.8 M142.26 78.8 C162.68 56.33, 183.02 32.85, 212.26 0.9 M148.65 80.5 C164.29 61.04, 179.97 43.26, 216.67 0.08 M149.17 77.96 C167.23 57.66, 185.61 36.64, 217.49 -1.16 M154.83 81.04 C174.49 55.39, 197.62 32.51, 224.33 -0.58 M154.24 78.73 C178.57 49.82, 204.23 21.82, 223 0 M158.2 78.44 C174.59 59.38, 191.92 41.93, 227.55 -0.44 M160.31 79.2 C173.73 62.57, 189.85 44.29, 228.86 -0.16 M165.14 79.39 C183.04 52.39, 205.19 31.16, 235.15 -1.96 M165.24 79.08 C189.66 50.53, 214.65 22.45, 233.02 0.11 M170.01 80.23 C189.35 57.02, 209.07 33.26, 238.59 0.49 M170.28 78.04 C191.99 55.49, 212.61 30.17, 237.96 0.91 M176.73 79.17 C198.51 54.58, 218.44 31.06, 242.82 -0.93 M174.85 79.17 C191.02 59.8, 209.45 39.94, 243.88 -0.57 M180.82 78.48 C204 51.31, 227.79 26.62, 247.1 0.95 M180.97 79.34 C202.3 54, 223.67 30.32, 248.74 -0.45 M186.97 80.63 C202.16 61.6, 213.96 42.28, 254.44 -0.79 M186.01 78.68 C207.41 52.76, 227.42 27.91, 254.01 -0.97 M191.12 78.54 C213.18 53.72, 233.83 28.07, 261.17 1.05 M191.12 78.88 C218.15 48.46, 244.67 18.94, 259.51 0.9 M198 79.73 C211.54 60.99, 227.3 45.1, 266.94 -2.07 M196.02 78.7 C217.5 55.32, 239.09 28.7, 265.72 -0.12 M203.2 80.49 C226.77 48.15, 251.42 22.42, 268.36 1.83 M201.35 78.31 C228.39 48.56, 254.05 19.33, 270.63 -0.24 M206.74 78.13 C230.54 54.3, 248.62 27.83, 277.01 -0.62 M207.53 78.72 C229.76 53.05, 252.62 28.96, 276.14 -0.16 M211.12 77.11 C236.52 51.66, 263.65 21.37, 281.01 0.07 M213.11 78.18 C236.29 51.97, 260.05 25.4, 280.81 0.32 M218.9 77.25 C242.28 52.09, 262.47 25.76, 287.11 -1.56 M217.57 79.6 C235.28 58.61, 254.26 38.69, 286.29 0.67 M222.74 79.9 C238.05 59.02, 254.93 44.48, 290.22 -1.75 M223.72 78.93 C248.48 48.48, 274.87 19.74, 292.11 1.13 M226.97 80.18 C250.15 55.23, 273.45 26.81, 295.5 -1.3 M228.51 78.6 C256.12 48.46, 281.03 16.29, 296.04 -0.99 M233.67 77.09 C247.5 60.43, 264.12 45.38, 303.89 -1.41 M233.37 77.88 C249.34 62.33, 264.91 45.07, 302.95 0.17 M240.21 77.77 C255.92 60.06, 271.7 40.38, 306.2 -1.5 M239.09 78.36 C266.65 46.47, 294.15 15.55, 307.13 -0.62 M245.32 79.63 C259.88 63.14, 271.08 48.37, 312.68 1.01 M244.1 78.27 C262.84 56.69, 279.67 36.53, 313.12 -0.22 M250.67 78.57 C275.46 46.94, 303.05 18.33, 319.05 0.86 M249.4 79.94 C272.95 52.9, 296.42 25.29, 318.12 -0.78 M254.23 79.92 C268.58 60.81, 286.51 42.24, 324.07 1.16 M254.16 78.95 C274.63 54.09, 297.35 29.79, 322.77 -0.29 M259.18 78.85 C284.9 47.2, 311.38 21.06, 327.62 -0.46 M259.9 79.76 C278.01 57.91, 296.7 36.6, 329.49 -0.17 M264.69 78.84 C287.56 49.51, 314.74 20.88, 332.27 0.39 M265.61 78.41 C281 60.36, 298.72 41.11, 333.38 0.1 M269.36 80.6 C296.98 48.25, 324.56 15.59, 341.31 1.01 M270.41 78.64 C284.56 61.76, 299.94 45, 338.53 -0.58 M274.78 80.25 C302.25 48.67, 328.79 18.94, 344.32 -0.19 M275.43 78.31 C299.16 53.54, 321.31 26.97, 344.83 0.47 M281.6 77.52 C305.69 53.14, 328.85 26.78, 350.61 -0.77 M281.11 78.79 C296.83 60.74, 313.58 42.65, 349.75 0.84 M285.05 77.95 C307.35 54.76, 330.06 30.6, 354.01 -1.8 M287.08 79.42 C310.03 54.09, 331.48 28.5, 354.35 0.73 M291.07 77.05 C310.82 58.45, 324.84 38.43, 359.77 -1.41 M291.51 78.83 C311.7 55.54, 334.46 31.96, 360.49 -0.43 M295.81 78.5 C320.59 50.06, 343.33 22.08, 363.92 -1.91 M296.92 79.42 C324.81 47.09, 351.22 16.08, 365.49 0.19 M301.73 78.33 C319.45 56.14, 340.48 32.87, 368.86 0.47 M301.53 78.73 C321.96 58.15, 340.42 35.22, 369.98 1.23 M309.15 79.14 C326.27 55.43, 345.91 32.03, 375.41 -0.28 M307.13 79.87 C331.77 50.13, 358.6 22.76, 377.22 0.54 M312.31 78.22 C338.21 50.47, 363.9 18.27, 382.39 2.24 M312.41 78.89 C335.29 54.45, 356 31.31, 380.97 -0.4 M318.95 77.84 C335.9 58.96, 356.42 36.69, 386.63 -0.96 M318.78 79.22 C335.65 58.51, 353.74 37.81, 386.83 -1.12 M322.34 77.32 C348.99 53.09, 373.73 24.14, 390.62 -0.05 M323.76 79.07 C340.12 61.59, 354.36 44.25, 392.06 0.32 M328.87 79.3 C347.81 58.21, 364.02 35.8, 398.5 1.74 M328.78 79.83 C343.39 62.33, 359.58 43.74, 396.97 0.68 M334.1 77.91 C350.7 60.89, 365.3 43.62, 403.64 -1.61 M334.55 79.45 C358.44 50.43, 381.46 22.95, 402.72 -0.04 M338.35 80.94 C364.87 47.19, 394.77 15.74, 408.73 1.21 M338.9 78.92 C361.92 53.36, 384.76 27.12, 408.67 -1.19 M346.69 78.03 C362.39 58.86, 380.58 36.51, 413.29 1.07 M344.12 79.59 C365.28 55.81, 384.93 33.5, 414.26 0.95 M348.61 78.88 C375.84 49.11, 406.54 17.99, 417.8 0.56 M350.79 79.63 C375.92 48.41, 404.83 17.65, 418.3 0.53 M353.97 77.41 C379.87 50.84, 405.07 18.95, 423.19 0.21 M355.15 79.42 C382.42 49.83, 406.06 20.76, 424.87 0.61 M360.65 77.97 C386.23 51.76, 408.11 22.94, 430.97 -1.36 M360.94 79.96 C389.03 46.84, 415.74 16.16, 428.61 0.49 M366.57 79.51 C385.54 56.26, 406.07 32.65, 434.75 -1.24 M366.7 78.28 C391.63 50.3, 416.34 22.83, 434.59 0.17 M373.26 77.78 C386.71 60.44, 401.07 42.51, 440.31 -0.02 M371.7 79.83 C384.94 63.93, 398.39 47.65, 439.68 -0.28 M377.27 78.26 C388.61 61.84, 403.14 45.14, 445.17 0.37 M376.52 78.66 C401.71 49.46, 426.21 20.86, 444.33 -0.27 M381.01 78.59 C395.21 63.64, 408.46 46.2, 450.64 0.86 M382.28 78.04 C400.91 56.36, 420.33 33.35, 449.97 0.67 M385.58 81.05 C410.48 50.96, 432.59 27.25, 457.41 -0.57 M386.69 80.16 C408.7 53.86, 432.04 27.26, 454.83 -0.69 M392.23 79.42 C406.6 60.45, 424.16 39.95, 461.58 -0.72 M391.76 79.27 C418.17 49, 446.6 16.51, 461.3 0.14 M395.84 79.25 C415.51 57.02, 438.91 32.86, 466.23 -0.96 M396.68 79.06 C418.11 52.99, 440.55 29.09, 465.73 -0.22 M403.06 79.98 C425.77 54.62, 448.23 28.84, 472.85 1.69 M404.08 79.1 C420.85 57.84, 438.71 38.08, 471.18 1.12 M409.81 79.19 C434.02 47.68, 462.63 16.99, 476.16 1.01 M408.97 78.24 C427.35 56.97, 445.48 34.56, 476.5 -0.06 M415.4 78.72 C437.09 50.69, 460.52 23.98, 480.95 2.01 M413.02 79 C436.74 53.6, 460.26 26.09, 482.47 0.68 M420.04 80.92 C442.32 49.74, 466.95 23.44, 487.51 -0.12 M419.42 79.01 C437.01 58.17, 453.85 36.59, 487.49 -0.54 M422.94 78.8 C442.45 58.14, 462.23 32.38, 493.17 0.15 M425.23 79.34 C440.09 61.69, 453.68 45.37, 492.4 -0.42 M427.86 80.22 C450.83 55.41, 473.67 31.94, 498.38 0.9 M430.22 80.03 C454.92 48.85, 481.1 20.39, 498.88 -0.11 M433.17 78.1 C461.42 47.02, 487.44 19.84, 504.26 0.96 M435.22 78.37 C451.29 60.99, 465.26 45.34, 504.22 0.21 M441.39 78.58 C457.12 57.58, 475.98 36.84, 510.65 -1.94 M440.95 78.38 C456.75 59.04, 475.26 39, 509.73 -0.3 M445.32 79.22 C458.58 61.18, 476.98 43.14, 513.72 1.04 M446.37 79.22 C462.22 60.71, 479.28 41.49, 513.55 0.34 M449.52 77.2 C466.15 58.1, 487.4 39.65, 519.98 0.04 M451.53 78.53 C476.53 50.03, 501.03 19.71, 518.97 -0.77 M456.43 79.47 C472.1 63.48, 485.28 45.43, 523.87 -1.32 M455.91 78.92 C473.67 57.55, 493.48 35.36, 525.35 0.13 M459.91 79 C486.14 53.18, 506.71 26.35, 529.81 0.25 M461.25 79.33 C487.32 50.47, 511.32 20.88, 530.37 -0.28 M467.32 76.9 C485.39 57.54, 503.34 36.06, 533.77 -0.1 M467.91 79.41 C487.49 57.9, 506.44 34.47, 534.95 1.13 M473.04 78.65 C486.82 63.67, 499.58 45.48, 541.35 -1.18 M471.74 79.02 C491.07 58.67, 508.69 37.28, 541.56 0.28 M476.58 80.26 C492.63 63.11, 504.76 46.37, 545.3 0.45 M478.34 78.5 C499.04 52.89, 522.81 25.63, 545.06 -0.69 M484.12 80.49 C496.88 61.13, 510.03 46.78, 551.62 0.61 M482 78.23 C501.24 57.11, 521.26 34.27, 551.04 -1.05 M485.93 79.77 C511.46 52.15, 534.36 26.61, 557.1 -0.22 M487.34 79.64 C507.31 58.31, 527.16 34.16, 556.71 -0.01 M493.19 80.63 C512.07 55.25, 534.46 32.08, 563.39 1.19 M493.41 78.98 C510.98 59.17, 526.52 38.27, 561.17 -0.38 M496.85 78.13 C523.66 49.16, 549.03 17.54, 566.58 -0.93 M498.89 79.92 C517.02 58.64, 535.46 35.51, 566.31 0.89 M503.04 80.84 C525.66 53.67, 547.07 31.11, 571.23 0.83 M504.68 79.71 C528.39 51.43, 552.72 23.49, 573.15 -0.91 M508.62 81 C524.75 57.43, 543.61 41.1, 573.99 1.48 M507.85 79.59 C524.81 60.66, 539.79 43.39, 576.68 1.41 M513.25 78.67 C530.26 60.76, 546.27 42.76, 576.27 6.84 M514.9 78.2 C537.68 52.44, 563.13 23.44, 576.85 8.36 M518.96 80 C534.25 61.88, 548.4 41.13, 577.75 13.17 M519.63 80.01 C542.41 54.32, 562.52 28.97, 575.36 14.6 M526.19 77.34 C534.18 65.93, 547.54 53.22, 574.57 18.43 M524.5 78.66 C541.81 59.97, 557.35 42.9, 576.12 20.47 M529.37 79.49 C544.18 61.52, 557.04 48.88, 576.16 26.67 M530.45 79.45 C546.27 61.31, 561.88 43.04, 575.38 25.55 M536.99 79.82 C550.28 64.16, 562.63 46.42, 574.67 31.01 M536.28 78.67 C548.04 64.33, 562.49 48.17, 575.4 31.88 M539.14 78.54 C547.74 70.31, 559.3 59.14, 577.78 38.03 M540.43 80.08 C555.57 63.24, 569.8 47.56, 576.59 37.55 M547.58 78.79 C555.98 66.13, 568.19 56.48, 575.57 46.24 M546.4 78.22 C557.07 66.48, 567.09 54.63, 576.63 45.43 M551.33 80.92 C556.99 70.2, 567.54 60.94, 575.92 51.01 M550.53 78.93 C556.92 72.76, 564.37 64.96, 577.18 51.27 M556.67 78.63 C561.58 71.36, 565.27 68.36, 576.07 58.75 M557.39 78.66 C563.19 69.91, 570.87 62.11, 575.69 56.14 M562.79 77.16 C567.41 75.36, 573.35 66.05, 574.05 63.86 M561.57 78.95 C564.7 75.08, 568.87 71.39, 576.08 62.55 M566.4 77.89 C570.01 74.99, 571.88 73.64, 575.69 67.75 M567.28 78.09 C569.72 75.5, 572.04 73.82, 576 69.05 M572.98 78.9 C573.5 78.53, 573.75 76.99, 575.5 75.52 M572.76 79.28 C573.99 77.42, 575.11 76, 576.03 75.04" stroke="#c8c8c8" stroke-width="0.5" fill="none"></path><path d="M-0.68 -0.29 C141.86 -0.29, 283.1 -0.69, 574.23 0.41 M-0.08 0.05 C160.51 -1.94, 321.33 -1.64, 574.1 -0.39 M573.26 0.76 C573.69 21.93, 574.03 43.19, 575.54 76.81 M573.13 0.58 C575.05 24.51, 574.15 49.69, 573.18 79.59 M573.58 79.39 C405.02 78.37, 237.21 78.32, 0.11 78.4 M573.47 78.93 C370.92 79.05, 168.66 79.08, -0.21 79.11 M1.61 77.81 C-0.95 61.09, -0.58 40.3, -0.57 -1.67 M-0.88 78.62 C1.09 49.17, -0.38 17.44, -0.99 -0.26" stroke="#495057" stroke-width="1" fill="none"></path></g><g stroke-linecap="round" transform="translate(4642.111265774503 180.1817073505972) rotate(0 286.9057682441726 39.36341999154047)"><path d="M0 0 C0 0, 0 0, 0 0 M0 0 C0 0, 0 0, 0 0 M0.23 6.69 C1.89 4.8, 2.61 2.23, 5.22 0.25 M0.08 6.37 C1.65 3.93, 3.7 1.97, 4.81 0.31 M0.18 12.67 C5.5 7.83, 8.67 1.67, 9.06 -1.11 M0.58 12.67 C3.39 8.46, 7.35 4.28, 11.42 -0.18 M1.87 18.51 C3.63 13.28, 12.08 6.2, 16.25 0.75 M-0.38 19.36 C3.47 14.78, 8.03 9.85, 15.35 0.1 M-0.55 23.48 C6.09 18.2, 14.51 10.76, 21.11 1.66 M0.3 24.41 C7.68 14.91, 16.21 6.17, 20.43 -0.45 M0.93 31.37 C8.19 24.06, 16.02 14.9, 24.26 2.16 M-0.26 30.78 C7.16 21.58, 16.21 11.93, 25.31 -0.38 M-0.36 37.65 C12.35 21.46, 23.77 8.09, 32.4 1.48 M-0.92 37.34 C6.49 29.75, 13.54 20.48, 31.89 -1.01 M0.42 42.73 C12.33 27.78, 24.79 13.51, 38.84 0.09 M0.02 43.45 C9.19 31.72, 19.03 20.91, 37.64 0.65 M-0.08 47 C11.72 36.5, 23.9 20.82, 40.91 0.5 M0.24 48.28 C13.5 34.35, 24.99 21.31, 43.27 -0.01 M-0.69 56.38 C15.92 34.69, 33.21 17.25, 48.94 2.1 M0.42 53.61 C14.36 38.34, 28.11 22.79, 46.9 -0.09 M1.23 61.2 C15.25 42.62, 33.27 22.43, 51.69 -2.06 M0.39 61 C20.33 37.12, 42.9 11.24, 53.71 -1.16 M-1.38 65.67 C14.77 47.12, 29.79 31.57, 57.25 1.55 M0.12 66.58 C15.99 47.67, 30.97 30.5, 58.09 -0.04 M-1.12 74.99 C22.96 46.04, 51.68 14.77, 62.52 -0.23 M-0.81 72.4 C12.9 56.64, 27.24 42.08, 63.28 -0.84 M-1.25 79.69 C20.66 53.09, 41.98 30.47, 70.15 -0.44 M-0.17 78.04 C24.94 49.03, 49.34 21.7, 69.57 0.24 M5.12 80.84 C26.16 53.14, 49.9 26.16, 73.93 0.77 M4.95 78.17 C20.96 62.35, 35.1 46.63, 73.9 -1.07 M9.35 76.77 C38.87 48.08, 64.61 15.86, 79.77 -0.97 M10.71 78.48 C26.34 61.93, 40.64 43.67, 80.09 0.04 M16.69 79.01 C39.04 52.84, 57.34 27.72, 83.12 -1.52 M17.12 79.94 C40.12 53.9, 62.15 26.94, 84.42 -0.49 M21.77 79.91 C43.33 55.77, 62.73 29.39, 89.93 -1.34 M21.77 79.64 C46.99 49.53, 71.5 20.47, 89.82 -0.48 M24.82 79.63 C41.47 58.27, 59.92 42.62, 94.05 -0.76 M27.28 78.18 C48.23 53.83, 71.3 27.38, 95.54 0.59 M29.9 79.3 C57.22 49.74, 81.22 18.99, 102.19 -1.08 M31.74 80.02 C48.27 61.33, 64.49 42.55, 101.29 0.68 M35.67 80.52 C63.37 49.24, 91.32 19.31, 107.37 0.16 M36.67 79.24 C51.8 61.42, 66.21 44.2, 106.88 -0.76 M42.36 78.2 C66.53 52.3, 86.89 23.86, 109.82 0.06 M42.25 79.75 C64.48 54.5, 86.35 30.06, 110.42 0.39 M47.15 79.33 C69.92 52.67, 92.34 28.89, 117.81 -0.12 M47.9 78.29 C61.38 62.5, 74.78 46.14, 115.28 -0.35 M51.16 79.86 C76.04 56.51, 97.49 30.35, 123.82 0.11 M53.49 78.57 C67.67 61.79, 81.35 45.84, 121.55 -0.62 M58.86 79.46 C82.87 50.82, 108.25 21.66, 126.78 1.57 M57.98 78.37 C85.14 47.05, 112.4 17.27, 126.46 1.08 M65.02 78.34 C78.1 60.5, 96.25 45.64, 130.87 0.9 M64.55 79.59 C91.07 49.62, 116.09 18.67, 132.38 -0.76 M70.14 80.09 C82.95 63.93, 98.97 45.6, 136.44 -0.56 M69.31 79.38 C87.58 58.12, 106.06 37.86, 138.02 -0.56 M75.39 80.47 C97.03 50.85, 122.7 25.49, 143.43 -1.99 M74.39 78.25 C88.56 62.3, 103.96 46.03, 143.02 -0.57 M78.05 78.21 C95.58 57.81, 112.14 39.11, 146.33 1.73 M80.68 79.09 C107.03 49.43, 132.33 19.95, 149.16 1.23 M86.43 79.85 C109.95 48.46, 139.56 19.43, 153.62 -1.18 M84.88 79.37 C107.6 53.58, 130.61 27.42, 152.96 0.23 M91.34 78.55 C105.14 63.33, 118.94 44.43, 158.7 1.45 M90.27 78.12 C111.17 54.14, 131.45 31.09, 158.92 -0.7 M97.01 78.89 C112.16 63.59, 126.29 46.35, 163.33 0.5 M95.76 78.12 C115.42 56.38, 135.64 32.33, 164.09 -0.16 M100.52 79.67 C115.46 59.3, 133.47 44.18, 168.54 -1.59 M100.65 78.93 C120.84 57, 139.08 35.12, 169.27 -0.11 M106.74 78.76 C128.07 52.49, 148.48 31.46, 174.12 -0.03 M105.68 79.04 C126.36 56, 147.09 34.7, 175.67 -0.74 M111.79 79.86 C128.85 58.46, 149.78 38.64, 181.52 1.18 M111.79 78.88 C132.96 52.68, 153.87 29.07, 180.05 -0.43 M117.94 77.4 C138.57 56.18, 157.91 31.97, 185.3 -0.03 M117.18 79.02 C135.25 56.71, 152.75 36.92, 185.38 -0.62 M121.08 79.24 C144.49 51.52, 167.02 25.93, 192.06 1.13 M122.03 79.16 C146.12 52.97, 167.9 26.55, 189.99 0.28 M125.64 79.57 C144.63 55.99, 161.66 37.62, 195.89 -1 M127.66 78.32 C154.43 49.65, 179.73 20, 196.26 -0.05 M132.04 77.67 C155.17 53.89, 175.42 32.54, 201.3 -1.6 M133.13 77.83 C149.82 61.13, 164.65 42.24, 201.73 0.32 M139.6 78.77 C152.46 63.99, 164.9 44.71, 206.64 1.34 M138.45 79.54 C160.95 52.17, 183.37 26.46, 207.78 0.58 M141.36 77.56 C157.39 62.42, 174.92 42.42, 211.08 -0.09 M142.55 79.56 C170.62 48.92, 197.59 17.39, 212.78 -0.65 M150.29 79.3 C174.6 49.8, 200.54 19.14, 218 -0.95 M147.75 78.66 C167.19 57.07, 185.84 36.24, 216.76 -0.27 M155.46 78.86 C173.23 58.47, 193.74 36.5, 221.97 1.37 M153.15 79.61 C180.59 48.34, 208.86 16.79, 222.54 -0.61 M158.9 78.26 C182.65 51.94, 208.05 23.11, 228.15 -2.02 M159.66 78.01 C178.2 57.84, 195.08 37.52, 228.43 -0.29 M164.47 77.53 C188.94 46.92, 219.29 18.31, 231.25 1.27 M164.16 79.38 C183.99 56.28, 204.21 33.63, 233.32 -0.18 M171.35 79.49 C195.42 51.07, 218.9 21.55, 238.32 0.51 M169.16 79.28 C186.01 61.15, 200.08 43.34, 238.75 0.47 M174.92 80.57 C189.38 61.88, 204.95 44.46, 242.94 -1.12 M174.91 78.36 C195.84 56.02, 216.24 31.48, 243.3 0.37 M180.26 79.64 C206.33 49.61, 234.89 16.07, 249.45 0.55 M181.12 78.51 C193.99 62.57, 208.49 46.84, 248.05 -0.46 M187.04 80.78 C209.21 49.67, 231.07 24.43, 253.75 0.23 M185.08 79.91 C210.25 47.8, 236.55 18.21, 253.57 0.14 M190.99 78.14 C206.13 59.89, 220.49 46.54, 260.22 2.03 M191.33 79.12 C210.33 57.46, 230.18 35.23, 260.07 -0.42 M196.8 78.72 C217.38 53.81, 240.75 31.87, 263.13 0.18 M195.77 78.23 C213.18 60.05, 227.32 43.38, 265.08 0.59 M203.6 79.19 C227.27 47.12, 257.54 14.48, 271.66 1.93 M201.42 78.88 C220.45 57.3, 239.94 36.85, 269.59 0.34 M205.87 80.72 C220.27 61.67, 232.09 48.66, 275.25 0.31 M206.46 79.41 C223.84 59.53, 242.74 38.98, 275.71 0.53 M210.88 77.78 C235.24 56.23, 254.7 31.24, 280.57 1 M211.95 78.91 C228.73 60.31, 245.12 40.77, 280.81 0.45 M215.65 80.93 C230.79 61.35, 244.86 45.33, 284.97 -0.96 M218 78.37 C233.71 60.88, 250.47 42.1, 287.2 -0.87 M224.34 77.67 C240.23 57.53, 262.4 34.83, 289.41 1.77 M223.37 78.7 C247.91 49.75, 274.19 20.93, 292.29 0.38 M229.25 79.24 C252.17 54.99, 271.62 26.17, 295.9 1.53 M227.66 79.91 C244.73 58.78, 259.83 39.66, 296.2 -1.07 M232.2 77.42 C249.6 59.59, 268.63 40.86, 300.42 -1.44 M232.99 79.1 C254.7 57.04, 274.61 34.21, 301.99 -0.52 M237.5 79.35 C252.26 62.38, 265.13 44.73, 306.36 1.74 M238.09 79.67 C260.84 52.86, 284.67 25.17, 307.24 -1.18 M245.4 80.35 C268.86 49.89, 293.99 23.94, 313.5 -0.53 M244.04 79.31 C268.38 49.42, 294.13 22.04, 312.27 0.94 M248.97 78.73 C268.48 55.48, 291.08 31.26, 319.39 0.41 M250.34 79.17 C267.55 59.08, 284.26 37.84, 317.74 -0.94 M254.94 77.34 C274.65 55.99, 294.81 33.86, 324.31 0.37 M253.97 78.65 C280.92 48.89, 308.45 17.1, 322.87 0.82 M259.91 78.64 C283.32 50.36, 312.25 19.4, 328.73 -0.95 M260.82 78.78 C283.7 52.08, 307.1 25.65, 329.02 0.26 M264.53 77.77 C288.88 51.28, 313.91 19.55, 334.21 -1.08 M264.1 78.54 C286.26 55.05, 307.17 30.4, 333.92 1.03 M272.32 78.1 C294.73 51.91, 316.91 27.66, 340.87 -2.03 M270.36 78.73 C297.91 48.02, 325.51 15.33, 339.28 0.39 M276.6 80.06 C294.6 58.25, 314.38 33.61, 344.29 0.56 M274.66 80.02 C294.62 58.18, 312.74 36.64, 344.95 0.36 M279.91 79.92 C297.46 62.05, 313.09 43.69, 348.34 -1.01 M281.18 78.1 C296.64 61.47, 312.08 43.8, 349.95 0.53 M284.97 78.67 C308.28 55.34, 330.61 29.14, 353.35 0.52 M286.44 79.73 C301.17 61.86, 315.59 45.44, 355.87 -0.57 M290.1 80.72 C308.55 57.77, 325.61 37.74, 358.36 0.47 M291.88 77.84 C314.37 55.01, 336.52 29.67, 359.34 0.87 M296.18 78.83 C318.53 51.44, 341.29 25.32, 363.9 1.79 M297.1 79.66 C312.58 59.74, 329.41 40.34, 366 -0.26 M302.05 76.86 C324.42 53, 345.78 25.11, 370.91 -0.18 M302.45 79.77 C327 53.15, 349.12 24.85, 371.67 0.2 M307.48 78.58 C332.99 47.6, 358.71 17.45, 376.19 1.15 M308.21 78.2 C325.6 59.21, 345.29 38.03, 377.02 0.66 M312.61 78.5 C336.98 52.81, 356.88 27.89, 383.34 0.44 M313.27 79.54 C331.01 59.1, 350 37.69, 380.7 -0.05 M316.85 78.7 C342.05 54.23, 363.83 25.92, 386.18 -0.82 M318.23 79.04 C345.34 47.63, 372.43 16.96, 386.02 0.38 M322.37 79.58 C342.28 61.83, 357.42 39.69, 391.72 -1.44 M324.12 79.68 C338.49 61.93, 353.12 44.33, 392.09 -0.13 M328.98 80.77 C356.07 47.28, 381.92 16.85, 399.55 -1.78 M329.51 78.29 C347.22 58.83, 363.85 37.35, 398.49 -1.02 M333.63 79.83 C349.3 61.65, 364.72 43.3, 400.82 1.15 M335.17 78.59 C350.13 58.5, 366.7 40.09, 402.39 1.09 M341.28 77.16 C354.19 62.4, 369.42 43.44, 409.68 0.4 M339.26 79.37 C365.07 50.9, 390.12 21.92, 407.28 -0.6 M344.41 78.75 C370.21 50.47, 392.75 21.76, 414.17 -0.02 M345.96 79.5 C369.47 51.86, 394.39 24.16, 414.04 1.11 M349.88 77.02 C366.34 63.84, 381.42 43.97, 419.7 1.62 M350.63 78.09 C373.17 53.38, 396.16 25.83, 419.66 0.43 M354.45 77.61 C374.91 57.28, 390.12 36.23, 423.98 1.61 M356.46 79.52 C373.82 57.78, 391.67 39.55, 424.37 0.76 M359.64 80.25 C388.98 46.28, 415.73 18.76, 428.44 1.58 M361.63 79.6 C373.81 62.66, 388.5 45.01, 430.29 -0.28 M367.21 77.49 C387.78 54.08, 407.99 31.71, 433.19 1.36 M365.99 78.61 C382.58 59.89, 399.59 41.66, 434.59 -0.74 M370.11 79.58 C391.45 53.5, 412.27 28.72, 440.44 -2.25 M372.17 79.42 C399.55 47.31, 426.55 15.5, 440.19 -1.23 M375.22 77.99 C400.91 48.22, 426.42 19.59, 445.46 1.35 M375.62 79.34 C393.28 57.82, 411.57 36.84, 444.82 -0.83 M381.59 78.48 C410.73 46.02, 437.38 16.04, 451.99 -0.63 M381.04 78.44 C404.23 52.35, 426.08 26.63, 451.79 -0.04 M388.67 80.22 C405.98 55.56, 429.7 32.36, 455.19 0.46 M387.79 78.91 C407.69 56.37, 427.33 30.77, 455.06 -0.59 M393.08 77.23 C419.71 47.77, 444.79 17.66, 461.07 1.49 M392.93 77.88 C418.41 51.58, 441.57 22.86, 461.93 -0.48 M397.54 77.34 C419.37 57.14, 439.22 31.13, 465.46 0.38 M397.35 78.59 C423.99 48.05, 452.84 16.03, 466.2 0.26 M404.31 78.88 C422.99 57.91, 441.26 38.06, 472.74 -0.33 M403.43 78.35 C423.29 54.21, 444.6 31.54, 472.16 1.3 M408.14 77.56 C425.73 57.99, 444.05 36.9, 478.09 -0.44 M407.2 79.79 C434.68 47.5, 461.04 16.97, 477.03 0.38 M413.71 79.25 C437.61 50.02, 462.78 19.68, 483.73 1 M414 78.8 C434.08 58.02, 451.97 35.68, 482.39 0.72 M420.54 78.83 C433.15 60.13, 450.73 39.66, 487.63 -0.77 M418.62 79.77 C445.16 47.64, 470.9 18.03, 487.21 -0.24 M424.46 76.95 C442.61 58.84, 455.68 41.77, 492.53 -1.39 M425 79.55 C443.78 55.5, 463.85 33.31, 491.96 0.35 M430.51 78.91 C446.5 62.12, 463.89 41.72, 499.32 1.41 M430.31 78.65 C449.04 55.33, 470.41 33.1, 498.31 0.77 M434.42 79.39 C461.14 48.2, 491.7 17.62, 504 -1.34 M434.69 79.26 C449.46 61.09, 465.88 45.61, 503.25 -0.13 M439.53 77.34 C453.14 61.82, 466.96 48.59, 507.14 -1.09 M439.33 78.41 C460.81 54.95, 481.61 31.4, 508.78 -0.88 M446.2 76.73 C471.86 49.93, 497.57 18.98, 514.74 -0.91 M446.2 77.98 C462.05 60.52, 477.12 43.04, 514.04 -0.21 M448.81 77.42 C476 51.6, 503.8 20.37, 519.78 1.3 M450.15 79.89 C478.38 46.94, 504.73 15.69, 518.98 -1.09 M457.12 79.93 C475.58 58.11, 491.92 36.52, 523.05 -0.38 M456.57 78.1 C482.73 49.57, 508.02 19.66, 524.5 0.49 M461.28 80.27 C475.75 62.41, 489.17 46.97, 530.65 0.94 M461.61 79.78 C476.45 61.45, 490.63 43.81, 530.13 -0.44 M465.22 78.73 C492.93 48.51, 518.52 18.85, 534.94 -0.24 M467.73 79.37 C483.09 61.5, 496.47 43.76, 536.17 -0.76 M471.59 78.74 C487.71 60.14, 500.51 45.99, 539.9 -1.01 M471.96 79.65 C489.15 60.07, 505.28 41.27, 541.36 -1.13 M479.24 79.64 C503.24 49.35, 527.73 21.89, 546.15 0.78 M477.48 77.89 C503.72 48.83, 528.34 18.24, 545.01 -0.88 M484.1 79.51 C501.98 53.69, 524.92 29.42, 552.35 -0.65 M481.83 78.91 C509.67 49.32, 535.76 17.75, 550.68 0.02 M488.01 80.72 C509.13 55.38, 532.41 28.39, 556.14 -0.24 M487.88 79.91 C513.39 52.45, 536 23.97, 556.35 0.11 M494.9 77.01 C514.97 53.9, 537.23 30.99, 563.59 -1.26 M493.26 79.84 C519 48.39, 543.71 19.05, 562.02 0.5 M497.03 78.54 C519.92 53.13, 540.25 29.43, 566.1 -0.47 M498.82 79.74 C524.71 49.6, 548.7 19.7, 567.92 0.02 M505.78 79.46 C516.25 64.42, 531.39 45.25, 573.89 0.65 M504.64 78.57 C518.16 62.01, 532.04 46.38, 572.16 -0.79 M510.56 78.72 C532.93 50.27, 562.62 17.19, 574.94 1 M509.15 79.32 C527.57 57.08, 547.65 36.75, 574.88 1.8 M514.27 78.86 C531.28 60.13, 548.19 40.38, 575.05 9.64 M513.8 78.09 C532.57 59.78, 548.08 39.99, 576.57 7.69 M520.23 78.89 C541.37 53.03, 559.91 32.24, 574.73 16.11 M520.23 80.21 C536.97 58.5, 554.06 39.18, 576.16 13.55 M523.61 77.01 C545.48 55.48, 566.06 30.55, 574.73 20.24 M524.92 79.27 C538.46 63.29, 553.58 47.49, 576.77 19.99 M530.38 79.49 C543.34 61.47, 561.6 45.26, 576.32 27.25 M530.34 79.3 C542.02 65.53, 553.6 51.63, 575.2 26.85 M536.75 79.46 C550.02 62.79, 561.21 47.9, 574 33.25 M535.6 77.81 C545.82 68.03, 554.19 56.23, 574.86 32.05 M540.09 77.72 C549.26 72.22, 555.46 62.7, 575.76 40.38 M541.63 79.88 C551.88 67.67, 563.25 54.91, 575.29 38.96 M546.38 77.56 C552.01 71.99, 560.62 64.11, 577.32 45.79 M545.81 79.29 C555.98 67.39, 566.07 56.36, 576.51 44.69 M553.14 77.57 C558.58 71.9, 565.45 60.8, 576.84 49.26 M551.15 78.57 C558.44 72.73, 564.06 65.25, 577.1 50 M556.89 78.44 C560.82 70.83, 569.04 65.93, 577.92 57.99 M556.92 78.14 C561.86 72.18, 567.76 64.82, 575.31 57.33 M560.04 79.8 C568.75 75.16, 569.94 65.94, 576.37 62.17 M561.84 78.36 C565.56 74.97, 569.43 71.06, 575.07 62.7 M566.82 78.89 C568.11 76.69, 570.95 74.25, 575.01 68.33 M567.01 78.66 C570.06 75.25, 574 71.46, 576.31 68.31 M572.45 79.27 C574.1 77.39, 574.6 75.82, 576.13 75.69 M572.83 79.18 C573.38 77.92, 574.37 76.97, 575.64 75.05" stroke="#c8c8c8" stroke-width="0.5" fill="none"></path><path d="M-0.29 0.27 C213.81 1.88, 426.87 2.38, 574.22 -0.16 M0.05 -0.01 C142.08 0.73, 284.44 0.74, 573.42 -0.13 M574.57 0.32 C574.43 19.79, 574.61 39.97, 571.9 79.01 M574.39 0.52 C573.6 30.42, 574.04 60.98, 574.68 78.66 M574.48 77.98 C416.05 77.57, 257.76 78.18, -0.33 79.15 M574.02 78.38 C412.09 76.68, 250.3 76.54, 0.38 78.47 M-0.91 77.36 C1.28 58.26, -0.98 39.21, -1.67 1.75 M-0.1 79.58 C0.78 56.82, -0.46 35.16, -0.26 -0.36" stroke="#495057" stroke-width="1" fill="none"></path></g><g transform="translate(557.8260968031282 87.58944392650483) rotate(0 486.375 247.71214587870054)"><text x="0" y="0" font-family="Cascadia, Segoe UI Emoji" font-size="207.5263984073621px" fill="#087f5b" text-anchor="start" style="white-space: pre;" direction="ltr" dominant-baseline="text-before-edge">App Name</text><text x="0" y="247.71214587870037" font-family="Cascadia, Segoe UI Emoji" font-size="207.5263984073621px" fill="#087f5b" text-anchor="start" style="white-space: pre;" direction="ltr" dominant-baseline="text-before-edge"></text></g><g stroke-linecap="round" transform="translate(1611.3220738383934 3591.2040851317624) rotate(0 259.15101156009405 82.76515722796694)"><path d="M10.36 10.33 C10.36 10.33, 10.36 10.33, 10.36 10.33 M10.36 10.33 C10.36 10.33, 10.36 10.33, 10.36 10.33 M3.54 24.27 C9.51 15.52, 16.33 8.33, 21.25 3.9 M3.54 24.27 C9.82 17.83, 16.34 9.47, 21.25 3.9 M1.96 32.18 C7.77 24.79, 17.59 14.64, 25.58 5.01 M1.96 32.18 C8.96 25.14, 14.04 17.73, 25.58 5.01 M1.7 38.58 C10.78 28.18, 18.86 20.28, 31.88 3.86 M1.7 38.58 C9.44 28.78, 17.67 19.78, 31.88 3.86 M1.44 44.98 C12.35 33.1, 23.98 16.48, 38.18 2.71 M1.44 44.98 C9.61 35.02, 18.99 23.31, 38.18 2.71 M1.84 50.62 C13.04 37.54, 23.26 23.84, 43.82 2.32 M1.84 50.62 C17.26 31.28, 33.48 13.3, 43.82 2.32 M1.57 57.02 C17.05 39.62, 35.41 16.73, 49.47 1.92 M1.57 57.02 C15.81 40.01, 29.24 25.37, 49.47 1.92 M1.97 62.66 C13.86 46.91, 28.2 32.05, 54.45 2.28 M1.97 62.66 C12.26 50.49, 24.34 37.49, 54.45 2.28 M1.71 69.06 C23.67 44.93, 45.31 22.82, 60.1 1.89 M1.71 69.06 C16.88 50.41, 32.85 33.01, 60.1 1.89 M1.45 75.46 C19.71 58.1, 34.18 38.28, 65.08 2.25 M1.45 75.46 C25.72 45.14, 51.04 17.57, 65.08 2.25 M1.84 81.1 C26.89 52.02, 51.33 24.93, 70.73 1.86 M1.84 81.1 C28.26 50.19, 54.03 20.52, 70.73 1.86 M1.58 87.5 C26.3 61.19, 47.91 35.82, 75.71 2.22 M1.58 87.5 C19.63 67.34, 38.54 45.45, 75.71 2.22 M1.32 93.9 C26.17 64.59, 50.62 35.54, 80.7 2.58 M1.32 93.9 C22.96 71.14, 43.52 46.82, 80.7 2.58 M1.71 99.54 C34.22 62.75, 67.14 24.14, 86.34 2.18 M1.71 99.54 C23.17 73.27, 46.43 47.23, 86.34 2.18 M1.45 105.94 C30.63 74.36, 60.02 40.39, 91.33 2.54 M1.45 105.94 C19.2 85.05, 36.29 64.64, 91.33 2.54 M1.84 111.58 C22.71 85.43, 42.02 65.11, 96.97 2.15 M1.84 111.58 C36.81 70.81, 71.74 29.26, 96.97 2.15 M1.58 117.98 C34.56 78.08, 72.92 35.11, 101.96 2.51 M1.58 117.98 C36.64 76.44, 70.8 36.25, 101.96 2.51 M1.32 124.38 C38.69 82.71, 73.65 40.97, 107.6 2.11 M1.32 124.38 C30.28 89.77, 58.63 56.06, 107.6 2.11 M1.72 130.02 C32.76 92.51, 65.59 59.14, 112.59 2.47 M1.72 130.02 C38.71 85.84, 76.13 42.41, 112.59 2.47 M2.11 135.66 C45.08 85.26, 90.67 31.92, 118.23 2.08 M2.11 135.66 C40.24 92.69, 77.16 50.4, 118.23 2.08 M3.82 139.8 C46.63 89.53, 92.11 38.14, 123.22 2.44 M3.82 139.8 C32.65 108.63, 61.04 75.61, 123.22 2.44 M5.52 143.93 C29.13 114.08, 55.89 84.71, 128.86 2.04 M5.52 143.93 C37.91 107.98, 69.95 72.79, 128.86 2.04 M5.92 149.57 C46.55 103.37, 85.63 54.84, 133.85 2.4 M5.92 149.57 C56.56 90.17, 106.29 32.7, 133.85 2.4 M8.28 152.95 C59.63 91.94, 113.84 33.46, 139.49 2.01 M8.28 152.95 C40.63 115.88, 73.81 79.36, 139.49 2.01 M11.3 155.58 C61.72 99.29, 108.34 43.27, 144.48 2.37 M11.3 155.58 C38.55 124.37, 66.16 94.01, 144.48 2.37 M14.32 158.2 C58 107.46, 105.89 53.93, 150.12 1.97 M14.32 158.2 C47.33 122.33, 77.91 84.58, 150.12 1.97 M17.99 160.07 C57.37 115.48, 92.71 73.26, 155.11 2.33 M17.99 160.07 C63.75 108, 108.79 55.24, 155.11 2.33 M21.67 161.94 C64.2 112.61, 106.33 63.45, 160.75 1.94 M21.67 161.94 C55.13 124.81, 89.96 86.47, 160.75 1.94 M24.69 164.56 C69.54 112.79, 114.45 58.74, 165.74 2.3 M24.69 164.56 C68.02 115.56, 109.31 67.74, 165.74 2.3 M29.68 164.92 C65.09 125.08, 101.09 84.25, 171.38 1.91 M29.68 164.92 C58.5 128.21, 89.18 94.17, 171.38 1.91 M34.01 166.04 C73.82 120.51, 111.96 76.75, 176.37 2.27 M34.01 166.04 C77.66 117.88, 119.49 68.19, 176.37 2.27 M38.99 166.4 C93.17 105.75, 145.27 44.69, 182.01 1.87 M38.99 166.4 C95.94 101.05, 152.89 36.89, 182.01 1.87 M43.32 167.51 C83.83 123.92, 121.57 78.66, 187 2.23 M43.32 167.51 C95.52 108.07, 147.13 50.17, 187 2.23 M48.97 167.12 C94.78 111.22, 143.11 56.51, 192.64 1.84 M48.97 167.12 C102.65 106.57, 155.02 45.22, 192.64 1.84 M53.95 167.48 C91.41 123.58, 131.53 81.3, 197.63 2.2 M53.95 167.48 C81.74 135.14, 112.23 100.76, 197.63 2.2 M59.6 167.08 C98.46 121.49, 137.28 73.8, 202.62 2.56 M59.6 167.08 C113.33 105.89, 167.61 43.63, 202.62 2.56 M64.58 167.44 C98.42 129.49, 129.55 90.93, 208.26 2.16 M64.58 167.44 C120.18 105.95, 173.62 44.34, 208.26 2.16 M70.23 167.05 C125.58 103.42, 181 40.17, 213.25 2.52 M70.23 167.05 C104 129.66, 136.67 92.3, 213.25 2.52 M75.21 167.41 C126.72 106.62, 182.61 42.1, 218.89 2.13 M75.21 167.41 C122.76 112.09, 171.3 56.99, 218.89 2.13 M80.86 167.01 C128.39 109.46, 178.46 54.45, 223.88 2.49 M80.86 167.01 C111.1 134.08, 140.19 100.88, 223.88 2.49 M85.84 167.37 C126.91 121.3, 168.11 71.42, 229.52 2.09 M85.84 167.37 C134.98 112.1, 182.79 56.82, 229.52 2.09 M91.49 166.98 C126.42 127.11, 157.98 88.22, 234.51 2.45 M91.49 166.98 C138.98 112.81, 186.15 57.72, 234.51 2.45 M96.47 167.34 C126.1 132.75, 153.63 101.29, 240.15 2.06 M96.47 167.34 C147.31 107.86, 199.03 46.57, 240.15 2.06 M101.46 167.7 C142.36 118.12, 185.79 67.47, 245.14 2.42 M101.46 167.7 C145.96 119.32, 189.51 68.75, 245.14 2.42 M107.1 167.31 C154.83 112.77, 202.41 57.87, 250.78 2.02 M107.1 167.31 C162.55 101.95, 219.2 36.95, 250.78 2.02 M112.09 167.67 C162.81 110.07, 209.3 54.23, 255.77 2.38 M112.09 167.67 C165.12 108.35, 219.26 46.39, 255.77 2.38 M117.73 167.27 C166.19 112.04, 217.16 54.73, 261.41 1.99 M117.73 167.27 C164.13 114.18, 209.91 60.67, 261.41 1.99 M122.72 167.63 C166.63 115.84, 213.71 61.75, 266.4 2.35 M122.72 167.63 C157.89 126.88, 193.83 87.55, 266.4 2.35 M128.36 167.24 C169.52 120.21, 210.01 72.97, 272.04 1.96 M128.36 167.24 C166.71 122.01, 204.05 78.86, 272.04 1.96 M133.35 167.6 C184.53 107.43, 239.7 47.18, 277.03 2.32 M133.35 167.6 C164.45 133.32, 193.84 98.05, 277.03 2.32 M139 167.2 C172.59 125.55, 208.54 84.3, 282.67 1.92 M139 167.2 C174.21 129.92, 207.09 89.6, 282.67 1.92 M143.98 167.56 C197.49 104.94, 251.89 44.77, 287.66 2.28 M143.98 167.56 C198.73 102.13, 256.69 35.38, 287.66 2.28 M149.63 167.17 C190.59 116.94, 233.03 69.6, 293.3 1.89 M149.63 167.17 C187.9 123.1, 226.46 79.02, 293.3 1.89 M154.61 167.53 C185.33 133.14, 216.68 97.22, 298.29 2.25 M154.61 167.53 C196.74 118, 240.95 68.1, 298.29 2.25 M160.26 167.13 C210.07 109.93, 259.95 51.08, 303.93 1.85 M160.26 167.13 C201.19 119.73, 243.27 72.67, 303.93 1.85 M165.24 167.49 C206.44 119.78, 246.76 71.31, 308.92 2.21 M165.24 167.49 C207.31 118.38, 248.19 72.15, 308.92 2.21 M170.89 167.1 C217.36 113.99, 261.03 64.06, 313.91 2.57 M170.89 167.1 C207.54 124.85, 246.61 80.09, 313.91 2.57 M175.87 167.46 C206.54 132.96, 237.09 99.73, 319.55 2.18 M175.87 167.46 C214.51 123.63, 253.47 79.46, 319.55 2.18 M181.52 167.06 C231.14 108.89, 279.77 55.07, 324.54 2.54 M181.52 167.06 C217.2 124.95, 253.16 84.14, 324.54 2.54 M186.5 167.42 C232.32 117.65, 273.15 66.2, 330.18 2.14 M186.5 167.42 C220.44 128.88, 252.99 92.24, 330.18 2.14 M192.15 167.03 C242.4 106.77, 294.9 48.73, 335.17 2.5 M192.15 167.03 C238.28 115, 285 61.62, 335.17 2.5 M197.13 167.39 C240.2 115.71, 284.21 68.16, 340.81 2.11 M197.13 167.39 C240.62 116.49, 284.24 66.85, 340.81 2.11 M202.78 167 C249.39 110.68, 299.18 55.85, 345.8 2.47 M202.78 167 C240.46 123.49, 277.19 81.02, 345.8 2.47 M207.76 167.36 C247.92 123.91, 285.98 77.39, 351.44 2.07 M207.76 167.36 C252.84 116.42, 296.11 65.46, 351.44 2.07 M212.75 167.72 C246.4 130.81, 277.33 92.32, 356.43 2.43 M212.75 167.72 C251.97 125.52, 288.82 83.1, 356.43 2.43 M218.39 167.32 C254.82 124.25, 296.06 78.97, 362.07 2.04 M218.39 167.32 C274.13 102.64, 329.9 38.47, 362.07 2.04 M223.38 167.68 C260.21 126.92, 295.13 83.24, 367.06 2.4 M223.38 167.68 C256.94 129.19, 290.85 92, 367.06 2.4 M229.02 167.29 C270.4 118.37, 309.89 73.57, 372.7 2 M229.02 167.29 C283.84 104.37, 336.6 42.84, 372.7 2 M234.01 167.65 C289.75 105.89, 344.27 41.72, 377.69 2.36 M234.01 167.65 C276.7 120.65, 316.55 73.19, 377.69 2.36 M239.65 167.25 C284.57 118.41, 330.49 65.73, 383.33 1.97 M239.65 167.25 C275.84 122.94, 313.08 81.43, 383.33 1.97 M244.64 167.61 C281.16 127.89, 316.01 85.55, 388.32 2.33 M244.64 167.61 C281.52 124.41, 318.16 82.37, 388.32 2.33 M250.28 167.22 C285.92 124.35, 323.82 81.96, 393.96 1.94 M250.28 167.22 C290.22 122.26, 329.08 77.03, 393.96 1.94 M255.27 167.58 C297.14 120.48, 335.77 76.26, 398.95 2.3 M255.27 167.58 C308.56 106.69, 361.26 44.26, 398.95 2.3 M260.91 167.18 C296.96 128.05, 331.75 87.07, 404.59 1.9 M260.91 167.18 C293.66 127.53, 327.84 88.42, 404.59 1.9 M265.9 167.54 C311.44 113.47, 356.94 61.86, 409.58 2.26 M265.9 167.54 C323.32 103.2, 379.49 37.81, 409.58 2.26 M271.54 167.15 C319.25 113.65, 363.76 58.42, 415.22 1.87 M271.54 167.15 C303.06 130.79, 332.92 96.81, 415.22 1.87 M276.53 167.51 C306.4 131.3, 337.21 97.02, 420.21 2.23 M276.53 167.51 C317.36 120.93, 357.2 75.36, 420.21 2.23 M282.17 167.11 C328.52 111.91, 377.62 56.81, 425.85 1.83 M282.17 167.11 C313.67 130.18, 347.11 92.93, 425.85 1.83 M287.16 167.47 C324.83 122.47, 362.27 82.88, 430.84 2.19 M287.16 167.47 C328.99 118.61, 371.5 68.26, 430.84 2.19 M292.8 167.08 C327.76 126.87, 361.6 86.36, 435.82 2.55 M292.8 167.08 C345.42 107.1, 399.06 46.62, 435.82 2.55 M297.79 167.44 C342.23 116.64, 388.76 62.52, 441.47 2.16 M297.79 167.44 C345 114.21, 393.35 58.83, 441.47 2.16 M303.43 167.04 C338.2 125.61, 371.66 87.81, 446.45 2.52 M303.43 167.04 C344.52 118.52, 384.37 70.17, 446.45 2.52 M308.42 167.4 C353.26 119.17, 395.56 67.56, 452.1 2.12 M308.42 167.4 C362.73 106.46, 416.29 45.27, 452.1 2.12 M314.06 167.01 C344.2 130.89, 375.79 94.15, 457.08 2.48 M314.06 167.01 C356.99 116.42, 399.11 66.6, 457.08 2.48 M319.05 167.37 C363.91 117.43, 407.79 66.32, 462.73 2.09 M319.05 167.37 C352.69 130.52, 384.69 92.18, 462.73 2.09 M324.69 166.98 C361.24 120.53, 401.32 74.42, 467.71 2.45 M324.69 166.98 C366.34 121.03, 405.02 76.18, 467.71 2.45 M329.68 167.34 C371.21 117.97, 415.98 67.85, 473.36 2.05 M329.68 167.34 C359.72 131.74, 391.89 95.5, 473.36 2.05 M334.67 167.7 C371.13 126.67, 405.7 87.38, 479 1.66 M334.67 167.7 C385.77 109.14, 437.84 49.23, 479 1.66 M340.31 167.3 C393.1 106.72, 448.8 43.31, 483.33 2.77 M340.31 167.3 C376.99 125.13, 412.7 84.09, 483.33 2.77 M345.3 167.66 C397.44 108.48, 446.91 47.85, 488.32 3.13 M345.3 167.66 C377.94 130.55, 409.02 94.35, 488.32 3.13 M350.94 167.27 C401.15 111.18, 448.67 56.02, 493.31 3.49 M350.94 167.27 C406.06 104.51, 459.85 42.27, 493.31 3.49 M355.93 167.63 C409.25 105.7, 461.29 45.99, 497.64 4.61 M355.93 167.63 C389.1 130.95, 422.31 92.66, 497.64 4.61 M361.57 167.23 C405.43 116.51, 448.72 63.48, 501.31 6.48 M361.57 167.23 C396.97 124.74, 433.05 85.37, 501.31 6.48 M366.56 167.59 C402.9 128.5, 436.48 89.42, 504.99 8.35 M366.56 167.59 C409.49 119.36, 451.49 70.6, 504.99 8.35 M372.2 167.2 C417.63 117.04, 462.33 67.12, 508.01 10.97 M372.2 167.2 C404.47 132.29, 434.79 98.14, 508.01 10.97 M377.19 167.56 C408.51 126.02, 442.55 86.93, 510.37 14.35 M377.19 167.56 C406.31 134.08, 434.32 101.33, 510.37 14.35 M382.83 167.16 C425.29 113.39, 470.95 62.28, 513.39 16.98 M382.83 167.16 C418.69 128.07, 453.06 88.61, 513.39 16.98 M387.82 167.52 C428.62 126.04, 464.38 80.74, 515.09 21.11 M387.82 167.52 C425.47 123.44, 465.58 80.24, 515.09 21.11 M393.46 167.13 C442.51 111.99, 490.68 58.04, 516.14 26 M393.46 167.13 C425.23 132.46, 456.01 97.97, 516.14 26 M398.45 167.49 C446.36 115.05, 491.54 61.1, 517.85 30.13 M398.45 167.49 C441.81 118.41, 484.74 66.86, 517.85 30.13 M404.09 167.09 C438.66 128.89, 471.69 91.47, 520.21 33.51 M404.09 167.09 C437.29 130.62, 469.74 93.55, 520.21 33.51 M409.08 167.45 C446.78 125.99, 484.22 83.18, 519.95 39.91 M409.08 167.45 C449.05 120.65, 489.71 74.04, 519.95 39.91 M414.72 167.06 C444.84 132.14, 475.95 97.42, 520.35 45.55 M414.72 167.06 C452.05 122.92, 488.91 79.45, 520.35 45.55 M419.71 167.42 C446.25 134.16, 476.59 104.16, 520.09 51.95 M419.71 167.42 C451.83 129.89, 483.99 95.04, 520.09 51.95 M425.35 167.03 C448.82 141.13, 470.41 117.04, 520.48 57.59 M425.35 167.03 C452.4 136.38, 479.54 105.15, 520.48 57.59 M430.34 167.39 C463.11 127.99, 495.04 92.53, 520.22 63.99 M430.34 167.39 C449.3 145.74, 468.18 124.83, 520.22 63.99 M435.98 166.99 C454.88 146.75, 471.38 125.99, 519.96 70.39 M435.98 166.99 C468.47 128.76, 502.17 90.11, 519.96 70.39 M440.97 167.35 C463.28 140.67, 484.94 116.99, 520.35 76.03 M440.97 167.35 C462.97 142.32, 485.49 115.48, 520.35 76.03 M445.96 167.71 C464.57 143.36, 487.37 121.37, 520.09 82.43 M445.96 167.71 C462.24 148.55, 479.66 128.76, 520.09 82.43 M451.6 167.32 C470.54 147.9, 486.97 126.82, 520.48 88.07 M451.6 167.32 C473.55 141.11, 497.44 113.46, 520.48 88.07 M456.59 167.68 C479.53 142.5, 500.07 114.14, 520.22 94.47 M456.59 167.68 C470.79 150.48, 485.31 134.95, 520.22 94.47 M462.23 167.28 C480.67 146.19, 498.42 123.72, 520.62 100.11 M462.23 167.28 C476.43 151.93, 489.49 134.46, 520.62 100.11 M467.22 167.64 C486.87 148.37, 503.57 128.71, 520.36 106.51 M467.22 167.64 C480.46 152.65, 492.24 138.8, 520.36 106.51 M472.86 167.25 C484.97 151.68, 496.62 137.87, 520.75 112.15 M472.86 167.25 C482.53 155.09, 493.17 142.77, 520.75 112.15 M478.5 166.85 C493.49 148.06, 508.43 133.38, 520.49 118.55 M478.5 166.85 C489.1 154.15, 498.83 142.05, 520.49 118.55 M484.8 165.7 C491.28 157.56, 499.76 149.18, 519.57 125.7 M484.8 165.7 C496.46 151.58, 509.57 137.73, 519.57 125.7 M490.44 165.31 C499.11 152.72, 508.75 143.86, 518.65 132.86 M490.44 165.31 C496.91 158.34, 502.78 149.56, 518.65 132.86 M496.74 164.16 C503.35 156.01, 506.19 153.07, 515.77 142.27 M496.74 164.16 C502.91 157.96, 507.31 150.97, 515.77 142.27" stroke="#40c057" stroke-width="0.5" fill="none"></path><path d="M41.38 0 M41.38 0 C152.24 1.7, 262.95 0.49, 476.92 0 M41.38 0 C155.71 2.58, 271.08 2.54, 476.92 0 M476.92 0 C505.78 1.5, 518.95 13.23, 518.3 41.38 M476.92 0 C503.55 -0.61, 518.01 14.88, 518.3 41.38 M518.3 41.38 C519.51 65.79, 516.79 89.05, 518.3 124.15 M518.3 41.38 C518.07 60.55, 519.17 78.48, 518.3 124.15 M518.3 124.15 C516.96 151.09, 505.14 165, 476.92 165.53 M518.3 124.15 C519.24 150.27, 504.02 166.54, 476.92 165.53 M476.92 165.53 C309.8 164.76, 144.42 164.74, 41.38 165.53 M476.92 165.53 C318.04 165.23, 159.24 165.27, 41.38 165.53 M41.38 165.53 C11.81 166.54, -1.14 150.58, 0 124.15 M41.38 165.53 C12.14 163.91, 0.99 153.43, 0 124.15 M0 124.15 C-0.3 90.66, -1.62 62.49, 0 41.38 M0 124.15 C0.22 99.88, -0.13 74.8, 0 41.38 M0 41.38 C0.18 13.06, 15.75 1.7, 41.38 0 M0 41.38 C0.13 14.05, 15.74 0.66, 41.38 0" stroke="#495057" stroke-width="1" fill="none"></path></g><g transform="translate(1745.9058580936871 3628.067056752124) rotate(0 119.60424041748047 40.80000000000018)"><text x="0" y="0" font-family="Virgil, Segoe UI Emoji" font-size="68.17821143883444px" fill="#000000" text-anchor="start" style="white-space: pre;" direction="ltr" dominant-baseline="text-before-edge">Primary</text></g><g stroke-linecap="round" transform="translate(1563.243289263155 1220.2203378034574) rotate(0 757.7278080256492 114.23774283229704)"><path d="M0.41 -0.16 C438.53 -2.5, 877.75 -3.08, 1515.43 0.05 M-0.39 -0.13 C558.99 -4.56, 1118.32 -4.29, 1515.52 0.17 M1513.82 0.24 C1518.01 76.24, 1515.29 153.36, 1516.34 228.08 M1516.19 -0.06 C1515.66 59.55, 1515.63 120.42, 1514.66 228.98 M1515.13 228.9 C1155.45 229.4, 795.04 229.72, -0.7 228.66 M1515.84 228.22 C1087.4 225.11, 660.09 225.12, -0.27 228.65 M-1.42 229.96 C0.83 171.63, -0.17 113.96, 1.45 1.59 M-0.22 228.17 C1.04 173.62, -0.19 118.84, 0.67 -0.07" stroke="#495057" stroke-width="1" fill="none"></path></g><g transform="translate(1639.8040468649888 1298.2457394886806) rotate(0 284.02972412109375 40.80000000000018)"><text x="0" y="0" font-family="Virgil, Segoe UI Emoji" font-size="68.54542504413911px" fill="#495057" text-anchor="start" style="white-space: pre;" direction="ltr" dominant-baseline="text-before-edge">Input Field Text</text></g><g transform="translate(1586.2142666934997 1102.9573575564937) rotate(0 81.24422454833984 40.19999999999982)"><text x="0" y="0" font-family="Virgil, Segoe UI Emoji" font-size="67.76846938685843px" fill="#000000" text-anchor="start" style="white-space: pre;" direction="ltr" dominant-baseline="text-before-edge">Title</text></g><g transform="translate(1581.0408401452514 1482.2685891576111) rotate(0 107.04627990722656 31.199999999999818)"><text x="0" y="0" font-family="Virgil, Segoe UI Emoji" font-size="52.044229592745225px" fill="#000000" text-anchor="start" style="white-space: pre;" direction="ltr" dominant-baseline="text-before-edge">Message</text></g><g stroke-linecap="round" transform="translate(1562.3627060209074 1778.7001743216933) rotate(0 1147.7473392756492 107.88016836940642)"><path d="M-0.16 0.1 C642.15 -7.81, 1284.9 -7.2, 2296.08 -0.79 M-0.11 0.15 C614.77 2.88, 1229.55 2.91, 2295.84 -0.38 M2294.3 1.01 C2298.12 67.4, 2296.55 135.98, 2294.4 217.27 M2295.25 0.73 C2294.22 63.7, 2294.49 126.84, 2295.62 215.4 M2294.8 216.17 C1484.55 216.88, 674.87 216.93, -0.42 216.52 M2295.82 215.58 C1754.99 211.37, 1214.84 210.91, -0.11 215.43 M-1.54 215.58 C2.05 133.83, -0.52 48.11, -1.72 -0.45 M-0.8 215.04 C-0.3 158.74, -1.82 101.77, 0.02 0.63" stroke="#c92a2a" stroke-width="1" fill="none"></path></g><g transform="translate(1639.8040468649888 1859.3987751351851) rotate(0 284.02972412109375 40.80000000000018)"><text x="0" y="0" font-family="Virgil, Segoe UI Emoji" font-size="68.54542504413911px" fill="#000000" text-anchor="start" style="white-space: pre;" direction="ltr" dominant-baseline="text-before-edge">Input Field Text</text></g><g transform="translate(1586.2142666934997 1662.317777316981) rotate(0 208.63299560546875 40.19999999999982)"><text x="0" y="0" font-family="Virgil, Segoe UI Emoji" font-size="67.76846938685843px" fill="#000000" text-anchor="start" style="white-space: pre;" direction="ltr" dominant-baseline="text-before-edge">Web Address</text></g><g transform="translate(1580.1445322022373 2040.732700975088) rotate(0 182.11395263671875 31.199999999999818)"><text x="0" y="0" font-family="Virgil, Segoe UI Emoji" font-size="52.044229592745225px" fill="#c92a2a" text-anchor="start" style="white-space: pre;" direction="ltr" dominant-baseline="text-before-edge">Error message</text></g><g stroke-linecap="round" transform="translate(1562.3627060209074 2282.0708476145346) rotate(0 1138.6500492365858 99.04975455104704)"><path d="M0.55 0.66 C713.55 -1.36, 1425.68 -1.03, 2277.06 -0.22 M0.13 0.21 C769.79 -4.25, 1538.94 -3.5, 2277.31 -0.27 M2276.54 0.42 C2277.07 72.6, 2278.18 141.26, 2276.58 197.53 M2276.67 0.53 C2275.59 75.5, 2275.98 151.63, 2277.4 197.24 M2277.16 198.33 C1477.38 200.99, 677.77 199.81, -0.4 198.75 M2277.1 197.83 C1698.13 201.83, 1119.54 202.05, 0.08 197.75 M-1.23 197.49 C-3.66 140.2, -2.41 84.37, -0.91 -1.84 M-0.96 198 C-1.53 155.68, -1.19 111.13, -0.09 0.64" stroke="#2b8a3e" stroke-width="1" fill="none"></path></g><g transform="translate(1639.8040468649888 2363.6657563710332) rotate(0 284.02972412109375 40.80000000000018)"><text x="0" y="0" font-family="Virgil, Segoe UI Emoji" font-size="68.54542504413911px" fill="#000000" text-anchor="start" style="white-space: pre;" direction="ltr" dominant-baseline="text-before-edge">Input Field Text</text></g><g transform="translate(1586.2142666934997 2166.584758552828) rotate(0 135.791015625 40.19999999999982)"><text x="0" y="0" font-family="Virgil, Segoe UI Emoji" font-size="67.76846938685843px" fill="#000000" text-anchor="start" style="white-space: pre;" direction="ltr" dominant-baseline="text-before-edge">Summary</text></g><g transform="translate(1580.144532202241 2544.103374267929) rotate(0 215.8098602294922 31.199999999999818)"><text x="0" y="0" font-family="Virgil, Segoe UI Emoji" font-size="52.044229592745225px" fill="#2b8a3e" text-anchor="start" style="white-space: pre;" direction="ltr" dominant-baseline="text-before-edge">Success message</text></g><g transform="translate(1560.5846933667926 809.0785882325945) rotate(0 594.5143432617188 114.60000000000036)"><text x="0" y="0" font-family="Virgil, Segoe UI Emoji" font-size="191.07943903984878px" fill="#000" text-anchor="start" style="white-space: pre;" direction="ltr" dominant-baseline="text-before-edge">Create Post</text></g><g stroke-linecap="round" transform="translate(3197.4787743714915 1231.7937231005053) rotate(0 344.75305182460215 107.49849309213005)"><path d="M53.75 0 M53.75 0 C270.57 0.51, 488.09 1.05, 635.76 0 M53.75 0 C238.01 -0.43, 421.47 -0.72, 635.76 0 M635.76 0 C673.42 0.05, 688.14 19.07, 689.51 53.75 M635.76 0 C672.78 -0.53, 688.63 18.4, 689.51 53.75 M689.51 53.75 C689.95 78.53, 689.87 106.41, 689.51 161.25 M689.51 53.75 C690.66 76.12, 689.73 98.75, 689.51 161.25 M689.51 161.25 C689.15 197.28, 669.86 216.02, 635.76 215 M689.51 161.25 C687.5 197.62, 671.18 215.66, 635.76 215 M635.76 215 C491.15 213.09, 348.03 213.13, 53.75 215 M635.76 215 C500.61 213.72, 365.67 214.19, 53.75 215 M53.75 215 C17.32 215.38, -1.76 196.87, 0 161.25 M53.75 215 C19.88 217.14, -1.42 196.38, 0 161.25 M0 161.25 C1.32 138.7, -1.56 116.33, 0 53.75 M0 161.25 C-0.02 120.59, 0.81 80.26, 0 53.75 M0 53.75 C-1.37 17.73, 19.2 -1.17, 53.75 0 M0 53.75 C-1.06 16.24, 16.7 -1.79, 53.75 0" stroke="#495057" stroke-width="1" fill="none"></path></g><g transform="translate(3243.592417098127 1265.4063884464413) rotate(0 220.5789031982422 60.43504541192124)"><text x="0" y="0" font-family="Virgil, Segoe UI Emoji" font-size="100.79869213572513px" fill="#000000" text-anchor="start" style="white-space: pre;" direction="ltr" dominant-baseline="text-before-edge">Category</text></g><g stroke-linecap="round"><g transform="translate(3729.5799023744767 1305.5561372051816) rotate(359.52445830362433 45.46224483750484 23.516118652790283)"><path d="M-0.35 -0.33 C7.67 7.88, 32.49 47.77, 47.76 48.57 C63.03 49.38, 84.01 11.75, 91.28 4.51 M1.66 -1.55 C9.6 6.33, 32.2 45.9, 47.05 46.55 C61.9 47.21, 83.3 9.62, 90.78 2.38" stroke="#000000" stroke-width="1" fill="none"></path></g></g><mask></mask><g stroke-opacity="0.3" fill-opacity="0.3" stroke-linecap="round" transform="translate(1605.2733351582028 3257.145182402797) rotate(0 1091.6704940795898 122.9057589130839)"><path d="M0 0 C0 0, 0 0, 0 0 M0 0 C0 0, 0 0, 0 0 M-2.34 14.88 C4.47 8.46, 9.01 7.18, 10.95 2.21 M0.37 12.83 C1.91 7.35, 5.48 6.29, 11.36 1.08 M1.02 26.68 C4.22 20.42, 11.74 7.14, 18.44 -0.32 M-0.59 24.87 C6.53 17.9, 10.42 10.19, 22.44 1.37 M-1.63 37.52 C5.58 28.12, 17.31 11.95, 32.57 2.97 M-2 37.63 C8.2 25.65, 20.59 11.69, 31.88 -0.52 M2.54 52.69 C13.72 34.52, 32.86 18.24, 41.36 3.36 M-1.02 50.86 C12.19 32.61, 25.25 20.44, 43.34 1.04 M-0.52 63.51 C11.94 47.21, 26.16 30.89, 54.61 -1.34 M1.57 58.99 C12.57 44.53, 29.38 28.23, 52.02 -0.32 M-1.38 74.62 C25.55 41.69, 52.49 16.03, 60.32 3.42 M0.91 72.48 C24.88 47.14, 46.1 21.89, 63.68 -0.48 M-3.38 82.43 C27.57 51.98, 58.89 20.7, 73.06 -1.5 M2.16 84.79 C26.95 56.04, 51.61 23.87, 75.41 -0.64 M1.06 97.4 C17.65 82.13, 41.02 57.2, 82.41 -3.21 M0.71 97.29 C34.01 65.21, 61.79 28.18, 86.52 -1.16 M-2.51 110.73 C21.09 88.67, 38.45 60.48, 93.24 0.72 M-0.43 110.44 C27.83 75.23, 57.6 43.15, 95.27 -1.34 M1.78 120.48 C31.79 86.17, 62.37 51.07, 106.17 -4.01 M-1.71 120.52 C32.71 83.73, 66.05 49.27, 105.74 -1.27 M3.2 130.17 C29.46 101.52, 57.19 72.24, 117.25 -2.14 M-1.64 134.78 C23.56 105.53, 49.42 79.96, 115.95 -0.83 M4.1 147.16 C31.1 112.05, 65.24 74.12, 124.94 1.83 M-0.63 144.4 C32.82 105.28, 70.5 63.16, 127.31 -0.59 M-0.33 160.79 C38.44 112.99, 74.65 72.2, 134.94 1.59 M1.04 159.34 C43.12 108.63, 83.5 61.39, 137.53 -0.88 M-2.73 170.36 C44.88 123.33, 87.83 68.46, 149.25 -3.01 M-0.48 170.02 C38.66 127.93, 76.28 84.4, 149.72 0.51 M-0.95 180.71 C47.52 131.22, 97.44 70.24, 161.67 3.42 M0.22 184.33 C59.11 117.33, 115.54 53.17, 158.08 -0.73 M0.17 197.41 C62.82 115.32, 135.49 39.7, 168.17 -0.14 M-0.13 196.08 C58.54 135.52, 112.81 70.85, 170.93 -0.13 M-1.31 209.71 C36.67 162.74, 79.46 112.91, 179.49 1.04 M-1.17 208.31 C41.73 156.07, 84.51 108.08, 181.18 -1.12 M0.79 222.24 C68.89 138.43, 143.22 57.06, 192.04 -1.04 M0.54 220.68 C73.35 136.03, 147.33 49.2, 191.86 -0.15 M1.91 233.41 C62.32 163.94, 119.49 94.19, 202.02 -0.38 M0.98 231.67 C79.53 142.57, 157.75 50.8, 200.63 0.74 M1.95 244.47 C81.98 149.05, 164.46 57.56, 214.13 -0.57 M0.9 242.98 C72.87 163.72, 143.96 83.78, 211.01 -0.84 M3.62 252.3 C70.85 177.07, 137.68 104.31, 224.3 1.44 M5.76 249.89 C84.12 158.94, 163.85 68.76, 223.84 0.66 M14.96 252.07 C57.11 199.78, 98.24 150.45, 234.29 -0.41 M15.1 251.31 C63.38 194.29, 114.19 135.66, 234.36 0.6 M26.68 248.5 C100.57 163.74, 176.49 80.5, 246.11 -1.05 M26.02 250.42 C84.7 179.98, 143.81 111.51, 243.53 1.06 M36.54 249.92 C118.26 156.09, 198.58 63.02, 254.31 0.49 M36.01 250.51 C109.99 169.77, 183.43 87.18, 254.47 1.26 M46.34 249.05 C110.18 179.53, 176.25 104.28, 262.52 -0.53 M47.12 249.67 C116.96 168.1, 193.29 82.37, 264.83 0.47 M56.73 248.52 C121.05 180.93, 182.32 110.77, 275.52 -2.61 M58.3 249.09 C124.2 175.59, 186.19 100.99, 276.89 -0.55 M70.25 251.09 C151.06 161.81, 229.31 70.69, 288.66 0.45 M67.36 249.09 C151.51 161.53, 229.32 69.41, 287.23 0.64 M80.63 252.64 C125.95 199.71, 169.48 148.46, 296.22 -1.17 M79.66 249.26 C146.94 172.28, 216.82 94.32, 296.79 -1.29 M92.12 248.7 C154.85 176.52, 220.13 99.49, 308.02 -2.26 M91 249.93 C137.75 193.92, 187.5 137.98, 308.71 -0.24 M97.99 249.11 C169.42 170.98, 233.21 92.05, 319.75 2.19 M101.75 249.6 C157.41 190.57, 211.67 127.52, 319.38 1.03 M110.7 252 C185.99 165.21, 262.98 78.48, 329.53 -0.92 M110.6 249.15 C192.4 152.88, 278.68 55.81, 329.83 -0.79 M124.05 247.54 C182.83 181.69, 242.57 110.96, 340.91 1.8 M120.59 249.22 C181.33 182.3, 236.94 117.59, 339.53 0.05 M132.52 251.77 C214.93 157.28, 295.18 63.44, 351.57 0.45 M132.84 248.98 C183.5 193.15, 229.68 137.77, 348.97 0.26 M142.37 250.48 C191.74 189.96, 246.77 129.09, 358.9 -2.08 M141.62 249.04 C219.21 157.99, 299.72 65.91, 358.78 -0.5 M152.86 249.37 C219.04 179.78, 282.53 104.98, 372.71 2.07 M152.68 250.11 C210.77 184.49, 265.23 119.51, 371.79 -0.32 M161.95 250.63 C221.97 187.93, 278.33 123.21, 382.67 1.86 M164.68 250.5 C233.07 172.26, 300.27 94.88, 381.19 0.64 M174.75 248.6 C225.34 192.59, 276.71 133.33, 390.58 -0.7 M173.82 250.28 C243.43 170.24, 314.76 90.33, 392.29 1.08 M187.38 249.94 C231.24 194.53, 283.94 136.34, 402.5 -0.37 M185.35 248.7 C242.19 179.63, 300.45 110.96, 402.56 0.01 M195.42 247.49 C236.05 198.4, 282.12 147.65, 412.59 -1.26 M196.36 251.15 C246.76 190.91, 297.55 132.43, 413.15 -0.37 M205.1 251.4 C247.93 196.68, 290.89 143.16, 422.53 0.73 M207.25 250.15 C289.43 155.65, 371.34 60.88, 422.6 1.37 M219.88 251.98 C258.97 198.22, 307.69 146.75, 436.24 -0.14 M218.22 248.72 C278.83 177.56, 344.16 103.32, 435.55 0.54 M229.83 250.91 C287.23 180.26, 344.91 117.11, 446.55 -1.98 M227.06 249.56 C311.26 152.27, 395.09 56.67, 445.64 -1.25 M235.75 252.09 C311.68 169.87, 382.2 82.41, 457.26 -2.27 M238.59 251.85 C318.54 154.6, 401.99 57.64, 455.07 1.3 M246.6 251.63 C303.82 188.04, 354.29 130.32, 464.32 -2.31 M248.79 251.09 C330.86 154.12, 410.38 62.23, 465.65 -0.38 M256.76 248.91 C320.82 188.87, 376.68 122.57, 477.85 2.12 M259.11 250.56 C322.04 184.15, 380.32 115.2, 476.65 1.3 M270.66 252.8 C352.17 159.92, 428.88 68.75, 487.03 0.13 M268.75 250.28 C330.03 182.75, 388.31 112.81, 486.68 -1.02 M277.94 250.94 C357.91 162.98, 431.65 76.55, 498.43 2.1 M281.38 249.22 C350.2 172.52, 420.7 90.37, 496.96 0.38 M291.74 251.56 C344.86 182.83, 400.07 118.02, 506.4 -2.67 M292.04 250.9 C367.17 158.49, 444.38 68.96, 507.82 -0.16 M302.75 252.02 C384.85 154.83, 462.52 60.45, 520.42 1.38 M302.73 251.24 C381.88 157.12, 464.4 63.83, 519.27 0.25 M312.1 248.04 C387.37 158.84, 465.18 67.55, 530.11 -2.71 M312.01 249.62 C379.49 174.39, 446.36 98.07, 530.11 0.91 M323.42 251.13 C403.75 158.2, 478.35 69.47, 543.49 -0.7 M322.39 250.33 C379.51 181.95, 437.94 116.13, 541.29 0.38 M332.26 248.9 C387.51 186.51, 443.16 128.45, 551.87 -0.46 M332.73 249.08 C413.29 158.94, 492.64 63.95, 552.35 0.71 M345.36 249.67 C423.65 166.08, 494.1 77.65, 562.82 -0.99 M345.56 250.87 C409.49 175.28, 474.26 101.92, 561.95 -0.63 M353.72 248.26 C426.41 166.79, 494.08 86.32, 570.43 -2.13 M354.06 251.02 C401.47 197, 447.39 142.38, 572.54 -1.06 M368.19 248.77 C420.15 185.75, 473.74 121.73, 582.13 -0.02 M365.72 250.27 C443.96 158.39, 526.39 65.39, 582.08 -0.21 M376.22 252.18 C458.17 159.12, 535.31 71.54, 591.65 0.14 M375.7 249.5 C433.52 184.86, 485.32 123.46, 594 1.31 M388.39 251.95 C432.13 195.71, 476.75 143.95, 602.58 -2.18 M387.78 251.18 C452.35 176.66, 514.43 105.91, 602.96 1.07 M395.06 248.73 C472.01 164.97, 540.89 78.06, 612.13 0.77 M398.58 251.34 C464.13 174.22, 531.52 96.87, 615.72 1.52 M407.53 251.55 C453.69 201.06, 499.87 151.22, 627.12 2.32 M407.64 249.24 C450.73 198.32, 498.57 142.49, 626.51 -0.06 M420.11 248.84 C503.81 154.33, 589.58 54.9, 634.25 -1.15 M418 250.22 C499.58 152.89, 582.92 55.54, 635.28 0.83 M429.5 247.79 C483.36 188.58, 532.56 133.16, 643.96 -0.93 M429.91 250.83 C471 196.31, 513.22 146.87, 645.58 -0.31 M440.44 250.86 C508.64 173.1, 580.75 93.68, 655.24 -2.12 M438.68 249.86 C498.24 182.31, 555.15 112.96, 658.25 0.88 M452.39 251.49 C536.75 160.45, 612.96 65.81, 666.81 1.98 M450.2 249.84 C519.07 176.56, 584.88 100.72, 666.53 1.36 M459.72 248.78 C545.8 152.3, 630.95 51.52, 680.1 -1.68 M462.45 248.99 C532.75 167.46, 607.4 82.06, 677.1 0.4 M470.49 249.4 C538.1 179, 600.22 108.18, 688.58 1.49 M472.16 251.63 C526.26 189.06, 580.37 127.82, 688.75 -0.32 M481.95 252.01 C571.54 149.44, 655.33 50.49, 697.11 0.36 M480.79 251.69 C563.58 161.57, 642 70.81, 699.82 -0.69 M490.59 252.94 C570.02 158.11, 640.43 76.18, 711.3 0.02 M492.42 249.6 C566.53 162.41, 643.46 74.42, 711.45 0.75 M500.43 252.43 C550.99 200.46, 592.19 150.54, 718.69 1.14 M503.37 249.38 C562.09 183.66, 619.26 117.81, 721.32 0.05 M514.42 251.02 C573.84 175.34, 634.81 100.17, 732.57 -1.69 M514.33 250.07 C556.52 196.61, 605.07 142.48, 732.38 -1.07 M523.84 247.98 C595.62 167.93, 673.01 81.3, 740.52 -2.48 M525.46 251.19 C570.03 198.24, 613.17 145.22, 741.13 0.78 M533.06 247.81 C611.85 159.21, 691.41 70.5, 753.67 -1.83 M535.62 251.63 C586.13 192.3, 636.96 135.84, 751.82 -0.06 M543.42 247.77 C614.21 176.84, 674.84 99.57, 766.08 -0.33 M545.59 249.67 C605.34 178.82, 664.47 109.35, 764.74 -0.53 M556.27 249.89 C633.44 155.44, 711.76 63.68, 771.41 -0.24 M557.29 249.97 C616.46 180.82, 674.86 113.09, 774.02 0.46 M567.73 248.4 C641.22 162.98, 722.61 77.66, 782.13 1.12 M566.19 250.09 C612 198.27, 659.95 141.42, 785.93 0.71 M577.13 252.67 C626.96 190.05, 678.87 129.17, 797.2 -1.16 M576.79 250.1 C662.98 151.39, 748.72 52.95, 794.89 0.39 M587.25 247.49 C665.92 161.37, 742.62 68.62, 804.99 -2.16 M586.85 250.04 C653.97 177.23, 714.31 105.87, 807.19 0.73 M596.45 248.55 C659.56 183.77, 718.76 112.48, 815.55 1.17 M597.5 251.39 C676.13 162.72, 751.43 75.12, 816.36 -0.48 M609.77 251.93 C656.13 196.17, 703.84 136.31, 828.15 2.59 M608.34 248.99 C693.77 153.76, 776.89 60.43, 826.78 0.41 M620.15 251.41 C678.59 181.43, 733.64 114.75, 838.42 0.41 M619.32 248.94 C676.4 182.68, 732.73 117.01, 836.7 1.29 M630.45 247.86 C710.44 164.5, 781.62 75.24, 849.43 1.04 M631.33 249.59 C705.85 162.19, 781.48 74.95, 848.2 0.88 M640.11 250.3 C724.76 151.28, 810.05 51.49, 860.42 1.74 M639.91 251.27 C716.63 157.85, 797.3 66.77, 858.92 -0.35 M650.86 252.47 C696.35 200.71, 739.4 151.28, 869.73 2.65 M652.19 250.92 C704.24 185.47, 759.57 121.19, 869.43 1.28 M664.22 250.33 C732.54 168.91, 802.46 88, 880.55 -0.28 M661.55 249.03 C715.4 189.16, 770.93 126.16, 878.32 -0.82 M670.86 251.31 C758.34 152.33, 844.75 57.26, 892.96 2.17 M672.65 249.79 C741.43 173.46, 810.16 96.21, 889.61 -0.22 M686.31 248.15 C758.6 165.63, 827.78 80.43, 898.77 -1.83 M684.34 248.98 C731.65 194.03, 778.88 139.99, 899.62 0.86 M696.69 250.05 C776.61 158.74, 850.25 71.95, 911.73 -0.47 M695.62 250.36 C774.39 157.88, 854.24 65.06, 912.54 1.2 M704.65 251.76 C785.31 159.92, 862.63 69.99, 924.2 1.96 M704.18 251.66 C777.57 168.3, 850.05 85.42, 921.92 0.72 M715.88 250.77 C773.09 185.06, 834.01 113.69, 931.91 2.52 M715.04 249.82 C759.84 198.66, 806.28 145.73, 931.63 -0.75 M727.27 252.95 C800.47 168.06, 871.01 81.47, 945.13 -2.02 M724.9 249.71 C803.54 160.25, 881.96 71.91, 942.82 -0.63 M735.24 251.58 C817.92 158.58, 899.04 68.75, 953.52 2.29 M736.2 250.4 C789.98 194.6, 842.35 134.59, 953.08 -0.29 M748.95 250.97 C809.05 177.22, 871.86 102.49, 964.49 1.38 M747.52 250.09 C803.14 189.2, 858.31 125.44, 965.21 0.59 M757.87 248.52 C846.27 148.81, 931.36 51.74, 973.5 -2.14 M756.83 251.67 C806.26 193.33, 854.15 137.63, 975.46 0 M767.45 252.15 C815.18 191.07, 871.16 127.91, 986.13 -1.53 M768.84 250.63 C822.74 190.53, 874.32 130.82, 985.03 -0.82 M777.6 251.5 C860.89 163.12, 937.75 75.95, 999.25 -1.14 M779.26 251.52 C850.87 165.61, 922.64 81.09, 996.5 -1.29 M791.07 251.64 C853.74 176.77, 915.5 103.26, 1006.75 -1.65 M790.25 250.36 C865.09 162.22, 939.7 76.19, 1006.24 -1.44 M797.42 249.75 C879.25 152.87, 965.94 56.96, 1018.79 0.98 M800.2 251.11 C866.82 167.22, 938.78 85.06, 1017.2 -0.33 M808.63 252.48 C884.82 163.11, 959.28 76.37, 1029.46 -2.39 M810.95 250.82 C866.73 180.58, 926.18 112.84, 1028.57 -1.44 M821.29 252.61 C874.32 186.29, 931.02 121.78, 1041.49 -0.35 M820.32 250.68 C896.05 169.36, 967.66 84.66, 1040.43 -0.26 M830.38 251.94 C915.32 153.09, 991.62 62.15, 1049.53 0.1 M832.04 249.28 C897.35 173.9, 965.35 98.14, 1048.21 0.26 M840.53 248.71 C903.08 182.46, 967 112.03, 1062.09 -1.12 M842.85 250.98 C902.92 187.01, 960.19 120.37, 1060.8 -0.95 M852.57 249.72 C928.48 166.79, 999.46 76.81, 1070.62 0.29 M852.43 250.99 C905.3 191.31, 955.49 130.85, 1069.98 1.6 M863.81 252.25 C914.6 191.69, 963.4 133.64, 1082.36 0.17 M864.07 249.17 C921.34 187.73, 977.2 123.5, 1082.19 -0.65 M876.49 250.68 C949.76 171.37, 1021.06 88.07, 1092.68 1.42 M875.63 248.75 C925.22 196.45, 971.97 139.98, 1091.16 0.55 M887.12 251.23 C967.2 161.29, 1047.95 64.86, 1104.43 -1.24 M885.56 251.05 C965.74 157.42, 1044.75 63.88, 1101.63 -0.97 M894.9 251.21 C977.72 150.21, 1056.08 59.19, 1111.83 -1.12 M894.81 248.78 C962.6 171.83, 1030.28 96.92, 1113.58 -1.1 M907.44 248.36 C962.43 185.74, 1016.92 119.67, 1125.27 -0.22 M907.39 250.68 C974.3 175.89, 1038.62 99.31, 1124.12 -0.37 M916.5 247.39 C968.33 196.17, 1017.25 139.22, 1133.38 0.02 M915.92 250.32 C991.66 165.55, 1064.78 81.9, 1133.51 -1.06 M925.47 247.43 C1003.77 162.02, 1084.79 73.15, 1144.18 -0.14 M926.74 250.76 C999.46 170.13, 1067.25 90.71, 1144.32 -0.26 M935.36 249.39 C981.57 201.06, 1028.92 149.3, 1158.12 -0.38 M936.61 250.44 C986.62 196.34, 1036.1 138.47, 1156.59 -0.66 M947.67 251.29 C1029.18 158.16, 1109.54 65.3, 1165.54 0.8 M949.54 251.16 C1009.9 179.13, 1070.31 110.57, 1166.95 -0.86 M958 248.46 C1032.42 170.2, 1103.95 89.84, 1174.24 -1.01 M958.4 250.54 C1019.52 182.3, 1079.99 111.54, 1177.41 -0.71 M969.82 250.71 C1045.41 163.56, 1119.51 72.31, 1185.16 1.36 M969.91 249.96 C1056.13 149.62, 1141.12 50.99, 1186.35 0.16 M980.43 251.46 C1067.58 148.7, 1153.62 52.16, 1198.13 -2.23 M981.36 251.4 C1046.01 176.95, 1111.97 101.98, 1197.23 -0.2 M992.16 247.96 C1081.62 152.04, 1165.15 53.65, 1209.36 0.02 M989.38 249.37 C1064.35 168, 1133.93 87.73, 1209.66 0.82 M998.95 247.83 C1070.5 172.78, 1141.06 89.71, 1217.2 2.11 M1002.69 251.48 C1057.4 187.95, 1111.99 121.88, 1219.88 -0.34 M1013.86 251.07 C1086.8 169.79, 1155.59 89.08, 1230.48 -2.32 M1012.73 251.33 C1068.97 184.75, 1124.35 121.82, 1230.94 -1.03 M1023.05 251.22 C1110.43 156.82, 1190.46 62.5, 1241.62 0.16 M1022.81 249.05 C1074.19 195.19, 1120.78 140.14, 1239.53 -0.47 M1035.04 250.05 C1079.83 194.95, 1123.28 145.43, 1251.35 0.36 M1032.32 251.46 C1117.55 153.62, 1200.11 54.7, 1251.58 -0.93 M1045.55 247.79 C1111.76 167.13, 1187.54 81.91, 1263.5 -2.52 M1044.06 249 C1093.6 194.22, 1146.63 134.64, 1261.04 0.53 M1054.11 252.35 C1110.61 190.61, 1163.36 127.37, 1271.7 0.22 M1053.97 251.31 C1121.78 175.4, 1186.78 99.16, 1273.52 -0.06 M1067.03 247.85 C1148.49 159.86, 1226.29 66.9, 1280.69 -1.28 M1063.86 250.58 C1121.43 185.85, 1175.28 120.67, 1281.72 0.94 M1075.87 252.84 C1136.79 185.59, 1195.82 116.33, 1290.21 0.74 M1076.57 248.86 C1153.22 159.91, 1234.66 68.57, 1291.74 -0.39 M1087.67 250.58 C1157.27 170.81, 1224.91 91.8, 1302.17 1.89 M1086.96 248.75 C1166.48 154.17, 1249.3 61.36, 1303.38 0.02 M1097.94 247.44 C1162.53 174.75, 1230.24 95.8, 1315.35 0.1 M1096.11 250.72 C1164.67 169.05, 1236.13 86.39, 1314.64 -0.91 M1110.02 252.1 C1154.41 191.68, 1206.79 138.93, 1325.04 0.15 M1107.76 249.19 C1156.31 190.51, 1206.33 132.17, 1324.37 1.11 M1118.94 252.24 C1187.86 165.28, 1259.62 83.68, 1336.86 -1.54 M1117.98 249.01 C1196.12 166.01, 1269.69 80.65, 1334.18 0.12 M1130.79 248.24 C1172.14 195.24, 1221.19 142.42, 1345.3 -2.15 M1127.99 250.58 C1170.45 194.12, 1217.04 142.49, 1346.27 -0.87 M1141.16 251.68 C1212.76 169.12, 1287 83.62, 1358.4 -2.32 M1139.24 249.98 C1210.55 168.98, 1278.98 89.92, 1357.15 0.74 M1149.03 248.17 C1202.1 191.59, 1254.16 135.93, 1365.38 -2.28 M1149.92 248.67 C1233.41 153.76, 1317.27 56.68, 1366.41 -0.97 M1162.45 250.33 C1226.7 175.79, 1292.97 98.46, 1377.76 -0.73 M1160.9 250.83 C1242.49 152.73, 1327.05 56.52, 1378.61 0.18 M1168.2 250.58 C1230.68 184.56, 1285.58 123.06, 1385.99 -1.93 M1171.61 249.32 C1222.43 192.92, 1272.66 135.95, 1387.45 0.77 M1183.68 249.16 C1267.44 153.96, 1349.11 51.94, 1400.57 1.75 M1180.44 249.99 C1228.45 195.07, 1274.87 142.27, 1399.57 0.2 M1190.62 248.92 C1255.43 175.49, 1321.33 101.36, 1408.77 1 M1190.9 250.48 C1259.86 178.51, 1323.17 103.9, 1410.5 0.76 M1203.25 250.63 C1284.78 158.4, 1361.21 65.43, 1421.14 -2.1 M1203.93 250.93 C1271.67 169.54, 1341.52 88.81, 1420.25 1.01 M1210.8 249.46 C1266.31 192.88, 1315.59 132.39, 1433.66 -1.19 M1213.71 250.81 C1284.4 172.09, 1353.51 93.3, 1431.11 -1.4 M1221.26 249.65 C1297.62 163.49, 1374.57 76.6, 1441.59 -0.77 M1224.49 251.72 C1296.05 169.09, 1367.8 84.34, 1441.39 -0.1 M1237.16 249.29 C1313.83 163.67, 1390.8 71.99, 1450.66 -1.55 M1233.55 250.75 C1302.44 168.7, 1371.92 88.87, 1451.46 1.16 M1244.92 249.6 C1312.18 180.25, 1376.98 104.35, 1463.65 0.66 M1245.25 251.5 C1324.88 165.14, 1398.77 76.39, 1462.89 0.78 M1255.94 250.61 C1302.23 201.92, 1347.88 150.8, 1475.27 -2.95 M1256.7 249.2 C1322.97 170.4, 1393.72 89.27, 1473.59 -0.49 M1268.78 249.49 C1331.7 171.04, 1401.26 99.08, 1485.95 -0.49 M1266.45 249.92 C1347.59 156.32, 1428.28 61.88, 1485.18 -0.81 M1277.52 252.61 C1352.3 159.49, 1431.96 71.75, 1496.72 0.98 M1276.37 250.28 C1326.98 198.86, 1372.47 147.44, 1495.33 0.16 M1288.39 252.11 C1350.33 169.44, 1415.66 94.17, 1506.72 -1.75 M1286.84 251.18 C1347.73 181.91, 1407.92 114.71, 1505.16 0.02 M1300.98 248.76 C1348.56 192.6, 1405.74 130.18, 1518.22 2.08 M1298.56 251.15 C1357.72 182.76, 1415.44 113.94, 1516.4 -0.03 M1308.44 250.42 C1391.68 154.77, 1471.05 59.99, 1525.89 2.53 M1307.74 249.12 C1357.93 193.29, 1402.49 140.27, 1525.02 0.55 M1322.3 251.27 C1385.77 177.42, 1448.39 108.07, 1534.97 -0.84 M1318.88 248.74 C1380.64 181.83, 1439.92 112.85, 1536.97 0.85 M1329.13 252.06 C1385.34 187.63, 1437.01 130.91, 1544.98 -0.91 M1328.97 250.28 C1380.82 194.33, 1429.9 135.05, 1548.13 -0.31 M1342.55 250.26 C1391.6 194.51, 1445.51 136.18, 1560.3 -0.19 M1340.32 249.37 C1423.08 160.1, 1502.46 66.33, 1557.86 -0.74 M1348.96 249.39 C1428.35 163.59, 1500.91 80.05, 1571.31 1.17 M1350.19 250.81 C1410.69 177.87, 1473.72 104.45, 1568.2 1.14 M1359.65 249.19 C1444.84 157.59, 1525.16 67.87, 1581.91 -1.69 M1360.91 250.94 C1401.79 198.15, 1447.74 144.74, 1578.98 0.97 M1372.82 249.47 C1451.47 160.84, 1531.07 68.01, 1590.69 -0.86 M1372.26 248.71 C1452.4 157.18, 1532.68 63.04, 1589.71 0.86 M1382.07 251.22 C1445.8 176.94, 1511.13 107.48, 1602.11 0.91 M1383.35 249.85 C1471.01 148.81, 1557.7 50.53, 1600.14 1.32 M1392.32 250.27 C1473.06 164.05, 1547.69 80.97, 1613.07 2.17 M1392.54 251.42 C1438.53 195.88, 1486.29 142.29, 1612.2 0.04 M1403.61 251.76 C1449.19 196.46, 1494.66 144.25, 1624.17 1.27 M1404.72 251.19 C1464.6 187.02, 1518.99 123.38, 1622.34 0.21 M1412.9 251.26 C1494.08 160.3, 1573.69 69.96, 1631.69 -2.67 M1414.28 249.58 C1502.45 150.09, 1589.88 50.14, 1631.66 1.07 M1425.08 249.16 C1507.99 157.19, 1585.75 63.13, 1644.21 -0.4 M1425.99 250.82 C1493.38 175.94, 1556.98 101.65, 1643.7 0.8 M1436.29 249.84 C1485.47 202.42, 1530.86 147.62, 1652.97 1.32 M1435.88 250.24 C1477.06 198.76, 1523.11 144.81, 1652.77 0.69 M1447.71 251.87 C1502.37 183.22, 1563.1 117, 1664.73 -0.12 M1446.69 249.37 C1511.14 179.06, 1573.81 105.29, 1663.56 -0.12 M1454.99 251.86 C1536.07 166.67, 1610.09 77.9, 1677.55 -2.08 M1457.62 250.63 C1539.65 151.94, 1624.59 54.04, 1673.97 -0.48 M1467.51 250.97 C1524.67 190.34, 1574.34 126.49, 1686.5 1.71 M1468.89 250.63 C1511.39 199.51, 1556.37 148.28, 1686.57 0.2 M1476.04 247.89 C1554.78 159.87, 1630.73 69.68, 1697.5 0.51 M1479.63 251.21 C1527.38 194.02, 1575.96 136.57, 1696.91 0.73 M1488.3 250.82 C1542.17 183.81, 1597.41 125.12, 1705.84 -2.41 M1489.76 250.02 C1553.56 176.62, 1619.06 101.65, 1707.69 0.93 M1502.06 248.64 C1551.68 182.05, 1610.33 119.09, 1715.42 0.43 M1500.54 251.54 C1549.23 196.99, 1596.47 143.28, 1717.01 0.47 M1508.07 250.09 C1577.31 170.99, 1648.09 92.15, 1728.18 -2.6 M1511.07 249.56 C1555.4 192.48, 1602.9 139.23, 1727.16 -1.03 M1523.02 249.53 C1574.74 194.96, 1625.06 136.95, 1736.2 2.32 M1521.53 248.99 C1563.29 200.78, 1609.17 146.54, 1738.34 0.18 M1532.59 249.83 C1587.14 187.44, 1637.46 124.84, 1748.43 -0.76 M1532.41 251.1 C1597.03 180.93, 1657.06 110.13, 1748.54 -0.7 M1540.74 249.8 C1597.27 181.41, 1653.47 116.02, 1758.29 0.38 M1542.29 250.9 C1608.69 172.35, 1674.09 98.38, 1758.08 0.47 M1550.91 250.81 C1633.36 159.72, 1716.77 65.3, 1772.58 0.02 M1552.53 249.5 C1601.11 197.86, 1647.64 144.83, 1769 -0.33 M1560.78 249.7 C1632.38 175.49, 1697.02 97.38, 1778.99 -0.14 M1562.34 248.8 C1627.35 177.59, 1688.27 105.03, 1781.35 -0.49 M1576.21 250.78 C1656.38 153.33, 1740.41 57.47, 1789.29 2.69 M1573.45 250.29 C1620.91 197.43, 1664.9 146.33, 1790.42 -0.78 M1584.2 247.87 C1660.41 159.79, 1733.86 76.31, 1804.15 2.57 M1585.17 249.67 C1637.74 186.13, 1691.83 124.15, 1802.27 -1.12 M1594.04 252.65 C1654.52 175.79, 1712.32 108.07, 1813.4 -0.4 M1596.35 249.29 C1649.93 188.84, 1703.22 126.68, 1812.47 -0.46 M1604.87 249.44 C1671.22 174.03, 1734.46 97.11, 1820.8 1.03 M1605.91 250.08 C1681.78 161.94, 1758.19 71.56, 1824.37 -0.75 M1614.1 250.83 C1668.32 190.27, 1715.6 130.86, 1833.44 -2.19 M1617.5 250.31 C1660.56 197.12, 1704.93 145.64, 1833.29 1.38 M1627.9 253.18 C1696.71 173.73, 1770.25 91.29, 1842.86 -1.58 M1625.74 251.94 C1681 186.8, 1736.48 122.28, 1844.84 -0.28 M1639.59 251.1 C1703.29 173.51, 1770.34 95.64, 1852.59 -0.02 M1637.13 250.91 C1712.83 164.01, 1786.15 78.28, 1856.34 0.48 M1647.72 251.23 C1714.19 169.24, 1785.82 87.88, 1864.77 0.3 M1647.6 249.95 C1707.9 179.43, 1771.82 108.41, 1866.91 -0.81 M1656.23 248.53 C1738.03 157.16, 1819.24 68.22, 1874.97 1.66 M1657.96 251.63 C1743.81 149.18, 1829.72 50.12, 1875.37 -0.07 M1668.64 252.66 C1720.45 188.68, 1766.55 132.86, 1886.05 1.06 M1668.29 251.06 C1725.8 180.31, 1782.87 114, 1887.51 0.47 M1680.08 251 C1758.49 165.36, 1833.6 77.29, 1897.54 -0.52 M1679.93 251.01 C1744.64 173.75, 1810.11 99.06, 1897.63 0.56 M1688.47 250.52 C1758.75 165.38, 1830.2 85.81, 1908.57 -2.47 M1690.52 251.1 C1758.58 168.27, 1829.22 86.41, 1906.81 0.71 M1702.94 251.75 C1789.35 149.49, 1876.67 51.97, 1918.2 -0.71 M1701.43 249.36 C1759.3 183.55, 1818.76 114.19, 1917.95 -0.4 M1711.43 252.54 C1781.6 170.97, 1855.72 83.88, 1928.35 -2.91 M1712.79 250.45 C1761.57 189.67, 1811.08 135.15, 1929.61 0.98 M1721.72 249.19 C1790.74 164.17, 1864.47 84.87, 1938.6 -2.89 M1722.75 250.87 C1786.71 176.09, 1854.77 98.79, 1939.18 0.22 M1734.53 251.17 C1795.71 172.39, 1862.38 100.36, 1949.2 -1.3 M1733.43 249.98 C1795.15 178.64, 1857.94 107.56, 1950.35 -0.59 M1741.06 249.56 C1818.19 163.5, 1894.52 74.68, 1961.32 -1.8 M1744.71 251.41 C1811.4 173.94, 1874.61 102.25, 1962.66 -0.71 M1755.81 248.09 C1824.35 168.87, 1890.22 86.39, 1973.9 1.74 M1754.73 249.69 C1802.01 188.09, 1855.16 128.31, 1970.15 1.53 M1765.24 247.92 C1847.39 154.72, 1928.78 55.46, 1981.12 -1.25 M1764.58 250.71 C1831.17 174.58, 1898.51 100.5, 1980.76 0.35 M1776.96 251.5 C1820.43 194.03, 1870.48 134.33, 1993.2 0.33 M1776.09 250.09 C1850.72 157.81, 1930.4 66.69, 1992.64 -0.52 M1784.57 252.68 C1850.88 177.89, 1914.97 100.07, 2001.16 1.91 M1785.61 251.04 C1847.72 176.64, 1914.79 101.88, 2002.65 1.08 M1795.21 251.58 C1864.45 174.76, 1930.88 97.58, 2011.83 1.45 M1795.41 250.8 C1878.44 152.34, 1961.63 56.33, 2013.19 -0.22 M1805.27 250.12 C1866.42 181.61, 1929.42 111.65, 2026.33 -2.18 M1807.48 250.38 C1855.28 195.53, 1902.74 141.83, 2024.48 -0.8 M1816.97 250.5 C1896.9 160.83, 1971.49 76.89, 2037.54 2.83 M1818.6 249.19 C1894.7 165.04, 1968.88 78.94, 2033.81 -0.21 M1830.49 250.77 C1895.46 169.76, 1957.04 94.26, 2046.78 1.44 M1827.71 249.26 C1897.66 171.49, 1963.68 96.03, 2046.99 -1.03 M1838.71 248.74 C1883.2 196.4, 1932.64 145.39, 2055.85 1.93 M1839.18 249.95 C1907.15 166.21, 1977.46 84.85, 2055.69 0.78 M1852.07 248.49 C1899.47 193.88, 1947.3 136.87, 2067.3 1.57 M1851.12 249.39 C1930.29 155.37, 2011.85 65.76, 2068.05 -0.31 M1859.95 248.62 C1925.24 175.79, 1987.89 101.02, 2076.49 -1.37 M1860.74 250.85 C1939.66 161.48, 2019.98 73.45, 2077.82 1.11 M1869.02 251.24 C1927.78 178.05, 1990.86 102.22, 2088.2 1.66 M1871.55 250.29 C1935.94 173.06, 2001.51 98.18, 2089.49 -0.21 M1883.16 248.53 C1929.73 191.5, 1978.4 134.79, 2097.84 -2.06 M1881.9 249.22 C1947.52 176.07, 2009.8 103.5, 2098.36 0.3 M1892.79 248.07 C1946.43 191.9, 1995.8 136.44, 2108.03 0.82 M1892.14 250.41 C1936.54 197.85, 1981.48 145.55, 2110.23 0.9 M1901.64 250.17 C1988.04 161.15, 2065.41 65.02, 2120.67 1.87 M1901.88 250.61 C1976.13 168.68, 2050.71 85.73, 2121.45 0.42 M1913.44 249.04 C1990.77 156.22, 2074.98 65.66, 2131.77 1.91 M1911.85 250.25 C1969.7 185.27, 2026.87 117.94, 2130.43 1.09 M1921.24 252.86 C1993.73 166.52, 2069.6 85.43, 2139.89 1.24 M1924.48 250.78 C1987.81 174.64, 2053.34 99.69, 2142.23 -0.77 M1932.2 252.29 C2006.21 166.5, 2081.41 78.55, 2151.79 -2 M1934.92 250.75 C1982.12 195.39, 2028.08 142.79, 2152.81 -1.12 M1946.05 251.5 C2002.11 185, 2059.52 116.25, 2163.67 0.18 M1945.2 251.4 C2025.47 158.06, 2105.84 67.43, 2161.82 -0.23 M1958.06 252.94 C2026.77 168.58, 2097.21 86.89, 2172.3 2.23 M1955.25 249.93 C2020.46 171.14, 2086.05 93.04, 2173.15 0.11 M1964.79 250.26 C2040.13 166.4, 2112.24 82.78, 2182.78 -2.19 M1966.18 250.57 C2036.01 169.06, 2106.58 86.49, 2182.57 1.57 M1977.93 251.28 C2024.83 196.73, 2068.33 143.3, 2184.66 14.54 M1976.78 249.67 C2058.83 156.86, 2139.47 63.22, 2184.09 13.05 M1986.16 248.8 C2047.44 182.65, 2102.17 120.2, 2182.1 22.95 M1986.67 249.53 C2048.95 176.69, 2110.94 105.21, 2182.86 25.92 M1997.06 249.84 C2061.16 180.29, 2120.99 107.2, 2182.49 34.65 M1998.61 248.88 C2067.88 174.16, 2136.16 95.42, 2183.72 36.09 M2009.37 251.12 C2056.73 192.76, 2106 136.03, 2180.7 47.43 M2007.08 248.67 C2063.68 184.98, 2120.79 117.07, 2183.04 48.91 M2021.39 251.46 C2080.61 177.45, 2144.26 105.21, 2182.51 60.97 M2018.65 250.95 C2074.59 184.55, 2130.48 120.32, 2183.43 62.23 M2031.23 250.26 C2063.67 214.01, 2092.95 174.88, 2186 75.47 M2031.22 249.18 C2067.8 206.19, 2107.29 159.57, 2183.11 73.82 M2040.68 249.01 C2093.95 183.83, 2150.08 125.34, 2183.16 87.61 M2041.88 249.47 C2086.83 195.25, 2133.19 143.04, 2182.02 86.5 M2048.92 249.46 C2081.44 214.47, 2110.99 186.04, 2180.28 95.23 M2051.12 251.41 C2087.82 212.63, 2118.62 173.77, 2184.06 96.74 M2063.7 247.64 C2105.22 203.43, 2145.36 150.24, 2185.13 111.16 M2062.42 248.87 C2095.37 210.28, 2129.19 174.86, 2182.75 109.54 M2071.74 246.6 C2113.91 195.15, 2161.8 151.4, 2179.4 121.42 M2071.67 248.74 C2113.54 201.14, 2155.64 152.53, 2185.01 123.56 M2080.69 250.31 C2116.26 211.89, 2145.87 177.01, 2182.59 132.02 M2081.24 251 C2109.46 224.02, 2130.33 194.69, 2184.13 134.74 M2096.13 254.12 C2116.6 225.11, 2141.93 194.59, 2182.36 144.7 M2092.32 248.77 C2126.44 211.1, 2160.86 172.96, 2182.2 147.6 M2104.33 251.37 C2120.23 231.16, 2142.74 205.86, 2185.07 159.3 M2102.37 251.64 C2126.76 222.92, 2150.55 197.22, 2185.53 160.33 M2116.67 251.49 C2130.79 230, 2148.53 208.88, 2187.59 168.13 M2114 250.38 C2137.11 226.26, 2157.64 204.66, 2182.9 171.73 M2128.65 246.63 C2144.97 226.01, 2175.1 193.51, 2184.94 186.36 M2124.39 252.12 C2148.99 225.36, 2166.89 199.74, 2181.65 182.14 M2135.63 250.06 C2152.07 235.26, 2162.01 219.41, 2185.35 194.6 M2137.47 249.27 C2148.31 236.86, 2154.85 227.04, 2185.14 196.63 M2145.16 249.74 C2155.23 244.42, 2161.56 230.28, 2182.66 205.09 M2146.7 249.75 C2161.53 233.32, 2173.4 220.8, 2181.63 205.7 M2153.41 254 C2164.04 242.01, 2168.14 240.65, 2187.32 220.28 M2155.91 249.11 C2165.51 240.35, 2175.41 227.99, 2181.69 220.44 M2165.48 253.12 C2171.27 246.1, 2179.13 236.98, 2186.13 231.22 M2166.12 248.79 C2171.03 245.4, 2175.77 240.08, 2182.4 229.51 M2178.75 249.8 C2178.11 247.31, 2180.56 246.22, 2184.35 244.14 M2177.34 251.1 C2178.47 249.87, 2180.32 248.24, 2182.55 244.98" stroke="#82c91e" stroke-width="1" fill="none"></path><path d="M-1.36 0.18 C701.18 1.05, 1403.14 -0.07, 2182.1 1.12 M-0.75 -0.78 C716.83 -12.66, 1434.47 -12.91, 2183.23 -0.53 M2180.33 0.87 C2180.93 79.56, 2185.82 164.74, 2184.22 244.1 M2184.69 0.72 C2179.95 50.75, 2180.09 99.24, 2184.44 245.13 M2182.25 244.39 C1644.11 251.36, 1103.55 252.5, -0.51 245.59 M2182.55 246.24 C1377.45 249.24, 571.31 249.05, 0.7 245.38 M-2.61 244.73 C-1.97 165.79, -0.53 82.34, 1.82 -0.87 M-0.99 247.06 C-4.06 170.86, -2.37 95.57, 1.64 0.48" stroke="#1864ab" stroke-width="2" fill="none"></path></g><g stroke-linecap="round" transform="translate(1707.2123788085264 3309.726928500795) rotate(0 58.459086744317574 67.1657743810133)"><path d="M59.19 -0.22 C59.19 -0.22, 59.19 -0.22, 59.19 -0.22 M59.19 -0.22 C59.19 -0.22, 59.19 -0.22, 59.19 -0.22 M9.73 74.71 C27.11 54.38, 49.98 28.02, 67.38 5.33 M7.17 71.39 C23.01 51.63, 43.65 33.17, 65.97 5.51 M14.16 77.37 C38.65 52.17, 55.32 22.94, 69.05 10.65 M12.35 79.51 C23.64 64.15, 34.59 51.73, 70.74 12.59 M17.59 81.73 C41.9 58.3, 59.36 34.4, 77.76 19.54 M17.7 83.04 C34.93 65.48, 50.81 44.93, 74.27 19.36 M26.1 89.81 C38.92 76.76, 54.04 55.26, 83.56 24.72 M24.27 89.45 C33.44 75.89, 48.51 63.97, 81.24 24 M30.26 95.26 C51.84 70.6, 73.51 49.51, 84.28 29.11 M25.74 95.1 C42.8 79.17, 58.12 59.32, 85.3 32.1 M34.72 103.63 C43.74 90.49, 60.06 66.97, 93.79 39.75 M32.58 104 C47.97 85.38, 63.44 69.57, 89.9 39.01 M35.2 109.63 C58.96 89, 81.78 60.54, 94.3 45.1 M37.57 109.42 C50.8 93.02, 60.57 80.79, 95.15 41.6 M42.76 114.37 C62.72 102.39, 73.33 79.35, 98 52 M42.65 117.65 C60.53 97.12, 73.83 83.74, 100.05 47.62 M49.44 122.35 C68.39 99.72, 81.36 79.88, 107.35 54.98 M49.14 121.37 C62.64 104.63, 79 83.97, 105.28 55.49 M52.53 126.75 C72.9 103.92, 93.02 86.91, 108.03 61.42 M52.56 127.42 C67.93 112.03, 85.74 92.99, 110.77 59.87 M55.55 134.62 C69.36 120.32, 83.28 104.34, 113.91 64.67 M60.16 134.36 C80.54 111.34, 105.36 84.49, 115.22 67.21" stroke="#82c91e" stroke-width="1" fill="none"></path><path d="M59.45 0.98 C80.78 28.67, 98.22 45.42, 119.71 69.14 M57.05 -1.23 C74.52 18.75, 89.29 36.98, 115.59 68.66 M117.98 64.19 C96.75 90.16, 82.4 110.17, 56.92 130.36 M117.79 66.9 C105.28 83.84, 90.45 101.93, 58.17 133.27 M55.44 134.01 C34.82 103.42, 14.45 80.02, -0.56 70.76 M60.08 133.81 C37.27 107.26, 15.22 86.4, -1.09 68.71 M-1.31 65.13 C19 48.07, 34.87 31.64, 57.94 0.11 M1.52 67.89 C23.65 43.59, 46.09 16.56, 59.58 0.7" stroke="#1864ab" stroke-width="2" fill="none"></path></g><g transform="translate(1754.4771650779112 3309.726900032216) rotate(0 8.171981811523438 47.26482422749041)"><text x="8.171981811523438" y="0" font-family="Virgil, Segoe UI Emoji" font-size="74.62860656937228px" fill="#fff" text-anchor="middle" style="white-space: pre;" direction="ltr" dominant-baseline="text-before-edge">i</text></g><g transform="translate(2120.6936896858206 3302.99477854255) rotate(0 626.581298828125 57.21531353854107)"><text x="626.581298828125" y="0" font-family="Virgil, Segoe UI Emoji" font-size="89.55440379945547px" fill="#1864ab" text-anchor="middle" style="white-space: pre;" direction="ltr" dominant-baseline="text-before-edge">Success! Post was Created.</text></g><g stroke-linecap="round" transform="translate(1576.6385065637078 2742.2710830064207) rotate(0 1113.6607303889305 205.93360247855708)"><path d="M-0.41 -0.77 C689.34 5.01, 1378.81 5.52, 2227 -0.79 M-0.3 0.2 C614.74 2.09, 1228.85 2.38, 2227.04 -0.27 M2228.22 0.85 C2226.48 136.45, 2224.85 270.81, 2228.17 411.16 M2227.02 -0.03 C2228.42 110.21, 2228.53 221.17, 2227.32 411.76 M2227.55 411.18 C1554.95 408.2, 883.38 407.11, 0.61 412.06 M2227.65 411.5 C1763.1 420.12, 1299.58 420.57, 0.23 411.55 M0.43 411.89 C2.76 300.97, 1.18 191.09, 0.73 -0.45 M0.14 411.59 C0.33 266.15, 0 119.77, 0.29 0.3" stroke="#495057" stroke-width="1" fill="none"></path></g><g transform="translate(1661.490610287674 2819.151800320392) rotate(0 168.7112579345703 38.05653578418878)"><text x="0" y="0" font-family="Virgil, Segoe UI Emoji" font-size="63.93630933908596px" fill="#495057" text-anchor="start" style="white-space: pre;" direction="ltr" dominant-baseline="text-before-edge">Text Area</text></g><g transform="translate(1598.0648748131116 2632.8930731061937) rotate(0 73.29197692871094 37.49688084618583)"><text x="0" y="0" font-family="Virgil, Segoe UI Emoji" font-size="63.211597555408744px" fill="#000000" text-anchor="start" style="white-space: pre;" direction="ltr" dominant-baseline="text-before-edge">Body</text></g></svg>