<svg version="1.1" xmlns="http://www.w3.org/2000/svg" viewBox="0 0 5416.390099881835 4571.8902127098845" width="5416.390099881835" height="4571.8902127098845">
  <!-- svg-source:excalidraw -->
  
  <defs>
    <style class="style-fonts">
      @font-face {
        font-family: "Virgil";
        src: url("https://excalidraw.com/Virgil.woff2");
      }
      @font-face {
        font-family: "Cascadia";
        src: url("https://excalidraw.com/Cascadia.woff2");
      }
    </style>
  </defs>
  <rect x="0" y="0" width="5416.390099881835" height="4571.8902127098845" fill="#ffffff"></rect><g stroke-linecap="round" transform="translate(10 10) rotate(0 2694.66409025977 2274.8387271007095)"><path d="M0 0 L5389.33 0 L5389.33 4549.68 L0 4549.68" stroke="none" stroke-width="0" fill="#fff"></path><path d="M0 0 C1304.67 0, 2609.34 0, 5389.33 0 M0 0 C1296.74 0, 2593.48 0, 5389.33 0 M5389.33 0 C5389.33 1059.74, 5389.33 2119.48, 5389.33 4549.68 M5389.33 0 C5389.33 1381.18, 5389.33 2762.35, 5389.33 4549.68 M5389.33 4549.68 C4227.51 4549.68, 3065.69 4549.68, 0 4549.68 M5389.33 4549.68 C4286.62 4549.68, 3183.92 4549.68, 0 4549.68 M0 4549.68 C0 3135.07, 0 1720.47, 0 0 M0 4549.68 C0 3350.84, 0 2152, 0 0" stroke="#fa5252" stroke-width="4" fill="none"></path></g><g stroke-linecap="round" transform="translate(17.061919362295157 4052.415724265864) rotate(0 2694.66409025977 254.7372442220103)"><path d="M0 0 L5389.33 0 L5389.33 509.47 L0 509.47" stroke="none" stroke-width="0" fill="#eee"></path><path d="M0 0 C1112.76 0, 2225.53 0, 5389.33 0 M0 0 C1532.51 0, 3065.02 0, 5389.33 0 M5389.33 0 C5389.33 139.45, 5389.33 278.9, 5389.33 509.47 M5389.33 0 C5389.33 154.43, 5389.33 308.85, 5389.33 509.47 M5389.33 509.47 C4073.91 509.47, 2758.5 509.47, 0 509.47 M5389.33 509.47 C4034.79 509.47, 2680.25 509.47, 0 509.47 M0 509.47 C0 381.19, 0 252.9, 0 0 M0 509.47 C0 337.41, 0 165.36, 0 0" stroke="#fa5252" stroke-width="2" fill="none"></path></g><g stroke-linecap="round" transform="translate(31.574055863256945 30.878497331514154) rotate(0 2676.7011716564393 199.464857686894)"><path d="M-0.19 0.28 C1967.4 -9.16, 3934.29 -9.49, 5353.53 -0.13 M-0.01 0.34 C1763.96 15.22, 3527.96 15.26, 5353.5 -0.11 M5353.64 0.3 C5352.14 154.46, 5352.16 311.6, 5352.72 398.97 M5353.5 -0.48 C5352.43 155.36, 5352.43 311.98, 5353.85 398.61 M5353.24 399.39 C3915.1 405, 2476.01 404.88, 0.69 398.54 M5353.22 399.2 C3740.29 384.99, 2127.05 384.41, -0.04 398.74 M-0.58 397.9 C-0.78 286, -2.08 171.73, -0.17 0.43 M0.35 398.37 C1.61 292.38, 2.02 184.6, -0.55 0.39" stroke="#000000" stroke-width="1" fill="none"></path></g><g stroke-linecap="round" transform="translate(150.69302326635443 137.04050071315032) rotate(0 157.5854670708104 86.38028039807978)"><path d="M0.49 0.03 C75.15 -0.3, 150.3 0.76, 314.95 0.42 M0.61 -0.28 C124.19 -0.41, 248.05 0.24, 314.98 0.63 M315.69 0.03 C313.44 42.15, 316.41 82.95, 315.23 174.57 M314.32 -0.84 C313.97 47.22, 315.43 96.92, 314.61 172.45 M315.99 172.79 C211.92 170.97, 108.58 173.54, -0.69 172.78 M315.65 172.92 C244.43 171.85, 172.22 171.69, -0.34 172.66 M-1.82 174.32 C0.78 107.5, 0.3 43.4, 0.75 -0.63 M-0.99 172.52 C-0.16 134.74, -1.41 94.78, 0.68 0.87" stroke="#000000" stroke-width="1" fill="none"></path></g><g stroke-linecap="round"><g transform="translate(217.80759868938185 277.41513833454883) rotate(0 98.84181182862812 -45.33173168283338)"><path d="M0.41 0.03 C9.56 -9.02, 38.3 -54.47, 55.34 -54.56 C72.37 -54.65, 97.55 -2.86, 102.62 -0.54 C107.69 1.79, 80.24 -25.52, 85.76 -40.63 C91.29 -55.74, 117.24 -98.19, 135.8 -91.2 C154.36 -84.21, 186.97 -14.05, 197.12 1.31 M-0.83 -1 C8.07 -9.88, 36.49 -53.71, 54.12 -53.4 C71.76 -53.08, 99.69 -1.46, 104.98 0.88 C110.28 3.23, 80.92 -23.98, 85.91 -39.34 C90.9 -54.69, 116.15 -97.94, 134.91 -91.25 C153.68 -84.56, 188.15 -14.4, 198.51 0.81" stroke="#000000" stroke-width="1" fill="none"></path></g></g><mask></mask><g stroke-linecap="round" transform="translate(3872.288709542754 184.9997408633335) rotate(0 286.9057682441726 39.36341999154138)"><path d="M0 0 C0 0, 0 0, 0 0 M0 0 C0 0, 0 0, 0 0 M0.51 6.87 C1.62 4.58, 3.56 2.73, 4.97 1.16 M-0.4 6.23 C1.2 4.74, 2.18 3.34, 5.18 0.46 M0.03 12.12 C2.64 7.11, 6.25 4.48, 9.28 -0.41 M-0.42 11.86 C3.58 8.45, 6.97 3.78, 11.38 -0.73 M1.42 17.56 C6.47 11.12, 11.22 7.25, 15.56 0.98 M-0.84 17.75 C2.27 13.79, 6.9 11.07, 15.78 0.42 M0.18 22.23 C5.23 17.68, 7.4 14.97, 22.2 -1.66 M-0.03 24.76 C6.02 17.15, 13.65 10.02, 21.79 -0.02 M-1.54 30.01 C10.17 18.83, 19.98 8.06, 27.49 0.3 M-0.65 30.48 C9.68 19.86, 19.61 7.41, 26.14 0.4 M-0.21 37.2 C10.52 23.43, 20.09 13.15, 31.35 0.93 M0.46 36.22 C7.68 27.88, 14.5 20.14, 31.56 -1.04 M1.85 40.95 C11.82 32.39, 17.99 18.99, 38.57 1.84 M0.3 42.72 C10.35 31.44, 19.07 22.17, 36.86 0 M-0.64 49.69 C13.87 35.17, 26.15 17.7, 42.87 0.37 M0.85 48.79 C10.82 36.89, 21.78 23.38, 42.24 0.3 M-0.55 56.11 C15.31 34.85, 35.64 15.51, 46.44 -0.2 M-0.29 55.43 C12.26 42.39, 22.81 27.72, 47.14 -0.47 M1.25 59.31 C19.83 37.9, 37.64 17.95, 52.03 1.5 M-0.02 60.26 C12.4 47.14, 24.42 32.86, 53.58 -0.37 M-0.74 65.72 C19.58 46.54, 40.25 24.16, 58.5 -0.86 M-1.05 67.69 C11.77 53.49, 22.92 39.31, 58.02 -0.77 M-1.76 71.61 C20.18 52.66, 37.31 30.12, 64.88 -1.13 M-0.79 73.54 C20.46 47.63, 42.26 21.92, 64.67 -0.98 M-1.33 78.69 C17.09 60.93, 31.07 44.56, 69.95 1.51 M1.42 77.97 C24.06 50.71, 47.85 23.3, 69.39 0.2 M4.14 78.84 C20.63 58.96, 40.88 39.48, 76.26 -1.26 M5.99 78.37 C29.54 51.19, 55.12 24.03, 74.97 -0.12 M10.4 80.1 C36.55 46.17, 64.51 18.79, 77.75 -0.7 M11.4 78.58 C34.72 52, 58.57 23.71, 79.02 -0.55 M17.3 78.02 C33.34 57.28, 51.54 40.13, 83.77 1.12 M16.41 78.46 C39.16 52.67, 61.18 28.71, 85.29 0.03 M22.95 78.64 C44.8 52.12, 68.26 28.97, 90.66 1.6 M21.53 80.09 C46.87 51.8, 70.12 22.42, 89.52 0.86 M26.59 80.9 C41.98 63.46, 54.94 47.22, 93.8 -2.29 M26.14 78.42 C45.39 56.51, 64.57 35.29, 94.8 -1.31 M33.4 81.14 C50.44 57.52, 69.62 37.81, 99.21 0.24 M32.61 78.91 C59.85 48.33, 86.66 16.34, 101.39 0.22 M35.93 79.93 C57.93 57.31, 78.19 31.86, 107.54 -2.07 M37.98 78.71 C62.43 51.85, 86.31 24.37, 106.05 -0.53 M43.65 78.4 C69.77 50.07, 98.49 18.12, 109.71 -0.26 M42.83 80.07 C58.97 59.2, 75.44 41.14, 111.94 0.21 M49.01 80.27 C59.69 64.13, 74.45 44.58, 114.28 -0.31 M47.58 78.71 C65.45 57.3, 84.46 36.24, 117.26 0.1 M53.02 80.19 C79.99 48.15, 108.99 15.4, 122.27 -0.63 M53.39 79.26 C74.5 57.92, 93.05 33.53, 122.39 -0.62 M59.29 77.8 C78.43 56.27, 96.67 37.17, 128.06 0.34 M58.45 79.65 C74.77 60.71, 90.95 40.54, 126.01 0.47 M63.62 78.01 C85.18 52.79, 107.71 28.23, 132.76 -0.91 M62.86 78.54 C83.22 57.57, 101.5 35.65, 132.79 -0.81 M68.03 77.11 C94.66 50.23, 121.86 19.71, 137.76 -0.77 M68.96 79.69 C86.19 58.74, 104.55 40.65, 138.25 0.11 M74.35 79.06 C99.14 53.99, 119.92 26.35, 142.84 1.61 M74.16 79.39 C100.27 48.87, 127.93 18.01, 143.06 -1.02 M78.27 77.54 C95.99 62.48, 110.16 43.92, 147.67 0.64 M79.33 78.85 C107.54 47.21, 134.9 17.34, 147.94 0.17 M86.89 80.26 C113.25 46.43, 140.64 18.13, 153.95 -1.67 M85.58 79.64 C107.82 51.63, 131.27 26.2, 153.97 -1 M88.81 79.1 C109.87 57.46, 126.73 40.69, 158.88 0.61 M90.66 78.06 C115.29 50.36, 138.69 23.56, 159.43 1.21 M95.68 78.28 C116.48 53.75, 137.72 30.94, 165.3 -0.61 M95.77 78.55 C114.5 56.42, 135.61 33.3, 164.16 -0.64 M100.26 80.56 C127.39 51, 148.88 25.63, 171.23 0.87 M101.9 78.13 C120.11 57.89, 136.71 36.85, 170.4 0.19 M105.97 79.46 C125.46 60.85, 140.17 39.84, 175.91 -0.37 M106.71 79.76 C128.67 53.44, 151.13 26.37, 175.12 -0.92 M112.99 77.39 C135.3 55.15, 156.23 28.56, 181.38 -1.12 M110.84 78.76 C133 53.71, 153.86 29.29, 180.9 -0.56 M115.77 77.9 C142.43 49.31, 169.8 18.61, 186.55 0.61 M116.78 78.27 C142.98 47.11, 171.68 16.88, 186.21 -0.92 M121.16 79.79 C137.7 58.56, 152.84 42.38, 188.75 1.82 M123.17 79.56 C144.64 52.73, 165.93 27.87, 190.33 -0.32 M125.89 77.39 C152.57 50.89, 173.84 25, 197.8 0.64 M127.7 79.52 C151.09 51.45, 176.41 22.3, 195.64 -0.86 M134.7 78.66 C150.48 59.76, 170.82 36.22, 201.55 0.58 M133.4 79 C155.66 53.71, 178.13 26.13, 200.48 1.04 M137.89 77.46 C160.03 53.12, 182.92 27.05, 207.99 0.7 M137.54 78.3 C163.24 51, 186.06 23.14, 207.49 -1.03 M144.7 80.4 C159.82 60.12, 174.92 43.44, 210.76 -0.21 M143.27 80.22 C160.34 57.82, 178.4 37.96, 212.46 0.02 M148.16 79.35 C165.64 60.46, 184.67 39.67, 219.26 -1.46 M147.75 79.81 C162.13 61.76, 176.31 47.54, 216.68 -0.87 M151.95 77.84 C174.05 56.1, 197.5 31.59, 224.16 -0.23 M153.32 78.98 C168.71 62.65, 183.28 45.02, 221.77 0.52 M157.82 80.01 C186.61 47.75, 213.76 18.5, 227.51 -1.42 M160.13 78.65 C174.42 62.52, 189.59 45.17, 228.01 0.1 M165.09 80.8 C183.49 55.08, 203.41 32.38, 232.28 -1.43 M164.02 79.18 C192.55 47.88, 220.35 14.71, 233.24 0.84 M170.8 78.12 C193.91 51.99, 219.06 23.28, 239.77 -1.25 M169.84 79.78 C184.49 61.32, 200.6 43.09, 238.48 -0.01 M173.19 79.07 C195.71 53.82, 216.7 33.47, 242.46 -2.03 M175.32 78.88 C203.43 48.03, 231.2 15.43, 244.09 0.66 M179.81 80.08 C201.38 57.19, 217.59 34.35, 246.84 1.41 M180.39 79.57 C198.96 57.22, 217.69 33.54, 248.9 0.54 M187.08 81.16 C205.86 55.81, 228.69 31.27, 252.82 1.46 M185.04 80.01 C204.7 57.23, 225.37 33.95, 254.88 0.04 M192.33 78.01 C205.33 62.66, 222.02 46.48, 261.3 -0.07 M190.66 78.79 C205.69 62.84, 220.69 44.77, 258.99 0.66 M197.4 80.28 C212.78 62.08, 225 45.78, 266.24 0.24 M195.88 79.4 C218.59 52.83, 242.81 26.77, 264.53 0.44 M200.64 79.73 C228.89 45.76, 256.92 14.41, 270.2 1.61 M201.9 79.59 C219.33 59.1, 238.81 38.23, 270.98 0.37 M208.55 80.39 C232.96 51.75, 257.9 21.57, 276.41 -0.76 M206.36 79.78 C226.62 55.76, 246.07 33.96, 275.33 -0.27 M211.78 78.8 C236.67 49.32, 261.5 23.56, 280.34 -1.5 M212.69 78.5 C227.39 62.42, 243.19 44.51, 279.96 0.59 M216.73 78.15 C234.66 59.32, 250.95 40.05, 285.77 -0.89 M217.9 78.75 C236.57 55.58, 257.25 32.9, 285.93 -0.85 M221.58 80.49 C248.08 49.93, 275.5 20.28, 292.32 1.35 M223.99 79.45 C244.32 56.44, 264.35 32.48, 290.87 0.15 M227.9 80.93 C250.77 55.24, 274.65 25.47, 295.56 -1.79 M227.74 79.82 C254.25 49.13, 281.34 16.53, 296.31 0.32 M232.66 79.79 C252.8 56.72, 271.77 32.97, 302.52 1.63 M234.11 78.77 C252.3 57.51, 271.6 35.42, 301.53 0.74 M239.82 80.83 C261.13 54.72, 281.98 32.34, 307.8 -1.37 M238.02 79.37 C266.43 47.4, 294.26 16.15, 306.86 0.27 M244.41 79.4 C260 61.34, 273.07 47.08, 313.1 1.54 M243.74 78.17 C268.01 52.62, 291.21 24.24, 313.59 -0.04 M248.03 80.67 C264.88 60.43, 278.21 45.08, 319.29 0.17 M248.71 79.69 C264.48 61.45, 281.17 43.57, 317.28 0.43 M254.34 80.52 C272.85 58.4, 290.43 36.92, 321.99 -0.01 M254.25 78.51 C271.81 58.65, 290.34 39.28, 323.6 0.3 M259.83 80 C284.16 51.21, 307.99 26.51, 327.61 -1.66 M260.65 77.95 C285.4 47.83, 311.95 18.93, 329.67 -0.42 M266.72 77.77 C281.57 59.82, 298.95 40.41, 332.93 -1.39 M265.34 79.77 C293.32 48.26, 321.11 16.42, 333.92 0.12 M272.32 77.05 C289.17 59.25, 308.17 38.47, 341.13 -1.6 M270.54 79.22 C286.55 60.27, 302.78 41.07, 339.45 -1.06 M274.64 77.78 C300.85 52.74, 324.16 24.66, 345.4 -0.25 M276.11 78.58 C294.08 57.64, 313.44 34.01, 343.81 0.71 M282.39 78.82 C296.54 61.46, 313.81 42.26, 348.32 2.04 M281.93 79.45 C308.02 48.6, 332.75 18.52, 349.77 -0.15 M284.61 78.13 C302.38 58.86, 320.01 41.24, 356.7 0.47 M286.68 78.23 C303.55 59.11, 323.3 37.79, 354.37 -0.79 M292.68 78.98 C306.87 59.8, 324.07 41.69, 358.43 -1.55 M292.24 78.49 C311.46 55.63, 331.3 33.32, 361.11 -0.24 M297.93 78.12 C324.18 46.69, 351.98 19.24, 363.89 -1.43 M296.51 78.38 C314.62 59.3, 332.8 37.81, 365.57 -0.33 M301.64 79.96 C320.79 60.96, 340.3 39.92, 371.51 -1.23 M301.76 79.06 C316.66 62.09, 329.96 45.5, 370.32 -0.19 M308.68 80.78 C330.07 54.45, 351.31 30.93, 377.82 -1.46 M307.44 80.09 C334.46 48.34, 361.31 16.2, 377.22 0.04 M313.5 78.88 C331.7 57.02, 354.2 31.44, 383.04 -0.89 M312.6 77.81 C333.27 57, 351.23 33.37, 382.29 0.75 M317.73 78.83 C343.02 49.82, 365.6 24.7, 385.11 1.62 M318.65 78.8 C342.43 51.43, 365.13 24.17, 386.02 -0.86 M324.24 77.59 C341.35 59, 360.51 35.75, 393.29 -0.68 M323.77 78.23 C341.55 58.54, 358.67 40.15, 392.25 0.73 M330.71 80.75 C352.86 51.61, 372.84 25.86, 398.17 -0.26 M329.7 79.34 C343.9 59.3, 361.33 41.21, 398.49 -0.31 M335.67 80.66 C358.6 50.43, 384.15 19.3, 401.3 0.93 M334.13 77.75 C358.43 52.18, 380.37 25.48, 402.79 0.3 M340.06 80.7 C356.9 59.88, 374.35 39.2, 409.2 1.57 M339.5 78.96 C362.2 52.97, 385.01 27.5, 408.05 -0.7 M345.33 77.38 C363.82 57.2, 384.87 32.35, 414.92 1.23 M345.38 78.66 C369.89 50.52, 393.92 23.87, 412.88 -0.62 M350.97 80.59 C373.66 49.04, 403.33 18.24, 420.16 -1.51 M349.3 78.25 C370.23 54.85, 388.69 32.64, 417.95 -0.52 M356.58 79.75 C382.88 49.01, 406.35 20.05, 424.75 -0.81 M355.1 79.15 C382.46 47.24, 407.74 17.75, 424.83 0.29 M359.44 80.03 C373.78 63.26, 388.05 47.73, 428.8 -1.41 M359.75 78.24 C387.12 49.29, 412.78 18.91, 430.31 0.61 M364.55 80.5 C386.83 54.89, 407.1 32.01, 434.19 1.54 M365.72 78.29 C388.95 51.4, 414.59 22.95, 435.3 0.76 M370.23 78.35 C389.02 57.69, 407.68 34.35, 438.66 0.7 M371.82 79.33 C389.99 58.69, 409.51 36.6, 441.12 -1.02 M377.49 79.82 C402.1 49.46, 427.68 18.2, 445.4 0.7 M376.88 79.82 C391.02 62.04, 404.79 45.64, 444.35 0.87 M382.89 80.61 C408.12 49.17, 433.29 24.02, 449.06 0.34 M381.87 78.3 C405.65 51.53, 430.22 23.03, 451.2 -0.24 M385.39 80.36 C403.14 58.79, 425.51 34.13, 457.35 0.81 M387.04 80.08 C411.6 52.05, 434.67 25.2, 456.35 0.13 M393.75 79.57 C409.63 58.33, 426.71 36.58, 461.09 -0.21 M392.6 79.33 C414.18 54.18, 433.62 31.17, 461.27 0.02 M398.08 77.77 C415.91 57.83, 432.91 38.18, 467.77 -0.26 M396.55 79.58 C412.82 61.67, 426.16 45.27, 467.07 0.42 M401.92 77.72 C417.17 61.65, 432.27 46.36, 470.97 -1.24 M404.07 79.01 C423.07 55.93, 443.25 31.96, 472.21 0.45 M409.81 79.63 C432.81 49.26, 457.22 22.62, 475.18 -0.93 M407.29 78.96 C425.63 59.8, 442.42 39.55, 476.61 -0.99 M415.3 77.29 C432.35 56.23, 455.76 29.87, 482.67 1.44 M414.71 79.28 C439.79 51.04, 462.59 22.91, 482.77 -0.59 M420.6 80.28 C437.59 58.23, 455.04 39.99, 488.88 -1.9 M418.98 78.75 C445.48 46.99, 472.4 17.35, 488.45 -0.43 M424.57 78.18 C441.92 58.59, 458.46 41.14, 493.98 -1.01 M424.3 78.5 C442.64 56.91, 460.07 35.33, 492.55 0.38 M430.29 78.74 C451.99 57.52, 470.69 33.19, 498.95 -0.14 M430.22 78.38 C454.35 49.28, 479.57 19.71, 498.42 -0.85 M433.16 80.05 C461.16 51.04, 488.1 18.9, 505.12 0.55 M434.99 78.41 C450.18 59.24, 467.07 41.61, 503.7 -0.01 M440.45 80.76 C463.32 51.73, 486.19 26.61, 510.25 1.09 M439.44 79.16 C453.78 64.18, 467.36 47.73, 509.7 -0.8 M447.34 80.26 C466.78 56.88, 485.34 31.79, 512.09 -0.04 M446.28 79.16 C470.86 47.77, 499.16 18.47, 513.21 -0.26 M452.48 80.83 C477.16 51.11, 502.18 24.56, 520.42 -1.77 M449.97 79.3 C470.81 57.94, 490 33.91, 519.85 0.56 M458.1 79.89 C470.95 58.84, 488.07 43, 524.67 1.79 M456.04 78.26 C477.39 53.25, 500.43 27.18, 523.93 1.06 M461.52 80.14 C486.82 51.6, 508.54 27.14, 529.9 1.48 M460.96 78.89 C484 54.9, 504.75 28.69, 529.77 0.46 M467.25 77.76 C480.41 64.17, 493.14 46.11, 536.43 -0.66 M467.47 79.62 C493.68 49.69, 519.08 19.76, 535.58 0.23 M470.53 80.6 C487.67 61.38, 503.75 44.8, 539.88 0.73 M472.44 78.91 C497.33 50.74, 523.65 20.51, 540.74 -0.49 M477.38 80.37 C499.53 51.82, 523.94 20.59, 546.72 0.6 M478.17 78.56 C497.62 56.11, 515.51 32.75, 545.72 -0.54 M484.21 78.83 C510.38 50.48, 534.65 20.28, 550.35 -0.41 M482.29 78.24 C498.27 60.15, 513.23 42.96, 551.38 -1.28 M489.18 80.72 C513.9 51.01, 540.02 21.44, 554.65 -1.71 M488.41 79.53 C512.47 51.06, 539.05 21.14, 556.81 -0.2 M495.07 80.19 C516.55 52.57, 538.5 25.43, 562.07 1.39 M493.27 78.65 C510.31 60.09, 525.18 42.72, 562.68 0.49 M498.11 81.27 C516.12 60.13, 533.68 40.31, 565.15 -0.13 M498.82 80.1 C524.78 51.2, 549.77 20.4, 567.11 0.25 M505.4 80.75 C516.87 60.83, 532.42 46.24, 574.61 -0.81 M503.97 79.8 C521.06 57.61, 538.59 38.57, 572.98 -0.38 M508.45 80.44 C533.25 50.52, 557.27 20.15, 576.94 3.75 M509.39 78.51 C533.38 50.83, 557.68 22.54, 575.82 2.92 M513.26 77.29 C534.06 55.27, 551.75 36.26, 577.07 6.06 M513.86 78.23 C532.78 57.7, 552.49 34.27, 575.78 8.58 M517.89 79.63 C528.58 64.68, 543.71 52.22, 573.91 12.37 M519.13 79.62 C536.07 61.58, 550.44 41.97, 575.39 15.1 M526.5 77.32 C541.94 57.74, 557.95 41.27, 576.5 19.96 M524.26 78.39 C543.07 59.6, 559.07 38.78, 577.07 19.42 M530.92 77.96 C547.49 61.98, 565.66 39.11, 574.87 27.51 M530.44 78.7 C546.82 59.79, 562.97 41.02, 576.22 25.64 M536.74 77.06 C549.12 60.84, 561.83 47.7, 575.42 32.08 M535.36 79.59 C544.91 67.91, 554.92 56.96, 575.91 33.09 M540.81 78.26 C546.76 68.73, 558.29 62.71, 575.83 39.49 M540.04 78.39 C550.88 66.68, 562.03 53.46, 576.03 39.05 M545.39 79.46 C554.8 68.81, 560.67 62.84, 577.81 44.84 M547.19 79.07 C554.64 70.03, 562.4 62.3, 575.39 44.42 M551.62 81.07 C559.42 71.8, 565.51 64.29, 576.61 51.35 M552.04 79.73 C560.1 68.57, 569.64 57.59, 575.42 50.78 M557.65 80.17 C561.61 72.83, 564.5 69.99, 574.48 58.64 M556.66 78.93 C564.13 71.16, 570.61 64.86, 577 55.91 M560.16 78.68 C568.44 74.67, 571.83 67.95, 574.16 61.6 M562.88 79.16 C564.75 75.95, 568.53 72.26, 576.17 62.87 M568.17 77.96 C570.35 74.24, 573.81 71.38, 575.83 70.16 M568.21 79 C571.43 75.3, 574.87 70.2, 576.2 69.41 M572.96 78.55 C573.93 77.14, 575.28 75.77, 575.69 75.25 M572.54 79.16 C573.41 78, 574.46 77.07, 575.63 75.46" stroke="#c8c8c8" stroke-width="0.5" fill="none"></path><path d="M-0.48 -0.68 C192.09 0.85, 384.16 1.71, 573.25 -0.02 M-0.27 0.27 C221.5 -1.41, 443.17 -1.53, 573.81 0.08 M573.88 1.24 C572.63 25.74, 575.63 50.92, 573.26 79.07 M572.97 0.73 C573.94 16.34, 572.84 34.08, 574.1 78.53 M573.05 78.53 C369.08 78.13, 162.99 77.93, -0.53 78.37 M573.86 78.39 C362.53 79.95, 151.28 80.44, 0.26 78.52 M-0.73 80.15 C-0.92 63.01, -1.25 44.25, 1.23 1.24 M0.48 78.37 C-0.77 63.54, 1.06 46.24, 0.4 -0.96" stroke="#495057" stroke-width="1" fill="none"></path></g><g stroke-linecap="round" transform="translate(4643.344328518644 183.83481404005033) rotate(0 286.9057682441726 39.36341999154138)"><path d="M0 0 C0 0, 0 0, 0 0 M0 0 C0 0, 0 0, 0 0 M0.22 6.64 C0.84 5.69, 1.92 3.78, 5.78 -0.21 M-0.43 6.65 C0.92 4.76, 2.36 3.26, 5.09 0.52 M0.22 10.96 C2.4 7.46, 6.96 3.62, 10.25 0.85 M-0.05 11.76 C4.06 7.79, 6.91 5.45, 9.93 0.13 M-1 19.95 C2.8 14.42, 9.18 8.07, 16.27 -1.52 M-0.82 17.5 C3.19 14.16, 8.42 9.08, 15.71 -0.49 M-1.59 24.64 C6.88 13.31, 17.2 7.18, 19.67 0.05 M0.95 23.64 C9.01 15.36, 17.57 5.58, 21.31 0.71 M-0.46 30.59 C6.48 22.92, 13.86 16.42, 26.26 2.02 M0 30.23 C10.82 18.98, 19.78 8.1, 26.36 0.53 M0.07 37.19 C7.54 25.67, 18.51 15.01, 32.92 -1.31 M-0.92 37.17 C9.83 24.3, 21.17 12.83, 30.95 -0.45 M-1.44 44.42 C12.11 28.03, 20.81 18.9, 38.46 -0.66 M0.34 43.45 C11.24 29.63, 24.14 16.14, 36.62 0.34 M0.65 49.97 C15.74 32.61, 27.83 16.14, 43.03 -1.08 M-0.25 49.56 C17.13 29.93, 32.87 9.43, 42.95 0.48 M1.82 52.73 C16.48 37.41, 33.11 16.2, 47.09 -1.02 M1.14 55.26 C14.57 39.22, 26.4 23.24, 46.82 0.76 M-1.64 61.67 C11.88 45.04, 26.86 28.89, 54.82 -1.6 M-0.69 61.73 C20.82 37.94, 41.1 14.07, 52.96 0.16 M-1.89 67.35 C15.29 52.56, 29.33 35.53, 57.09 -1.73 M0.08 67.38 C16.44 47.68, 32.83 28.94, 57.18 0.01 M-1.25 75 C19.06 53.43, 35.73 32.07, 62.85 0.63 M0.68 72.19 C24.41 44.52, 48.34 17.85, 63 -0.92 M0.58 78.85 C15 61.52, 30.8 47.8, 70.13 1.34 M-0.13 78.36 C27.44 46.49, 54.79 17.54, 68.82 -0.34 M5.36 77.39 C30.77 51.67, 56.52 22.95, 73.4 0.85 M4.89 78.8 C28.2 53.94, 51.46 27.84, 74.53 0.63 M12.66 78.04 C33.71 51.49, 61.38 20.53, 78.58 1.06 M11.14 78.09 C28.96 58.47, 44.97 38.79, 78.73 -0.38 M15.21 79.12 C36.85 53.7, 62.13 25.32, 86.44 0.09 M15.65 79.78 C33.28 58.67, 52.82 36.96, 85.35 0.03 M20.45 79.42 C34.25 63.35, 51.33 47.11, 91.55 1.12 M21.91 80.18 C36.39 61.71, 49.86 44.08, 90.81 -0.81 M28.76 79.28 C45.64 57.58, 63.66 36.66, 93.69 -0.83 M26.27 78.77 C47.48 54.78, 69.48 29.02, 94.67 -0.62 M33.61 79.67 C53.86 53.87, 77.95 25.49, 100.84 1.96 M31.39 79.52 C47.57 60.78, 62.33 44.02, 100.83 0 M38.45 79.7 C65.05 50.45, 88.79 21.22, 104.58 0.68 M37.23 79.72 C59.13 55.05, 80.33 30.34, 106.11 0.61 M41.54 79.5 C66.15 55.75, 87.09 27.66, 111.01 -1.17 M43.21 79.12 C61.14 56, 81.91 34.22, 111.48 -0.94 M49.45 76.98 C73.12 50, 93.48 21.59, 115.59 -0.23 M47.89 77.96 C68.74 54.61, 89.95 31.59, 116 1.29 M54 78.67 C68.92 62.29, 83.21 42.77, 121.31 -0.25 M53.06 80.11 C69.19 61.86, 82.16 46.1, 121.31 -0.28 M57.64 80.52 C83.87 49.75, 112.45 19.63, 126.91 -0.93 M59.5 79.15 C82.43 52.42, 104.22 24.21, 127.04 0.58 M62.48 78.72 C86.57 51.66, 111.42 24.86, 131.7 -0.49 M63.01 79.46 C83.73 56.48, 103.56 34.7, 131.79 0.72 M67.62 78.5 C91.85 55.58, 112.52 29.88, 136.45 -0.72 M70.2 78.32 C85.79 60.4, 104.21 40.61, 137.33 0.76 M74.19 80.96 C103.96 46.41, 131.09 15.81, 144.88 1.7 M74.52 79.02 C101.58 49.18, 128.31 17.59, 142.25 -0.87 M78.71 79.87 C103.45 53.65, 124.75 27.26, 148.53 2.12 M80.02 78.88 C93.48 63.46, 108.67 46.12, 148.06 1.22 M86.06 80.49 C106.25 53.92, 131.91 26.37, 152.27 0.67 M85.44 78.47 C103.69 55.88, 124.46 34.44, 152.93 -0.6 M90.94 80.37 C105.57 61.7, 125.04 41.55, 159.16 1.1 M89.9 79.58 C105.41 60.65, 121.93 41.59, 159.77 0.19 M94.74 80.19 C118.87 51.94, 144.76 21.76, 163.98 -0.43 M95.02 78.38 C116.77 55.14, 137.63 29.68, 163.95 0.31 M103.06 80.52 C115.27 61.99, 131.63 47.51, 170.09 -0.5 M100.63 79.52 C121.34 54.36, 141.26 32.73, 169.41 -0.21 M106.59 80.7 C131 51.84, 152.94 28.35, 174.89 0.32 M106.88 79.17 C127.66 54.34, 147.69 29.75, 174.34 0.04 M110.56 79.61 C130.04 59.29, 145.16 41.99, 178.77 0.38 M111.93 79.17 C136.08 50.82, 160.97 22.78, 179.33 0.98 M115.69 78.48 C138.6 55.36, 159.47 31.03, 186.54 1.64 M116.07 78.11 C136.63 55.98, 158.22 32.01, 185 -0.91 M123.62 77.72 C138.25 57.06, 158.03 36.32, 192.37 0.59 M123.39 79.38 C147.42 48.78, 173.44 19, 190.23 0.57 M125.85 79.74 C141.47 60.79, 157.67 46.88, 197.23 0.99 M127.98 78.33 C155.41 47.79, 181.7 16.71, 195.73 -0.64 M133.16 77.73 C151.91 60.08, 165.94 39.12, 201.8 0.75 M133.5 78.33 C153.76 55.61, 171.66 32.99, 202.25 0.26 M136.58 78.49 C152.6 61.99, 166.95 44.73, 207.96 0.67 M137.42 79.84 C155.82 58.18, 173.68 38.12, 206.22 -0.94 M144.15 80.01 C164.84 52.72, 189.08 26.39, 211.67 -0.71 M143.97 79.31 C169.12 48.28, 196.87 17.77, 211.9 -0.41 M149.13 78.51 C171.25 56.16, 191.48 32.39, 216.46 -2.3 M149.6 78.48 C168.48 55.27, 191.24 30.34, 217.05 -0.19 M152.25 77.5 C171.59 61.37, 188.09 44.31, 222.31 -1.62 M153.39 78.75 C170.06 60.51, 185.38 42.55, 223.07 0.95 M160.46 79.37 C181.5 54.4, 205.59 27.39, 227.16 -2.07 M159.1 78.97 C179.09 56.92, 197.76 34.39, 228.68 -0.45 M165.88 78.15 C182.3 55.79, 201.76 34.16, 231.78 2 M164.26 79.64 C182.92 59.07, 199.72 37.41, 234.05 0.6 M169.24 78.4 C193.84 52.89, 215.83 28.63, 236.58 -1.28 M170.89 77.89 C184.91 61.45, 199.24 43.76, 237.83 0.36 M174.81 79.95 C199.7 50.54, 229.5 17.78, 241.84 1.89 M174.62 79.63 C189.49 63.41, 202.58 46.35, 244.53 -0.32 M181.86 80.75 C197.87 58.47, 213.93 36.62, 249.91 -0.04 M181.35 78.66 C207.68 47.67, 232.75 17.78, 249.04 0.4 M187.56 77.67 C202 61.12, 217.19 41.66, 256 -0.4 M186.42 78.71 C206.39 56.85, 225.89 33.25, 254.58 -0.86 M190.45 77.31 C209.03 59.58, 226.68 42.42, 259.09 -1.43 M191.24 78.57 C211.88 56.58, 230.41 33.15, 259.83 -0.55 M197.36 80.84 C217.48 53.3, 239.58 31.05, 265.44 0.44 M196.48 78.2 C209.86 63.9, 223.82 46.4, 265.65 0.84 M202.84 78.78 C219.92 57.11, 239.7 32.97, 271.44 -0.5 M202.7 77.78 C218.81 61.02, 234.45 43.01, 270.2 0.93 M208.13 79.82 C228.47 56.1, 247.19 33.67, 275.11 -0.5 M207.52 79.83 C229.89 52.49, 254.52 23.68, 275.6 0.48 M212.57 77.63 C227.02 60.25, 245.09 43.08, 278.99 -1.5 M212.27 78.3 C227.52 62.67, 240.92 44.48, 281.09 -0.44 M216.55 79.7 C233.45 60.36, 249.9 39.29, 285.64 -0.33 M217.15 78.66 C243.15 48.97, 269.67 18.44, 285.68 0.6 M224.93 78.11 C246.42 54.41, 268.91 28.4, 292.51 0.09 M223.89 79 C238.2 62.04, 251.55 45.11, 291.31 0.48 M229.99 78.38 C245.67 62.16, 257.19 42.73, 295.41 1.59 M228.88 78.11 C248.11 56.77, 265.37 35, 297.52 -0.37 M234.89 78.25 C253.95 55.41, 272.31 33.94, 303.46 -0.44 M233.88 78.6 C252.99 57.06, 271.38 33.65, 302.57 0.14 M240.56 80.53 C256.57 59.1, 276.41 36.24, 306.49 1.72 M239.1 78.97 C256.77 59.15, 275.06 37.31, 308.14 -1.16 M245.17 79.88 C262.61 56.58, 283.94 34.81, 314.03 0.99 M243.94 78.7 C265.09 56.21, 283.4 34.68, 312.45 -0.61 M251.07 79.62 C276.33 46.16, 306.46 17.28, 318.69 -1.74 M250.09 78.38 C270.02 56.64, 290.33 31.98, 318.95 -0.63 M255.54 79.33 C272.82 57.54, 290.69 35.81, 323.14 -0.75 M253.53 79.5 C279.27 51.45, 305.45 22.04, 323.45 0.4 M261.06 79.87 C276.2 60.62, 295.43 37.21, 327.53 1.23 M259.01 78.84 C283.71 50.17, 309.72 21.73, 328.78 -0.79 M263.46 78.48 C285.89 54.4, 306.89 30.77, 332.43 1.97 M265.45 79.8 C281.35 61.73, 296.82 42.49, 333.94 -0.27 M268.78 78.31 C287.7 60.53, 303.6 44.6, 338.25 -1.59 M270.95 79.21 C298.34 47.46, 325.51 15.61, 338.8 0.22 M274.14 79.25 C291.93 61.55, 306.69 46.92, 344.23 -0.41 M274.94 78.51 C296.58 54.69, 315.59 30.98, 345.19 -0.7 M281.21 78.73 C303.94 54.62, 324.77 26.53, 351.15 2.12 M281.84 79.72 C306.34 48.81, 331.65 21.19, 348.95 -0.14 M285.15 78.57 C309.27 52.47, 334.97 27.04, 355.62 -0.7 M285.25 78.66 C312.14 51.2, 336.75 21.05, 354.36 -0.64 M292.04 77.72 C313.33 53.35, 335.69 26.77, 358.23 0.19 M291.54 78.95 C316.49 49.98, 342.01 22.39, 359.53 1.2 M295.8 79.16 C309.23 63.49, 326.73 43.99, 364.38 -0.9 M296.07 79.15 C317.97 56.14, 337.49 31.93, 365.49 -0.46 M303.68 78.63 C319.56 64.15, 333.31 46.77, 369.21 -1.49 M302.78 78.84 C324.85 52.45, 347.25 27.15, 370.24 0.43 M309.12 79.52 C322.35 61.74, 338.44 46, 375.02 1.76 M308.44 79.71 C333.89 49.51, 358.97 19.92, 376.52 -0.16 M313.26 77.62 C337.5 53.44, 358.02 27.19, 380.22 -0.02 M312.19 79.68 C336.54 52.3, 358.11 27.58, 381.85 0.83 M317.84 79.95 C342.13 49.38, 370.23 19.88, 388.76 0.81 M317.81 79.95 C342.34 50.24, 367.05 21.47, 386.28 -0.41 M322.64 77.59 C344.66 55.99, 361.92 35.75, 391.08 -0.71 M323.28 79.13 C343.05 56.51, 364.05 34.02, 392.5 0.57 M330.42 80.5 C350.71 50.31, 374.44 25.86, 397.55 -1.4 M329.02 78.33 C352.91 49.8, 378.81 21.47, 397.49 0.51 M336.38 78.27 C359.28 50.35, 381.3 20.97, 403.36 0.93 M333.47 79.22 C349.95 60.35, 365.34 42.95, 402.73 -0.36 M341.04 79.02 C353.8 62.97, 366.77 46.82, 410.04 0.24 M339.29 79.18 C354.75 61.33, 370.78 41.89, 407.77 -0.34 M343.76 78.14 C367.9 54.31, 387.45 29.63, 414.32 1.13 M345.04 79.32 C360.87 60.15, 378.26 39.6, 412.47 0.92 M351.6 77.14 C373.5 53.25, 396.25 25.22, 417.62 -0.39 M349.26 79.67 C374.32 49.28, 400.65 20.06, 418.61 0.46 M356.8 80.45 C373.65 56.88, 392.39 36.08, 422.96 1.93 M356.19 79.17 C378.55 50.98, 403.36 25.44, 424.05 -0.86 M361.7 78.26 C381.64 55.27, 402.75 31.01, 428.39 1.39 M359.91 78.85 C379.9 57.33, 398.48 37.51, 430.41 -0.3 M368.21 79.28 C389.72 52.56, 413.88 24.15, 435.97 1.15 M366 77.87 C393.41 49.31, 419.17 18.75, 435.18 -0.11 M370.69 77.59 C394 52.29, 414.59 27.66, 441.16 -0.96 M371.66 78.63 C387.31 62, 401.49 44.78, 439.44 0.52 M376.78 78.19 C391.68 59.73, 405.72 44.53, 445.79 -1.61 M376.78 79.62 C400.69 49.77, 426.02 21.49, 445.96 0.61 M383.61 80.07 C395.65 62.74, 414.03 41.39, 451.47 0.8 M381.3 78.75 C409.28 48.4, 435.45 18.57, 450.89 -0.58 M387.99 77.29 C415.69 49.67, 440.29 18.32, 456.56 1.01 M387.7 79.73 C406.42 56.76, 426.27 35.99, 455.89 -0.39 M393.23 78.48 C416.17 50.14, 438.56 23.76, 461.58 -0.33 M393 79.84 C413.62 53.27, 436.43 28.36, 461.81 -0.73 M396.06 79.74 C420.33 51.48, 444.98 26.66, 466.16 -1.81 M397.87 80.13 C417.61 55.49, 438.88 32.17, 466.84 -0.93 M402.05 79.35 C428.47 50.57, 455.65 18.57, 469.81 0.23 M403.33 78.39 C421.17 57.39, 438.09 38.02, 471.5 1.04 M408.59 78.69 C430.58 50.63, 456.19 23.86, 476.15 -1.15 M407.91 79.35 C424.65 60.82, 440.35 41.25, 476.09 0 M412.28 76.98 C438.55 52.08, 459.57 24.8, 483.15 1.53 M414.27 79.72 C430.77 58.37, 447.4 41.1, 481.12 -0.19 M419.9 80.12 C432.33 62.92, 448.48 46.04, 485.85 1.73 M418.37 78.3 C432.11 61.33, 448.06 46.05, 487.32 -0.72 M423.83 79.48 C437.35 63.09, 453.01 46.52, 491.37 -0.3 M424.15 79.04 C448.91 49.16, 473.73 20.9, 492.76 0.26 M429.02 80.75 C448.35 59.2, 464.51 40.62, 498.28 1.31 M428.67 79.21 C455.93 47.37, 482.67 16.83, 497.56 0.68 M436.37 78.72 C455.39 59.5, 471.2 39.34, 503.59 -1.13 M434.73 78.41 C456.98 52.73, 480.82 25.53, 503.03 0.7 M441.71 78.1 C456.65 58.02, 475.44 42.23, 510.17 -2.1 M440.11 78.71 C460.23 56.9, 478.81 36.55, 508.28 -0.22 M447.24 80.36 C472.04 49.32, 495.18 18.22, 513.67 1.98 M446.14 77.73 C468.75 52.07, 493.45 23.46, 513.45 0.79 M452.45 80.48 C467.98 60.83, 486.66 40.45, 517.98 -0.45 M450.91 78.76 C466.73 62.14, 479.79 46.7, 520.3 -0.94 M457.54 77.84 C473.02 57.21, 493.77 34.5, 526.16 0.72 M455.91 77.79 C480.33 51.45, 503.63 23.74, 525.43 0.54 M462.42 80.97 C477.51 59.85, 496.73 39.48, 531.89 0.1 M461.16 79.69 C480.49 57.94, 497.55 36.85, 530.86 -1.16 M466.07 78.38 C491.54 50.7, 512.45 27.13, 534.37 1.59 M467.94 79.23 C481.27 62.8, 494.52 46.53, 535.27 -0.66 M473.54 79.42 C490.52 59.3, 510.06 35.38, 541.8 1.19 M471.85 79.2 C497.68 51.42, 521.38 22.31, 540.58 0.29 M479.35 76.99 C504.03 47.96, 526.11 20.82, 546.29 -0.15 M477.54 79.53 C502.04 49.25, 525.71 21.72, 545.16 0.91 M482.44 80.47 C503.94 55.4, 523.5 32.09, 551.32 -1.78 M481.85 79.34 C504.02 53.12, 527.16 27.4, 550.45 0.46 M488.96 79.2 C503.95 61.78, 519.01 42.6, 554.66 1.55 M487.76 78.81 C512.25 52.26, 535.23 25.5, 556.17 0.36 M494.47 79.57 C512.83 55.25, 531.71 32.31, 563.79 -1.61 M492.92 79.5 C511.08 57.38, 530.39 38.03, 562.89 -0.74 M500.17 80.07 C525.21 50.25, 551.59 18.06, 566.9 1.52 M499 79.76 C517.4 58.34, 533.81 38.46, 567.28 -0.86 M505.69 76.9 C518.25 59.2, 536.15 43.82, 572.25 -1.33 M504.73 79.47 C528.53 49.5, 555.56 18.82, 572.69 0.43 M510 78.7 C532.49 50.82, 554.48 27.18, 577.21 3.64 M508.07 79.23 C529.48 54.66, 550.27 31.31, 576.38 2.34 M512.89 79.45 C530.32 58.24, 550.76 39.47, 574.27 8.1 M513.83 78.37 C536 55.47, 555.3 31.06, 576.79 6.91 M519.86 77.22 C536.08 60.51, 554.86 35.73, 573.93 13.85 M519.85 80.14 C535.9 60.44, 550.45 41.68, 576.65 14.67 M523.59 79 C543.3 54.99, 566.13 33.7, 576.26 20.7 M524.65 79.69 C542.26 59.85, 557.81 42.03, 575.73 20.65 M528.85 79.53 C545.42 65.63, 555.04 48.02, 577.16 27.51 M529.59 79.27 C541.42 65.16, 553.43 51.92, 575.28 26.85 M533.99 78.09 C544.91 63.9, 558.92 52.83, 575.07 31.76 M536.52 78.27 C551.01 61.6, 566.19 45.5, 576.07 31.96 M539.81 77.33 C549.61 69.15, 562.9 55.1, 577.23 38.58 M539.94 78.3 C550.77 67.25, 560.14 56.31, 576.79 37.78 M547.05 80.06 C552.39 69.91, 562.45 62.61, 575.92 43.86 M546.66 79.31 C552.87 71.67, 560.41 62.7, 575.49 44.53 M553.29 80.09 C557 73.4, 562.48 67.62, 577.18 51.79 M551.95 78.71 C558.84 70.31, 565.87 60.89, 576.61 49.71 M558.42 79.01 C561.74 71.01, 569.54 64.14, 577.81 57.65 M557.19 79.39 C562.68 72.81, 569.62 66.48, 575.08 57.18 M561.56 81.05 C568 74.06, 571.71 65.83, 574.11 61.41 M562.04 78.89 C565.49 75.83, 568.44 71.71, 575.39 64.01 M566.89 78.14 C568.91 75.99, 571.8 73.65, 577.42 70.11 M567.93 79.17 C570.94 75.88, 572.56 72.12, 576.67 69.49 M572.1 79.1 C573.24 77.9, 574.43 76.39, 575.86 75.01 M572.71 79.05 C573.55 78.07, 574.61 76.37, 576.07 75.24" stroke="#c8c8c8" stroke-width="0.5" fill="none"></path><path d="M-0.68 0.13 C173.35 1.6, 347.69 0.8, 573.79 0.69 M0.27 0.1 C149.64 1.9, 299.27 1.54, 573.9 0.1 M575.05 -1.2 C573.19 25.55, 572.7 46.93, 574.16 77.02 M574.54 0.78 C572.68 16.71, 573.51 34.33, 573.61 79.31 M573.62 79.42 C400.25 76.55, 226.88 76.01, -0.36 79.27 M573.48 78.69 C388.84 78.92, 204.54 79.24, -0.2 78.36 M1.42 78.42 C0.01 48.33, -2.29 20.42, 1.24 -1.97 M-0.35 77.76 C-0.03 57.86, -1.48 35.65, -0.96 -0.2" stroke="#495057" stroke-width="1" fill="none"></path></g><g transform="translate(560.28016784805 90.02123713939545) rotate(0 486.375 123.85607293935027)"><text x="0" y="0" font-family="Cascadia, Segoe UI Emoji" font-size="207.5263984073621px" fill="#087f5b" text-anchor="start" style="white-space: pre;" direction="ltr" dominant-baseline="text-before-edge">App Name</text></g><g stroke-linecap="round" transform="translate(1242.6982861616816 803.910104070781) rotate(0 1578.1074752807617 1404.2950679776395)"><path d="M0 0 C759.43 0, 1518.85 0, 3156.21 0 M0 0 C735.16 0, 1470.33 0, 3156.21 0 M3156.21 0 C3156.21 852.62, 3156.21 1705.25, 3156.21 2808.59 M3156.21 0 C3156.21 605.47, 3156.21 1210.94, 3156.21 2808.59 M3156.21 2808.59 C2510.43 2808.59, 1864.64 2808.59, 0 2808.59 M3156.21 2808.59 C2174.87 2808.59, 1193.53 2808.59, 0 2808.59 M0 2808.59 C0 2068.53, 0 1328.47, 0 0 M0 2808.59 C0 1830.24, 0 851.88, 0 0" stroke="#000000" stroke-width="2" fill="none"></path></g><g transform="translate(2306.5005924757425 1021.0436162893129) rotate(0 547.4091796875 124.19999999999982)"><text x="547.4091796875" y="0" font-family="Cascadia, Segoe UI Emoji" font-size="207.61172042034792px" fill="#000000" text-anchor="middle" style="white-space: pre;" direction="ltr" dominant-baseline="text-before-edge">Signin/up</text></g><g stroke-linecap="round" transform="translate(2389.192849868319 1702.4725723337633) rotate(0 483.33879605853963 80.24541821809635)"><path d="M0 0 C305.47 0, 610.94 0, 966.68 0 M0 0 C313.97 0, 627.93 0, 966.68 0 M966.68 0 C966.68 38.53, 966.68 77.06, 966.68 160.49 M966.68 0 C966.68 60.74, 966.68 121.49, 966.68 160.49 M966.68 160.49 C593.34 160.49, 220 160.49, 0 160.49 M966.68 160.49 C686.66 160.49, 406.64 160.49, 0 160.49 M0 160.49 C0 114.81, 0 69.13, 0 0 M0 160.49 C0 127.78, 0 95.07, 0 0" stroke="#000000" stroke-width="2" fill="none"></path></g><g stroke-linecap="round" transform="translate(2392.925138612871 2183.012080645045) rotate(0 483.33879605853963 80.24541821809635)"><path d="M0 0 C274.88 0, 549.77 0, 966.68 0 M0 0 C264.6 0, 529.19 0, 966.68 0 M966.68 0 C966.68 48.65, 966.68 97.29, 966.68 160.49 M966.68 0 C966.68 39.17, 966.68 78.34, 966.68 160.49 M966.68 160.49 C723.72 160.49, 480.75 160.49, 0 160.49 M966.68 160.49 C723.27 160.49, 479.86 160.49, 0 160.49 M0 160.49 C0 106.29, 0 52.09, 0 0 M0 160.49 C0 101.44, 0 42.39, 0 0" stroke="#000000" stroke-width="2" fill="none"></path></g><g transform="translate(2394.324057773527 1548.7497390849403) rotate(0 288.791015625 42)"><text x="288.791015625" y="0" font-family="Cascadia, Segoe UI Emoji" font-size="70.41692971753822px" fill="#000000" text-anchor="middle" style="white-space: pre;" direction="ltr" dominant-baseline="text-before-edge">Email/Username</text></g><g transform="translate(2415.767745320427 2055.4402618937947) rotate(0 177.3046875 45)"><text x="177.3046875" y="0" font-family="Cascadia, Segoe UI Emoji" font-size="75.65019590518541px" fill="#000000" text-anchor="middle" style="white-space: pre;" direction="ltr" dominant-baseline="text-before-edge">Password</text></g><g stroke-linecap="round" transform="translate(2475.969773389381 2256.7258511825003) rotate(0 13.06329536128942 13.06322417244428)"><path d="M16.98 0.26 C19.84 0.65, 23.32 2.85, 24.83 5.26 C26.34 7.66, 26.46 11.83, 26.05 14.71 C25.63 17.59, 24.51 20.62, 22.35 22.53 C20.18 24.43, 15.77 26.06, 13.04 26.14 C10.3 26.21, 8.05 24.5, 5.95 22.99 C3.84 21.47, 1.2 19.72, 0.4 17.06 C-0.4 14.39, -0.13 9.8, 1.14 7 C2.4 4.19, 5.27 1.35, 7.99 0.25 C10.71 -0.86, 15.65 -0.07, 17.45 0.36 C19.24 0.78, 18.59 2.57, 18.77 2.8 M10.73 1.03 C13.26 0.36, 17.61 0.5, 19.82 1.74 C22.03 2.97, 22.86 5.91, 23.99 8.45 C25.11 11, 27.31 14.53, 26.55 17.02 C25.79 19.51, 22.24 22.01, 19.41 23.38 C16.58 24.75, 12.15 25.51, 9.57 25.22 C6.99 24.92, 5.37 23.65, 3.93 21.61 C2.49 19.57, 1.26 15.87, 0.93 12.99 C0.6 10.11, 0.4 6.51, 1.96 4.33 C3.52 2.16, 8.6 0.44, 10.3 -0.05 C12 -0.54, 12.14 1.37, 12.17 1.39" stroke="#000000" stroke-width="2" fill="none"></path></g><g stroke-linecap="round" transform="translate(2606.6018727361334 2258.5919955547706) rotate(0 13.06329536128942 13.06322417244428)"><path d="M8.5 1.62 C10.75 0.55, 14.44 -0.04, 17.13 0.85 C19.83 1.74, 23.21 4.65, 24.67 6.95 C26.14 9.25, 26.46 11.83, 25.91 14.64 C25.36 17.45, 23.63 21.89, 21.36 23.81 C19.09 25.72, 14.94 26.33, 12.29 26.16 C9.63 25.98, 7.5 24.54, 5.44 22.74 C3.37 20.93, 0.64 18.19, -0.1 15.33 C-0.85 12.46, -0.72 8.2, 0.99 5.54 C2.7 2.87, 8.01 0.09, 10.15 -0.66 C12.28 -1.41, 13.72 0.74, 13.78 1.05 M15.7 0.15 C18.27 0.15, 20.93 0.57, 22.61 2.86 C24.28 5.14, 25.75 10.81, 25.76 13.85 C25.76 16.89, 24.5 19.26, 22.66 21.09 C20.82 22.92, 17.44 24.08, 14.71 24.84 C11.99 25.6, 8.54 26.63, 6.3 25.64 C4.07 24.66, 2.22 21.9, 1.3 18.93 C0.38 15.96, 0.01 10.76, 0.79 7.82 C1.56 4.88, 3.64 2.39, 5.95 1.29 C8.25 0.19, 12.98 1.5, 14.62 1.22 C16.26 0.95, 15.99 -0.61, 15.77 -0.38" stroke="#000000" stroke-width="2" fill="none"></path></g><g stroke-linecap="round" transform="translate(2755.895700560999 2256.7258511825003) rotate(0 13.06329536128942 13.06322417244428)"><path d="M18.24 0.16 C20.77 0.95, 22.95 4.07, 24.28 6.57 C25.61 9.07, 26.81 12.42, 26.22 15.15 C25.63 17.89, 22.8 21.25, 20.75 22.98 C18.69 24.71, 16.53 25.34, 13.88 25.53 C11.23 25.71, 7.16 25.81, 4.85 24.1 C2.54 22.39, 0.52 18.3, 0.02 15.25 C-0.49 12.21, 0.57 8.37, 1.82 5.85 C3.08 3.33, 4.96 0.8, 7.57 0.13 C10.18 -0.54, 15.41 1.65, 17.46 1.83 C19.52 2.01, 19.9 1.1, 19.9 1.22 M14.96 0 C17.42 0.01, 19.3 2.01, 21.37 4 C23.45 5.99, 27.08 9.25, 27.41 11.93 C27.74 14.6, 25.46 17.82, 23.35 20.03 C21.23 22.24, 17.31 24.37, 14.74 25.18 C12.16 26, 10.06 26.09, 7.91 24.9 C5.76 23.72, 3.28 20.76, 1.86 18.08 C0.44 15.4, -1.19 11.55, -0.59 8.82 C0.01 6.1, 2.69 3.03, 5.46 1.75 C8.23 0.46, 14.59 1.56, 16.03 1.11 C17.48 0.66, 14.15 -1.26, 14.13 -0.97" stroke="#000000" stroke-width="2" fill="none"></path></g><g stroke-linecap="round" transform="translate(2893.9923773968476 2257.6589945574797) rotate(0 13.06329536128942 13.06322417244428)"><path d="M14.11 0.1 C16.85 0.16, 20.84 2.53, 22.84 4.43 C24.84 6.34, 26.01 8.68, 26.13 11.54 C26.24 14.39, 25.31 19.18, 23.52 21.56 C21.73 23.95, 17.96 25.34, 15.38 25.83 C12.8 26.31, 10.45 25.73, 8.02 24.47 C5.58 23.22, 2.14 21, 0.76 18.32 C-0.63 15.64, -1.02 11.23, -0.28 8.38 C0.47 5.54, 2.3 2.44, 5.24 1.25 C8.17 0.07, 15.25 1.3, 17.34 1.28 C19.43 1.25, 17.93 0.97, 17.79 1.09 M11.63 -1.37 C14.06 -1.59, 17.85 1.75, 20.06 3.57 C22.28 5.38, 24.28 7.24, 24.91 9.55 C25.54 11.86, 25 14.73, 23.86 17.45 C22.72 20.16, 20.34 24.32, 18.06 25.86 C15.78 27.39, 12.74 27.72, 10.17 26.65 C7.59 25.58, 4.33 21.99, 2.62 19.44 C0.9 16.89, -0.27 13.76, -0.12 11.36 C0.03 8.96, 1.36 7.05, 3.5 5.04 C5.64 3.03, 11.59 -0.11, 12.74 -0.7 C13.9 -1.29, 10.33 1.24, 10.43 1.5" stroke="#000000" stroke-width="2" fill="none"></path></g><g transform="translate(2461.9734770308023 1733.731024485669) rotate(0 285.1875 44.399999999999636)"><text x="0" y="0" font-family="Cascadia, Segoe UI Emoji" font-size="74.886556397098px" fill="#000000" text-anchor="start" style="white-space: pre;" direction="ltr" dominant-baseline="text-before-edge">test@mail.com</text></g><g stroke-linecap="round" transform="translate(2566.4789856549687 2639.291142606029) rotate(0 274.32735167711417 85.84399371260406)"><path d="M0 0 C127.8 0, 255.59 0, 548.65 0 M0 0 C166.56 0, 333.12 0, 548.65 0 M548.65 0 C548.65 37.01, 548.65 74.02, 548.65 171.69 M548.65 0 C548.65 35.13, 548.65 70.26, 548.65 171.69 M548.65 171.69 C378.06 171.69, 207.47 171.69, 0 171.69 M548.65 171.69 C404.08 171.69, 259.51 171.69, 0 171.69 M0 171.69 C0 111.88, 0 52.08, 0 0 M0 171.69 C0 133.17, 0 94.65, 0 0" stroke="#000000" stroke-width="2" fill="none"></path></g><g transform="translate(2654.6556242385013 2671.949167442717) rotate(0 191.337890625 55.80000000000018)"><text x="191.337890625" y="0" font-family="Cascadia, Segoe UI Emoji" font-size="93.30864239054085px" fill="#000000" text-anchor="middle" style="white-space: pre;" direction="ltr" dominant-baseline="text-before-edge">Sign in</text></g><g transform="translate(2405.4990505357346 2408.1469586055773) rotate(0 272.484375 34.80000000000018)"><text x="272.484375" y="0" font-family="Cascadia, Segoe UI Emoji" font-size="58.13121228238229px" fill="#000000" text-anchor="middle" style="white-space: pre;" direction="ltr" dominant-baseline="text-before-edge">Forgot password?</text></g><g stroke-opacity="0.3" fill-opacity="0.3" stroke-linecap="round" transform="translate(1693.751423537109 2976.099057999838) rotate(0 1138.0871200561523 241.29931360058345)"><path d="M0 0 C0 0, 0 0, 0 0 M0 0 C0 0, 0 0, 0 0 M1.28 12.94 C4.29 7.59, 4.02 1.87, 8.34 0.63 M-0.66 12.56 C2.83 8.76, 6.31 5.82, 9.98 0.18 M4.02 23.36 C3.1 14.33, 11.27 6.15, 20.8 2.03 M0.1 24.27 C9.72 15.98, 13.77 8.35, 21.67 -1.31 M-0.34 36.52 C13.13 20.05, 22.56 7.39, 33.28 -0.95 M-0.24 38.6 C9.51 24.65, 18.78 11.57, 33.73 -0.85 M3.87 50.84 C15.26 30.22, 26.58 14.71, 38.81 0.62 M1.27 50.53 C7.66 40.02, 18.16 28.44, 43.69 1.37 M-1.53 64.49 C17.8 39.71, 30.06 26.76, 49.97 -3.4 M-0.51 61.98 C16.18 42.35, 36.26 20.17, 52.58 -0.78 M-0.14 72.99 C16.97 53.8, 34.08 35.79, 63.93 2.31 M1.79 71.72 C22.06 48.69, 41.02 25.72, 64.99 -0.55 M0.07 82.32 C28.92 55.67, 54.34 21.87, 72.09 2.91 M-0.43 86.96 C20.99 59.91, 41.67 37.26, 75.23 -1.4 M-0.32 94.04 C33.31 67.31, 56.43 28.69, 81.7 -2.23 M-2.17 96.88 C21.44 74.13, 40.63 49.08, 83.54 1.72 M0.1 106.67 C21.34 88.07, 43.92 60.97, 93.46 0.85 M-2.07 108.47 C27.31 77.48, 54.66 44.6, 94.26 -0.77 M1.22 120.59 C39.62 75.94, 78.13 33.31, 107.2 -2.91 M-0.09 123.83 C24.72 94.73, 49.63 64.27, 108.04 -2.25 M1.7 131.39 C24.27 104.72, 55.87 73.25, 114.8 -0.49 M1.22 131.97 C31.22 101.47, 61.4 67.33, 115.33 1.6 M-0.06 146.98 C21.01 114.7, 47.67 85.71, 124.46 2.58 M-1.69 146.4 C34.79 97.84, 76.24 55.31, 127.24 0.67 M-0.92 160.55 C26.84 130.83, 58.77 98.91, 134.74 2.8 M-1.67 160.47 C37.58 112.66, 77.84 68.07, 137.74 -0.23 M2.45 172.68 C57.52 108.5, 107.86 48.05, 148.87 1.5 M-0.86 170.32 C27.1 136.67, 59.46 103.58, 146.82 1.84 M1.87 183.44 C36.79 144.14, 72.94 104.76, 156.48 3.09 M-1 183.51 C35.29 137.79, 72.91 95.93, 160.33 -0.33 M2.13 197.01 C50.65 132.94, 104.61 70.91, 171.45 -0.25 M-0.21 196.18 C45.31 146.69, 84.92 98.14, 170.11 -0.98 M-2 206.33 C41.48 156.78, 84.66 106.72, 179.85 -1.69 M0.03 206.9 C38.45 158.14, 76.7 113.8, 179.58 -1.34 M0.42 219.94 C62.37 143.62, 122.27 75.29, 190.66 -2.79 M-0.7 220.76 C44.57 170.48, 85.86 122.94, 190.08 -0.51 M-0.22 230.79 C70.48 155.03, 139.51 72.9, 198.45 -0.33 M0.83 232.85 C49.86 171.16, 101.15 111.35, 199.87 -0.99 M0.46 245.51 C54.21 180.2, 107.23 122.07, 212.01 -0.83 M0.33 243.1 C70.55 161.21, 142.28 77.72, 213.14 -0.54 M-2.36 255.54 C77.53 167.92, 152.81 77.33, 220.77 -2.42 M0.52 254.69 C53.45 197.89, 104.09 138.61, 221.64 -0.5 M0.07 266.52 C76 180.29, 149.78 95.88, 232.8 1.29 M0.43 266.87 C63.94 191.12, 128.27 116.58, 232.85 -0.78 M0.66 279.37 C57.13 213.19, 124.17 139.36, 242.77 0.8 M0.42 280.63 C85.65 181.08, 172.27 80.15, 243.71 0.36 M1.92 293.17 C83.9 189.97, 172.4 89.14, 256.7 0.03 M1.05 293.59 C78.16 205.26, 157.04 112.94, 254.52 0.6 M0.2 303.11 C90.43 200.59, 181.88 97.22, 263.58 0.37 M-0.42 304.12 C77.56 216.03, 153.79 128.55, 265.05 -0.68 M-1.38 316.15 C99.35 201.45, 198.07 87.57, 276.29 -0.79 M0.51 317.71 C108.96 188.37, 216.61 64.35, 274.72 -1.19 M-0.16 330.84 C75.19 246.02, 148.94 160.94, 286.47 -0.86 M1.32 329 C60.77 259.54, 123.47 188.03, 285.86 -0.08 M-1.55 340.18 C100.68 223.59, 203.44 108.11, 295.18 1.17 M0.23 340.9 C86.24 247.78, 169.22 153.38, 297.3 -0.17 M-1.1 354.06 C109.57 228.57, 219.62 103.51, 307.85 -2.05 M0.49 353.79 C112.46 219.83, 228.57 87.7, 308.01 -1.14 M0.05 364.79 C86.29 263.47, 175.46 162.23, 318.28 -1.57 M-0.28 365.24 C70.17 286.81, 135.2 209.97, 318.93 -0.84 M0.89 376.75 C124.31 232.81, 250.78 87.68, 328.54 1.13 M-0.01 377.54 C114.1 247.46, 223.58 120.47, 328.47 -0.31 M0.8 388.72 C108.51 266.72, 217.61 145.57, 339.85 -1.57 M0.97 389.74 C69.39 309.84, 140.37 228.04, 339.33 -0.36 M0.67 403.79 C126.29 256.3, 252.48 115.08, 349.78 -0.59 M-0.22 403.18 C107.52 277.96, 216.01 153.41, 348.89 0.96 M-0.02 413.36 C87.66 317.45, 173.36 217.79, 360.3 -0.39 M0.73 415.46 C142.36 252.44, 284.78 88.94, 360.05 -0.08 M1.49 425.88 C104.16 310.09, 206.1 191.75, 371.3 1.73 M0.28 426.12 C87.51 320.65, 177.93 216.05, 370.12 0.1 M1.68 438.38 C135.04 281.14, 268.37 129.76, 382.28 1.64 M0.14 438.72 C104.47 313.04, 211.14 191.71, 381.56 0.81 M-1.88 452.54 C90.46 342.51, 183.29 235.27, 392.32 -1.16 M-0.36 452.31 C126.72 302.43, 254.07 155.34, 392.56 -0.18 M-0.86 462.2 C85.02 365.89, 166.54 270.08, 402.34 1.39 M-0.79 463.52 C98.61 347.94, 199.8 230.63, 401.93 0.86 M-0.25 475.65 C135.7 321.81, 271.29 166.05, 412.54 0.51 M-0.27 475.41 C123.07 337.48, 243 200.07, 413.16 -0.42 M3.51 484.16 C121.02 343.19, 243.45 203.25, 424.68 1.11 M2.27 485.35 C127.47 341.01, 252.6 196.84, 423.33 0.61 M14.56 483.65 C138.62 340.5, 265.14 192.47, 433.1 -0.49 M13.86 485.34 C132.94 340.02, 256.92 197.57, 435.14 0.36 M22.5 483.37 C155.67 329.51, 290.65 175.1, 446.16 1.24 M24.68 485.18 C150.03 341.94, 272.52 200.92, 445.84 -0.72 M35.25 483.51 C170.71 333.73, 305.45 178.1, 454.93 -1.24 M33.9 484.72 C139.28 362.9, 243.4 242.98, 456.04 0.64 M46.2 484.39 C197.59 314.43, 343.92 147.72, 467.42 -1.19 M45.86 484.78 C167.43 339.75, 292.02 195.61, 466.63 0.42 M55.7 485 C140.89 380.89, 231.03 279.79, 477.23 0.17 M55.79 485.1 C182.47 339.31, 306.54 195.94, 476.45 0.43 M65.28 483.21 C181.89 346.93, 298.18 214.46, 488.17 -1.39 M66.65 484.69 C178.72 358.31, 290.55 231.96, 487.15 -0.12 M76.05 484.58 C164.65 389.71, 249.7 289.79, 498.98 -0.18 M75.78 485.26 C210.13 329.8, 346.11 173.48, 497.68 0.45 M85.59 483.57 C226.02 322.64, 365.26 162.71, 508.72 -1.21 M86.35 485.34 C226.06 320.51, 367.68 159.78, 509.14 -0.56 M99.03 485.79 C183.86 387.99, 268.64 289.81, 520.63 -0.84 M97.17 484.39 C198.18 364.06, 301.6 244.81, 519.3 -0.29 M106.76 485.93 C261.04 305.42, 415.81 125.97, 531.6 -1.09 M107.71 484.8 C249.57 320.37, 391.35 157.42, 530.63 -0.43 M118.02 486.24 C242.81 339.57, 372.19 191.79, 542.41 0.21 M119.18 484.28 C260.81 322.39, 401.17 159.31, 541.6 -0.45 M129.5 483.95 C294.67 293.45, 463.76 99.96, 550.38 -1.72 M128.99 485.7 C250.24 347.51, 372.62 207.72, 551.53 0.28 M140.48 485.74 C260.68 345.79, 382.98 208.15, 562.81 0.8 M140.39 485.48 C256.93 349.5, 378.08 209.21, 561.52 -0.37 M150.18 485.55 C261.11 360.88, 366.57 236.98, 573.65 0.8 M150.59 485.05 C274.45 338.91, 402.53 191.04, 572.85 0.26 M160.1 485.49 C296.44 325.48, 434.82 166.53, 582.68 0.04 M162.03 485.64 C306.65 317.34, 451.18 152.22, 582.46 1.07 M171.41 486.41 C302.41 337.36, 430.61 192.17, 593.97 1.27 M172.02 485.37 C283.92 351.91, 398.69 219.89, 593.61 0.1 M184.01 483.25 C293.71 355.69, 407.15 227.63, 603.04 0.18 M182.45 485.15 C343.83 300.32, 503.45 117.76, 603.25 1.02 M194 484.37 C348.21 312.19, 498.85 138.21, 614.49 0.05 M192.65 484.26 C352.95 296.08, 515.72 109.78, 614.31 0.01 M205.53 484.55 C352.2 317.46, 496.7 148.2, 626.01 -0.09 M204.28 484.67 C295.98 384.46, 387.33 279.76, 624.68 -0.36 M215.41 484.28 C372.84 311.47, 524.64 132.79, 637.02 -0.51 M214.17 484.89 C305.4 381.67, 395.46 276.43, 635.35 0.4 M225.03 485.13 C348.45 340.58, 472.71 199.37, 646.15 -0.67 M225.63 484.4 C355.03 337.43, 484.63 188.35, 646.44 -0.57 M234.52 483.53 C364.4 337.37, 492.75 192.84, 656.65 -0.61 M236.52 483.89 C334.81 376.2, 430.87 266.22, 657.29 -0.38 M245.1 485.27 C334.36 381.93, 425.54 280.39, 667.46 -0.87 M247.3 484.85 C353.02 362.41, 461.45 237.94, 667.33 0.39 M256.44 483.3 C372.17 347.59, 492.81 209.78, 678.68 -0.69 M257.15 485.03 C375.46 350.36, 490.78 217.9, 677.77 0.35 M268.96 485.04 C398.96 332.88, 527.64 184.14, 688.98 -1.05 M267.19 484.44 C392.36 342.49, 515.83 199.18, 689.24 -0.74 M278.08 483.75 C388.38 360.19, 497.12 234.87, 701.07 0.21 M278.19 483.99 C403.56 340.16, 530.21 193.62, 700.31 0.75 M289.24 485.87 C443.22 310.13, 594.64 136.67, 709.56 -0.98 M289.06 485.1 C452.79 290.85, 620.03 100.45, 709.93 -0.13 M298.74 486.35 C439.57 332.62, 575.31 174.25, 722.38 -0.41 M298.62 485.91 C392.82 374.77, 491.25 261.39, 720.73 0.14 M308.16 486.55 C407.93 368.3, 507.92 254.53, 732.67 -1.45 M309.93 485.83 C465.78 303.38, 622.89 123.75, 731.87 -0.43 M321.11 486.12 C484.3 297.4, 648.99 106.1, 743.39 -0.46 M320.85 485.57 C447.86 342.93, 571.83 199.21, 742.33 -0.28 M332.11 484.95 C496.42 297.45, 660.24 107.02, 752.01 0.52 M331.47 485.28 C492.43 300.81, 651.81 118.45, 753.4 -0.37 M342.54 484.07 C484.41 324.92, 625.28 164.98, 762.32 -1.26 M341.21 485.56 C468.56 343.46, 594.41 199.89, 763.91 0.2 M353.35 484.2 C504.73 309.08, 657.8 134.81, 775.51 0.49 M352.05 485.47 C433.97 387.77, 518.43 290.01, 774.35 -0.37 M362.46 485.87 C458.15 374.12, 556.7 260.53, 786.01 0.43 M363.01 484.39 C506.48 319.09, 648.86 156.51, 785.33 -0.59 M373.43 484.83 C487.44 350.37, 601.89 218.16, 794.93 0.97 M373.41 484.79 C531.35 301.88, 690.88 118.16, 795.24 -0.16 M383.32 484.94 C525.23 326.68, 666.57 166.33, 805.92 1.21 M383.79 484.51 C506.77 342.67, 633.24 197.42, 805.16 -0.48 M394.51 483.97 C532.9 323.37, 678.8 157.97, 815.58 1.04 M394.35 484.33 C513.57 352.2, 631 217.21, 815.83 -0.36 M405.78 483.29 C531.38 341.51, 652.46 198.35, 827.9 -0.15 M405.83 485.06 C560.73 311.5, 713.87 135.01, 827.2 0.51 M414.57 483.3 C573.26 311.41, 724.63 134.21, 838.18 1.25 M416.39 485.49 C502.93 384.77, 589.45 284.89, 836.93 0.01 M427.17 483.5 C558.81 332.48, 693.5 180.4, 847.55 -1.01 M427.27 484.31 C554.11 340.49, 679.35 195.85, 847.9 -0.33 M438.63 484.29 C530.35 376.14, 625.63 268.07, 859.7 0.23 M436.51 484.4 C568.21 332.74, 698.35 181.4, 858.86 0.95 M449.39 483.91 C556 366.97, 661.02 245.42, 870.37 1.73 M447.75 485.23 C593.44 316.72, 741.67 146.75, 869.24 0.01 M457.93 483.39 C618.59 296.07, 784.43 107.88, 880.79 -0.41 M459.18 483.89 C574.7 348.9, 692.81 212.44, 880.09 0.79 M467.82 483.47 C582.38 355.11, 691 229.28, 890.33 0.6 M469.17 485.11 C627.31 303.16, 783.97 122.49, 890.92 0.14 M480.34 483.21 C576.36 375.56, 667.2 268.42, 900.33 -0.05 M479.57 484.71 C578.41 367.97, 680.81 250.88, 900.58 -0.62 M488.81 483.27 C640.83 306.44, 796.19 128.36, 910 -0.93 M490.16 484.36 C616.77 344.76, 739.81 202.69, 912.14 0.57 M499.95 484.54 C610.52 358.79, 716.89 233.69, 923.42 -0.72 M500.34 484.7 C611.05 362.65, 719.15 238.33, 922.58 0.48 M512.18 485 C643.8 334.04, 774.05 184.1, 932.61 0.42 M511.61 484.08 C609.95 370.3, 708.24 257.19, 932.41 -0.29 M521.06 484.75 C656.43 329.06, 793.77 173.57, 943.79 0.94 M522.82 484.45 C615.86 374.77, 713.57 263.08, 943.41 -0.22 M532.09 483.66 C644.67 349.99, 758.83 216.74, 954 -0.31 M532.04 484.47 C615.08 386.45, 702.18 286.91, 953.89 -0.5 M543.16 486.53 C641.65 370.59, 740.58 256.72, 964.58 -0.74 M542.39 485.59 C626.48 383.02, 712.94 282.36, 964.31 0.06 M554.11 485.37 C714.07 301.41, 873.7 117.14, 973.82 1.3 M554.24 485.73 C638.62 383.58, 728.23 281.84, 975.85 -0.23 M565.14 483.7 C685.39 343.74, 811.13 200.16, 987.18 0.33 M564.67 485.39 C677.17 353.15, 789.62 224.73, 986.38 -0.79 M573.66 484.7 C736.35 297.1, 898.6 111.42, 997.18 -1.76 M574.11 485.49 C716.49 324.26, 857.61 160.06, 997.04 -0.9 M586.11 486.5 C743.69 299.14, 905.28 112.12, 1006.39 1.24 M584.8 485.34 C687.12 369.46, 785.25 256.67, 1006.62 -0.94 M596.24 485.61 C754.32 300.84, 909.41 121.94, 1016.97 -0.73 M595.29 484.51 C709.83 360.37, 820.06 232.96, 1018.1 0.34 M606.5 485 C725.86 354.55, 839.83 221.19, 1028.04 1.25 M606.88 485.63 C762.45 310.44, 915.5 133.52, 1028.3 -0.27 M615.98 484.67 C733.56 352.93, 847.59 218.34, 1037.95 -1.47 M616.53 485.06 C765.48 314.32, 914.11 142.88, 1039.16 0.29 M628.95 483.43 C763.54 331.47, 900.05 173.19, 1047.51 0.94 M628.09 485.22 C734.64 357.32, 844.38 230.7, 1048.35 -0.38 M639.63 485.41 C786.42 309.63, 935.64 137.13, 1058.42 0.31 M638.83 485.33 C795.3 302.55, 950.52 122.51, 1059.98 0.78 M650.32 485.82 C805.92 303.26, 965.35 121.77, 1070.01 0.8 M649.09 484.13 C798.56 306.55, 950.9 130.78, 1070.34 -0.44 M659.36 483.93 C789.67 336.79, 919.26 188.42, 1080.89 1.58 M659.92 485.02 C811.71 310.4, 960.51 138.37, 1081.77 0.12 M669.7 484.76 C780.29 354.44, 892.43 227.08, 1092.17 0.96 M670.02 484.34 C774.43 364.78, 878.02 247.37, 1091.74 0.17 M679.99 483.3 C836.43 306.38, 991.36 123.8, 1103.3 1.36 M681.38 484.54 C829.22 319.9, 972.42 152.99, 1102.47 -0.01 M693.21 485.41 C817.01 340.49, 941.9 198.19, 1112.72 -0.21 M691.34 484.1 C828.02 325.81, 963.47 169.22, 1112.21 -0.37 M701.33 485.59 C793.16 380.59, 883.19 274.92, 1123.31 -0.71 M703.1 484.23 C809.27 361.54, 917.02 236.89, 1123.34 0 M713.18 484.72 C867.5 305.01, 1026.63 124.09, 1133.42 -0.59 M712.97 485.2 C866.53 309.3, 1016.44 137.18, 1133.65 0.03 M723.04 483.82 C832.47 360.12, 934.9 240.17, 1145.57 1.19 M724.05 485.11 C809.71 381.4, 898.35 279.32, 1144.37 -0.68 M735.37 485.79 C859.3 342.84, 980.4 204.3, 1154.24 0.92 M733.52 484.14 C875.81 320.12, 1016.26 156.29, 1154.68 0.16 M746.2 485.99 C875 335.74, 1005.95 185.32, 1167.38 1.46 M744.69 484.95 C831.93 387.74, 919.19 288.32, 1166.59 0.59 M754.99 483.54 C841.06 383.02, 932.62 276.75, 1178.19 -0.39 M755.89 484.13 C920.1 294.31, 1087.63 101.36, 1176.19 -0.45 M764.64 485.45 C924.07 298.11, 1085.51 110.67, 1186.64 0.65 M765.5 484.55 C867.3 370.16, 965.15 257.94, 1186.55 -0.41 M776.78 486.16 C858.93 383.36, 942.31 286.43, 1196.88 -0.68 M776.22 485.43 C910.83 334.43, 1044.6 181.59, 1197.37 -0.78 M785.22 485.03 C900.69 353.4, 1012.97 219.67, 1209.9 0.72 M787.24 485.59 C947.49 308.32, 1102.81 127.61, 1208.28 0.4 M796.9 485.01 C928.35 340.63, 1056.31 193.28, 1217.78 1.3 M796.9 484.77 C964.34 293.84, 1131.43 100.8, 1219.69 -0.7 M809.42 484.02 C948.12 323.72, 1091.91 158.89, 1228.33 0.18 M807.76 484.7 C933.52 346.99, 1055.56 206.78, 1229.69 0.21 M819.75 486.25 C924.31 365.54, 1028.89 246.41, 1240.16 -0.67 M818.64 485.44 C988.26 290.56, 1154.66 98.38, 1239.7 -0.15 M828.03 486.32 C984.75 311.92, 1136.43 136.78, 1251.31 -1.09 M828.68 485.7 C975.79 312.4, 1120.75 145.37, 1251.38 -0.28 M839.83 483.86 C984.99 314.72, 1133.39 144.62, 1263.11 0.61 M839.08 485.52 C928.73 386.67, 1013.35 288.58, 1261.06 0.03 M850.84 483.62 C963.23 356.38, 1073.91 228.98, 1272.85 -0.21 M850.7 485.08 C969.67 341.54, 1091.32 200.12, 1272.64 -0.83 M861.86 484.43 C946.83 381.04, 1039.17 276.85, 1283.33 -0.77 M860.97 484.16 C1004.05 320.38, 1150.08 153.09, 1281.83 -0.33 M873.08 485.76 C959.18 384.77, 1043.63 283.64, 1291.75 1.42 M871.19 484.09 C1022.55 310.7, 1172.37 139.18, 1293.2 -0.16 M883.16 486.28 C980.03 373.28, 1077.37 263.66, 1302.45 0.43 M881.74 484.05 C1008.76 340.84, 1130.81 198.22, 1304.35 0.25 M893.01 483.98 C1009.44 347.67, 1125.06 212.94, 1315.77 -0.11 M893.02 484.65 C1043.99 305.49, 1197.26 128.67, 1313.42 0.25 M904.9 484.35 C1018.39 352.55, 1131.03 222.32, 1324.82 1.05 M903.9 484.19 C1051.1 317.41, 1199.96 148.61, 1324.08 0.63 M913.5 484.48 C1003.25 382.27, 1095.48 274.18, 1336.95 1.36 M914.16 485.42 C1011.12 368.77, 1110.73 253.84, 1336.02 -0.07 M924.08 484.51 C1089.77 294.43, 1255 104.59, 1345.62 0.99 M924.64 483.87 C1076.33 310.66, 1229.34 133.31, 1345.81 -0.38 M934.05 484.45 C1059.67 345, 1177.47 207.21, 1358.21 1.4 M934.85 484.16 C1050.91 353.85, 1165.4 221.22, 1356.61 0.35 M944.71 486.03 C1094.37 315.96, 1240.18 147.07, 1367.89 -0.91 M946.27 485.13 C1037.81 377.1, 1131.72 267.6, 1367.82 0.74 M955.58 483.22 C1119.1 298.57, 1280.01 116.16, 1378.28 0.14 M956.83 484.95 C1068.57 354.68, 1178.92 226.75, 1378.35 0.08 M966.62 483.16 C1077.59 354.86, 1187.63 227.23, 1388.08 1.18 M967.36 483.88 C1117.28 317.34, 1262.91 147.64, 1389.09 0.24 M978.87 483.94 C1123.97 315.18, 1270.34 146.52, 1399.73 0.7 M977.71 484.58 C1140.6 294.09, 1306.13 103.18, 1399.82 0.42 M987.09 485.92 C1137.95 306.42, 1293.34 129.69, 1410.46 -0.74 M988.38 485.19 C1074.29 386.75, 1160.18 287.97, 1410.07 0.66 M999.01 486.26 C1102.58 360.74, 1209.9 236.54, 1420.95 1.18 M999.15 485.29 C1136.79 326.16, 1275.76 166.16, 1420.75 -0.22 M1008.14 484.05 C1113.49 365.33, 1220.73 242.99, 1429.54 -1.28 M1008.61 485.55 C1176.91 296.49, 1343.34 106.3, 1431.91 0.47 M1019.33 484.96 C1152.31 335.13, 1285.25 184.34, 1440.94 -0.56 M1020.65 484.6 C1162.16 320.33, 1302.81 156.88, 1441.12 -0.73 M1031.21 484 C1122.59 378.29, 1213.95 273.54, 1450.84 0.71 M1031.21 485.14 C1184.98 309.62, 1334.6 136.9, 1452.44 -0.35 M1042.6 485.63 C1196.73 306.14, 1352.14 126.22, 1464.17 1.12 M1041.25 485.39 C1195.16 309.95, 1345.84 136.32, 1463.6 0.34 M1051.56 486.28 C1192.63 325.2, 1332.63 164.73, 1473.32 0.56 M1052.06 485.08 C1166.36 353.19, 1283.05 218.58, 1473.38 0.48 M1062.46 484.12 C1149.03 385, 1237.56 283.73, 1482.87 -1.16 M1062.91 485.69 C1205.16 323.66, 1345.03 161.16, 1484.77 -0.88 M1072.18 484 C1224.4 310.09, 1376.31 137.55, 1494.16 -1.02 M1072.76 485.27 C1229.07 307.18, 1385.12 128.69, 1494.74 0.36 M1083.61 484.82 C1185.91 374.08, 1286.64 258.49, 1504.36 -0.61 M1084.29 485.06 C1206.45 343.5, 1328.26 202.66, 1505.47 0.07 M1095.05 484.45 C1202.01 364.95, 1308.51 242.1, 1516.09 1.19 M1094.42 484.32 C1262.63 290.75, 1429.22 99.35, 1514.97 -0.23 M1104.13 486.32 C1198.09 376.57, 1290.27 269.81, 1526.28 0.5 M1104.74 485.36 C1202.08 367.7, 1304.57 250.15, 1526.19 -0.08 M1116.38 485.11 C1219.34 368.83, 1319.61 253.03, 1535.66 -0.46 M1115.23 485.15 C1268.83 315.88, 1418.07 144.56, 1537.55 0.01 M1126.75 486.16 C1266.75 321.04, 1406.83 157.6, 1547.28 -1.01 M1126.69 485.16 C1249.76 340.62, 1372.95 198.18, 1547.26 -0.16 M1137.82 484.8 C1282.53 315.89, 1427.02 149.44, 1556.86 -1.18 M1136.07 484.58 C1294.46 299.63, 1455.99 114.94, 1558.3 0.59 M1147.64 485.69 C1279.17 326.08, 1416.87 168.41, 1567.88 0.13 M1146.87 485.36 C1291.1 318.54, 1435.2 152.45, 1568.94 -0.43 M1158.42 485.35 C1268.51 351.73, 1382.85 220.95, 1579.38 -1.16 M1158.09 485.38 C1262.19 361.7, 1368.58 239.52, 1579.99 0.15 M1167.56 485.19 C1311.22 326.6, 1450.11 164.09, 1591.46 0.23 M1168.27 485.15 C1326.84 302.3, 1480.83 124.22, 1590.05 0.03 M1179.48 483.56 C1307.35 336.13, 1438.37 188.31, 1599.5 -0.04 M1178.76 484.18 C1298.01 349.19, 1417.04 213.16, 1601.24 -0.35 M1190.31 485.56 C1304.55 359.99, 1415.6 231.34, 1612.44 -1.46 M1189.8 484.45 C1334.14 319.02, 1477.93 151.16, 1611.26 0.04 M1199.71 485.58 C1301.26 370.1, 1399.65 253.73, 1621.37 1.54 M1200.61 485.17 C1296.06 373.7, 1390.04 265.03, 1622.21 -0.02 M1211.53 483.44 C1320.47 363.24, 1427.86 239.73, 1633.85 -1.09 M1211.85 484.69 C1353.67 327.45, 1492.83 166.99, 1632.75 0.32 M1223.25 482.96 C1318.18 379.2, 1409.86 270.58, 1642.53 0.32 M1222.48 484.82 C1378.66 307.6, 1535.07 126.63, 1643.71 -0.48 M1232.41 486.42 C1387.26 306.69, 1540.8 126.95, 1652.97 -1.45 M1231.61 485.55 C1389.8 297.66, 1548.36 114.99, 1653.39 -0.47 M1241.41 483.76 C1372.59 334.06, 1503.65 186.75, 1665.16 -1.6 M1242.81 484.69 C1349.96 360.22, 1458.33 234.56, 1664.85 -0.23 M1254.33 486 C1384.01 339.32, 1510.66 190.59, 1675.68 -0.74 M1252.97 484.38 C1349.21 377.46, 1444.72 267.39, 1674.74 -0.19 M1262.5 485.59 C1407.54 321.52, 1549.52 158.74, 1684.85 -1.55 M1263.12 484.36 C1413.88 312.81, 1564.47 140.85, 1685.42 -0.26 M1273.35 486.11 C1411.95 330.14, 1544.8 175.62, 1695.7 -0.6 M1273.72 484.69 C1360.62 385.82, 1447.22 286.99, 1697.02 -0.35 M1283.86 484.84 C1379.79 378.46, 1475.13 267.66, 1708.25 -1.06 M1284.85 485.23 C1441.12 306.74, 1597.14 127.14, 1706.71 -0.03 M1297.19 485.7 C1414.44 347.79, 1531.76 213.93, 1718.56 -1.29 M1295.39 484.37 C1435.7 327.23, 1573.18 169.65, 1716.77 -0.58 M1305.74 484.97 C1424.09 351.27, 1541.6 214.67, 1728.99 -1.11 M1306.37 485.01 C1453.07 313.34, 1601.89 140.39, 1727.49 0.09 M1317.4 484.3 C1485.05 290.12, 1651.19 97.97, 1737.63 -0.08 M1316.99 485.2 C1484.31 290.68, 1652.7 97.68, 1738.8 -0.99 M1329 486 C1454 341.99, 1580.63 197.4, 1747.91 0.25 M1327.94 484.15 C1497.97 293.45, 1664.5 101.2, 1748.96 0.4 M1336.56 483.62 C1478.93 325.49, 1615 168.7, 1760.65 1.46 M1337.45 484.09 C1471.96 330.29, 1607.7 173.58, 1758.76 0.99 M1350.34 486.1 C1456.75 363.02, 1562.98 236.97, 1770.81 0.11 M1349.33 485.02 C1488.07 328.54, 1624.35 171.29, 1770.17 -0.34 M1360.28 485.93 C1467.81 360.05, 1574.4 238.36, 1781.93 -0.7 M1359.54 485.04 C1522.37 305.09, 1680.24 122.82, 1780.95 0.37 M1370.26 483.26 C1466.51 378.59, 1557.25 272.5, 1790.16 -0.04 M1370.57 484.67 C1458.52 382.92, 1544.12 284.58, 1791.32 0.4 M1379.57 486.1 C1543.85 297.41, 1704.94 107.45, 1802.47 -0.57 M1381.17 483.98 C1517.99 323.67, 1660.26 160.58, 1802.4 -0.47 M1391.51 483.22 C1489.01 373.63, 1590.56 258.49, 1811.72 1.15 M1391.19 485.29 C1495.28 366.87, 1596.49 249.7, 1812.31 0.31 M1401.29 485.94 C1529.6 340.73, 1654.72 195.07, 1824.52 0.47 M1402.49 483.95 C1557.99 308.52, 1710.95 131.54, 1822.65 -0.37 M1411.05 485.08 C1520.22 361.27, 1625.1 236.82, 1833.07 0.76 M1412.59 485.39 C1528.74 353.47, 1645.33 218.95, 1832.96 0.19 M1424.12 483.07 C1574.87 308.77, 1731.2 131.7, 1842.99 -0.8 M1423.57 484.7 C1557.22 332.59, 1688.63 181.06, 1843.98 0.51 M1434.47 482.94 C1591.14 299.18, 1751.6 117.49, 1854.8 -0.31 M1434.09 483.75 C1561.5 336.65, 1688.93 189.75, 1855.36 -0.04 M1443.36 485.26 C1578.32 326.89, 1716.55 167.34, 1866.17 -1.39 M1445.15 485.1 C1537.93 374.43, 1632.25 268.13, 1865.71 -0.05 M1455.19 483.47 C1551.39 369.57, 1649.24 256.09, 1875.74 0.98 M1455.28 485.12 C1592.18 323.02, 1732.04 162.41, 1876.69 -0.57 M1464.68 484.02 C1613.8 320.42, 1757.62 154.11, 1885.41 -0.18 M1465.61 484.67 C1554.38 380.12, 1647.6 273.94, 1886.68 -0.78 M1474.58 485.87 C1559.68 379.27, 1649.5 278.24, 1897.75 -1.33 M1476.16 485.66 C1617.7 323.95, 1759.04 161.32, 1898.03 -0.85 M1485.95 485.18 C1622.66 329.15, 1756.02 175.34, 1908.68 0.56 M1485.98 484.6 C1585.54 373.17, 1682.75 262.59, 1907.59 -0.86 M1496.63 483.64 C1659.19 298.04, 1822.16 109.86, 1917.71 -1.44 M1497.43 485.21 C1624.5 336.94, 1753.65 188.05, 1918.74 -0.43 M1507.68 486.19 C1667.5 297.45, 1830.76 110.9, 1930.17 -0.08 M1506.82 485.04 C1618.1 359.26, 1725.39 236.32, 1928.66 -0.81 M1519.17 483.53 C1616.97 373.35, 1714.16 262.49, 1938.7 0.63 M1518.88 484.6 C1682.41 295.25, 1845.87 104.83, 1940.45 0.25 M1527.68 484.32 C1619.5 379.15, 1709.44 276.38, 1951.08 -0.04 M1528.42 484.5 C1654.4 339.29, 1779.35 196.05, 1950.37 0 M1538.11 484.9 C1667.8 344.18, 1790.96 200.42, 1962.07 0.62 M1539.64 484.98 C1695.12 306.23, 1847.52 129.43, 1961.51 -0.94 M1551.57 485.45 C1683.34 329.83, 1817.62 174.92, 1971.01 1.68 M1549.36 484.61 C1651.25 371.49, 1749.93 256.86, 1972.04 0.06 M1561.19 485.31 C1696.5 332.64, 1829.99 179.92, 1981.9 -1.16 M1559.94 484.64 C1705.69 316.63, 1851.38 149.52, 1981.87 0.16 M1572.01 486.38 C1711.49 325.54, 1851.12 162.3, 1992.12 0.39 M1572.12 484.51 C1721.68 315.33, 1870 143.79, 1992.05 -0.09 M1580.78 485.25 C1715.08 327.62, 1849.95 172.6, 2002.09 1.87 M1581.91 484.58 C1708.37 344.8, 1831.43 202.84, 2003.37 0.54 M1592.67 486.14 C1744.05 318.03, 1888.73 147.17, 2013.66 1.43 M1592.66 484.85 C1683.03 387.12, 1770.66 286.73, 2014.29 -0.55 M1604.27 483.43 C1735.39 329.72, 1871.64 173.28, 2024.38 -0.05 M1603.93 484.5 C1731.51 336.24, 1858.85 192.12, 2024.93 0.15 M1613.86 484.29 C1771.73 302.44, 1929 119.63, 2036.14 -0.42 M1614.01 485.39 C1762.95 311.02, 1913.73 138.73, 2035.61 0.55 M1623.67 484.72 C1717.84 384.17, 1806.14 283.67, 2046.2 0.72 M1624.71 485.22 C1749.69 333.51, 1877.5 186.45, 2046.05 -0.27 M1634.1 485.79 C1750.14 353.12, 1865.45 222.87, 2055.89 0.56 M1635.91 484.21 C1736.27 371.08, 1839.06 253.82, 2057.13 0.61 M1646.01 485.75 C1760.76 353.35, 1873.81 220.45, 2068 -0.38 M1645.61 484.68 C1804.95 298.74, 1964.04 114.71, 2066.89 0.72 M1654.94 483.37 C1749.3 377.09, 1837.12 274, 2076.28 0.31 M1657.19 484.9 C1780.18 344.31, 1902.67 204.19, 2077.06 -0.3 M1666.17 482.94 C1784.29 351.82, 1899.54 218.33, 2088.46 0.66 M1666.71 485.11 C1771.42 366.87, 1872.44 251.47, 2087.51 -0.34 M1676.17 484.74 C1775.79 374.44, 1872.14 260.29, 2099.71 -0.69 M1678.15 484.56 C1776.56 373.84, 1874.22 262.57, 2099.52 -0.16 M1687.64 483.68 C1846.54 307.76, 2001.49 126.63, 2109.28 -1.19 M1687.55 484.28 C1834.27 318.02, 1976.16 154.78, 2110.26 0.22 M1696.72 486.13 C1815.86 345.32, 1937.87 203.88, 2119.58 1.03 M1697.54 484.95 C1854.91 308.65, 2008.55 132.7, 2120.88 -0.64 M1707.46 486.3 C1789.48 385.39, 1877.33 283.68, 2130.38 0.83 M1708.91 485.01 C1863.54 309.65, 2016.89 132.87, 2130.97 -0.42 M1718.94 483.69 C1875.37 304.56, 2031.92 122.39, 2141.13 0.71 M1719.14 485.49 C1841.27 345.44, 1965.21 204.53, 2141.83 0.07 M1730.1 485.03 C1899.02 290.51, 2066.86 99.14, 2151.53 1.25 M1729.85 484.97 C1880.84 318.55, 2027.17 151.03, 2152.56 0.42 M1739.82 485.99 C1830.61 378.49, 1923.42 273.31, 2163.83 -0.24 M1740.67 485.38 C1827.04 382.46, 1913.63 282.88, 2163.33 0.13 M1752.27 485.73 C1865.87 360.37, 1973.11 235.75, 2173.88 -0.03 M1750.91 485.21 C1903.92 308.25, 2056.49 133.09, 2173.04 -1.06 M1761.63 483.84 C1931.38 290.82, 2100.29 97.25, 2182.97 0.98 M1762 484.57 C1919.57 304.55, 2077.01 122.08, 2184.23 -0.41 M1773.54 485.31 C1901.96 340.52, 2026.03 196.47, 2195.26 0.66 M1772.8 484.75 C1863.94 385.89, 1953.05 282.62, 2194.31 0.07 M1783.29 484.63 C1866.48 384.23, 1955.26 280.95, 2203.41 1.3 M1783.66 485.32 C1895.98 355.33, 2011.26 223.79, 2204.61 0.38 M1794.14 483.62 C1917.42 346.21, 2038.69 204.73, 2214.22 0.35 M1793.3 485.29 C1943.91 319.31, 2089.85 150.36, 2215.89 -0.22 M1805.12 485.1 C1966.61 294.37, 2131.41 104.57, 2224.59 -0.07 M1804.49 485 C1910.38 364.79, 2014.05 243.55, 2226.03 0.87 M1816.51 485.11 C1900.08 386.37, 1986.58 287.47, 2237.54 0.75 M1814.5 484.08 C1964.13 310.52, 2113.48 137.88, 2236.77 0.49 M1827.27 485.79 C1920.52 375.9, 2014.72 265.68, 2247.83 1.37 M1825.61 484.91 C1931.44 360.58, 2036.92 240.68, 2246.72 -0.4 M1837.3 484.4 C1961.72 341.22, 2088.1 196.28, 2258.63 1.61 M1837.16 484.25 C1943.01 355.36, 2053.66 229.39, 2257.04 0.42 M1848.11 486.2 C1940.77 381.19, 2031.81 277.22, 2267.72 1.08 M1846.43 484.65 C1977.97 333.11, 2108.46 183.76, 2268.3 -0.5 M1858.62 483.87 C1946.27 376.09, 2037.55 272.72, 2276.48 0.83 M1858.33 484.46 C1957.15 374.26, 2053.9 262.93, 2276.85 2.43 M1869.05 483.21 C1950.8 389.04, 2037.16 287.97, 2277.26 14.34 M1868.65 484.52 C1970.3 367.59, 2069.09 252.55, 2277.65 13.36 M1879.97 485.7 C1996.27 356.36, 2107.5 226.36, 2277.65 24.5 M1878.55 484.49 C1982.36 360.69, 2088.01 238.95, 2277.55 25.74 M1889.72 485.47 C2006.95 347.92, 2123.4 215.44, 2276.52 37.95 M1889.05 484.76 C2035.27 320.74, 2179.53 155.24, 2278.76 37.69 M1899.89 483.83 C1982.45 393.04, 2063.13 300.82, 2276.33 49.85 M1899.45 484.41 C2018.13 351.22, 2134.82 215.88, 2277 50.45 M1909.57 483.01 C2018.53 361.69, 2122.62 239.04, 2278.48 61.73 M1911.49 484.71 C2050.34 321.61, 2191.57 159.38, 2277.04 63.33 M1920.76 484.76 C1996.66 399.26, 2069.11 315.35, 2276.78 73.48 M1921.35 483.83 C2044.71 340.18, 2168.52 198.05, 2278.41 75.34 M1932.01 484.8 C2016.45 384.52, 2102.69 285.6, 2278.35 85.16 M1931.09 485.96 C2025.9 370.75, 2121.92 259.94, 2278.14 86.52 M1943.29 484.36 C2025.93 390.82, 2108.37 294.97, 2277.98 98.02 M1941.78 484.99 C2042.3 368.55, 2142.73 251.79, 2277.32 98.99 M1952.67 485.3 C2067.69 352.58, 2182.49 217.55, 2278.97 110.5 M1951.98 485.38 C2028.66 397.65, 2103.06 310.55, 2277.39 110.84 M1964.51 485.62 C2027.51 409.81, 2091.76 335.37, 2277.02 125.23 M1963.79 485.89 C2066.48 370.06, 2169.67 252.05, 2277.13 123.04 M1972.85 486.86 C2050.43 396.59, 2127.78 306.67, 2278.37 135.17 M1974.8 485.21 C2066.34 376.1, 2160.11 267.98, 2276.93 135.59 M1984.51 485.49 C2086.44 369.45, 2185.06 254.01, 2279.78 148.33 M1984.58 485.25 C2076.63 374.83, 2171.94 265.56, 2277.57 147.76 M1994.9 484.08 C2073.6 391.76, 2156.83 299.83, 2279.93 158.51 M1994.41 484.22 C2098.62 364.6, 2202.89 246.35, 2277.52 160.33 M2005.07 486.74 C2113.11 358.68, 2220.02 235.31, 2276.05 172.47 M2005.7 485.8 C2068.17 410.34, 2129.59 338.57, 2277.15 172.94 M2015.17 485.9 C2085.52 401.19, 2153.42 321.97, 2278.63 185.47 M2016.66 485.13 C2110.34 381.38, 2201.54 275.77, 2277.62 184.36 M2027.5 485.88 C2102.16 396.32, 2177.27 310.99, 2277.93 197.77 M2026.32 484.92 C2106.97 388.44, 2189.65 294.48, 2277.93 195.55 M2038.08 486.12 C2113.74 394.18, 2191.91 303.16, 2275.4 210.21 M2038.67 485.46 C2134.85 374.14, 2230.6 265.34, 2277.62 208.37 M2049.25 482.87 C2109.32 414.67, 2172.31 340.37, 2276.41 220.26 M2048.31 485.85 C2122.75 399.74, 2200.18 309.79, 2277.51 219.36 M2061.37 485 C2109.47 422.73, 2159.49 370.06, 2277.86 235.86 M2058.77 484.21 C2127.66 399.66, 2200.38 318.75, 2276.77 232.13 M2070.7 485.93 C2130.42 414.77, 2197.1 340.14, 2275.82 246.51 M2070.52 485.19 C2130.13 411.48, 2193.14 341.42, 2276.86 244.96 M2081.49 484.09 C2135.6 420.16, 2193.96 355.54, 2277.03 256.92 M2078.98 484.33 C2148.61 405.21, 2218.15 324.66, 2277.77 256.74 M2093.61 487.31 C2151.35 417.88, 2205.08 358.35, 2280.9 268.75 M2091.86 483.48 C2151.03 414.12, 2208.81 343.92, 2279.35 270.32 M2102.93 483.49 C2138.49 433.23, 2184.18 383.81, 2275.4 284.25 M2101.83 483.33 C2169 406.32, 2235.46 326.63, 2277.57 280.68 M2111.74 485.92 C2162.13 425.89, 2215.75 372.28, 2274.75 294.41 M2113.12 485.4 C2146.44 441.31, 2184.49 396.27, 2277.9 294.41 M2124.53 484.49 C2173.77 419.97, 2230.9 355.58, 2277.85 304.41 M2121.91 486.15 C2169 432.86, 2214.73 377.74, 2276.4 307.44 M2132.38 486.94 C2171.83 434.3, 2220.49 384.43, 2276.43 320.53 M2132.53 485.49 C2178.98 434.57, 2223.1 383.33, 2276.52 319.24 M2140.8 486.44 C2194.82 424.53, 2245.48 365.4, 2276.27 329.32 M2142.75 484.55 C2180 442.57, 2218.9 399.47, 2279.14 328.95 M2154.62 486.27 C2180.91 452.45, 2205.67 426.57, 2278.14 339.61 M2153.36 485.58 C2200.06 433.58, 2242.55 386.07, 2279.85 344.51 M2166.69 482.84 C2204.12 442.64, 2242.23 396.53, 2273.81 354.24 M2166.1 485.77 C2199.53 442.61, 2230.51 403.55, 2278.31 356.31 M2172.84 483.13 C2209.13 447.7, 2238.8 414.98, 2281.42 363.97 M2174.97 484.27 C2195.27 460, 2219.19 436.8, 2277.3 368.74 M2185.94 485.22 C2215.33 446.93, 2243.75 412.86, 2275.91 381.44 M2187.6 484.08 C2207.4 461.73, 2227.3 437.38, 2278.03 380.54 M2200.43 483.64 C2225.32 446.63, 2260.9 418.06, 2281.12 390.37 M2196.69 483.61 C2221.19 457.36, 2243.44 429.77, 2277.11 390.44 M2210.01 485.77 C2230.35 453.64, 2262.61 429.38, 2278.73 406.69 M2206.17 485.52 C2224.5 461.84, 2245.16 435.68, 2278.03 404.74 M2221.19 484.2 C2238.72 461.25, 2254.33 444.9, 2281.24 415.69 M2219.38 483.52 C2230.95 469.07, 2243.49 454.12, 2276.79 414.83 M2230.98 481.12 C2246.07 464.72, 2254.29 452.54, 2276.23 429.36 M2229.28 483.17 C2241.92 471.22, 2252.66 459.85, 2276.59 429.01 M2240.46 484.67 C2248.31 475.11, 2253.47 467.4, 2279.99 443.27 M2238.61 484.71 C2255.79 470.67, 2267.42 452.06, 2278.2 441.85 M2248.47 485.35 C2257.72 474.65, 2272.71 465.81, 2281.87 453.97 M2250.09 483.87 C2258.26 471.51, 2270.44 462.15, 2278.69 453.95 M2257.16 484.35 C2264.64 482.91, 2271.65 470.25, 2277.14 468.1 M2258.65 486.67 C2264.36 476.83, 2272.7 471.78, 2276.98 465.52 M2272.32 485.39 C2273.88 481.77, 2275.61 480.41, 2278.8 476.39 M2270.25 485.53 C2272.78 482.42, 2275.27 479.03, 2277.46 476.61" stroke="#82c91e" stroke-width="1" fill="none"></path><path d="M-0.27 -0.59 C907.02 11.53, 1812.96 12.72, 2277.77 -0.96 M-0.73 0.57 C692.36 16.21, 1383.28 16.03, 2276.52 0.21 M2276.86 -0.23 C2276.06 191.21, 2275.11 384.59, 2277.44 482.39 M2276.38 0.62 C2275.76 177.39, 2274.99 355.34, 2276.97 482.62 M2277.58 481.27 C1807.52 491.66, 1339.36 492.37, 0.41 481.24 M2276.74 483.07 C1407.08 473.28, 538.9 474.12, -0.63 482.64 M-0.92 483.85 C4.42 291.27, 4.83 100.13, 0.58 0.78 M0.56 482.24 C-1.69 303.17, -1.69 122.99, 0.14 -0.83" stroke="#1864ab" stroke-width="2" fill="none"></path></g><g stroke-linecap="round" transform="translate(1893.7898324218058 3154.939349019711) rotate(0 58.459086744317574 67.16577438101376)"><path d="M59.19 -0.22 C59.19 -0.22, 59.19 -0.22, 59.19 -0.22 M59.19 -0.22 C59.19 -0.22, 59.19 -0.22, 59.19 -0.22 M7.3 74.39 C27.67 43.48, 47.87 17.41, 65.41 6.33 M6.83 72.2 C24.39 53.01, 42.84 32.72, 64.85 5.95 M10.84 74.97 C21.6 60.36, 34.11 46.94, 71.4 14.46 M11.76 80.69 C24.77 63.22, 37.99 50.82, 68.05 13.85 M16.59 87.17 C35.42 59.83, 58.04 36.27, 73.84 19.08 M18.67 83.95 C27.54 69.54, 37.86 59.6, 73.93 19.38 M24.25 91.63 C36.92 68.15, 54.76 47.97, 80.82 20.96 M23.94 90.06 C42.61 68.97, 60.3 47.71, 81.57 24.32 M31.24 98.21 C35.55 82.28, 51.8 67.62, 82.22 31.98 M28.73 95.36 C47.27 77.62, 63.24 56.13, 84.83 29.56 M33.09 103.63 C48.59 86.1, 65.25 65.67, 92.69 38.23 M31.81 104.61 C50.64 81.13, 69.53 61.32, 89.83 38.92 M35.1 109.82 C57.04 88.48, 71.87 70.23, 98.7 42.64 M39.74 109.91 C55.86 88.26, 76.27 67.46, 94.39 44.19 M39.4 118.57 C59.83 97.14, 68.21 81.92, 98.97 47.13 M42.25 115.92 C58.99 97.27, 73.67 79.33, 102.93 47.94 M45.37 121.63 C71.02 100.17, 88.38 75.86, 107.47 55.22 M47.18 122.51 C70.59 96.98, 92.69 70.4, 105.86 56.66 M52.64 127.36 C67.55 109.14, 84.91 93.57, 109.13 58.37 M55.87 126.01 C66.44 113.43, 75.38 102.54, 109.79 59.67 M56.77 131.09 C73 120.92, 84.56 99.74, 115.55 66.44 M57.35 134.07 C76.41 115.46, 92.61 95.99, 117.65 66.12" stroke="#82c91e" stroke-width="1" fill="none"></path><path d="M57.52 1.08 C72.93 16.54, 90.29 37.93, 114.52 68.16 M60.42 1.39 C71.69 17.51, 85.96 36.44, 117.45 69.95 M116.38 70.19 C100.84 86.66, 88.52 107.84, 58.51 137.06 M118.37 68.55 C100.34 85.88, 84.57 107.83, 59.06 132.45 M55.68 135.5 C46.59 124.57, 35.61 107.7, -3.41 71.27 M60.18 133.24 C36.12 110.64, 16.31 84.31, 0.11 69.9 M2.93 68.91 C11.25 56.71, 22.17 42.41, 60.81 2.94 M-0.84 68.2 C22.08 44.11, 42.41 20.94, 57.07 1.51" stroke="#1864ab" stroke-width="2" fill="none"></path></g><g transform="translate(1941.0546186911906 3154.9393205511333) rotate(0 8.171981811523438 47.26482422748995)"><text x="8.171981811523438" y="0" font-family="Virgil, Segoe UI Emoji" font-size="74.62860656937228px" fill="#fff" text-anchor="middle" style="white-space: pre;" direction="ltr" dominant-baseline="text-before-edge">i</text></g><g transform="translate(2144.3088630256643 3103.4006805067784) rotate(0 777.0252685546875 114.43062707708214)"><text x="777.0252685546875" y="0" font-family="Virgil, Segoe UI Emoji" font-size="89.55440379945547px" fill="#1864ab" text-anchor="middle" style="white-space: pre;" direction="ltr" dominant-baseline="text-before-edge">Success! </text><text x="777.0252685546875" y="114.43062707708198" font-family="Virgil, Segoe UI Emoji" font-size="89.55440379945547px" fill="#1864ab" text-anchor="middle" style="white-space: pre;" direction="ltr" dominant-baseline="text-before-edge">Check your email for the magic link!</text></g></svg>