<svg viewBox="0 0 575 432" xmlns="http://www.w3.org/2000/svg">
			<defs>
			<linearGradient x1="84.751%" y1="111.399%" x2="58.254%" y2="64.584%" id="a">
				<stop stop-color="#FB7655" offset="0%" />
				<stop stop-color="#FB7655" offset="0%" />
				<stop stop-color="#E42B1E" offset="41%" />
				<stop stop-color="#900" offset="99%" />
				<stop stop-color="#900" offset="100%" />
			</linearGradient>
			<linearGradient x1="116.649%" y1="60.891%" x2="1.745%" y2="19.288%" id="b">
				<stop stop-color="#871101" offset="0%" />
				<stop stop-color="#871101" offset="0%" />
				<stop stop-color="#911209" offset="99%" />
				<stop stop-color="#911209" offset="100%" />
			</linearGradient>
			<linearGradient x1="75.774%" y1="219.339%" x2="38.978%" y2="7.829%" id="c">
				<stop stop-color="#871101" offset="0%" />
				<stop stop-color="#871101" offset="0%" />
				<stop stop-color="#911209" offset="99%" />
				<stop stop-color="#911209" offset="100%" />
			</linearGradient>
			<linearGradient x1="50.012%" y1="7.235%" x2="66.483%" y2="79.135%" id="d">
				<stop stop-color="#FFF" offset="0%" />
				<stop stop-color="#FFF" offset="0%" />
				<stop stop-color="#E57252" offset="23%" />
				<stop stop-color="#DE3B20" offset="46%" />
				<stop stop-color="#A60003" offset="99%" />
				<stop stop-color="#A60003" offset="100%" />
			</linearGradient>
			<linearGradient x1="46.174%" y1="16.348%" x2="49.933%" y2="83.047%" id="e">
				<stop stop-color="#FFF" offset="0%" />
				<stop stop-color="#FFF" offset="0%" />
				<stop stop-color="#E4714E" offset="23%" />
				<stop stop-color="#BE1A0D" offset="56%" />
				<stop stop-color="#A80D00" offset="99%" />
				<stop stop-color="#A80D00" offset="100%" />
			</linearGradient>
			<linearGradient x1="36.965%" y1="15.594%" x2="49.528%" y2="92.477%" id="f">
				<stop stop-color="#FFF" offset="0%" />
				<stop stop-color="#FFF" offset="0%" />
				<stop stop-color="#E46342" offset="18%" />
				<stop stop-color="#C82410" offset="40%" />
				<stop stop-color="#A80D00" offset="99%" />
				<stop stop-color="#A80D00" offset="100%" />
			</linearGradient>
			<linearGradient x1="13.608%" y1="58.343%" x2="85.764%" y2="-46.718%" id="g">
				<stop stop-color="#FFF" offset="0%" />
				<stop stop-color="#FFF" offset="0%" />
				<stop stop-color="#C81F11" offset="54%" />
				<stop stop-color="#BF0905" offset="99%" />
				<stop stop-color="#BF0905" offset="100%" />
			</linearGradient>
			<linearGradient x1="27.622%" y1="21.135%" x2="50.743%" y2="79.056%" id="h">
				<stop stop-color="#FFF" offset="0%" />
				<stop stop-color="#FFF" offset="0%" />
				<stop stop-color="#DE4024" offset="31%" />
				<stop stop-color="#BF190B" offset="99%" />
				<stop stop-color="#BF190B" offset="100%" />
			</linearGradient>
			<linearGradient x1="-20.667%" y1="122.282%" x2="104.242%" y2="-6.342%" id="i">
				<stop stop-color="#BD0012" offset="0%" />
				<stop stop-color="#BD0012" offset="0%" />
				<stop stop-color="#FFF" offset="7%" />
				<stop stop-color="#FFF" offset="17%" />
				<stop stop-color="#C82F1C" offset="27%" />
				<stop stop-color="#820C01" offset="33%" />
				<stop stop-color="#A31601" offset="46%" />
				<stop stop-color="#B31301" offset="72%" />
				<stop stop-color="#E82609" offset="99%" />
				<stop stop-color="#E82609" offset="100%" />
			</linearGradient>
			<linearGradient x1="58.792%" y1="65.205%" x2="11.964%" y2="50.128%" id="j">
				<stop stop-color="#8C0C01" offset="0%" />
				<stop stop-color="#8C0C01" offset="0%" />
				<stop stop-color="#990C00" offset="54%" />
				<stop stop-color="#A80D0E" offset="99%" />
				<stop stop-color="#A80D0E" offset="100%" />
			</linearGradient>
			<linearGradient x1="79.319%" y1="62.754%" x2="23.088%" y2="17.888%" id="k">
				<stop stop-color="#7E110B" offset="0%" />
				<stop stop-color="#7E110B" offset="0%" />
				<stop stop-color="#9E0C00" offset="99%" />
				<stop stop-color="#9E0C00" offset="100%" />
			</linearGradient>
			<linearGradient x1="92.881%" y1="74.122%" x2="59.84%" y2="39.704%" id="l">
				<stop stop-color="#79130D" offset="0%" />
				<stop stop-color="#79130D" offset="0%" />
				<stop stop-color="#9E120B" offset="99%" />
				<stop stop-color="#9E120B" offset="100%" />
			</linearGradient>
			<radialGradient cx="32.001%" cy="40.21%" fx="32.001%" fy="40.21%" r="69.574%" id="m">
				<stop stop-color="#A80D00" offset="0%" />
				<stop stop-color="#A80D00" offset="0%" />
				<stop stop-color="#7E0E08" offset="99%" />
				<stop stop-color="#7E0E08" offset="100%" />
			</radialGradient>
			<radialGradient cx="13.549%" cy="40.86%" fx="13.549%" fy="40.86%" r="88.387%" id="n">
				<stop stop-color="#A30C00" offset="0%" />
				<stop stop-color="#A30C00" offset="0%" />
				<stop stop-color="#800E08" offset="99%" />
				<stop stop-color="#800E08" offset="100%" />
			</radialGradient>
			<linearGradient x1="56.571%" y1="101.717%" x2="3.106%" y2="11.993%" id="o">
				<stop stop-color="#8B2114" offset="0%" />
				<stop stop-color="#8B2114" offset="0%" />
				<stop stop-color="#9E100A" offset="43%" />
				<stop stop-color="#B3100C" offset="99%" />
				<stop stop-color="#B3100C" offset="100%" />
			</linearGradient>
			<linearGradient x1="30.87%" y1="35.599%" x2="92.471%" y2="100.694%" id="p">
				<stop stop-color="#B31000" offset="0%" />
				<stop stop-color="#B31000" offset="0%" />
				<stop stop-color="#910F08" offset="44%" />
				<stop stop-color="#791C12" offset="99%" />
				<stop stop-color="#791C12" offset="100%" />
			</linearGradient>
			<linearGradient x1="50%" y1="82.276%" x2="23.443%" y2="44.914%" id="q">
				<stop stop-color="#FFD43B" offset="0%" />
				<stop stop-color="#FFE873" offset="100%" />
			</linearGradient>
			<radialGradient fx="50%" fy="50%" r="29.661%" id="r">
				<stop stop-color="#B8B8B8" stop-opacity=".498" offset="0%" />
				<stop stop-color="#7F7F7F" stop-opacity="0" offset="100%" />
			</radialGradient>
			<linearGradient x1="0%" y1="0%" x2="74.521%" y2="64.11%" id="s">
				<stop stop-color="#5A9FD4" offset="0%" />
				<stop stop-color="#306998" offset="100%" />
			</linearGradient>
			<path id="t"
				d="M150 157.697c82.686 0 149.718-35.235 149.718-78.697S232.686.303 150 .303C67.314.303.282 35.538.282 79S67.314 157.697 150 157.697" />
			<path id="v"
				d="M150 157.697c82.686 0 149.718-35.235 149.718-78.697S232.686.303 150 .303C67.314.303.282 35.538.282 79S67.314 157.697 150 157.697" />
			<path id="x"
				d="M150 157.697c82.686 0 149.718-35.235 149.718-78.697S232.686.303 150 .303C67.314.303.282 35.538.282 79S67.314 157.697 150 157.697" />
			<radialGradient cx="50.003%" cy="50.007%" fx="50.003%" fy="50.007%" r="50.002%" id="y">
				<stop stop-color="#4B6387" offset="0%" />
				<stop stop-color="#1A1918" offset="100%" />
			</radialGradient>
			<path id="A"
				d="M150 157.697c82.686 0 149.718-35.235 149.718-78.697S232.686.303 150 .303C67.314.303.282 35.538.282 79S67.314 157.697 150 157.697" />
			<path id="C"
				d="M150 157.697c82.686 0 149.718-35.235 149.718-78.697S232.686.303 150 .303C67.314.303.282 35.538.282 79S67.314 157.697 150 157.697" />
			<radialGradient cx="50.006%" cy="49.998%" fx="50.006%" fy="49.998%" r="50.002%" id="D">
				<stop stop-color="#FFF" offset="0%" />
				<stop stop-color="#4B6387" offset="100%" />
			</radialGradient>
			</defs>
			<g fill="none" fill-rule="evenodd">
			<path d="M114.16 96.82l-84.13 49.868 108.934-7.38 8.39-109.648" fill="url(#a)"
				transform="translate(143 285)" />
			<path d="M139.142 139.234l-9.363-64.51-25.503 33.618" fill="url(#b)" transform="translate(143 285)" />
			<path d="M139.27 139.234l-68.594-5.375-40.28 12.687" fill="url(#c)" transform="translate(143 285)" />
			<path d="M30.492 146.562l17.136-56.038L9.92 98.572" fill="url(#d)" transform="translate(143 285)" />
			<path d="M104.27 108.528l-15.767-61.65-45.122 42.22" fill="url(#e)" transform="translate(143 285)" />
			<path d="M143.776 47.745L101.123 12.97 89.246 51.302" fill="url(#f)" transform="translate(143 285)" />
			<path d="M123.83.572L98.743 14.41 82.917.386" fill="url(#g)" transform="translate(143 285)" />
			<path d="M0 117.37l10.51-19.132-8.502-22.793" fill="url(#h)" transform="translate(143 285)" />
			<path
				d="M144.443 359.725l8.553 24.218 37.163-8.323 42.428-39.363 11.974-37.968L225.71 285l-32.055 11.975c-10.1 9.377-29.697 27.93-30.404 28.28-.698.356-12.94 23.452-18.807 34.47z"
				fill="#FFF" />
			<path
				d="M31.474 31.22C53.362 9.554 81.578-3.245 92.407 7.66c10.82 10.906-.654 37.41-22.542 59.067C47.977 88.385 20.11 101.89 9.29 90.983c-10.83-10.9.297-38.11 22.184-59.765z"
				fill="url(#i)" transform="translate(143 285)" />
			<path d="M30.492 146.54l17.002-56.217 56.463 18.108c-20.415 19.11-43.12 35.266-73.465 38.11z"
				fill="url(#j)" transform="translate(143 285)" />
			<path d="M89.663 51.146l14.495 57.315c17.053-17.9 32.36-37.143 39.856-60.945l-54.35 3.63z"
				fill="url(#k)" transform="translate(143 285)" />
			<path d="M143.865 47.805c5.8-17.477 7.14-42.55-20.214-47.204L101.206 12.98l42.66 34.827z" fill="url(#l)"
				transform="translate(143 285)" />
			<path d="M143 402.117c.803 28.844 21.65 29.274 30.53 29.527l-20.512-47.82L143 402.117z"
				fill="#9E1209" />
			<path
				d="M89.745 51.235c13.104 8.04 39.513 24.188 40.05 24.485.832.468 11.385-17.766 13.78-28.07l-53.83 3.585z"
				fill="url(#m)" transform="translate(143 285)" />
			<path d="M47.472 90.323L70.2 134.097c13.44-7.276 23.962-16.14 33.6-25.636L47.473 90.324z" fill="url(#n)"
				transform="translate(143 285)" />
			<path
				d="M9.93 98.883l-3.222 38.28c6.077 8.285 14.436 9.005 23.204 8.36-6.344-15.762-19.017-47.278-19.983-46.64z"
				fill="url(#o)" transform="translate(143 285)" />
			<path d="M101.07 13.074l45.153 6.326C143.813 9.206 136.413 2.628 123.8.572l-22.73 12.502z"
				fill="url(#p)" transform="translate(143 285)" />
			<g>
				<path
					d="M143.97 48.495v19.873c0 15.407-13.065 28.375-27.965 28.375H71.29c-12.248 0-22.384 10.48-22.384 22.742V162.1c0 12.128 10.55 19.26 22.384 22.74 14.17 4.166 27.76 4.92 44.715 0 11.27-3.26 22.384-9.826 22.384-22.74v-17.057H93.672v-5.685h67.098c13.01 0 17.86-9.073 22.384-22.69 4.674-14.02 4.475-27.5 0-45.484-3.215-12.948-9.357-22.69-22.384-22.69h-16.8zm-25.148 107.92c4.64 0 8.4 3.8 8.4 8.5 0 4.718-3.76 8.555-8.4 8.555-4.624 0-8.4-3.837-8.4-8.554 0-4.7 3.776-8.502 8.4-8.502z"
					fill="url(#q)" transform="translate(388 206)" />
				<path
					d="M154.173 213.81c0 4.155-11.434 7.994-29.996 10.072-18.56 2.077-41.43 2.077-59.992 0-18.56-2.078-29.995-5.917-29.995-10.072 0-4.154 11.434-7.994 29.995-10.07 18.562-2.078 41.43-2.078 59.992 0 18.562 2.076 29.996 5.916 29.996 10.07z"
					opacity=".444" fill="url(#r)" transform="translate(388 206)" />
				<path
					d="M92.682.664C85.03.7 77.722 1.352 71.29 2.49 52.346 5.836 48.906 12.84 48.906 25.753V42.81h44.767v5.685H32.106c-13.01 0-24.404 7.818-27.967 22.69-4.11 17.046-4.294 27.684 0 45.483 3.18 13.25 10.78 22.69 23.79 22.69h15.393V118.91c0-14.77 12.785-27.8 27.967-27.8h44.715c12.447 0 22.384-10.246 22.384-22.742V25.753c0-12.128-10.236-21.24-22.385-23.263-7.69-1.28-15.67-1.86-23.323-1.826zm-24.21 13.718c4.624 0 8.4 3.837 8.4 8.555 0 4.7-3.776 8.502-8.4 8.502-4.64 0-8.4-3.803-8.4-8.503 0-4.718 3.76-8.555 8.4-8.555z"
					fill="url(#s)" transform="translate(388 206)" />
			</g>
			<g>
				<path
					d="M57.723 186.915s-9.228 5.364 6.568 7.18c19.138 2.18 28.918 1.868 50.007-2.12 0 0 5.544 3.473 13.288 6.483-47.276 20.25-106.994-1.173-69.862-11.543M51.946 160.49s-10.35 7.658 5.458 9.292c20.442 2.108 36.586 2.28 64.52-3.096 0 0 3.865 3.915 9.94 6.056-57.16 16.704-120.823 1.317-79.918-12.252"
					fill="#5382A1" />
				<path
					d="M100.647 115.665c11.648 13.404-3.06 25.465-3.06 25.465s29.577-15.26 15.993-34.37c-12.686-17.82-22.416-26.675 30.254-57.204 0 0-82.674 20.636-43.187 66.11"
					fill="#E76F00" />
				<path
					d="M163.172 206.46s6.83 5.624-7.52 9.975c-27.29 8.262-113.577 10.757-137.547.33-8.617-3.747 7.542-8.946 12.625-10.037 5.3-1.15 8.33-.935 8.33-.935-9.582-6.747-61.938 13.248-26.594 18.974 96.39 15.622 175.71-7.035 150.706-18.307M62.16 133.11s-43.89 10.42-15.542 14.204c11.97 1.6 35.83 1.24 58.057-.622 18.164-1.532 36.403-4.788 36.403-4.788s-6.405 2.742-11.04 5.904C85.47 159.524-.634 154.073 24.154 142.09c20.963-10.128 38.008-8.98 38.008-8.98M140.897 177.097c45.31-23.53 24.36-46.144 9.738-43.097-3.584.745-5.182 1.39-5.182 1.39s1.33-2.082 3.87-2.983c28.928-10.164 51.175 29.977-9.337 45.875 0 0 .7-.625.91-1.185"
					fill="#5382A1" />
				<path
					d="M113.58.26s25.093 25.086-23.8 63.662c-39.205 30.945-8.94 48.59-.015 68.748-22.885-20.636-39.68-38.803-28.413-55.71C77.89 52.14 123.705 40.108 113.58.26"
					fill="#E76F00" />
				<path
					d="M66.613 240.86c43.49 2.78 110.275-1.545 111.857-22.112 0 0-3.04 7.797-35.942 13.99-37.12 6.98-82.903 6.165-110.057 1.69.002 0 5.56 4.6 34.143 6.43"
					fill="#5382A1" />
			</g>
			<g>
				<path
					d="M367 157.697c82.686 0 149.718-35.235 149.718-78.697S449.686.303 367 .303C284.314.303 217.282 35.538 217.282 79S284.314 157.697 367 157.697"
					fill="#FFF" />
				<g transform="translate(217)">
					<mask id="u" fill="#fff">
					</mask>
					<path
						d="M150 157.697c82.686 0 149.718-35.235 149.718-78.697S232.686.303 150 .303C67.314.303.282 35.538.282 79S67.314 157.697 150 157.697"
						fill="#1A1918" mask="url(#u)" />
				</g>
				<g transform="translate(217)">
					<mask id="w" fill="#fff">
					</mask>
					<path
						d="M253.16 137.785c-60.68 89.904-182.95 113.66-272.925 53.027C-109.74 130.18-133.515 8.004-72.835-81.9s182.95-113.66 272.925-53.028c89.974 60.633 113.75 182.808 53.07 272.713"
						fill="#1A1918" mask="url(#w)" />
				</g>
				<g transform="translate(217)">
					<mask id="z" fill="#fff">
					</mask>
					<path
						d="M253.16 137.785c-60.68 89.904-182.95 113.66-272.925 53.027C-109.74 130.18-133.515 8.004-72.835-81.9s182.95-113.66 272.925-53.028c89.974 60.633 113.75 182.808 53.07 272.713"
						fill="url(#y)" mask="url(#z)" />
				</g>
				<g transform="translate(217)">
					<mask id="B" fill="#fff">
					</mask>
					<path
						d="M171.66 82.896c-30.34 44.952-91.474 56.83-136.46 26.514C-9.79 79.093-21.677 18.006 8.663-26.947 39.004-71.9 100.14-83.777 145.126-53.46 190.113-23.144 202 37.944 171.66 82.896"
						fill="#4B6386" mask="url(#B)" />
				</g>
				<g transform="translate(217)">
					<mask id="E" fill="#fff">
					</mask>
					<path
						d="M171.66 82.896c-30.34 44.952-91.474 56.83-136.46 26.514C-9.79 79.093-21.677 18.006 8.663-26.947 39.004-71.9 100.14-83.777 145.126-53.46 190.113-23.144 202 37.944 171.66 82.896"
						fill="url(#D)" mask="url(#E)" />
				</g>
				<path
					d="M367 151.853c79.457 0 143.87-32.617 143.87-72.853S446.457 6.147 367 6.147c-79.457 0-143.87 32.617-143.87 72.853s64.413 72.853 143.87 72.853"
					fill="#5E77A5" />
				<path
					d="M396.143 102.547l7.138-36.7c1.61-8.283.27-14.462-3.98-18.366-4.117-3.778-11.106-5.614-21.368-5.614h-12.36l3.538-18.184c.134-.685-.047-1.395-.49-1.933-.447-.54-1.11-.852-1.807-.852h-17.058c-1.12 0-2.083.793-2.296 1.892l-7.58 38.96c-.69-4.382-2.387-8.152-5.105-11.26-5.004-5.723-12.918-8.624-23.524-8.624h-33.06c-1.12 0-2.084.792-2.297 1.89l-15.34 78.867c-.133.685.047 1.393.492 1.932.444.538 1.106.85 1.805.85h17.193c1.12 0 2.082-.792 2.296-1.89l3.71-19.076h12.797c6.717 0 12.358-.73 16.764-2.162 4.506-1.464 8.65-3.946 12.304-7.363 2.952-2.71 5.392-5.745 7.27-9.02l-3.065 15.76c-.135.685.045 1.393.49 1.932.444.538 1.106.85 1.805.85h17.058c1.12 0 2.082-.792 2.296-1.89l8.418-43.29h11.704c4.988 0 6.448.992 6.844 1.42.36.388 1.11 1.76.27 6.083l-6.785 34.896c-.133.685.048 1.393.492 1.93.444.54 1.107.853 1.805.853h17.33c1.12 0 2.08-.795 2.295-1.893zM317.06 72.224c-1.07 5.5-3.09 9.426-6 11.665-2.957 2.274-7.688 3.428-14.06 3.428h-7.62l5.51-28.332h9.85c7.24 0 10.155 1.546 11.326 2.843 1.624 1.797 1.968 5.392.996 10.393zM469.09 50.49c-5.005-5.722-12.92-8.624-23.525-8.624h-33.06c-1.122 0-2.085.793-2.3 1.892l-15.34 78.865c-.132.685.05 1.393.493 1.932.444.538 1.106.85 1.805.85h17.193c1.12 0 2.083-.792 2.296-1.89l3.71-19.076h12.8c6.716 0 12.357-.73 16.763-2.162 4.504-1.464 8.65-3.946 12.303-7.363 3.048-2.8 5.556-5.942 7.457-9.338 1.897-3.393 3.26-7.18 4.053-11.256 1.955-10.047.39-18.064-4.65-23.83zm-17.832 21.734c-1.072 5.5-3.09 9.426-6 11.665-2.96 2.274-7.69 3.428-14.062 3.428h-7.62l5.51-28.332h9.852c7.238 0 10.153 1.546 11.324 2.843 1.623 1.797 1.968 5.392.997 10.393h-.002z"
					fill="#FFF" />
				<path
					d="M304.74 56.65c6.533 0 10.886 1.203 13.062 3.613 2.175 2.41 2.694 6.546 1.556 12.408-1.19 6.104-3.477 10.46-6.87 13.072-3.393 2.61-8.556 3.913-15.49 3.913h-10.455l6.42-33.007h11.78-.002zm-41.89 66.418h17.192l4.08-20.967h14.726c6.498 0 11.843-.68 16.04-2.045 4.196-1.362 8.01-3.65 11.444-6.862 2.88-2.644 5.21-5.564 6.996-8.756 1.784-3.19 3.05-6.71 3.8-10.562 1.82-9.348.446-16.63-4.115-21.846-4.56-5.217-11.816-7.825-21.762-7.825h-33.06l-15.34 78.863zm86.905-99.832h17.058l-4.077 20.968h15.196c9.56 0 16.156 1.667 19.787 4.998 3.628 3.334 4.715 8.735 3.264 16.2l-7.137 36.7h-17.33l6.786-34.895c.773-3.97.49-6.677-.85-8.12-1.342-1.444-4.196-2.167-8.56-2.167H360.26l-8.787 45.182h-17.058l15.34-78.865zm89.182 33.413c6.532 0 10.885 1.203 13.062 3.613 2.174 2.41 2.692 6.546 1.554 12.408-1.19 6.104-3.477 10.46-6.87 13.072-3.394 2.61-8.557 3.913-15.488 3.913h-10.46l6.42-33.007h11.78zm-41.892 66.418h17.194l4.077-20.967h14.727c6.498 0 11.844-.68 16.04-2.045 4.197-1.362 8.01-3.65 11.445-6.862 2.88-2.644 5.21-5.564 6.996-8.756 1.783-3.19 3.05-6.71 3.8-10.562 1.818-9.348.445-16.63-4.115-21.846-4.56-5.217-11.815-7.825-21.762-7.825h-33.062l-15.34 78.865v-.002z"
					fill="#00010E" />
			</g>
			</g>
	</svg>
