<svg class="ga-svgicon" viewBox="0 0 72 76" xmlns="http://www.w3.org/2000/svg">
		<g fill="none" fill-rule="evenodd">
			<path d="M27.713 1l1.732-1L71.88 24.5l-1.732 1L27.713 1z" fill="#F1F5F6" />
			<path d="M70.148 59.5l1.732-1v-34l-1.732 1v34z" fill="#91989C" />
			<path d="M70.148 59.5v-34L27.713 1v34l42.435 24.5z" fill="#233037" />
			<path d="M0 49l41.57 24L69.28 57l-41.57-24L0 49z" fill="#F1F5F6" />
			<path d="M17.32 57l8.66-5 10.393 6-8.66 5-10.392-6zM0 52l41.57 24v-3L0 49v3z" fill="#C6CDD0" />
			<path d="M69.282 57v3L41.57 76v-3L69.28 57M17.32 59v1l6.93 4v-1l-6.93-4z" fill="#91989C" />
			<path d="M32.91 36l-1.733 1 31.177 18 1.732-1L32.91 36z" fill="#4E5255" />
			<path d="M25.98 36l3.465 2L8.66 50l-3.464-2L25.98 36z" fill="#C6CDD0" />
			<path
				d="M31.177 39l-1.732 1 1.732 1 1.732-1-1.733-1zM34.64 41l-1.73 1 1.73 1 1.733-1-1.732-1zM38.105 43l-1.732 1 1.732 1 1.732-1-1.732-1zM41.57 45l-1.733 1 1.732 1 1.73-1-1.73-1zM45.033 47L43.3 48l1.733 1 1.732-1-1.732-1zM48.497 49l-1.732 1 1.732 1 1.732-1-1.733-1zM51.962 51l-1.733 1 1.732 1 1.732-1-1.732-1zM55.426 53l-1.732 1 1.732 1 1.732-1-1.732-1zM27.713 41l-1.732 1 3.465 2 1.732-1-3.464-2zM32.91 44l-1.733 1 1.732 1 1.73-1-1.73-1zM36.373 46l-1.732 1 1.733 1 1.732-1-1.732-1zM39.837 48l-1.732 1 1.732 1 1.732-1-1.733-1zM43.3 50l-1.73 1 1.73 1 1.733-1-1.732-1zM46.765 52l-1.732 1 1.732 1 1.732-1-1.732-1zM24.25 43l-1.733 1 5.196 3 1.732-1-5.196-3z"
				fill="#4E5255" />
			<path
				d="M27.713 45l-1.732 1 1.733 1 1.732-1-1.732-1zM31.177 47l-1.732 1 1.732 1 1.732-1-1.733-1zM34.64 49l-1.73 1 1.73 1 1.733-1-1.732-1zM38.105 51l-1.732 1 1.732 1 1.732-1-1.732-1zM41.57 53l-1.733 1 1.732 1 1.73-1-1.73-1zM45.033 55L43.3 56l1.733 1 1.732-1-1.732-1zM20.785 45l-1.732 1 1.732 1 1.732-1-1.732-1zM24.25 47l-1.733 1 2.598 1.5 1.732-1L24.25 47zM27.713 49l-1.732 1 12.125 7 1.732-1-12.124-7zM40.703 56.5l-1.732 1 2.6 1.5 1.73-1-2.597-1.5zM45.033 59L43.3 60l1.733 1 1.732-1-1.732-1z"
				fill="#4E5255" />
			<path d="M60.622 56l3.464 2L43.3 70l-3.463-2 20.785-12z" fill="#C6CDD0" />
			<path d="M48.497 55l1.732-1 3.464 2-5.197 3-1.732-1 3.464-2-1.733-1z" fill="#4E5255" />
		</g>
</svg>
