<svg class="ga-svgicon" viewBox="0 0 71 78" xmlns="http://www.w3.org/2000/svg">
			<g fill="none" fill-rule="evenodd">
			<path d="M44.454 66.25l-41.57-24-2.597 1.5 41.57 24 2.597-1.5z" fill="#DAE0E3" />
			<path d="M70.435 53.25l-41.57-23-24.248 13 39.837 23v2l25.98-15z" fill="#233037" />
			<path d="M70.435 53.25v6l-28.58 16.5v-6l28.58-16.5z" fill="#4E5255" />
			<path d="M.287 53.75l41.57 24v-10l-41.57-24v10z" fill="#A9B1B3" />
			<path d="M12.41 52.75l-10.39-6v6l10.39 6v-6" fill="#3E4448" />
			<path d="M12.41 52.75l-10.39-6v6l10.39 6v-6" />
			<path d="M12.41 58.75l-2.597-5.5-1.732 1-.865-2.5-2.598 1.5-1.732-5-1.732 1" stroke="#19CF30"
				stroke-linejoin="round" />
			<path d="M40.124 69.75l-1.732-1v1l1.732 1v-1z" fill="#19CF30" />
			<path d="M40.124 69.75l-1.732-1v1l1.732 1v-1z" fill="#19CF30" />
			<path d="M40.124 71.75l-1.732-1v1l1.732 1v-1z" fill="#FED900" />
			<path d="M40.124 73.75l-1.732-1v1l1.732 1v-1z" fill="#F6264B" />
			<path d="M41.856 77.75l2.598-1.5v-10l-2.598 1.5v10z" fill="#F1F5F6" />
			<path
				d="M34.928 65.75v2l-1.732-1v-2l1.732 1zM32.33 64.25v2l-1.732-1v-2l1.732 1zM29.732 62.75v2l-1.732-1v-2l1.732 1zM27.134 61.25v2l-1.732-1v-2l1.732 1zM34.75 69.647v2l-1.732-1v-2l1.732 1zM32.152 68.147v2l-1.732-1v-2l1.732 1zM29.554 66.647v2l-1.732-1v-2l1.732 1zM26.956 65.147v2l-1.732-1v-2l1.732 1zM23.67 59.25v2l-1.732-1v-2l1.732 1zM21.072 57.75v2l-1.732-1v-2l1.732 1zM18.474 56.25v2l-1.732-1v-2l1.732 1zM15.875 54.75v2l-1.732-1v-2l1.732 1zM23.492 63.147v2l-1.732-1v-2l1.732 1zM20.894 61.647v2l-1.732-1v-2l1.732 1zM18.296 60.147v2l-1.732-1v-2l1.732 1zM15.698 58.647v2l-1.732-1v-2l1.732 1z"
				fill="#3E4448" />
			<path d="M44.454 51.25l-41.57-24-2.597 1.5 41.57 24 2.597-1.5z" fill="#DAE0E3" />
			<path d="M70.435 38.25l-41.57-23-24.248 13 39.837 23v2l25.98-15z" fill="#233037" />
			<path d="M70.435 38.25v6l-28.58 16.5v-6l28.58-16.5z" fill="#4E5255" />
			<path d="M.287 38.75l41.57 24v-10l-41.57-24v10z" fill="#A9B1B3" />
			<path d="M12.41 37.75l-10.39-6v6l10.39 6v-6" fill="#3E4448" />
			<path d="M12.41 37.75l-10.39-6v6l10.39 6v-6" />
			<path d="M12.41 43.75l-2.597-5.5-1.732 1-.865-2.5-2.598 1.5-1.732-5-1.732 1" stroke="#19CF30"
				stroke-linejoin="round" />
			<path d="M40.124 54.75l-1.732-1v1l1.732 1v-1z" fill="#19CF30" />
			<path d="M40.124 54.75l-1.732-1v1l1.732 1v-1z" fill="#19CF30" />
			<path d="M40.124 56.75l-1.732-1v1l1.732 1v-1z" fill="#FED900" />
			<path d="M40.124 58.75l-1.732-1v1l1.732 1v-1z" fill="#F6264B" />
			<path d="M41.856 62.75l2.598-1.5v-10l-2.598 1.5v10z" fill="#F1F5F6" />
			<path
				d="M34.928 50.75v2l-1.732-1v-2l1.732 1zM32.33 49.25v2l-1.732-1v-2l1.732 1zM29.732 47.75v2l-1.732-1v-2l1.732 1zM27.134 46.25v2l-1.732-1v-2l1.732 1zM34.75 54.647v2l-1.732-1v-2l1.732 1zM32.152 53.147v2l-1.732-1v-2l1.732 1zM29.554 51.647v2l-1.732-1v-2l1.732 1zM26.956 50.147v2l-1.732-1v-2l1.732 1zM23.67 44.25v2l-1.732-1v-2l1.732 1zM21.072 42.75v2l-1.732-1v-2l1.732 1zM18.474 41.25v2l-1.732-1v-2l1.732 1zM15.875 39.75v2l-1.732-1v-2l1.732 1zM23.492 48.147v2l-1.732-1v-2l1.732 1zM20.894 46.647v2l-1.732-1v-2l1.732 1zM18.296 45.147v2l-1.732-1v-2l1.732 1zM15.698 43.647v2l-1.732-1v-2l1.732 1z"
				fill="#3E4448" />
			<path d="M44.454 36.25l-41.57-24-2.597 1.5 41.57 24 2.597-1.5z" fill="#DAE0E3" />
			<path d="M70.435 23.25l-41.57-23-24.248 13 39.837 23v2l25.98-15z" fill="#233037" />
			<path d="M70.435 23.25v6l-28.58 16.5v-6l28.58-16.5z" fill="#4E5255" />
			<path d="M.287 23.75l41.57 24v-10l-41.57-24v10z" fill="#A9B1B3" />
			<path d="M12.41 22.75l-10.39-6v6l10.39 6v-6" fill="#3E4448" />
			<path d="M12.41 22.75l-10.39-6v6l10.39 6v-6" />
			<path d="M12.41 28.75l-2.597-5.5-1.732 1-.865-2.5-2.598 1.5-1.732-5-1.732 1" stroke="#19CF30"
				stroke-linejoin="round" />
			<path d="M40.124 39.75l-1.732-1v1l1.732 1v-1z" fill="#19CF30" />
			<path d="M40.124 39.75l-1.732-1v1l1.732 1v-1z" fill="#19CF30" />
			<path d="M40.124 41.75l-1.732-1v1l1.732 1v-1z" fill="#FED900" />
			<path d="M40.124 43.75l-1.732-1v1l1.732 1v-1z" fill="#F6264B" />
			<path d="M41.856 47.75l2.598-1.5v-10l-2.598 1.5v10z" fill="#F1F5F6" />
			<path
				d="M34.928 35.75v2l-1.732-1v-2l1.732 1zM32.33 34.25v2l-1.732-1v-2l1.732 1zM29.732 32.75v2l-1.732-1v-2l1.732 1zM27.134 31.25v2l-1.732-1v-2l1.732 1zM34.75 39.647v2l-1.732-1v-2l1.732 1zM32.152 38.147v2l-1.732-1v-2l1.732 1zM29.554 36.647v2l-1.732-1v-2l1.732 1zM26.956 35.147v2l-1.732-1v-2l1.732 1zM23.67 29.25v2l-1.732-1v-2l1.732 1zM21.072 27.75v2l-1.732-1v-2l1.732 1zM18.474 26.25v2l-1.732-1v-2l1.732 1zM15.875 24.75v2l-1.732-1v-2l1.732 1zM23.492 33.147v2l-1.732-1v-2l1.732 1zM20.894 31.647v2l-1.732-1v-2l1.732 1zM18.296 30.147v2l-1.732-1v-2l1.732 1zM15.698 28.647v2l-1.732-1v-2l1.732 1z"
				fill="#3E4448" />
			</g>
			</svg>
