<svg class="ga-svgimg" viewBox="0 0 756 800" xmlns="http://www.w3.org/2000/svg">
			<g fill="none" fill-rule="evenodd">
			<g class="delayed">
				<path d="M27.07 386.97L0 83.35h297.45l-27.098 303.57-121.81 33.77L27.07 386.97z" fill="#E45126" />
				<path d="M148.725 394.878l98.427-27.287 23.158-259.414H148.725V394.88z" fill="#F1682B" />
				<path
					d="M148.725 220.784H99.45l-3.404-38.132h52.68v-37.24H55.35l.892 9.992 9.152 102.616h83.33v-37.236zm0 96.706l-.163.048-41.472-11.2-2.652-29.697h-37.38l5.217 58.47 76.278 21.175.172-.05v-38.743z"
					fill="#EBEBEB" />
				<path
					d="M27.675.838H46.6v18.696h17.31V.838h18.925v56.618H63.91V38.498H46.6v18.958H27.676V.838zm80.045 18.776H91.06V.84h52.25v18.774h-16.666v37.843H107.72V19.614zM151.604.838h19.733l12.137 19.894L195.6.838h19.74v56.618h-18.846V29.393l-13.02 20.13h-.326l-13.028-20.13v28.063h-18.517V.838zm73.154 0h18.93V38.74h26.61v18.715h-45.54V.838z"
					fill="#fefefe" />
				<path
					d="M148.596 220.784v37.236h45.854l-4.322 48.292-41.532 11.212v38.743l76.34-21.16.56-6.29 8.75-98.034.908-10h-86.558zm0-75.37v37.24h89.947l.747-8.37 1.696-18.88.89-9.99h-93.28z"
					fill="#FFF" />
			</g>
			<g class="delayed">
				<path
					d="M691.643 16.385h-24.69l25.676 27.86v13.26h-52.885V41.978h25.67l-25.67-27.86V.838h51.897v15.546zm-62.378 0h-24.69l25.675 27.86v13.26h-52.883V41.978h25.672l-25.674-27.86V.838h51.898v15.546zm-61.77.63h-26.64V41.33h26.64v16.174h-45.572V.838h45.573v16.178z"
					fill="#fefefe" />
				<path d="M485.62 386.994l-27.07-303.62H756l-27.097 303.57-121.81 33.77-121.473-33.72z"
					fill="#1673B6" />
				<path d="M607.276 394.904l98.427-27.29L728.86 108.2H607.276v286.704z" fill="#35A9DB" />
				<path
					d="M607.275 218.2h49.276l3.404-38.132h-52.678v-37.24h93.375l-.89 9.992-9.154 102.616h-83.33V218.2z"
					fill="#FFF" />
				<path
					d="M607.498 314.907l-.162.047-41.473-11.2-2.65-29.697h-37.38l5.217 58.468 76.276 21.176.172-.047v-38.745z"
					fill="#EBEBEB" />
				<path d="M653.386 253.86l-4.485 49.87-41.53 11.21v38.742l76.34-21.157.56-6.29 6.477-72.376h-37.36z"
					fill="#FFF" />
				<path
					d="M607.404 142.83v37.237h-89.948l-.745-8.37-1.695-18.877-.89-9.99h93.28zm-.13 75.374v37.236h-40.947l-.745-8.367-1.697-18.878-.89-9.99h44.28z"
					fill="#EBEBEB" />
			</g>
			<g class="delayed">
				<path d="M253.345 765.754l-27.07-303.622h297.45l-27.098 303.573-121.81 33.77-121.472-33.72z"
					fill="#E4A227" />
				<path d="M374.75 773.287L473.178 746l23.158-259.417H374.75v286.704z" fill="#F0BF26" />
				<path
					d="M427.936 395.07h-24.69l25.676 27.86v13.26H376.04v-15.525h25.67l-25.67-27.86v-13.28h51.896v15.546z"
					fill="#fefefe" />
				<path d="M366.62 379.55v56.617h-45.54v-18.714h26.613V379.55h18.93z" fill="#fefefe" />
				<path
					d="M374.693 695.926l-.162.047-41.47-11.2-2.653-29.698h-37.38l5.217 58.468 76.277 21.176.174-.05v-38.745zm5.017-59.49V599.2h-45.855l5.377-58.442 40.58-1.08-.103-38.724h-74.146l-2.754 27.45-8.75 98.034-.91 10h86.56z"
					fill="#EBEBEB" />
				<path
					d="M379.457 539.73l.163-.047 40.67 2.45 3.452 38.446h37.38l-6.513-71.948-74.98-7.696-.174.048v38.744z"
					fill="#FFF" />
				<path
					d="M457.284 539.843l-3.19-38.89H375.49v38.89h81.794m-82.72 59.375v37.236h45.854l-4.322 48.294-41.532 11.21V734.7l76.34-21.156.56-6.29 8.75-98.036.91-10h-86.56z"
					fill="#FFF" />
			</g>
			</g>
			</svg>
