<svg xmlns="http://www.w3.org/2000/svg" xmlns:xlink="http://www.w3.org/1999/xlink" viewBox="0 0 500 500" width="500" height="500" preserveAspectRatio="xMidYMid meet" style="width: 100%; height: 100%; transform: translate3d(0px, 0px, 0px); content-visibility: visible;"><defs><clipPath id="__lottie_element_687"><rect width="500" height="500" x="0" y="0"></rect></clipPath><clipPath id="__lottie_element_689"><path d="M0,0 L500,0 L500,500 L0,500z"></path></clipPath></defs><g clip-path="url(#__lottie_element_687)"><g clip-path="url(#__lottie_element_689)" transform="matrix(1,0,0,1,0,0)" opacity="1" style="display: block;"><g id="Layer_1-2" transform="matrix(0.19930888712406158,0.004032280761748552,-0.004032280761748552,0.19930888712406158,136.32379150390625,141.6167755126953)" opacity="1" style="display: block;"><g opacity="1" transform="matrix(1,0,0,1,0,0)"><path fill="rgb(120,87,75)" fill-opacity="1" d=" M195.47999572753906,1576.199951171875 C194.0500030517578,1581.0899658203125 192.58999633789062,1585.9599609375 191.24000549316406,1590.8699951171875 C191.05999755859375,1591.52001953125 191.4499969482422,1592.3299560546875 191.5800018310547,1593.06005859375 C192.13999938964844,1592.72998046875 192.83999633789062,1592.52001953125 193.24000549316406,1592.06005859375 C206.27000427246094,1577.239990234375 223.83999633789062,1569.8699951171875 241.57000732421875,1562.969970703125 C284.54998779296875,1546.239990234375 329.2699890136719,1540.18994140625 375.1400146484375,1542.9100341796875 C410.7699890136719,1545.030029296875 445.67999267578125,1551.77001953125 478.6099853515625,1565.6700439453125 C505.9800109863281,1577.22998046875 532.9600219726562,1577.3299560546875 561.2000122070312,1570 C585.8099975585938,1563.6099853515625 610.72998046875,1557.9000244140625 635.8499755859375,1554.1700439453125 C670.9199829101562,1548.9599609375 706.3200073242188,1547.0699462890625 741.8300170898438,1550.56005859375 C773.5,1553.6700439453125 804.760009765625,1558.550048828125 834.4500122070312,1570.5400390625 C842.6199951171875,1573.8399658203125 850.760009765625,1576.8499755859375 859.5599975585938,1577.800048828125 C860.1500244140625,1577.8599853515625 861.02001953125,1578 861.22998046875,1578.3900146484375 C863.6699829101562,1582.8699951171875 866.760009765625,1587.1800537109375 868.22998046875,1591.969970703125 C871.9400024414062,1604.030029296875 874.7000122070312,1616.3800048828125 878.219970703125,1628.510009765625 C890.5499877929688,1671.0400390625 900.1599731445312,1714.1400146484375 905.239990234375,1758.1600341796875 C906.6799926757812,1770.5799560546875 906.8800048828125,1783.1400146484375 907.780029296875,1795.6199951171875 C908.0499877929688,1799.31005859375 906.219970703125,1800.27001953125 903.1199951171875,1799.7099609375 C881.75,1795.8399658203125 860.3400268554688,1799.3399658203125 838.9600219726562,1799.2900390625 C830.9000244140625,1799.27001953125 822.8400268554688,1799.780029296875 814.780029296875,1799.719970703125 C732.780029296875,1799.1700439453125 650.780029296875,1798.5 568.780029296875,1797.9599609375 C511.6600036621094,1797.5799560546875 454.5299987792969,1796.97998046875 397.4100036621094,1797.1600341796875 C338.57000732421875,1797.3499755859375 279.7300109863281,1798.3499755859375 220.89999389648438,1799.030029296875 C199.80999755859375,1799.27001953125 178.7100067138672,1799.6400146484375 157.6199951171875,1799.9200439453125 C153.25,1799.97998046875 148.86000061035156,1800.0799560546875 144.52999877929688,1799.6800537109375 C143.49000549316406,1799.5799560546875 141.9600067138672,1797.5899658203125 141.83999633789062,1796.3499755859375 C141.5399932861328,1793.31005859375 141.83999633789062,1790.18994140625 142.0500030517578,1787.1099853515625 C144.77000427246094,1746.0699462890625 154.33999633789062,1706.3699951171875 165.75999450683594,1667.050048828125 C173.35000610351562,1640.9200439453125 181.16000366210938,1614.8599853515625 188.99000549316406,1588.81005859375 C190.33999633789062,1584.31005859375 192.33999633789062,1580 194.0399932861328,1575.5999755859375 C194.52000427246094,1575.800048828125 195.00999450683594,1576 195.49000549316406,1576.18994140625 C195.49000549316406,1576.18994140625 195.47999572753906,1576.199951171875 195.47999572753906,1576.199951171875z"></path></g><g opacity="1" transform="matrix(1,0,0,1,0,0)"><path fill="rgb(245,223,214)" fill-opacity="1" d=" M551.02001953125,1600.0400390625 C497.30999755859375,1599.4100341796875 443.6099853515625,1598.4599609375 389.8999938964844,1598.260009765625 C345.2799987792969,1598.0999755859375 300.6600036621094,1599.3800048828125 256.04998779296875,1598.9300537109375 C234.8699951171875,1598.7099609375 213.72000122070312,1595.9300537109375 192.55999755859375,1594.300048828125 C192.22000122070312,1594.27001953125 191.89999389648438,1594.0799560546875 191.55999755859375,1594.0699462890625 C185.38999938964844,1593.8399658203125 185.08999633789062,1593.5699462890625 187.0800018310547,1587.0999755859375 C197.75999450683594,1552.3399658203125 205.89999389648438,1516.969970703125 212.22999572753906,1481.199951171875 C215.36000061035156,1463.5 217.92999267578125,1445.6600341796875 219.7100067138672,1427.780029296875 C220.41000366210938,1420.699951171875 218.2899932861328,1413.3299560546875 217.44000244140625,1406.0899658203125 C214.3800048828125,1379.8299560546875 214.25999450683594,1353.719970703125 221.5800018310547,1328.030029296875 C236.57000732421875,1275.4599609375 272.0899963378906,1244.9000244140625 324.4700012207031,1232.6600341796875 C354.2200012207031,1225.7099609375 384.32000732421875,1226.6800537109375 414.4100036621094,1229.5799560546875 C427.5899963378906,1230.8499755859375 440.75,1232.5 453.8399963378906,1234.489990234375 C470.3699951171875,1237.010009765625 486.7900085449219,1240.2099609375 503.30999755859375,1242.8299560546875 C521.6199951171875,1245.72998046875 539.9600219726562,1248.47998046875 558.3300170898438,1250.989990234375 C599.4600219726562,1256.6199951171875 639,1252.3699951171875 676.5900268554688,1233.2099609375 C700.6500244140625,1220.949951171875 725.260009765625,1209.719970703125 751.4199829101562,1202.3299560546875 C775.9299926757812,1195.4100341796875 800.760009765625,1192.3399658203125 826.1400146484375,1195.280029296875 C872.4099731445312,1200.6400146484375 910.22998046875,1222.31005859375 942.0800170898438,1255.510009765625 C960.6699829101562,1274.8800048828125 977.5599975585938,1295.5400390625 991.3099975585938,1318.6700439453125 C992.8499755859375,1321.25 995.0700073242188,1323.4300537109375 996.969970703125,1325.800048828125 C996.989990234375,1322.8699951171875 997.1500244140625,1319.93994140625 996.989990234375,1317.02001953125 C996.6099853515625,1309.8299560546875 996.02001953125,1302.6600341796875 995.6699829101562,1295.469970703125 C995.5999755859375,1294.1400146484375 996.2100219726562,1292.780029296875 996.510009765625,1291.4300537109375 C997.219970703125,1292.6400146484375 998.3499755859375,1293.780029296875 998.5900268554688,1295.0699462890625 C1000.25,1304.3499755859375 1001.6900024414062,1313.6600341796875 1003.25,1322.949951171875 C1009.010009765625,1357.1700439453125 1004.4600219726562,1389.8499755859375 988.7999877929688,1420.9200439453125 C969.6199951171875,1458.949951171875 938.260009765625,1480.47998046875 896.9099731445312,1487.800048828125 C882.5999755859375,1490.3299560546875 867.989990234375,1491.1500244140625 853.510009765625,1492.6800537109375 C847.1699829101562,1493.3499755859375 847.2899780273438,1493.239990234375 848.510009765625,1499.300048828125 C852.5800170898438,1519.449951171875 856.4600219726562,1539.6400146484375 860.5999755859375,1559.77001953125 C862.5599975585938,1569.3299560546875 864.8900146484375,1578.81005859375 867.1599731445312,1588.31005859375 C868.8200073242188,1595.280029296875 867.5,1597.02001953125 860.3699951171875,1597.06005859375 C792.4199829101562,1597.4300537109375 724.469970703125,1597.5999755859375 656.530029296875,1598.2900390625 C621.3599853515625,1598.6500244140625 586.2000122070312,1599.93994140625 551.0399780273438,1600.81005859375 C551.0399780273438,1600.550048828125 551.0399780273438,1600.2900390625 551.030029296875,1600.0400390625 C551.030029296875,1600.0400390625 551.02001953125,1600.0400390625 551.02001953125,1600.0400390625z"></path></g><g opacity="1" transform="matrix(1,0,0,1,0,0)"><path fill="rgb(147,73,41)" fill-opacity="1" d=" M429.7900085449219,0 C465.17999267578125,0.6100000143051147 494.1300048828125,6.139999866485596 522.8099975585938,13.75 C529.97998046875,15.649999618530273 537.6400146484375,16.1299991607666 545.1099853515625,16.3700008392334 C566.8599853515625,17.06999969482422 585.760009765625,24.969999313354492 602.739990234375,38.099998474121094 C632.8900146484375,61.41999816894531 653.5599975585938,90.83999633789062 659.9000244140625,128.99000549316406 C661.5900268554688,139.17999267578125 662.1400146484375,149.7100067138672 661.8499755859375,160.0500030517578 C661.3900146484375,176.19000244140625 666.72998046875,189.6300048828125 676.5800170898438,202.19000244140625 C686.1799926757812,214.42999267578125 695.8300170898438,226.9199981689453 703.22998046875,240.52000427246094 C720.22998046875,271.7699890136719 719.8499755859375,304.8900146484375 710.6099853515625,338.45001220703125 C707.97998046875,348.010009765625 705.530029296875,357.6400146484375 703.469970703125,367.3500061035156 C701.6300048828125,376.010009765625 702.989990234375,384.510009765625 707.219970703125,392.2900085449219 C710.6400146484375,398.6000061035156 714.3300170898438,404.80999755859375 718.3800048828125,410.739990234375 C736.719970703125,437.6000061035156 744.9500122070312,467.0899963378906 743.0700073242188,499.6600036621094 C740.72998046875,540.1199951171875 711.8499755859375,576.989990234375 674.22998046875,586.47998046875 C657.9199829101562,590.5900268554688 641.5700073242188,589.25 625.22998046875,586.6300048828125 C620.5,585.8699951171875 615.7899780273438,584.97998046875 611.0499877929688,584.22998046875 C604.1099853515625,583.1400146484375 597.8800048828125,585.1900024414062 591.8800048828125,588.52001953125 C581.780029296875,594.1199951171875 571.280029296875,598.4500122070312 559.5700073242188,599.530029296875 C536.9500122070312,601.6199951171875 515.5700073242188,596.9500122070312 495.2099914550781,587.510009765625 C476.6099853515625,578.8900146484375 457.1199951171875,575.0800170898438 436.8299865722656,575.969970703125 C408.8699951171875,577.2000122070312 382.0899963378906,584.1400146484375 356.1600036621094,594.47998046875 C353.989990234375,595.3499755859375 352.0899963378906,596.97998046875 350.1700134277344,598.4000244140625 C328.8800048828125,614.27001953125 305.0199890136719,622.469970703125 278.489990234375,619.760009765625 C261.2699890136719,618.010009765625 244.8300018310547,612.510009765625 229.7100067138672,603.6099853515625 C206.10000610351562,589.7000122070312 185.27000427246094,572.760009765625 173.49000549316406,547.3900146484375 C168.36000061035156,536.3400268554688 165.6300048828125,524.1199951171875 162.33999633789062,512.280029296875 C159.97999572753906,503.79998779296875 157.58999633789062,495.5199890136719 152.00999450683594,488.45001220703125 C134.30999755859375,466.010009765625 130.0399932861328,440.07000732421875 131.67999267578125,412.32000732421875 C133.8800048828125,375.239990234375 150.24000549316406,344.3699951171875 172.5399932861328,315.9200134277344 C173.9199981689453,314.1700134277344 175.1699981689453,312.30999755859375 176.63999938964844,310.6400146484375 C184.8800048828125,301.2799987792969 188,290.2799987792969 188.0800018310547,277.95001220703125 C188.19000244140625,261.1499938964844 188.30999755859375,244.3000030517578 189.47000122070312,227.5500030517578 C191.0800018310547,204.3699951171875 198.13999938964844,182.50999450683594 208.39999389648438,161.75999450683594 C231.61000061035156,114.8499984741211 262.42999267578125,73.9000015258789 304.2699890136719,41.939998626708984 C331.6199951171875,21.049999237060547 362.5799865722656,8.300000190734863 396.6400146484375,3.440000057220459 C409.4599914550781,1.6100000143051147 422.42999267578125,0.75 429.7799987792969,0.009999999776482582 C429.7799987792969,0.009999999776482582 429.7900085449219,0 429.7900085449219,0z"></path></g><g opacity="1" transform="matrix(1,0,0,1,0,0)"><path fill="rgb(255,182,157)" fill-opacity="1" d=" M278.19000244140625,1285.9300537109375 C298.2699890136719,1284.6700439453125 317.55999755859375,1289.010009765625 336.8900146484375,1293.6099853515625 C345.6499938964844,1295.68994140625 354.8399963378906,1295.9000244140625 363.69000244140625,1297.6700439453125 C371.7099914550781,1299.280029296875 379.5299987792969,1301.8599853515625 387.44000244140625,1304.010009765625 C388.2300109863281,1304.219970703125 389.1600036621094,1304.68994140625 389.8299865722656,1304.4599609375 C395.9200134277344,1302.31005859375 401.57000732421875,1304.1700439453125 407.20001220703125,1306.2099609375 C418.1199951171875,1310.1800537109375 429.07000732421875,1314.0799560546875 439.9200134277344,1318.219970703125 C464.6300048828125,1327.6600341796875 490.25,1330.31005859375 516.489990234375,1329.1400146484375 C535.3400268554688,1328.300048828125 554.219970703125,1328.0899658203125 573.0700073242188,1327.2900390625 C589.1599731445312,1326.6099853515625 605.25,1325.6300048828125 621.3200073242188,1324.5400390625 C629.3599853515625,1324 629.4400024414062,1323.72998046875 631.719970703125,1331.6800537109375 C642.510009765625,1369.3699951171875 653.239990234375,1407.0699462890625 663.969970703125,1444.780029296875 C664.989990234375,1448.3699951171875 666.0800170898438,1451.989990234375 666.6099853515625,1455.6600341796875 C666.780029296875,1456.8699951171875 665.5900268554688,1459.010009765625 664.47998046875,1459.5 C662.3599853515625,1460.4300537109375 659.8400268554688,1460.9300537109375 657.52001953125,1460.8199462890625 C641.9400024414062,1460.030029296875 626.3200073242188,1459.6300048828125 610.8200073242188,1457.97998046875 C554.989990234375,1452.0400390625 499.4599914550781,1444.0699462890625 444.6400146484375,1431.6800537109375 C427.44000244140625,1427.7900390625 410.239990234375,1426.25 393.2699890136719,1433.3599853515625 C389.2200012207031,1435.06005859375 384.739990234375,1435.8900146484375 380.3699951171875,1436.6800537109375 C363.55999755859375,1439.72998046875 346.8900146484375,1440.8199462890625 330.0299987792969,1435.8900146484375 C322.0899963378906,1433.5699462890625 313.3699951171875,1434.050048828125 305.1700134277344,1432.4100341796875 C294.2900085449219,1430.239990234375 283.5799865722656,1427.2099609375 272.7799987792969,1424.6099853515625 C271.239990234375,1424.239990234375 269.6300048828125,1424.1500244140625 268.04998779296875,1423.9300537109375 C269.3900146484375,1425 270.6099853515625,1426.300048828125 272.0899963378906,1427.1099853515625 C275.54998779296875,1428.97998046875 279.19000244140625,1430.510009765625 282.6700134277344,1432.3399658203125 C290.79998779296875,1436.6199951171875 294.1199951171875,1441.5899658203125 292.7900085449219,1447.27001953125 C291.3800048828125,1453.3199462890625 283.8500061035156,1459.6300048828125 276.32000732421875,1458.9100341796875 C267.07000732421875,1458.02001953125 257.45001220703125,1456.6400146484375 248.94000244140625,1453.1600341796875 C226.16000366210938,1443.8299560546875 203.2899932861328,1434.4599609375 183.66000366210938,1418.9300537109375 C179.14999389648438,1415.3599853515625 173.42999267578125,1413.3299560546875 168.80999755859375,1409.8599853515625 C155.39999389648438,1399.800048828125 152.49000549316406,1390.27001953125 157.30999755859375,1374.3900146484375 C157.5500030517578,1373.6099853515625 157.7100067138672,1372.8199462890625 157.91000366210938,1372.030029296875 C156.9600067138672,1372.0899658203125 155.97000122070312,1372 155.05999755859375,1372.219970703125 C139.42999267578125,1375.93994140625 123.86000061035156,1379.9000244140625 108.16999816894531,1383.3399658203125 C103.7300033569336,1384.31005859375 98.93000030517578,1384.25 94.3499984741211,1383.9000244140625 C85.75,1383.25 81.79000091552734,1375.6400146484375 86.08999633789062,1368.25 C91.18000030517578,1359.5 99.41999816894531,1354.1500244140625 107.72000122070312,1348.9100341796875 C109.98999786376953,1347.47998046875 112.18000030517578,1345.9300537109375 114.41000366210938,1344.43994140625 C111.68000030517578,1344.5799560546875 108.93000030517578,1344.6099853515625 106.20999908447266,1344.8699951171875 C99.4000015258789,1345.5 92.5999984741211,1346.5699462890625 85.7699966430664,1346.780029296875 C82.48999786376953,1346.8800048828125 78.91000366210938,1345.949951171875 75.88999938964844,1344.550048828125 C68.77999877929688,1341.25 67.33999633789062,1334.260009765625 73.02999877929688,1328.8900146484375 C76.80000305175781,1325.3299560546875 81.47000122070312,1322.1600341796875 86.31999969482422,1320.4200439453125 C100.77999877929688,1315.239990234375 115.33000183105469,1310.02001953125 130.2100067138672,1306.3599853515625 C150.74000549316406,1301.31005859375 171.47000122070312,1296.6099853515625 192.3800048828125,1293.6600341796875 C220.8000030517578,1289.6500244140625 249.47000122070312,1287.4200439453125 278.0299987792969,1284.4300537109375 C278.07000732421875,1284.93994140625 278.1099853515625,1285.449951171875 278.1499938964844,1285.9599609375 C278.1499938964844,1285.9599609375 278.19000244140625,1285.9300537109375 278.19000244140625,1285.9300537109375z"></path></g><g opacity="1" transform="matrix(1,0,0,1,0,0)"><path fill="rgb(255,182,157)" fill-opacity="1" d=" M659.75,684.6799926757812 C636.9099731445312,678.8300170898438 613.9299926757812,673.280029296875 592.3900146484375,663.3400268554688 C573.77001953125,654.75 556.239990234375,644.4299926757812 541.7899780273438,629.5700073242188 C522.25,609.469970703125 513.719970703125,584.52001953125 510.3900146484375,557.3900146484375 C510.2300109863281,556.0900268554688 512.0499877929688,553.8900146484375 513.489990234375,553.1400146484375 C533.969970703125,542.4199829101562 551.489990234375,528.239990234375 566.2999877929688,510.3999938964844 C597,473.4200134277344 616.1099853515625,431.1099853515625 625.530029296875,384.2300109863281 C630.8099975585938,357.95001220703125 636.1699829101562,331.6400146484375 635.760009765625,304.6400146484375 C635.4600219726562,285.29998779296875 630.7000122070312,267.3599853515625 617.7899780273438,252.22999572753906 C608.2999877929688,241.10000610351562 531.3499755859375,149.22999572753906 525.4600219726562,104.62000274658203 C515.989990234375,119.41000366210938 503.6099853515625,131.07000732421875 487.54998779296875,139.17999267578125 C469.7300109863281,148.1699981689453 450.7799987792969,153.83999633789062 431.5400085449219,158.77999877929688 C424.6000061035156,160.55999755859375 417.7200012207031,162.6199951171875 410.8599853515625,164.7100067138672 C388.55999755859375,171.50999450683594 372.3900146484375,185.61000061035156 363.2099914550781,206.91000366210938 C353.9800109863281,228.3300018310547 339.4700012207031,243.86000061035156 317.55999755859375,252.30999755859375 C312.7799987792969,254.14999389648438 308.1600036621094,256.44000244140625 303.6000061035156,258.7799987792969 C297.2200012207031,262.05999755859375 290.6499938964844,265.1199951171875 284.7200012207031,269.1199951171875 C275.6199951171875,275.25 268.8500061035156,283.6400146484375 267.3599853515625,294.7799987792969 C266.0899963378906,304.25 266.1400146484375,313.8999938964844 265.79998779296875,323.4800109863281 C265.45001220703125,333.2300109863281 265.4599914550781,342.989990234375 265.0199890136719,352.7300109863281 C264.94000244140625,354.55999755859375 263.95001220703125,356.8900146484375 262.5899963378906,358.04998779296875 C254.5,364.9200134277344 250.13999938964844,373.8900146484375 247.72000122070312,383.8800048828125 C241.91000366210938,407.8599853515625 244.85000610351562,431.9700012207031 248.22000122070312,455.79998779296875 C250.3300018310547,470.7799987792969 254.80999755859375,485.489990234375 258.9599914550781,500.1099853515625 C273.4599914550781,551.2999877929688 300.3399963378906,594.2899780273438 343.6199951171875,626.219970703125 C344.45001220703125,626.8300170898438 345.4700012207031,627.4099731445312 345.8999938964844,628.25 C346.4100036621094,629.25 346.8800048828125,630.77001953125 346.4800109863281,631.6599731445312 C343.260009765625,638.7899780273438 338.489990234375,644.510009765625 330.6600036621094,646.760009765625 C324.260009765625,648.5999755859375 317.79998779296875,650.280029296875 311.2799987792969,651.6400146484375 C297.3299865722656,654.5499877929688 298.5400085449219,655.3599853515625 300.7099914550781,667.1699829101562 C304.7099914550781,688.9299926757812 311.1099853515625,709.72998046875 321.8999938964844,729.0700073242188 C323.4100036621094,731.780029296875 323.2300109863281,733.9500122070312 322.2200012207031,736.72998046875 C318.3399963378906,747.3400268554688 314.6099853515625,758.010009765625 311.1000061035156,768.739990234375 C308.3900146484375,777.02001953125 308.3900146484375,785.52001953125 312.4100036621094,793.2999877929688 C317.80999755859375,803.77001953125 322.80999755859375,814.77001953125 330.07000732421875,823.8699951171875 C340.29998779296875,836.6799926757812 352.1400146484375,848.260009765625 363.8500061035156,859.7999877929688 C377.6000061035156,873.3499755859375 393.7099914550781,883.8800048828125 410.20001220703125,893.7899780273438 C415.3900146484375,896.9099731445312 417.9200134277344,895.8499755859375 419.80999755859375,890.1799926757812 C420.19000244140625,889.0499877929688 420.5299987792969,887.8900146484375 420.75,886.719970703125 C424.7900085449219,865.510009765625 429.0199890136719,844.3400268554688 432.67999267578125,823.0599975585938 C433.5199890136719,818.1699829101562 435.6199951171875,818.2999877929688 439.19000244140625,819.0599975585938 C458.0799865722656,823.0800170898438 477.17999267578125,825.219970703125 496.57000732421875,825.6099853515625 C507.9599914550781,824.6799926757812 519.4000244140625,824.1300048828125 530.72998046875,822.72998046875 C552.1199951171875,820.0900268554688 572.7100219726562,814.260009765625 591.7899780273438,804.1400146484375 C636.2000122070312,780.5999755859375 659.3699951171875,742.6500244140625 666.02001953125,693.5800170898438 C666.780029296875,688 665.1900024414062,686.0499877929688 659.75,684.6500244140625 C659.75,684.6500244140625 659.75,684.6799926757812 659.75,684.6799926757812z"></path></g><g opacity="1" transform="matrix(1,0,0,1,0,0)"><path fill="rgb(245,223,214)" fill-opacity="1" d=" M308.94000244140625,656.780029296875 C303.510009765625,658.5599975585938 304.44000244140625,661.72998046875 305.17999267578125,666.0999755859375 C308.94000244140625,688.22998046875 316.0400085449219,709.22998046875 324.9599914550781,729.739990234375 C325.94000244140625,732 325.1300048828125,735.3900146484375 324.3500061035156,738.02001953125 C321.1300048828125,748.8400268554688 317.20001220703125,759.4600219726562 314.30999755859375,770.3599853515625 C311.32000732421875,781.6400146484375 312.989990234375,792.6199951171875 319.75,802.3200073242188 C343.2799987792969,836.1300048828125 370.42999267578125,866.3099975585938 406.2200012207031,887.719970703125 C406.80999755859375,888.0700073242188 407.3900146484375,888.4299926757812 407.989990234375,888.760009765625 C414.1499938964844,892.1699829101562 416.1700134277344,891.4400024414062 417.3699951171875,884.4199829101562 C419.4100036621094,872.47998046875 420.8599853515625,860.4500122070312 422.80999755859375,848.5 C424.3299865722656,839.2000122070312 426.30999755859375,829.97998046875 427.94000244140625,820.7000122070312 C428.70001220703125,816.3599853515625 431.1400146484375,814.4500122070312 435.42999267578125,814.7999877929688 C444.8299865722656,815.5700073242188 454.239990234375,816.1799926757812 463.6099853515625,817.1900024414062 C487.75,819.77001953125 511.989990234375,820.3300170898438 536.0499877929688,817.739990234375 C586.25,812.3300170898438 623.4299926757812,787.0900268554688 646.8499755859375,742.0399780273438 C654.5900268554688,727.1500244140625 659.3599853515625,711.3099975585938 662.6799926757812,694.9500122070312 C664.1900024414062,687.510009765625 664.739990234375,687.27001953125 672.3200073242188,688.1199951171875 C714.1500244140625,692.8499755859375 754.3400268554688,704.1099853515625 793.0499877929688,720.1699829101562 C826.6199951171875,734.0999755859375 856.6500244140625,753.7899780273438 881.260009765625,781.0399780273438 C891.7000122070312,792.5999755859375 899.6500244140625,805.75 906.2000122070312,819.8300170898438 C912.4099731445312,833.1900024414062 918.510009765625,846.6099853515625 925.1300048828125,859.77001953125 C935.5800170898438,880.530029296875 940.22998046875,903.0499877929688 945.6400146484375,925.3300170898438 C960.52001953125,986.6799926757812 971.5599975585938,1048.77001953125 980.8699951171875,1111.1800537109375 C983.239990234375,1127.0799560546875 985.760009765625,1142.9599609375 987.8599853515625,1158.9000244140625 C989.25,1169.449951171875 989.8499755859375,1180.0999755859375 991.1199951171875,1190.6700439453125 C992.6199951171875,1203.0999755859375 994.8200073242188,1215.43994140625 996.0800170898438,1227.8900146484375 C998.0900268554688,1247.75 999.6699829101562,1267.6500244140625 1001.260009765625,1287.550048828125 C1002.1900024414062,1299.1800537109375 1002.8099975585938,1310.8299560546875 1003.530029296875,1322.47998046875 C1003.6599731445312,1324.530029296875 1003.6900024414062,1326.6099853515625 1003.530029296875,1328.6500244140625 C1003.1300048828125,1333.719970703125 1001.1300048828125,1335.469970703125 996.2000122070312,1334.81005859375 C980.52001953125,1332.699951171875 964.8599853515625,1330.4599609375 949.1900024414062,1328.31005859375 C932.510009765625,1326.02001953125 915.8099975585938,1323.8699951171875 899.1500244140625,1321.47998046875 C888.27001953125,1319.9200439453125 877.469970703125,1317.8399658203125 866.5800170898438,1316.3800048828125 C858.9000244140625,1315.3499755859375 851.1199951171875,1315.050048828125 843.4000244140625,1314.27001953125 C833.27001953125,1313.25 823.1900024414062,1311.5699462890625 813.0399780273438,1311.06005859375 C789.4000244140625,1309.8699951171875 765.739990234375,1308.7099609375 742.0800170898438,1308.550048828125 C731.760009765625,1308.47998046875 721.3900146484375,1310.699951171875 711.0999755859375,1312.25 C694.760009765625,1314.7099609375 678.4500122070312,1317.4200439453125 662.1400146484375,1320.1500244140625 C641.8900146484375,1323.550048828125 621.75,1327.7099609375 601.4199829101562,1330.4200439453125 C569.3099975585938,1334.68994140625 536.989990234375,1335.1199951171875 504.6099853515625,1334.1500244140625 C475.45001220703125,1333.27001953125 447.8900146484375,1324.9200439453125 420.2799987792969,1316.8299560546875 C399.739990234375,1310.8199462890625 379.3599853515625,1304.239990234375 359,1297.6300048828125 C355.1199951171875,1296.3699951171875 353.1300048828125,1296.699951171875 350.7699890136719,1300.3499755859375 C333.5299987792969,1326.949951171875 312.1300048828125,1349.6099853515625 286.82000732421875,1368.800048828125 C248.47000122070312,1397.8800048828125 208.39999389648438,1397.8499755859375 167.0800018310547,1376.739990234375 C138.9199981689453,1362.3499755859375 117.70999908447266,1340.0699462890625 99.69000244140625,1314.5 C74.4000015258789,1278.6099853515625 58.2400016784668,1238.56005859375 45.93000030517578,1196.739990234375 C33.470001220703125,1154.3800048828125 25.3799991607666,1111.1199951171875 19.280000686645508,1067.449951171875 C17.3700008392334,1053.760009765625 15.4399995803833,1040.050048828125 14.100000381469727,1026.2900390625 C9.550000190734863,979.6400146484375 5.190000057220459,932.969970703125 0.8799999952316284,886.2999877929688 C-4.360000133514404,829.5599975585938 13.819999694824219,779.5399780273438 47.209999084472656,735.02001953125 C68.94999694824219,706.030029296875 99.87000274658203,688.5700073242188 133.4199981689453,675.7000122070312 C164.77000427246094,663.6799926757812 197.38999938964844,659.8900146484375 230.64999389648438,659.3300170898438 C252.60000610351562,658.9600219726562 274.5400085449219,658.0599975585938 296.4800109863281,657.3599853515625 C300.6300048828125,657.22998046875 304.7699890136719,656.9600219726562 308.9200134277344,656.760009765625 C308.9200134277344,656.760009765625 308.94000244140625,656.780029296875 308.94000244140625,656.780029296875z"></path></g><g opacity="1" transform="matrix(1,0,0,1,0,0)"><path fill="rgb(217,133,102)" fill-opacity="1" d=" M280.3699951171875,379.79998779296875 C280.0400085449219,405.760009765625 286.9200134277344,430.2300109863281 295.7200012207031,454.29998779296875 C297.95001220703125,460.4100036621094 300.2099914550781,466.5299987792969 302.2099914550781,472.7200012207031 C302.6099853515625,473.95001220703125 301.8900146484375,475.5299987792969 301.69000244140625,476.95001220703125 C300.82000732421875,475.989990234375 299.6600036621094,475.1700134277344 299.1099853515625,474.04998779296875 C283.239990234375,441.6400146484375 272.25,408 273.4200134277344,371.3399963378906 C273.6700134277344,363.5 272.3900146484375,362.010009765625 264.7099914550781,360.57000732421875 C263.3399963378906,360.30999755859375 262.2200012207031,358.75 260.9800109863281,357.7900085449219 C262.0799865722656,356.42999267578125 263.20001220703125,353.94000244140625 264.2900085449219,353.95001220703125 C267.0199890136719,353.9700012207031 269.94000244140625,354.7300109863281 272.4100036621094,355.95001220703125 C274.54998779296875,357 275.2300109863281,356.94000244140625 276.010009765625,354.6600036621094 C276.94000244140625,351.9200134277344 278.1099853515625,349.20001220703125 279.55999755859375,346.70001220703125 C282.510009765625,341.6199951171875 286.7699890136719,338.4800109863281 292.989990234375,338.8399963378906 C299.2099914550781,339.20001220703125 303.6300048828125,342.30999755859375 306.42999267578125,347.7799987792969 C307.2099914550781,349.29998779296875 308.010009765625,350.8900146484375 308.32000732421875,352.5400085449219 C308.8299865722656,355.2099914550781 309.8299865722656,356.05999755859375 312.79998779296875,355.7099914550781 C319.0299987792969,354.9800109863281 323.45001220703125,358.5299987792969 326.0299987792969,363.69000244140625 C328.9200134277344,369.4800109863281 331.1000061035156,375.6600036621094 333.30999755859375,381.760009765625 C338.7300109863281,396.739990234375 343.2300109863281,412.0899963378906 349.45001220703125,426.7200012207031 C362.7099914550781,457.8999938964844 386.0899963378906,481.05999755859375 411.8399963378906,502.0299987792969 C424.6099853515625,512.4299926757812 438.2300109863281,521.8499755859375 450.3599853515625,532.9299926757812 C459.8699951171875,541.6199951171875 467.6400146484375,552.2100219726562 476.30999755859375,561.8499755859375 C477.0899963378906,562.719970703125 478.92999267578125,563.3599853515625 480.04998779296875,563.1099853515625 C488.7300109863281,561.1500244140625 497.3399963378906,558.8599853515625 506.0199890136719,556.9099731445312 C507.55999755859375,556.5599975585938 509.3500061035156,557.3300170898438 511.0199890136719,557.5900268554688 C510.0400085449219,559.1400146484375 509.3299865722656,561.72998046875 508.0299987792969,562.0700073242188 C499.95001220703125,564.1900024414062 491.7900085449219,566.1400146484375 483.54998779296875,567.4199829101562 C480.0199890136719,567.969970703125 478.79998779296875,568.5 479.6400146484375,572.280029296875 C483.4599914550781,589.4199829101562 480.8500061035156,605.9500122070312 474.9200134277344,622.27001953125 C470.9599914550781,633.1599731445312 466.8599853515625,644.1199951171875 464.3699951171875,655.3800048828125 C461.3999938964844,668.8200073242188 460.4800109863281,682.7100219726562 457.95001220703125,696.27001953125 C451.25,732.0599975585938 444.17999267578125,767.77001953125 437.19000244140625,803.510009765625 C436.6300048828125,806.3499755859375 435.6300048828125,809.1199951171875 434.6499938964844,811.8499755859375 C434.4200134277344,812.47998046875 433.3999938964844,812.8300170898438 432.75,813.2999877929688 C432.55999755859375,812.5700073242188 432.1499938964844,811.8200073242188 432.2099914550781,811.1199951171875 C432.8500061035156,804 433.2799987792969,796.8400268554688 434.3399963378906,789.780029296875 C435.7699890136719,780.25 437.739990234375,770.7999877929688 439.3999938964844,761.2999877929688 C441.6600036621094,748.3900146484375 443.9100036621094,735.489990234375 446.0400085449219,722.5599975585938 C449.0199890136719,704.4400024414062 451.6499938964844,686.25 454.8900146484375,668.1699829101562 C457.69000244140625,652.5599975585938 459.70001220703125,636.8599853515625 465.8599853515625,621.8699951171875 C473.92999267578125,602.239990234375 474.2900085449219,582.0599975585938 465.0199890136719,562.4099731445312 C460.7699890136719,553.4000244140625 454.1499938964844,546.239990234375 446.2699890136719,540.25 C434.79998779296875,531.530029296875 423.1700134277344,523.02001953125 411.7699890136719,514.2000122070312 C369.3699951171875,481.4200134277344 340.54998779296875,439.5799865722656 327.1499938964844,387.3999938964844 C325.5400085449219,381.1300048828125 323.25,374.95001220703125 320.4700012207031,369.1099853515625 C319.3399963378906,366.739990234375 315.9100036621094,363.80999755859375 313.7900085449219,364 C311.239990234375,364.239990234375 308.07000732421875,367.04998779296875 306.739990234375,369.5799865722656 C302.6499938964844,377.4200134277344 303.9700012207031,386.0199890136719 305.010009765625,394.3299865722656 C307.1499938964844,411.42999267578125 313.07000732421875,427.4800109863281 319.5,443.3399963378906 C322.20001220703125,450.010009765625 325,456.6400146484375 327.7300109863281,463.29998779296875 C328.25,464.57000732421875 328.8699951171875,465.8399963378906 329.0899963378906,467.1700134277344 C329.25,468.19000244140625 328.8500061035156,469.30999755859375 328.69000244140625,470.3800048828125 C328.05999755859375,469.6400146484375 327.3299865722656,468.9599914550781 326.8299865722656,468.1400146484375 C316.69000244140625,451.5199890136719 308.95001220703125,433.82000732421875 303.1400146484375,415.25 C299.4800109863281,403.55999755859375 296.5799865722656,391.6499938964844 297.42999267578125,379.3800048828125 C297.8299865722656,373.6099853515625 300.19000244140625,367.9100036621094 302.1700134277344,362.3500061035156 C303.2200012207031,359.3900146484375 300.4599914550781,351.0799865722656 296.8399963378906,348.67999267578125 C292.8699951171875,346.04998779296875 288.7900085449219,347.07000732421875 285.94000244140625,351.6199951171875 C280.510009765625,360.2799987792969 280.57000732421875,370.07000732421875 280.3900146484375,379.7699890136719 C280.3900146484375,379.7699890136719 280.3699951171875,379.79998779296875 280.3699951171875,379.79998779296875z"></path></g><g opacity="1" transform="matrix(1,0,0,1,0,0)"><path fill="rgb(147,73,41)" fill-opacity="1" d=" M547.3400268554688,277.69000244140625 C531.0399780273438,277.0299987792969 515.6400146484375,274.0299987792969 501.32000732421875,268.7900085449219 C492.1000061035156,265.4200134277344 490.010009765625,259.4800109863281 495.3999938964844,254.13999938964844 C499.07000732421875,250.50999450683594 504.4100036621094,249.08999633789062 510.6000061035156,249.77999877929688 C514.5900268554688,250.22999572753906 518.510009765625,251.25 522.27001953125,252.3300018310547 C532.260009765625,255.2100067138672 542.3099975585938,257.6499938964844 553.4600219726562,257.19000244140625 C557.010009765625,257.0400085449219 560.6599731445312,257.3800048828125 564.1799926757812,257.7900085449219 C569.1599731445312,258.3699951171875 573.3200073242188,259.9599914550781 574.8699951171875,263.5 C576.4299926757812,267.05999755859375 574.1099853515625,269.8900146484375 570.4500122070312,272.239990234375 C564,276.3999938964844 556.2000122070312,278.0799865722656 547.3499755859375,277.67999267578125 C547.3499755859375,277.67999267578125 547.3400268554688,277.69000244140625 547.3400268554688,277.69000244140625z"></path></g><g opacity="1" transform="matrix(1,0,0,1,0,0)"><path fill="rgb(147,73,41)" fill-opacity="1" d=" M386.0899963378906,258.0199890136719 C385.45001220703125,261.8699951171875 381.7799987792969,265.2799987792969 376.30999755859375,268.0799865722656 C365.4800109863281,273.6300048828125 352.1700134277344,275.3999938964844 338.4200134277344,276.4700012207031 C333.67999267578125,276.8399963378906 328.9200134277344,277.1700134277344 324.20001220703125,277.6099853515625 C315.45001220703125,278.42999267578125 309.7300109863281,275.04998779296875 311.510009765625,269.9800109863281 C312.8699951171875,266.1099853515625 317.1300048828125,263.510009765625 323.1600036621094,262.1499938964844 C328.20001220703125,261.010009765625 333.54998779296875,260.19000244140625 338.8900146484375,259.70001220703125 C346.8699951171875,258.9700012207031 354.05999755859375,257.510009765625 360.3999938964844,254.4499969482422 C363.6499938964844,252.88999938964844 367.3599853515625,251.38999938964844 371.29998779296875,250.63999938964844 C379.6300048828125,249.0399932861328 386.4700012207031,252.39999389648438 386.0899963378906,258.010009765625 C386.0899963378906,258.010009765625 386.0899963378906,258.0199890136719 386.0899963378906,258.0199890136719z"></path></g><g opacity="1" transform="matrix(1,0,0,1,0,0)"><path fill="rgb(217,133,102)" fill-opacity="1" d=" M494.4599914550781,372.2900085449219 C494.1400146484375,382.6099853515625 490,390.489990234375 483.239990234375,397.07000732421875 C480.79998779296875,399.44000244140625 477.6300048828125,401.25 474.5799865722656,398.3699951171875 C471.6700134277344,395.6199951171875 473.54998779296875,392.70001220703125 475.5199890136719,390.1499938964844 C477.0899963378906,388.1099853515625 478.8900146484375,386.239990234375 480.2799987792969,384.0799865722656 C485.8999938964844,375.3399963378906 484.82000732421875,364.7300109863281 477.6700134277344,357.17999267578125 C474.7200012207031,354.05999755859375 471.7099914550781,351.010009765625 468.8299865722656,347.8299865722656 C458.6199951171875,336.5299987792969 456.67999267578125,323.2799987792969 459.82000732421875,308.8800048828125 C460.0400085449219,307.8800048828125 460.20001220703125,306.7699890136719 460.75,305.9700012207031 C461.7300109863281,304.54998779296875 463,303.32000732421875 464.1499938964844,302.010009765625 C464.760009765625,303.5199890136719 465.70001220703125,304.989990234375 465.9200134277344,306.55999755859375 C466.44000244140625,310.2900085449219 466.7699890136719,314.07000732421875 466.8999938964844,317.8399963378906 C467.260009765625,328.6099853515625 471.8900146484375,337.2699890136719 479.6600036621094,344.4599914550781 C481.6700134277344,346.32000732421875 483.6400146484375,348.239990234375 485.5799865722656,350.19000244140625 C491.8699951171875,356.4800109863281 494.1499938964844,364.3500061035156 494.4599914550781,372.2900085449219 C494.4599914550781,372.2900085449219 494.4599914550781,372.2900085449219 494.4599914550781,372.2900085449219z"></path></g><g opacity="1" transform="matrix(1,0,0,1,0,0)"><path fill="rgb(217,133,102)" fill-opacity="1" d=" M269.3500061035156,488.7699890136719 C266.1700134277344,482.3800048828125 262.6300048828125,476.1300048828125 259.8599853515625,469.55999755859375 C250.1199951171875,446.4800109863281 245.10000610351562,422.3900146484375 245.42999267578125,397.29998779296875 C245.47000122070312,394.5400085449219 247.0399932861328,391.7900085449219 247.88999938964844,389.0400085449219 C249.1999969482422,391.7799987792969 251.35000610351562,394.4200134277344 251.67999267578125,397.2699890136719 C252.80999755859375,406.95001220703125 252.50999450683594,416.8500061035156 254.24000549316406,426.3999938964844 C256.30999755859375,437.8399963378906 259.7699890136719,449.0400085449219 262.8599853515625,460.2799987792969 C265.42999267578125,469.6400146484375 268.3399963378906,478.9200134277344 271.1000061035156,488.2300109863281 C270.5199890136719,488.4100036621094 269.92999267578125,488.5899963378906 269.3500061035156,488.7799987792969 C269.3500061035156,488.7799987792969 269.3500061035156,488.7699890136719 269.3500061035156,488.7699890136719z"></path></g><g opacity="1" transform="matrix(1,0,0,1,0,0)"><path fill="rgb(217,133,102)" fill-opacity="1" d=" M355.6400146484375,638.3599853515625 C355.0400085449219,641.5599975585938 354.8399963378906,643.4500122070312 354.32000732421875,645.239990234375 C346.75,671.010009765625 339.1600036621094,696.7899780273438 331.4599914550781,722.52001953125 C330.8299865722656,724.6300048828125 329.32000732421875,726.489990234375 328.2200012207031,728.4600219726562 C328.3500061035156,726.3599853515625 328.1199951171875,724.1599731445312 328.6700134277344,722.1699829101562 C335.55999755859375,697.27001953125 342.57000732421875,672.4000244140625 349.5199890136719,647.52001953125 C350.8999938964844,642.5800170898438 352.8299865722656,637.5800170898438 347.5199890136719,633.4299926757812 C346.8599853515625,632.9199829101562 347.4700012207031,630.7899780273438 347.489990234375,629.4099731445312 C348.8999938964844,629.5399780273438 351.1300048828125,629.1699829101562 351.57000732421875,629.8900146484375 C353.3599853515625,632.8499755859375 354.6099853515625,636.1300048828125 355.6400146484375,638.3699951171875 C355.6400146484375,638.3699951171875 355.6400146484375,638.3599853515625 355.6400146484375,638.3599853515625z"></path></g><g opacity="1" transform="matrix(1,0,0,1,0,0)"><path fill="rgb(217,133,102)" fill-opacity="1" d=" M454.8999938964844,448.0799865722656 C448.0799865722656,446.8999938964844 442.4200134277344,445.8399963378906 436.7300109863281,444.9599914550781 C425.8500061035156,443.2799987792969 415.25,445.07000732421875 404.7300109863281,447.7699890136719 C403.3999938964844,448.1099853515625 401.9800109863281,448.1199951171875 400.6000061035156,448.2799987792969 C401.5,447.0899963378906 402.2200012207031,445.67999267578125 403.3299865722656,444.7300109863281 C409.1700134277344,439.760009765625 416.3299865722656,437.4700012207031 423.6700134277344,437.1099853515625 C432.5,436.67999267578125 441.4100036621094,437.489990234375 450.260009765625,438.010009765625 C452.2200012207031,438.1300048828125 454.45001220703125,438.8900146484375 455.92999267578125,440.1099853515625 C457.29998779296875,441.239990234375 458.7300109863281,443.55999755859375 458.4599914550781,445.0400085449219 C458.20001220703125,446.42999267578125 455.739990234375,447.4100036621094 454.8800048828125,448.0799865722656 C454.8800048828125,448.0799865722656 454.8999938964844,448.0799865722656 454.8999938964844,448.0799865722656z"></path></g><g opacity="1" transform="matrix(1,0,0,1,0,0)"><path fill="rgb(125,61,36)" fill-opacity="1" d=" M294.6700134277344,153.50999450683594 C291.6099853515625,155.9499969482422 288.4800109863281,158.30999755859375 285.489990234375,160.85000610351562 C261.30999755859375,181.38999938964844 248.55999755859375,208.0800018310547 243.8000030517578,238.9600067138672 C242.14999389648438,249.67999267578125 241.2100067138672,260.5 239.5500030517578,271.2200012207031 C239.00999450683594,274.67999267578125 237.6699981689453,278.2200012207031 235.86000061035156,281.2200012207031 C233.66000366210938,284.8500061035156 230.77000427246094,288.1199951171875 227.85000610351562,291.239990234375 C211.7899932861328,308.3599853515625 204.08999633789062,328.8800048828125 202.74000549316406,352.0400085449219 C202.58999633789062,354.6099853515625 202.80999755859375,357.2200012207031 202.4600067138672,359.75 C202.13999938964844,362.1199951171875 201.3000030517578,364.4200134277344 200.69000244140625,366.75 C199.6199951171875,364.2699890136719 197.63999938964844,361.79998779296875 197.63999938964844,359.32000732421875 C197.6300048828125,332.7099914550781 204.32000732421875,308.239990234375 223.0500030517578,288.5 C230.99000549316406,280.1300048828125 234.7899932861328,270.9800109863281 235.3300018310547,259.5799865722656 C236.1699981689453,241.9600067138672 239.75999450683594,224.74000549316406 245.97000122070312,208.19000244140625 C253.35000610351562,188.47999572753906 264.9700012207031,171.75999450683594 282.0799865722656,159.19000244140625 C284.54998779296875,157.3699951171875 287.29998779296875,155.91000366210938 290.010009765625,154.44000244140625 C291.32000732421875,153.72000122070312 292.8299865722656,153.36000061035156 294.25,152.8300018310547 C294.3900146484375,153.05999755859375 294.5400085449219,153.2899932861328 294.67999267578125,153.52000427246094 C294.67999267578125,153.52000427246094 294.6700134277344,153.50999450683594 294.6700134277344,153.50999450683594z"></path></g><g opacity="1" transform="matrix(1,0,0,1,0,0)"><path fill="rgb(125,61,36)" fill-opacity="1" d=" M638.510009765625,159.6300048828125 C638.1099853515625,162.77999877929688 638,166.4199981689453 637.0499877929688,169.8300018310547 C636.5999755859375,171.4600067138672 634.530029296875,172.63999938964844 633.2000122070312,174.02000427246094 C632.010009765625,172.72000122070312 630.1900024414062,171.60000610351562 629.739990234375,170.0800018310547 C628.72998046875,166.6699981689453 628.0599975585938,163.0800018310547 627.8300170898438,159.52000427246094 C626.489990234375,138.5500030517578 619.9500122070312,119.5199966430664 607.0999755859375,102.79000091552734 C602.719970703125,97.08999633789062 598.239990234375,91.47000122070312 593.8300170898438,85.79000091552734 C593.469970703125,85.31999969482422 593.2999877929688,84.70999908447266 593.0399780273438,84.16000366210938 C593.6500244140625,83.97000122070312 594.3599853515625,83.47000122070312 594.8400268554688,83.63999938964844 C597.3499755859375,84.51000213623047 600.1900024414062,85.04000091552734 602.2100219726562,86.61000061035156 C625.8800048828125,104.97000122070312 636.6300048828125,129.80999755859375 638.510009765625,159.6300048828125 C638.510009765625,159.6300048828125 638.510009765625,159.6300048828125 638.510009765625,159.6300048828125z"></path></g><g opacity="1" transform="matrix(1,0,0,1,0,0)"><path fill="rgb(125,61,36)" fill-opacity="1" d=" M655.5800170898438,419.8800048828125 C664.260009765625,430.20001220703125 669.6400146484375,442.239990234375 673,455.1199951171875 C680.4400024414062,483.6300048828125 675.1699829101562,509.79998779296875 657.47998046875,533.3300170898438 C655.1799926757812,536.3900146484375 651.8099975585938,538.6900024414062 648.75,541.1199951171875 C648.02001953125,541.7000122070312 646.5700073242188,541.3800048828125 645.4500122070312,541.469970703125 C645.47998046875,540.3400268554688 645.1500244140625,539.0399780273438 645.5999755859375,538.1199951171875 C646.6599731445312,535.97998046875 647.9600219726562,533.9299926757812 649.4000244140625,532.02001953125 C671.3599853515625,502.8800048828125 673.5,471.0799865722656 662.0900268554688,437.4800109863281 C660.0800170898438,431.55999755859375 657.760009765625,425.75 655.5800170898438,419.8800048828125 C655.5800170898438,419.8800048828125 655.5800170898438,419.8800048828125 655.5800170898438,419.8800048828125z"></path></g><g opacity="1" transform="matrix(1,0,0,1,0,0)"><path fill="rgb(208,171,158)" fill-opacity="1" d=" M889.3400268554688,1242.7099609375 C861.1400146484375,1242.8900146484375 833.6099853515625,1247.949951171875 806.8599853515625,1256.4100341796875 C778.77001953125,1265.2900390625 751.27001953125,1276.06005859375 723.1900024414062,1284.989990234375 C696.9199829101562,1293.3499755859375 670.260009765625,1300.5 643.7100219726562,1307.9300537109375 C633.489990234375,1310.7900390625 632.1400146484375,1311.8800048828125 630.9600219726562,1322.2099609375 C630.8900146484375,1322.8199462890625 630.6500244140625,1323.4200439453125 630.489990234375,1324.02001953125 C629.8900146484375,1323.530029296875 629.0900268554688,1323.1500244140625 628.7100219726562,1322.530029296875 C624.9000244140625,1316.0899658203125 626.719970703125,1308.3800048828125 633.1699829101562,1304.5799560546875 C635.6500244140625,1303.1199951171875 638.4299926757812,1301.949951171875 641.219970703125,1301.2900390625 C687.22998046875,1290.4200439453125 731.3099975585938,1273.699951171875 775.530029296875,1257.3699951171875 C784.530029296875,1254.050048828125 793.7100219726562,1251.2099609375 802.8699951171875,1248.3399658203125 C805.4299926757812,1247.5400390625 806.47998046875,1246.4000244140625 807.1799926757812,1243.6099853515625 C810.0399780273438,1232.1500244140625 813.9600219726562,1220.9300537109375 816.52001953125,1209.4100341796875 C820.6799926757812,1190.6400146484375 820.4600219726562,1171.8299560546875 815.4600219726562,1153.0899658203125 C813.6300048828125,1146.22998046875 813.4199829101562,1138.9300537109375 811.5599975585938,1132.0799560546875 C805.969970703125,1111.4200439453125 799.8400268554688,1090.9200439453125 794.1099853515625,1070.300048828125 C790.0499877929688,1055.699951171875 785.1799926757812,1041.2099609375 782.6199951171875,1026.3299560546875 C776.52001953125,990.8400268554688 772.4199829101562,955.0999755859375 775.1500244140625,918.9500122070312 C775.260009765625,917.5 775.5399780273438,915.8599853515625 776.3400268554688,914.7100219726562 C777.0999755859375,913.6099853515625 778.5999755859375,912.4600219726562 779.8200073242188,912.4000244140625 C780.739990234375,912.3599853515625 782.2899780273438,913.8400268554688 782.6099853515625,914.9199829101562 C783.52001953125,918.02001953125 784.3499755859375,921.239990234375 784.5,924.4400024414062 C785.27001953125,940.8900146484375 785.3699951171875,957.3800048828125 786.5900268554688,973.7999877929688 C787.7000122070312,988.75 789.010009765625,1003.7899780273438 791.9099731445312,1018.4600219726562 C795.2100219726562,1035.1600341796875 800.3699951171875,1051.489990234375 804.739990234375,1067.97998046875 C808.969970703125,1083.9300537109375 813.780029296875,1099.75 817.3300170898438,1115.8499755859375 C821.4099731445312,1134.3599853515625 825.219970703125,1153.010009765625 827.6099853515625,1171.7900390625 C830.6500244140625,1195.75 824.489990234375,1218.4200439453125 814.5599975585938,1240.1600341796875 C813.9000244140625,1241.6099853515625 813.5900268554688,1243.219970703125 813.1199951171875,1244.75 C814.760009765625,1244.530029296875 816.4400024414062,1244.47998046875 818.0399780273438,1244.0699462890625 C838.3200073242188,1238.8499755859375 858.8300170898438,1234.9100341796875 879.739990234375,1233.52001953125 C885.7000122070312,1233.1199951171875 891.72998046875,1233.6300048828125 897.719970703125,1233.949951171875 C899.72998046875,1234.06005859375 901.9299926757812,1234.47998046875 903.6300048828125,1235.469970703125 C905.0499877929688,1236.300048828125 905.8499755859375,1238.1700439453125 906.9299926757812,1239.5799560546875 C905.530029296875,1240.6199951171875 904.2000122070312,1242.4200439453125 902.7100219726562,1242.56005859375 C898.2999877929688,1242.9599609375 893.8200073242188,1242.699951171875 889.3699951171875,1242.699951171875 C889.3699951171875,1242.699951171875 889.3400268554688,1242.7099609375 889.3400268554688,1242.7099609375z"></path></g><g opacity="1" transform="matrix(1,0,0,1,0,0)"><path fill="rgb(208,171,158)" fill-opacity="1" d=" M445.79998779296875,901.8699951171875 C445.989990234375,921.219970703125 442.2799987792969,938.8300170898438 438.5799865722656,956.469970703125 C437.05999755859375,963.6900024414062 436.54998779296875,971.1199951171875 435.25,978.4000244140625 C433.4200134277344,988.6099853515625 431.17999267578125,998.75 429.32000732421875,1008.9600219726562 C427.4700012207031,1019.1500244140625 426.2300109863281,1029.469970703125 424.1000061035156,1039.5899658203125 C418.0299987792969,1068.43994140625 412.44000244140625,1097.4200439453125 405.17999267578125,1125.97998046875 C394.989990234375,1166.0899658203125 383.95001220703125,1206 372.260009765625,1245.68994140625 C368.32000732421875,1259.050048828125 361.29998779296875,1271.5 355.6000061035156,1284.3199462890625 C354.6300048828125,1286.5 353.32000732421875,1288.550048828125 351.95001220703125,1290.510009765625 C351.3599853515625,1291.3599853515625 350.2300109863281,1291.8399658203125 349.3500061035156,1292.5 C349.3699951171875,1291.449951171875 349.1300048828125,1290.31005859375 349.4700012207031,1289.3800048828125 C350.55999755859375,1286.3299560546875 351.7300109863281,1283.2900390625 353.1000061035156,1280.3599853515625 C370.0899963378906,1243.9200439453125 379.6300048828125,1205.1500244140625 388.739990234375,1166.260009765625 C394.04998779296875,1143.5699462890625 398.9599914550781,1120.780029296875 403.7099914550781,1097.969970703125 C406.6600036621094,1083.780029296875 408.92999267578125,1069.4599609375 411.5899963378906,1055.2099609375 C414.25,1040.949951171875 417.1600036621094,1026.72998046875 419.7099914550781,1012.4500122070312 C422.2799987792969,998.0599975585938 424.5899963378906,983.6199951171875 426.9200134277344,969.1900024414062 C429.5400085449219,953.010009765625 432.1700134277344,936.8300170898438 434.54998779296875,920.6199951171875 C435.239990234375,915.8900146484375 435.010009765625,911.030029296875 435.3999938964844,906.25 C435.6400146484375,903.2899780273438 434.57000732421875,902.6199951171875 431.6600036621094,902.6199951171875 C427.94000244140625,902.6199951171875 424.1700134277344,902.010009765625 420.5199890136719,901.2000122070312 C416.45001220703125,900.2999877929688 414.7099914550781,896.5999755859375 415.8299865722656,891.780029296875 C417.2300109863281,885.77001953125 419.010009765625,879.8499755859375 420.20001220703125,873.7999877929688 C421.4200134277344,867.6400146484375 421.8699951171875,861.3200073242188 423.20001220703125,855.1900024414062 C423.70001220703125,852.8800048828125 425.4599914550781,849.4400024414062 427.1199951171875,849.1400146484375 C428.989990234375,848.7999877929688 432.3500061035156,850.9000244140625 433.4200134277344,852.8400268554688 C442.010009765625,868.4299926757812 447.1300048828125,884.97998046875 445.80999755859375,901.8599853515625 C445.80999755859375,901.8599853515625 445.79998779296875,901.8699951171875 445.79998779296875,901.8699951171875z"></path></g><g opacity="1" transform="matrix(1,0,0,1,0,0)"><path fill="rgb(208,171,158)" fill-opacity="1" d=" M142.33999633789062,1166.469970703125 C144.6699981689453,1157.1099853515625 146.75999450683594,1147.25 149.58999633789062,1137.6099853515625 C159.8800048828125,1102.4200439453125 175.8699951171875,1069.5699462890625 191.5399932861328,1036.6099853515625 C198.08999633789062,1022.8300170898438 204.77999877929688,1009.1199951171875 211.17999267578125,995.2899780273438 C212.0800018310547,993.3599853515625 212.38999938964844,990.6799926757812 211.86000061035156,988.6300048828125 C203.35000610351562,955.6300048828125 194.42999267578125,922.739990234375 186.1199951171875,889.6900024414062 C182.41000366210938,874.9400024414062 179.8000030517578,859.9000244140625 176.83999633789062,844.9600219726562 C176.17999267578125,841.6199951171875 175.94000244140625,838.1599731445312 175.91000366210938,834.760009765625 C175.89999389648438,833.280029296875 176.92999267578125,831.7999877929688 177.47999572753906,830.3099975585938 C178.77000427246094,831.4600219726562 180.63999938964844,832.3699951171875 181.24000549316406,833.8099975585938 C182.41000366210938,836.6199951171875 182.97999572753906,839.7100219726562 183.6199951171875,842.719970703125 C192.42999267578125,884.47998046875 201.17999267578125,926.239990234375 210,967.989990234375 C211.02000427246094,972.7999877929688 212.3000030517578,977.5399780273438 213.5399932861328,982.2999877929688 C213.8699951171875,983.5700073242188 214.4600067138672,984.780029296875 214.92999267578125,986.02001953125 C215.77000427246094,984.8400268554688 216.77999877929688,983.739990234375 217.41000366210938,982.4500122070312 C219.5399932861328,978.1500244140625 221.55999755859375,973.7999877929688 223.58999633789062,969.4500122070312 C249,914.9400024414062 275.6400146484375,860.989990234375 297.55999755859375,804.9099731445312 C302.7799987792969,791.5499877929688 307.760009765625,778.0999755859375 312.8800048828125,764.6900024414062 C313.489990234375,763.0999755859375 314.25,761.5599975585938 314.9599914550781,760.010009765625 C315.1600036621094,759.5700073242188 315.4200134277344,759.1500244140625 315.6600036621094,758.72998046875 C315.6300048828125,758.9000244140625 315.5899963378906,759.0700073242188 315.5799865722656,759.22998046875 C315.55999755859375,759.5700073242188 315.6400146484375,759.9299926757812 315.55999755859375,760.260009765625 C314.010009765625,766.510009765625 312.6600036621094,772.8099975585938 310.8500061035156,778.97998046875 C299.6199951171875,817.0700073242188 283.6300048828125,853.2899780273438 266.8900146484375,889.1599731445312 C238.6999969482422,949.5700073242188 210.17999267578125,1009.8200073242188 181.66000366210938,1070.0699462890625 C167.83999633789062,1099.27001953125 156.77999877929688,1129.469970703125 148.1199951171875,1160.5699462890625 C147.47999572753906,1162.8800048828125 146.83999633789062,1165.2099609375 145.9499969482422,1167.4200439453125 C145.47000122070312,1168.5999755859375 144.44000244140625,1169.56005859375 143.66000366210938,1170.6099853515625 C143.2899932861328,1169.449951171875 142.9199981689453,1168.2900390625 142.35000610351562,1166.47998046875 C142.35000610351562,1166.47998046875 142.33999633789062,1166.469970703125 142.33999633789062,1166.469970703125z"></path></g><g opacity="1" transform="matrix(1,0,0,1,0,0)"><path fill="rgb(208,171,158)" fill-opacity="1" d=" M824.5,1499.06005859375 C790.8400268554688,1496.239990234375 757.1699829101562,1493.6199951171875 723.5399780273438,1490.489990234375 C712.1900024414062,1489.4300537109375 700.9299926757812,1487.300048828125 689.7100219726562,1485.1800537109375 C681.9299926757812,1483.7099609375 675.2000122070312,1479.949951171875 670.4600219726562,1473.3299560546875 C669.3900146484375,1471.8299560546875 668.5,1470.0899658203125 668,1468.3299560546875 C667.739990234375,1467.4000244140625 668.2000122070312,1465.75 668.9199829101562,1465.22998046875 C669.47998046875,1464.8299560546875 671.3099975585938,1465.3199462890625 671.9400024414062,1466.010009765625 C678.3900146484375,1472.949951171875 686.4400024414062,1476.8399658203125 695.6099853515625,1478.3900146484375 C702.25,1479.510009765625 708.9600219726562,1480.449951171875 715.6799926757812,1480.9100341796875 C757.9299926757812,1483.81005859375 800.1900024414062,1486.550048828125 842.4400024414062,1489.3499755859375 C842.9500122070312,1489.3800048828125 843.47998046875,1489.3399658203125 843.97998046875,1489.4200439453125 C847.0800170898438,1489.8900146484375 850.77001953125,1490.31005859375 850.6799926757812,1494.2900390625 C850.5999755859375,1497.969970703125 847.02001953125,1498.530029296875 844.0999755859375,1498.6199951171875 C837.5900268554688,1498.81005859375 831.0700073242188,1498.6800537109375 824.5499877929688,1498.6800537109375 C824.530029296875,1498.81005859375 824.510009765625,1498.93994140625 824.5,1499.0799560546875 C824.5,1499.0799560546875 824.5,1499.06005859375 824.5,1499.06005859375z"></path></g><g opacity="1" transform="matrix(1,0,0,1,0,0)"><path fill="rgb(54,23,10)" fill-opacity="1" d=" M497.2099914550781,317.67999267578125 C497.57000732421875,311.67999267578125 499.3999938964844,306.239990234375 503.1000061035156,301.510009765625 C510.4200134277344,292.1400146484375 523.989990234375,292.8399963378906 530.489990234375,302.8800048828125 C535.8599853515625,311.17999267578125 534.7999877929688,326.1600036621094 528.280029296875,333.6400146484375 C523.6300048828125,338.9700012207031 517.6599731445312,340.260009765625 511.20001220703125,338.2699890136719 C503.7300109863281,335.9800109863281 498.9599914550781,330.8500061035156 497.6099853515625,322.9599914550781 C497.30999755859375,321.2300109863281 497.3399963378906,319.44000244140625 497.2200012207031,317.67999267578125 C497.2200012207031,317.67999267578125 497.2099914550781,317.67999267578125 497.2099914550781,317.67999267578125z"></path></g><g opacity="1" transform="matrix(1,0,0,1,0,0)"><path fill="rgb(54,23,10)" fill-opacity="1" d=" M348.6499938964844,317.67999267578125 C349.010009765625,311.67999267578125 350.8399963378906,306.239990234375 354.5400085449219,301.510009765625 C361.8599853515625,292.1400146484375 375.42999267578125,292.8399963378906 381.92999267578125,302.8800048828125 C387.29998779296875,311.17999267578125 386.239990234375,326.1600036621094 379.7200012207031,333.6400146484375 C375.07000732421875,338.9700012207031 369.1000061035156,340.260009765625 362.6400146484375,338.2699890136719 C355.1700134277344,335.9800109863281 350.3999938964844,330.8500061035156 349.04998779296875,322.9599914550781 C348.75,321.2300109863281 348.7799987792969,319.44000244140625 348.6600036621094,317.67999267578125 C348.6600036621094,317.67999267578125 348.6499938964844,317.67999267578125 348.6499938964844,317.67999267578125z"></path></g><g opacity="1" transform="matrix(1,0,0,1,0,0)"><path fill="rgb(217,133,102)" fill-opacity="1" d=" M477.82000732421875,596.3300170898438 C488.9599914550781,595.7899780273438 501.739990234375,590.530029296875 515.4000244140625,582.760009765625 C515.4000244140625,582.760009765625 511.0299987792969,557.6099853515625 511.0299987792969,557.6099853515625 C511.0299987792969,557.6099853515625 472.0899963378906,564.3499755859375 472.0899963378906,564.3499755859375 C472.0899963378906,564.3499755859375 477.82000732421875,596.3400268554688 477.82000732421875,596.3400268554688 C477.82000732421875,596.3400268554688 477.82000732421875,596.3300170898438 477.82000732421875,596.3300170898438z"></path></g></g><g id="Layer_1-2" transform="matrix(0.6463491320610046,0,0,0.6463491320610046,263.54986572265625,44.182228088378906)" opacity="1" style="display: block;"><g opacity="1" transform="matrix(1,0,0,1,0,0)"><path fill="rgb(208,208,208)" fill-opacity="1" d=" M0,35.83000183105469 C0,35.83000183105469 21.360000610351562,40.79999923706055 21.360000610351562,40.79999923706055 C21.360000610351562,40.79999923706055 25.940000534057617,21.1200008392334 44.65999984741211,25.110000610351562 C54.380001068115234,27.18000030517578 57.779998779296875,35.29999923706055 58.58000183105469,41.11000061035156 C59.5099983215332,47.849998474121094 57.150001525878906,54.7400016784668 52.63999938964844,59.7400016784668 C47.4900016784668,65.44999694824219 38.16999816894531,69.55999755859375 24.420000076293945,63.43000030517578 C24.420000076293945,63.43000030517578 12.130000114440918,116.2699966430664 12.130000114440918,116.2699966430664 C12.130000114440918,116.2699966430664 33.25,121.18000030517578 33.25,121.18000030517578 C33.25,121.18000030517578 40.45000076293945,90.2300033569336 40.45000076293945,90.2300033569336 C40.45000076293945,90.2300033569336 72.02999877929688,88.72000122070312 80.36000061035156,52.900001525878906 C88.33000183105469,18.6200008392334 62.18000030517578,4.139999866485596 50.189998626708984,1.350000023841858 C41.02000045776367,-0.7799999713897705 9.220000267028809,-5.610000133514404 0,35.83000183105469 C0,35.83000183105469 0,35.83000183105469 0,35.83000183105469z"></path></g><g opacity="1" transform="matrix(0.9739759564399719,0.22665131092071533,-0.22665131092071533,0.9739759564399719,32.31999969482422,-0.3499999940395355)"><path fill="rgb(208,208,208)" fill-opacity="1" d=" M28.700000762939453,129.3300018310547 C28.700000762939453,129.3300018310547 28.700000762939453,151.87998962402344 28.700000762939453,151.87998962402344 C28.700000762939453,151.87998962402344 6.689999580383301,151.87998962402344 6.689999580383301,151.87998962402344 C6.689999580383301,151.87998962402344 6.689999580383301,129.3300018310547 6.689999580383301,129.3300018310547 C6.689999580383301,129.3300018310547 28.700000762939453,129.3300018310547 28.700000762939453,129.3300018310547z"></path></g></g><g id="Layer_1-2" transform="matrix(0.23413781821727753,-0.0537630096077919,0.0537630096077919,0.23413781821727753,365.37738037109375,128.44845581054688)" opacity="1" style="display: block;"><g opacity="1" transform="matrix(1,0,0,1,0,0)"><path fill="rgb(88,88,88)" fill-opacity="1" d=" M0,71.19000244140625 C0,71.19000244140625 42.45000076293945,81.06999969482422 42.45000076293945,81.06999969482422 C42.45000076293945,81.06999969482422 51.54999923706055,41.970001220703125 88.75,49.880001068115234 C108.06999969482422,53.9900016784668 114.83000183105469,70.13999938964844 116.41000366210938,81.66999816894531 C118.25,95.05999755859375 113.56999969482422,108.75 104.61000061035156,118.69000244140625 C94.37999725341797,130.0399932861328 75.8499984741211,138.2100067138672 48.529998779296875,126.0199966430664 C48.529998779296875,126.0199966430664 24.100000381469727,231.02999877929688 24.100000381469727,231.02999877929688 C24.100000381469727,231.02999877929688 66.06999969482422,240.8000030517578 66.06999969482422,240.8000030517578 C66.06999969482422,240.8000030517578 80.37999725341797,179.2899932861328 80.37999725341797,179.2899932861328 C80.37999725341797,179.2899932861328 143.1300048828125,176.2899932861328 159.69000244140625,105.11000061035156 C175.52999877929688,37 123.55000305175781,8.239999771118164 99.7300033569336,2.690000057220459 C81.51000213623047,-1.5499999523162842 18.309999465942383,-11.149999618530273 0,71.19000244140625 C0,71.19000244140625 0,71.19000244140625 0,71.19000244140625z"></path></g><g opacity="1" transform="matrix(0.9739759564399719,0.22665131092071533,-0.22665131092071533,0.9739759564399719,64.2300033569336,-0.699999988079071)"><path fill="rgb(88,88,88)" fill-opacity="1" d=" M57.029998779296875,257 C57.029998779296875,257 57.029998779296875,301.82000732421875 57.029998779296875,301.82000732421875 C57.029998779296875,301.82000732421875 13.30000114440918,301.82000732421875 13.30000114440918,301.82000732421875 C13.30000114440918,301.82000732421875 13.30000114440918,257 13.30000114440918,257 C13.30000114440918,257 57.029998779296875,257 57.029998779296875,257z"></path></g></g><g id="Layer_1-2" transform="matrix(0.25603264570236206,-0.05416463688015938,0.05416463688015938,0.25603264570236206,293.98992919921875,154.7989959716797)" opacity="1" style="display: block;"><g opacity="1" transform="matrix(1,0,0,1,0,0)"><path fill="rgb(160,163,165)" fill-opacity="1" d=" M101.47000122070312,8.630000114440918 C101.47000122070312,8.630000114440918 48.029998779296875,119.45999908447266 48.029998779296875,119.45999908447266 C43.65999984741211,128.52000427246094 46.36000061035156,139.61000061035156 54.33000183105469,145.3000030517578 C54.33000183105469,145.3000030517578 54.33000183105469,145.3000030517578 54.33000183105469,145.3000030517578 C62.7400016784668,151.30999755859375 74.12000274658203,149.2899932861328 80.22000122070312,140.72000122070312 C80.22000122070312,140.72000122070312 151.57000732421875,40.38999938964844 151.57000732421875,40.38999938964844 C156.97000122070312,32.790000915527344 154.86000061035156,21.90999984741211 147.05999755859375,17.18000030517578 C147.05999755859375,17.18000030517578 122.22000122070312,2.109999895095825 122.22000122070312,2.109999895095825 C114.80999755859375,-2.390000104904175 105.3499984741211,0.5899999737739563 101.47000122070312,8.640000343322754 C101.47000122070312,8.640000343322754 101.47000122070312,8.630000114440918 101.47000122070312,8.630000114440918z"></path></g><g opacity="1" transform="matrix(1,0,0,1,0,0)"><path fill="rgb(160,163,165)" fill-opacity="1" d=" M47.45000076293945,222.16000366210938 C35.5099983215332,233.13999938964844 17.40999984741211,231.8000030517578 7.03000020980835,219.16000366210938 C-3.3499999046325684,206.52999877929688 -2.0799999237060547,187.38999938964844 9.859999656677246,176.41000366210938 C21.799999237060547,165.42999267578125 39.900001525878906,166.77000427246094 50.279998779296875,179.39999389648438 C60.65999984741211,192.02999877929688 59.38999938964844,211.1699981689453 47.45000076293945,222.14999389648438 C47.45000076293945,222.14999389648438 47.45000076293945,222.16000366210938 47.45000076293945,222.16000366210938z"></path></g></g><g id="Layer_1-2" transform="matrix(0.38452067971229553,0.002842171350494027,-0.002842171350494027,0.38452067971229553,132.9634552001953,93.16297149658203)" opacity="1" style="display: block;"><g opacity="1" transform="matrix(1,0,0,1,0,0)"><path fill="rgb(208,207,204)" fill-opacity="1" d=" M1.7599999904632568,24.43000030517578 C1.7599999904632568,24.43000030517578 44.59000015258789,83.62000274658203 44.59000015258789,83.62000274658203 C48.09000015258789,88.45999908447266 54.650001525878906,89.93000030517578 59.88999938964844,87.04000091552734 C59.88999938964844,87.04000091552734 59.88999938964844,87.04000091552734 59.88999938964844,87.04000091552734 C65.41000366210938,84 67.56999969482422,77.16000366210938 64.81999969482422,71.5 C64.81999969482422,71.5 32.540000915527344,5.21999979019165 32.540000915527344,5.21999979019165 C30.09000015258789,0.20000000298023224 23.799999237060547,-1.5399999618530273 19.1200008392334,1.5099999904632568 C19.1200008392334,1.5099999904632568 4.21999979019165,11.210000038146973 4.21999979019165,11.210000038146973 C-0.23000000417232513,14.109999656677246 -1.350000023841858,20.139999389648438 1.7599999904632568,24.43000030517578 C1.7599999904632568,24.43000030517578 1.7599999904632568,24.43000030517578 1.7599999904632568,24.43000030517578z"></path></g><g opacity="1" transform="matrix(1,0,0,1,0,0)"><path fill="rgb(208,207,204)" fill-opacity="1" d=" M98.12999725341797,111.4000015258789 C100.48999786376953,120.94000244140625 94.66999816894531,130.58999633789062 85.12999725341797,132.9499969482422 C75.58999633789062,135.30999755859375 65.94000244140625,129.49000549316406 63.58000183105469,119.94999694824219 C61.220001220703125,110.41000366210938 67.04000091552734,100.76000213623047 76.58000183105469,98.4000015258789 C86.12000274658203,96.04000091552734 95.7699966430664,101.86000061035156 98.12999725341797,111.4000015258789 C98.12999725341797,111.4000015258789 98.12999725341797,111.4000015258789 98.12999725341797,111.4000015258789z"></path></g></g><g id="Layer_1-2" transform="matrix(0.26733970642089844,0.2294701784849167,-0.2294701784849167,0.26733970642089844,365.5011901855469,42.98870086669922)" opacity="1" style="display: block;"><g opacity="1" transform="matrix(1,0,0,1,0,0)"><path fill="rgb(225,225,225)" fill-opacity="1" d=" M1.7599999904632568,24.43000030517578 C1.7599999904632568,24.43000030517578 44.59000015258789,83.62000274658203 44.59000015258789,83.62000274658203 C48.09000015258789,88.45999908447266 54.650001525878906,89.93000030517578 59.88999938964844,87.04000091552734 C59.88999938964844,87.04000091552734 59.88999938964844,87.04000091552734 59.88999938964844,87.04000091552734 C65.41000366210938,84 67.56999969482422,77.16000366210938 64.81999969482422,71.5 C64.81999969482422,71.5 32.540000915527344,5.21999979019165 32.540000915527344,5.21999979019165 C30.09000015258789,0.20000000298023224 23.799999237060547,-1.5399999618530273 19.1200008392334,1.5099999904632568 C19.1200008392334,1.5099999904632568 4.21999979019165,11.210000038146973 4.21999979019165,11.210000038146973 C-0.23000000417232513,14.109999656677246 -1.350000023841858,20.139999389648438 1.7599999904632568,24.43000030517578 C1.7599999904632568,24.43000030517578 1.7599999904632568,24.43000030517578 1.7599999904632568,24.43000030517578z"></path></g><g opacity="1" transform="matrix(1,0,0,1,0,0)"><path fill="rgb(225,225,225)" fill-opacity="1" d=" M98.12999725341797,111.4000015258789 C100.48999786376953,120.94000244140625 94.66999816894531,130.58999633789062 85.12999725341797,132.9499969482422 C75.58999633789062,135.30999755859375 65.94000244140625,129.49000549316406 63.58000183105469,119.94999694824219 C61.220001220703125,110.41000366210938 67.04000091552734,100.76000213623047 76.58000183105469,98.4000015258789 C86.12000274658203,96.04000091552734 95.7699966430664,101.86000061035156 98.12999725341797,111.4000015258789 C98.12999725341797,111.4000015258789 98.12999725341797,111.4000015258789 98.12999725341797,111.4000015258789z"></path></g></g><g id="Layer_1-2" transform="matrix(0.4059375524520874,-0.22069698572158813,0.22069698572158813,0.4059375524520874,131.75262451171875,26.84209632873535)" opacity="1" style="display: block;"><g opacity="1" transform="matrix(1,0,0,1,0,0)"><path fill="rgb(208,208,208)" fill-opacity="1" d=" M0,35.83000183105469 C0,35.83000183105469 21.360000610351562,40.79999923706055 21.360000610351562,40.79999923706055 C21.360000610351562,40.79999923706055 25.940000534057617,21.1200008392334 44.65999984741211,25.110000610351562 C54.380001068115234,27.18000030517578 57.779998779296875,35.29999923706055 58.58000183105469,41.11000061035156 C59.5099983215332,47.849998474121094 57.150001525878906,54.7400016784668 52.63999938964844,59.7400016784668 C47.4900016784668,65.44999694824219 38.16999816894531,69.55999755859375 24.420000076293945,63.43000030517578 C24.420000076293945,63.43000030517578 12.130000114440918,116.2699966430664 12.130000114440918,116.2699966430664 C12.130000114440918,116.2699966430664 33.25,121.18000030517578 33.25,121.18000030517578 C33.25,121.18000030517578 40.45000076293945,90.2300033569336 40.45000076293945,90.2300033569336 C40.45000076293945,90.2300033569336 72.02999877929688,88.72000122070312 80.36000061035156,52.900001525878906 C88.33000183105469,18.6200008392334 62.18000030517578,4.139999866485596 50.189998626708984,1.350000023841858 C41.02000045776367,-0.7799999713897705 9.220000267028809,-5.610000133514404 0,35.83000183105469 C0,35.83000183105469 0,35.83000183105469 0,35.83000183105469z"></path></g><g opacity="1" transform="matrix(0.9739759564399719,0.22665131092071533,-0.22665131092071533,0.9739759564399719,32.31999969482422,-0.3499999940395355)"><path fill="rgb(208,208,208)" fill-opacity="1" d=" M28.700000762939453,129.3300018310547 C28.700000762939453,129.3300018310547 28.700000762939453,151.87998962402344 28.700000762939453,151.87998962402344 C28.700000762939453,151.87998962402344 6.689999580383301,151.87998962402344 6.689999580383301,151.87998962402344 C6.689999580383301,151.87998962402344 6.689999580383301,129.3300018310547 6.689999580383301,129.3300018310547 C6.689999580383301,129.3300018310547 28.700000762939453,129.3300018310547 28.700000762939453,129.3300018310547z"></path></g></g><g id="Layer_1-2" transform="matrix(0.33785128593444824,-0.1739644706249237,0.1739644706249237,0.33785128593444824,94.76591491699219,172.0789337158203)" opacity="1" style="display: block;"><g opacity="1" transform="matrix(1,0,0,1,0,0)"><path fill="rgb(208,208,208)" fill-opacity="1" d=" M0,35.83000183105469 C0,35.83000183105469 21.360000610351562,40.79999923706055 21.360000610351562,40.79999923706055 C21.360000610351562,40.79999923706055 25.940000534057617,21.1200008392334 44.65999984741211,25.110000610351562 C54.380001068115234,27.18000030517578 57.779998779296875,35.29999923706055 58.58000183105469,41.11000061035156 C59.5099983215332,47.849998474121094 57.150001525878906,54.7400016784668 52.63999938964844,59.7400016784668 C47.4900016784668,65.44999694824219 38.16999816894531,69.55999755859375 24.420000076293945,63.43000030517578 C24.420000076293945,63.43000030517578 12.130000114440918,116.2699966430664 12.130000114440918,116.2699966430664 C12.130000114440918,116.2699966430664 33.25,121.18000030517578 33.25,121.18000030517578 C33.25,121.18000030517578 40.45000076293945,90.2300033569336 40.45000076293945,90.2300033569336 C40.45000076293945,90.2300033569336 72.02999877929688,88.72000122070312 80.36000061035156,52.900001525878906 C88.33000183105469,18.6200008392334 62.18000030517578,4.139999866485596 50.189998626708984,1.350000023841858 C41.02000045776367,-0.7799999713897705 9.220000267028809,-5.610000133514404 0,35.83000183105469 C0,35.83000183105469 0,35.83000183105469 0,35.83000183105469z"></path></g><g opacity="1" transform="matrix(0.9739759564399719,0.22665131092071533,-0.22665131092071533,0.9739759564399719,32.31999969482422,-0.34999847412109375)"><path fill="rgb(208,208,208)" fill-opacity="1" d=" M28.700000762939453,129.3300018310547 C28.700000762939453,129.3300018310547 28.700000762939453,151.87998962402344 28.700000762939453,151.87998962402344 C28.700000762939453,151.87998962402344 6.689999580383301,151.87998962402344 6.689999580383301,151.87998962402344 C6.689999580383301,151.87998962402344 6.689999580383301,129.3300018310547 6.689999580383301,129.3300018310547 C6.689999580383301,129.3300018310547 28.700000762939453,129.3300018310547 28.700000762939453,129.3300018310547z"></path></g></g><g id="Layer_1-2" transform="matrix(0.2904650866985321,0,0,0.2904650866985321,44.25303649902344,59.032814025878906)" opacity="1" style="display: block;"><g opacity="1" transform="matrix(1,0,0,1,0,0)"><path fill="rgb(88,88,88)" fill-opacity="1" d=" M15.550000190734863,127.86000061035156 C15.550000190734863,127.86000061035156 53.65999984741211,106.7300033569336 53.65999984741211,106.7300033569336 C53.65999984741211,106.7300033569336 34.189998626708984,71.62000274658203 67.0999984741211,52.54999923706055 C84.19000244140625,42.650001525878906 100.02999877929688,50.09000015258789 108.94000244140625,57.59000015258789 C119.29000091552734,66.29000091552734 124.98999786376953,79.58999633789062 125.01000213623047,92.95999908447266 C125.02999877929688,108.23999786376953 116.76000213623047,126.72000122070312 88.31999969482422,136 C88.31999969482422,136 140.60000610351562,230.2899932861328 140.60000610351562,230.2899932861328 C140.60000610351562,230.2899932861328 178.2899932861328,209.38999938964844 178.2899932861328,209.38999938964844 C178.2899932861328,209.38999938964844 147.66000366210938,154.16000366210938 147.66000366210938,154.16000366210938 C147.66000366210938,154.16000366210938 192.1999969482422,109.86000061035156 156.75999450683594,45.95000076293945 C122.8499984741211,-15.210000038146973 65,-1.7000000476837158 43.599998474121094,10.170000076293945 C27.25,19.239999771118164 -26.079999923706055,54.47999954223633 15.550000190734863,127.86000061035156 C15.550000190734863,127.86000061035156 15.550000190734863,127.86000061035156 15.550000190734863,127.86000061035156z"></path></g><g opacity="1" transform="matrix(0.874535083770752,-0.48496225476264954,0.48496225476264954,0.874535083770752,-102.73999786376953,120.36000061035156)"><path fill="rgb(88,88,88)" fill-opacity="1" d=" M203.12001037597656,236.35000610351562 C203.12001037597656,236.35000610351562 203.12001037597656,281.1700134277344 203.12001037597656,281.1700134277344 C203.12001037597656,281.1700134277344 159.38999938964844,281.1700134277344 159.38999938964844,281.1700134277344 C159.38999938964844,281.1700134277344 159.38999938964844,236.35000610351562 159.38999938964844,236.35000610351562 C159.38999938964844,236.35000610351562 203.12001037597656,236.35000610351562 203.12001037597656,236.35000610351562z"></path></g></g><g id="Layer_1-2" transform="matrix(0.3583339750766754,0,0,0.3583339750766754,205.86534118652344,52.72273254394531)" opacity="1" style="display: block;"><g opacity="1" transform="matrix(1,0,0,1,0,0)"><path fill="rgb(245,245,245)" fill-opacity="1" d=" M0,35.83000183105469 C0,35.83000183105469 21.360000610351562,40.79999923706055 21.360000610351562,40.79999923706055 C21.360000610351562,40.79999923706055 25.940000534057617,21.1200008392334 44.65999984741211,25.110000610351562 C54.380001068115234,27.18000030517578 57.779998779296875,35.29999923706055 58.58000183105469,41.11000061035156 C59.5099983215332,47.849998474121094 57.150001525878906,54.7400016784668 52.63999938964844,59.7400016784668 C47.4900016784668,65.44999694824219 38.16999816894531,69.55999755859375 24.420000076293945,63.43000030517578 C24.420000076293945,63.43000030517578 12.130000114440918,116.2699966430664 12.130000114440918,116.2699966430664 C12.130000114440918,116.2699966430664 33.25,121.18000030517578 33.25,121.18000030517578 C33.25,121.18000030517578 40.45000076293945,90.2300033569336 40.45000076293945,90.2300033569336 C40.45000076293945,90.2300033569336 72.02999877929688,88.72000122070312 80.36000061035156,52.900001525878906 C88.33000183105469,18.6200008392334 62.18000030517578,4.139999866485596 50.189998626708984,1.350000023841858 C41.02000045776367,-0.7799999713897705 9.220000267028809,-5.610000133514404 0,35.83000183105469 C0,35.83000183105469 0,35.83000183105469 0,35.83000183105469z"></path></g><g opacity="1" transform="matrix(0.9739759564399719,0.22665131092071533,-0.22665131092071533,0.9739759564399719,32.31999969482422,-0.3499999940395355)"><path fill="rgb(245,245,245)" fill-opacity="1" d=" M28.700000762939453,129.3300018310547 C28.700000762939453,129.3300018310547 28.700000762939453,151.87998962402344 28.700000762939453,151.87998962402344 C28.700000762939453,151.87998962402344 6.689999580383301,151.87998962402344 6.689999580383301,151.87998962402344 C6.689999580383301,151.87998962402344 6.689999580383301,129.3300018310547 6.689999580383301,129.3300018310547 C6.689999580383301,129.3300018310547 28.700000762939453,129.3300018310547 28.700000762939453,129.3300018310547z"></path></g></g></g></g></svg>